<?xml version="1.0" encoding="utf-8"?>
<!-- Generator: Adobe Illustrator 16.0.0, SVG Export Plug-In . SVG Version: 6.00 Build 0)  -->
<!DOCTYPE svg PUBLIC "-//W3C//DTD SVG 1.1//EN" "http://www.w3.org/Graphics/SVG/1.1/DTD/svg11.dtd">
<svg version="1.1" xmlns="http://www.w3.org/2000/svg" xmlns:xlink="http://www.w3.org/1999/xlink" x="0px" y="0px" width="500px"
	 height="500px" viewBox="0 0 500 500" enable-background="new 0 0 500 500" xml:space="preserve">
<g id="Warstwa_1" display="none">
	
		<rect x="73.223" y="73.223" transform="matrix(0.7071 0.7071 -0.7071 0.7071 250 -103.5534)" display="inline" fill="#3DB8E8" width="353.553" height="353.553"/>
	<g display="inline">
		<path fill="#2062AF" d="M324.459,354.546l-74.993,20.192l-74.994-20.192l-17.306-187.483h184.599L324.459,354.546z"/>
		<path fill="#3C9CD7" d="M249.466,182.249v176.384l0.169,0.045l60.688-16.341l14.009-160.088H249.466L249.466,182.249z"/>
		<path d="M206.905,139.518v-11.159h16.281v-12.21h-28.491v34.512h28.491v-11.143H206.905z M252.473,128.359h11.382v-12.21h-28.493
			v12.21c3.813,3.813,5.8,5.638,11.313,11.15c-3.223,0-11.313,0.012-11.313,0.011v11.14h28.493v-11.143L252.473,128.359
			L252.473,128.359z M292.858,128.359h11.381v-12.21h-28.494v12.21c3.812,3.813,5.801,5.638,11.314,11.15
			c-3.223,0-11.314,0.012-11.314,0.011v11.14h28.495v-11.143L292.858,128.359L292.858,128.359z"/>
		<path fill="#FFFFFF" d="M249.399,229.127l-53.675,22.353l1.78,22.133l51.895-22.188l55.202-23.602l2.289-22.64L249.399,229.127
			L249.399,229.127z"/>
		
			<linearGradient id="SVGID_1_" gradientUnits="userSpaceOnUse" x1="-986.9434" y1="-1062.2256" x2="-986.9434" y2="-1071.8091" gradientTransform="matrix(4.6418 0 0 4.6418 4803.7559 5204.25)">
			<stop  offset="0.387" style="stop-color:#D1D3D4;stop-opacity:0"/>
			<stop  offset="1" style="stop-color:#D1D3D4"/>
		</linearGradient>
		<path fill="url(#SVGID_1_)" d="M195.724,251.48l1.78,22.133l51.895-22.188v-22.297L195.724,251.48z"/>
		
			<linearGradient id="SVGID_2_" gradientUnits="userSpaceOnUse" x1="-974.9688" y1="-1067.0054" x2="-974.9688" y2="-1076.9678" gradientTransform="matrix(4.6418 0 0 4.6418 4803.7559 5204.25)">
			<stop  offset="0.387" style="stop-color:#D1D3D4;stop-opacity:0"/>
			<stop  offset="1" style="stop-color:#D1D3D4"/>
		</linearGradient>
		<path fill="url(#SVGID_2_)" d="M306.891,205.183l-57.491,23.944v22.297l55.202-23.602L306.891,205.183z"/>
		
			<linearGradient id="SVGID_3_" gradientUnits="userSpaceOnUse" x1="-992.7075" y1="-1057.9507" x2="-969.6895" y2="-1057.9507" gradientTransform="matrix(4.6418 0 0 4.6418 4803.7559 5204.25)">
			<stop  offset="0" style="stop-color:#E8E7E5"/>
			<stop  offset="1" style="stop-color:#FFFFFF"/>
		</linearGradient>
		<path fill="url(#SVGID_3_)" d="M195.807,251.48l1.78,22.133l79.625,0.254l-1.78,29.51l-26.201,7.376l-25.188-6.36l-1.526-18.315
			h-23.403l3.053,35.36l47.318,13.99l47.062-13.737l6.106-70.21H195.807z"/>
		<path opacity="0.05" enable-background="new    " d="M249.399,251.48h-53.675l1.78,22.133l51.895,0.167V251.48L249.399,251.48z
			 M249.399,310.683l-0.254,0.071l-25.184-6.359l-1.526-18.316h-23.403l3.052,35.359l47.315,13.991V310.683z"/>
		
			<linearGradient id="SVGID_4_" gradientUnits="userSpaceOnUse" x1="-993.7666" y1="-1074.5283" x2="-968.7764" y2="-1074.5283" gradientTransform="matrix(4.6418 0 0 4.6418 4803.7559 5204.25)">
			<stop  offset="0" style="stop-color:#E8E7E5"/>
			<stop  offset="1" style="stop-color:#FFFFFF"/>
		</linearGradient>
		<path fill="url(#SVGID_4_)" d="M190.891,205.183h116l-2.289,22.641H193.689L190.891,205.183L190.891,205.183z"/>
		<path opacity="0.05" enable-background="new    " d="M249.399,205.183h-58.509l2.798,22.641h55.71V205.183L249.399,205.183z"/>
	</g>
</g>
<g id="Warstwa_2" display="none">
	
		<rect x="73.223" y="73.224" transform="matrix(0.7071 0.7071 -0.7071 0.7071 249.9998 -103.5533)" display="inline" fill="#FC7B3A" width="353.553" height="353.553"/>
	<g display="inline">
		<path fill="#E44D26" d="M173.842,355.936l-16.828-188.742h184.908l-16.847,188.712l-75.721,20.993L173.842,355.936z"/>
		<path fill="#F16529" d="M249.468,360.854l61.186-16.965l14.396-161.262h-75.582V360.854z"/>
		<path fill="#EBEBEB" d="M249.468,252.629h-30.631l-2.116-23.705h32.747v-23.149h-58.045l0.554,6.211l5.69,63.791h51.802V252.629z
			 M249.468,312.749l-0.102,0.024l-25.781-6.96l-1.648-18.46H198.7l3.244,36.346l47.418,13.161l0.106-0.029V312.749z"/>
		<path d="M174.218,115.902h11.763v11.622h10.761v-11.622h11.764v35.195h-11.764v-11.786h-10.761v11.786h-11.762L174.218,115.902z
			 M223.976,127.575h-10.355v-11.672h32.482v11.672h-10.36v23.522h-11.766V127.575L223.976,127.575z M251.257,115.902h12.268
			l7.544,12.366l7.539-12.366h12.272v35.195h-11.718v-17.445l-8.094,12.515h-0.203l-8.099-12.515v17.445h-11.51V115.902
			L251.257,115.902z M296.732,115.902h11.767v23.563h16.545v11.632h-28.312V115.902z"/>
		<path fill="#FFFFFF" d="M249.387,252.629v23.147h28.506l-2.688,30.023l-25.818,6.967v24.085l47.457-13.152l0.347-3.912
			l5.44-60.941l0.565-6.217h-6.238H249.387z M249.387,205.775v23.149h55.916l0.463-5.203l1.055-11.735l0.556-6.211H249.387z"/>
	</g>
</g>
<g id="Warstwa_3" display="none">
	
		<rect x="73.223" y="73.224" transform="matrix(0.7071 0.7071 -0.7071 0.7071 249.9998 -103.5533)" display="inline" fill="#FFE97B" width="353.553" height="353.553"/>
	<path display="inline" fill="#F7DF1E" d="M146.066,146.066h207.867v207.867H146.066V146.066z"/>
	<path display="inline" d="M200.723,319.775l15.907-9.627c3.069,5.44,5.861,10.046,12.557,10.046
		c6.419,0,10.466-2.511,10.466-12.277v-66.419h19.535v66.694c0,20.232-11.86,29.442-29.164,29.442
		c-15.626,0-24.697-8.094-29.302-17.861 M269.797,317.683l15.906-9.21c4.187,6.839,9.628,11.861,19.256,11.861
		c8.094,0,13.255-4.047,13.255-9.628c0-6.697-5.302-9.07-14.231-12.976l-4.883-2.096c-14.094-5.997-23.441-13.533-23.441-29.439
		c0-14.651,11.161-25.814,28.604-25.814c12.418,0,21.349,4.326,27.767,15.628l-15.21,9.769c-3.35-6-6.976-8.371-12.558-8.371
		c-5.722,0-9.349,3.628-9.349,8.371c0,5.859,3.627,8.233,11.999,11.861l4.884,2.092c16.604,7.117,25.953,14.373,25.953,30.697
		c0,17.582-13.813,27.209-32.371,27.209C287.237,337.637,275.517,328.985,269.797,317.683"/>
</g>
<g id="Warstwa_4" display="none">
	
		<rect x="73.223" y="73.224" transform="matrix(0.7071 0.7071 -0.7071 0.7071 249.9998 -103.5533)" display="inline" fill="#53C1DE" width="353.553" height="353.553"/>
	<path display="inline" fill="#FFFFFF" d="M110.176,249.548c0,21.119,20.623,40.835,53.135,51.947
		c-6.493,32.685-1.163,59.029,16.636,69.295c18.295,10.551,45.551,3.247,71.421-19.367c25.217,21.701,50.702,30.241,68.485,19.947
		c18.279-10.582,23.837-38.712,17.166-72.418c33.863-11.195,52.806-28.007,52.806-49.404c0-20.629-20.66-38.476-52.734-49.518
		c7.183-35.098,1.097-60.803-17.439-71.492c-17.871-10.306-43.653-1.324-69.241,20.944c-26.621-23.635-52.147-30.851-70.665-20.132
		c-17.854,10.335-22.949,37.159-16.435,70.448C131.896,210.751,110.176,229.002,110.176,249.548z"/>
	<path display="inline" fill="#53C1DE" d="M330.298,210.995c-2.643-0.907-5.31-1.747-7.994-2.519
		c0.444-1.81,0.856-3.627,1.235-5.453c6.051-29.377,2.095-53.044-11.418-60.834c-12.956-7.472-34.145,0.319-55.544,18.941
		c-2.109,1.839-4.171,3.731-6.184,5.675c-1.348-1.292-2.72-2.56-4.115-3.801c-22.428-19.914-44.908-28.305-58.406-20.491
		c-12.943,7.493-16.777,29.743-11.329,57.583c0.542,2.757,1.154,5.5,1.836,8.226c-3.181,0.904-6.253,1.867-9.192,2.891
		c-26.293,9.167-43.086,23.535-43.086,38.437c0,15.392,18.025,30.831,45.414,40.19c2.221,0.756,4.46,1.455,6.716,2.101
		c-0.733,2.936-1.384,5.893-1.951,8.866c-5.194,27.356-1.138,49.079,11.771,56.525c13.333,7.688,35.712-0.215,57.503-19.263
		c1.722-1.506,3.451-3.102,5.182-4.776c2.18,2.104,4.419,4.146,6.713,6.126c21.107,18.162,41.953,25.497,54.852,18.031
		c13.321-7.712,17.649-31.048,12.029-59.438c-0.429-2.169-0.929-4.384-1.49-6.64c1.572-0.463,3.114-0.942,4.619-1.441
		c28.472-9.433,46.995-24.684,46.995-40.281C374.454,234.693,357.121,220.229,330.298,210.995L330.298,210.995z"/>
	<path display="inline" fill="#FFFFFF" d="M324.122,279.859c-1.357,0.449-2.751,0.884-4.171,1.305
		c-3.144-9.95-7.387-20.531-12.576-31.462c4.953-10.673,9.031-21.118,12.087-31.004c2.54,0.736,5.007,1.512,7.383,2.33
		c22.983,7.91,37,19.608,37,28.621c0,9.601-15.14,22.065-39.721,30.21H324.122z M313.923,300.071
		c2.484,12.555,2.84,23.905,1.193,32.778c-1.479,7.973-4.454,13.288-8.132,15.417c-7.827,4.53-24.565-1.359-42.615-16.892
		c-2.069-1.78-4.153-3.682-6.245-5.693c6.999-7.654,13.992-16.552,20.817-26.434c12.007-1.065,23.35-2.808,33.637-5.185
		C313.083,296.107,313.534,298.111,313.923,300.071L313.923,300.071z M210.77,347.483c-7.647,2.701-13.737,2.778-17.418,0.655
		c-7.834-4.517-11.09-21.961-6.648-45.355c0.528-2.765,1.133-5.514,1.813-8.245c10.172,2.25,21.433,3.869,33.468,4.845
		c6.871,9.669,14.066,18.557,21.318,26.34c-1.541,1.491-3.119,2.943-4.731,4.356C228.936,338.503,219.28,344.478,210.77,347.483
		L210.77,347.483z M174.946,279.801c-12.11-4.141-22.111-9.52-28.966-15.389c-6.16-5.275-9.27-10.513-9.27-14.763
		c0-9.042,13.483-20.578,35.97-28.418c2.822-0.979,5.673-1.877,8.548-2.689c3.108,10.108,7.185,20.677,12.104,31.365
		c-4.983,10.847-9.118,21.584-12.255,31.813C179.018,281.13,176.974,280.49,174.946,279.801z M186.955,198.059
		c-4.668-23.854-1.568-41.848,6.232-46.363c8.31-4.81,26.682,2.049,46.045,19.242c1.238,1.1,2.481,2.25,3.726,3.44
		c-7.214,7.748-14.345,16.568-21.156,26.181c-11.68,1.083-22.862,2.822-33.141,5.151c-0.633-2.536-1.203-5.088-1.707-7.652V198.059z
		 M294.084,224.511c-2.43-4.194-4.946-8.335-7.553-12.42c7.925,1,15.516,2.33,22.645,3.958c-2.14,6.859-4.807,14.033-7.948,21.385
		C298.933,233.079,296.551,228.771,294.084,224.511L294.084,224.511z M250.396,181.959c4.893,5.301,9.794,11.221,14.615,17.644
		c-9.779-0.463-19.574-0.465-29.354-0.007C240.483,193.233,245.426,187.322,250.396,181.959z M206.43,224.583
		c-2.437,4.226-4.774,8.508-7.01,12.843c-3.09-7.328-5.733-14.533-7.892-21.49c7.086-1.585,14.643-2.882,22.516-3.866
		C211.408,216.181,208.869,220.354,206.43,224.583z M214.27,287.984c-8.133-0.908-15.804-2.138-22.888-3.681
		c2.193-7.08,4.895-14.439,8.05-21.925c2.246,4.338,4.594,8.623,7.042,12.851C208.97,279.543,211.569,283.795,214.27,287.984z
		 M250.69,318.088c-5.028-5.427-10.044-11.428-14.943-17.883c4.755,0.187,9.604,0.282,14.531,0.282
		c5.062,0,10.066-0.114,14.993-0.333C260.434,306.727,255.55,312.736,250.69,318.088z M301.329,261.998
		c3.319,7.565,6.117,14.886,8.34,21.847c-7.201,1.644-14.976,2.967-23.168,3.949c2.626-4.161,5.168-8.375,7.625-12.638
		C296.624,270.823,299.026,266.437,301.329,261.998L301.329,261.998z M284.936,269.856c-3.762,6.535-7.735,12.946-11.914,19.224
		c-7.369,0.526-14.983,0.798-22.744,0.798c-7.728,0-15.246-0.241-22.486-0.71c-4.287-6.263-8.336-12.685-12.138-19.254
		c-3.784-6.533-7.318-13.208-10.595-20.01c3.269-6.804,6.792-13.483,10.563-20.021v0.002c3.77-6.541,7.787-12.936,12.042-19.171
		c7.386-0.558,14.959-0.851,22.614-0.851c7.69,0,15.272,0.294,22.657,0.857c4.211,6.226,8.203,12.598,11.966,19.106
		c3.783,6.524,7.354,13.17,10.706,19.927C292.29,256.579,288.73,263.284,284.936,269.856L284.936,269.856z M306.822,151.38
		c8.315,4.797,11.551,24.138,6.325,49.502c-0.343,1.652-0.715,3.299-1.116,4.938c-10.304-2.377-21.493-4.147-33.207-5.246
		c-6.825-9.717-13.896-18.553-20.994-26.201c1.86-1.793,3.766-3.54,5.711-5.238C281.877,153.177,299.014,146.877,306.822,151.38
		L306.822,151.38z"/>
	<path display="inline" fill="#53C1DE" d="M250.278,227.473c12.249,0,22.177,9.929,22.177,22.176
		c0,12.249-9.929,22.178-22.177,22.178c-12.248,0-22.177-9.93-22.177-22.178C228.101,237.402,238.03,227.473,250.278,227.473"/>
</g>
<g id="Warstwa_5" display="none">
	
		<rect x="73.223" y="73.224" transform="matrix(0.7071 0.7071 -0.7071 0.7071 249.9998 -103.5533)" display="inline" fill="#AE94FF" width="353.553" height="353.553"/>
	<path display="inline" fill="#764ABC" d="M301.695,280.476c9.891-1.022,17.394-9.55,17.052-19.781
		c-0.341-10.231-8.867-18.416-19.098-18.416h-0.682c-10.574,0.341-18.757,9.208-18.417,19.78c0.341,5.116,2.387,9.549,5.456,12.619
		c-11.594,22.852-29.328,39.562-55.93,53.546c-18.075,9.55-36.831,12.959-55.588,10.572c-15.348-2.046-27.284-8.867-34.788-20.122
		c-10.912-16.712-11.935-34.788-2.728-52.863c6.48-12.961,16.71-22.511,23.19-27.284c-1.364-4.435-3.41-11.937-4.433-17.394
		c-49.452,35.811-44.336,84.24-29.331,107.091c11.254,17.053,34.105,27.626,59.342,27.626c6.821,0,13.641-0.683,20.461-2.387
		C249.857,344.935,282.939,319.014,301.695,280.476L301.695,280.476z M361.72,238.186c-25.919-30.354-64.116-47.065-107.771-47.065
		h-5.455c-3.069-6.139-9.55-10.232-16.712-10.232H231.1c-10.571,0.342-18.756,9.208-18.416,19.782
		c0.342,10.23,8.868,18.417,19.098,18.417h0.681c7.503-0.341,13.984-5.116,16.711-11.596h6.14c25.919,0,50.474,7.502,72.642,22.168
		c17.053,11.254,29.331,25.921,36.15,43.654c5.798,14.325,5.456,28.308-0.683,40.246c-9.548,18.074-25.577,27.966-46.722,27.966
		c-13.642,0-26.602-4.094-33.422-7.163c-3.752,3.412-10.573,8.867-15.348,12.279c14.665,6.82,29.671,10.572,43.995,10.572
		c32.74,0,56.953-18.076,66.161-36.151C387.979,301.279,387.297,267.175,361.72,238.186L361.72,238.186z M188.471,286.272
		c0.341,10.232,8.866,18.417,19.098,18.417h0.683c10.571-0.341,18.756-9.209,18.416-19.78c-0.341-10.232-8.867-18.417-19.098-18.417
		h-0.683c-0.683,0-1.706,0-2.387,0.34c-13.982-23.191-19.78-48.428-17.734-75.713c1.364-20.463,8.185-38.198,20.121-52.864
		c9.891-12.619,28.988-18.757,41.95-19.098c36.148-0.683,51.494,44.336,52.519,62.412c4.434,1.023,11.937,3.411,17.052,5.116
		c-4.092-55.25-38.195-83.898-70.936-83.898c-30.694,0-59,22.168-70.255,54.909c-15.688,43.655-5.456,85.604,13.642,118.686
		c-1.704,2.389-2.729,6.141-2.387,9.893V286.272z"/>
</g>
<g id="Warstwa_6" display="none">
	
		<rect x="73.223" y="73.224" transform="matrix(0.7071 0.7071 -0.7071 0.7071 249.9998 -103.5533)" display="inline" fill="#F495C9" width="353.553" height="353.553"/>
	<path display="inline" fill="#CF649A" d="M381.357,242.364c-11.226,0.063-20.946,2.76-29.1,6.774
		c-3.011-5.958-6.021-11.164-6.521-15.052c-0.564-4.516-1.254-7.275-0.564-12.668c0.689-5.394,3.825-13.045,3.825-13.672
		c-0.064-0.565-0.69-3.324-7.149-3.387c-6.459-0.063-12.042,1.254-12.669,2.947c-0.626,1.693-1.881,5.582-2.697,9.596
		c-1.128,5.895-12.919,26.779-19.629,37.754c-2.194-4.266-4.077-8.028-4.453-11.039c-0.564-4.515-1.255-7.275-0.564-12.668
		c0.689-5.394,3.826-13.044,3.826-13.672c-0.063-0.564-0.69-3.324-7.148-3.387c-6.461-0.063-12.042,1.255-12.669,2.948
		s-1.316,5.707-2.696,9.595c-1.317,3.889-16.997,38.758-21.073,47.852c-2.069,4.641-3.888,8.341-5.205,10.85
		c-1.316,2.509-0.063,0.188-0.188,0.439c-1.129,2.132-1.757,3.324-1.757,3.324v0.063c-0.878,1.567-1.818,3.072-2.259,3.072
		c-0.313,0-0.939-4.202,0.126-9.971c2.32-12.104,7.964-30.98,7.903-31.671c0-0.313,1.064-3.639-3.639-5.331
		c-4.578-1.693-6.208,1.129-6.585,1.129c-0.376,0-0.689,1.004-0.689,1.004s5.08-21.26-9.721-21.26
		c-9.282,0-22.075,10.097-28.409,19.316c-4.014,2.194-12.543,6.835-21.574,11.79c-3.45,1.882-7.024,3.889-10.411,5.707l-0.689-0.754
		c-17.936-19.128-51.112-32.675-49.732-58.388c0.501-9.344,3.763-33.991,63.718-63.843c49.105-24.459,88.428-17.749,95.263-2.823
		c9.721,21.323-21.01,60.959-72.059,66.666c-19.442,2.195-29.665-5.33-32.235-8.153c-2.697-2.947-3.073-3.073-4.077-2.508
		c-1.63,0.877-0.627,3.512,0,5.08c1.505,3.951,7.777,10.975,18.438,14.487c9.344,3.073,32.173,4.766,59.767-5.895
		c30.919-11.978,55.064-45.217,47.978-73c-7.212-28.284-54.123-37.566-98.462-21.825c-26.404,9.408-55.001,24.083-75.572,43.336
		c-24.459,22.828-28.347,42.771-26.716,51.049c5.708,29.539,46.409,48.792,62.714,63.028c-0.815,0.438-1.568,0.878-2.258,1.254
		c-8.152,4.014-39.196,20.258-46.973,37.44c-8.78,19.441,1.38,33.428,8.153,35.31c20.947,5.832,42.395-4.641,53.998-21.888
		c11.539-17.246,10.16-39.636,4.829-49.858l-0.189-0.376l6.396-3.764c4.14-2.445,8.217-4.703,11.791-6.648
		c-2.006,5.457-3.449,11.916-4.201,21.324c-0.878,11.038,3.637,25.336,9.595,30.98c2.634,2.445,5.77,2.509,7.714,2.509
		c6.898,0,10.034-5.708,13.483-12.543c4.265-8.342,8.027-17.999,8.027-17.999s-4.703,26.152,8.153,26.152
		c4.703,0,9.407-6.084,11.539-9.22v0.063c0,0,0.125-0.188,0.377-0.626c0.263-0.391,0.514-0.787,0.752-1.191v-0.126
		c1.882-3.261,6.084-10.725,12.355-23.078c8.089-15.93,15.866-35.873,15.866-35.873s0.753,4.892,3.073,12.919
		c1.379,4.767,4.389,9.972,6.71,15.051c-1.882,2.635-3.011,4.141-3.011,4.141l0.063,0.063c-1.505,2.007-3.198,4.14-4.954,6.271
		c-6.396,7.65-14.048,16.369-15.051,18.878c-1.191,2.946-0.94,5.142,1.379,6.898c1.694,1.254,4.704,1.505,7.903,1.254
		c5.769-0.377,9.783-1.818,11.79-2.697c3.136-1.129,6.71-2.822,10.159-5.33c6.271-4.641,10.098-11.226,9.721-20.006
		c-0.188-4.829-1.756-9.595-3.699-14.11c0.563-0.815,1.129-1.631,1.692-2.509c9.909-14.487,17.561-30.417,17.561-30.417
		s0.753,4.893,3.072,12.919c1.191,4.077,3.575,8.53,5.708,12.921c-9.282,7.588-15.114,16.368-17.121,22.138
		c-3.701,10.661-0.815,15.491,4.641,16.619c2.445,0.502,5.958-0.627,8.591-1.756c3.261-1.065,7.212-2.885,10.851-5.582
		c6.271-4.641,12.292-11.1,11.979-19.817c-0.188-4.014-1.255-7.964-2.696-11.728c7.901-3.261,18.123-5.143,31.105-3.574
		c27.908,3.261,33.428,20.695,32.361,27.97c-1.065,7.276-6.898,11.289-8.843,12.543c-1.945,1.191-2.571,1.632-2.383,2.51
		c0.25,1.317,1.128,1.254,2.821,1.004c2.321-0.378,14.675-5.959,15.177-19.379C426.763,260.991,410.395,242.177,381.357,242.364
		L381.357,242.364z M166.121,314.925c-9.219,10.098-22.201,13.923-27.72,10.662c-5.958-3.449-3.638-18.313,7.714-29.037
		c6.898-6.522,15.867-12.543,21.762-16.243c1.317-0.815,3.324-2.006,5.707-3.449c0.376-0.25,0.627-0.376,0.627-0.376
		c0.438-0.251,0.94-0.564,1.442-0.879C179.856,290.905,175.842,304.327,166.121,314.925L166.121,314.925z M233.54,269.081
		c-3.199,7.84-9.972,27.971-14.048,26.841c-3.513-0.939-5.644-16.18-0.691-31.23c2.509-7.59,7.84-16.62,10.975-20.133
		c5.081-5.645,10.599-7.525,11.979-5.205C243.385,242.364,235.546,264.189,233.54,269.081z M289.167,295.672
		c-1.38,0.69-2.634,1.191-3.198,0.816c-0.439-0.251,0.563-1.191,0.563-1.191s6.962-7.464,9.721-10.913
		c1.567-2.006,3.449-4.327,5.456-6.961v0.753C301.71,287.206,293.056,293.226,289.167,295.672L289.167,295.672z M332.063,285.888
		c-1.003-0.752-0.877-3.072,2.509-10.348c1.318-2.885,4.327-7.714,9.533-12.291c0.627,1.881,1.004,3.699,0.94,5.393
		C344.983,279.931,336.955,284.132,332.063,285.888z"/>
</g>
<g id="Warstwa_7" display="none">
	
		<rect x="73.223" y="73.224" transform="matrix(0.7071 0.7071 -0.7071 0.7071 249.9998 -103.5533)" display="inline" fill="#121966" width="353.553" height="353.553"/>
	
		<radialGradient id="SVGID_5_" cx="-182.9502" cy="172.1948" r="0.068" gradientTransform="matrix(2291.6716 0 0 -2218.7549 419476 382252)" gradientUnits="userSpaceOnUse">
		<stop  offset="0" style="stop-color:#34364E;stop-opacity:0.98"/>
		<stop  offset="1" style="stop-color:#0C0824"/>
	</radialGradient>
	<path display="inline" fill="url(#SVGID_5_)" d="M147.521,150.316h204.958v199.369H147.521V150.316z"/>
	<path display="inline" fill="#31C5F0" d="M147.521,150.316h204.958v199.369H147.521V150.316z M138.205,359.001h223.59V141h-223.59
		V359.001z M288.941,230.436c-7.359,0-9.873,3.727-9.873,6.802c0,3.353,1.675,5.683,11.552,10.807
		c14.625,7.081,19.191,13.88,19.191,23.849c0,14.905-11.366,22.918-26.737,22.918c-8.106,0-15.094-1.678-19.101-4.006
		c-0.651-0.28-0.744-0.744-0.744-1.49V275.62c0-0.931,0.466-1.212,1.118-0.745c5.869,3.819,12.575,5.497,18.727,5.497
		c7.358,0,10.433-3.074,10.433-7.267c0-3.355-2.143-6.337-11.553-11.181c-13.23-6.334-18.725-12.763-18.725-23.476
		c0-12.02,9.41-21.988,25.712-21.988c8.012,0,13.603,1.212,16.677,2.609c0.745,0.465,0.932,1.211,0.932,1.862v12.763
		c0,0.746-0.466,1.211-1.398,0.933C301.054,232.02,294.998,230.436,288.941,230.436L288.941,230.436z M208.822,241.523
		c2.143,0.185,3.82,0.185,7.546,0.185c10.9,0,21.148-3.819,21.148-18.631c0-11.833-7.36-17.795-19.751-17.795
		c-3.726,0-7.267,0.187-8.944,0.279V241.523z M192.239,192.054c0-0.653,1.305-1.119,2.049-1.119
		c5.962-0.279,14.813-0.465,24.037-0.465c25.806,0,35.866,14.16,35.866,32.234c0,23.663-17.141,33.819-38.196,33.819
		c-3.54,0-4.751-0.188-7.267-0.188v35.774c0,0.746-0.279,1.118-1.118,1.118h-14.254c-0.745,0-1.118-0.279-1.118-1.118
		L192.239,192.054L192.239,192.054z"/>
</g>
<g id="Warstwa_8" display="none">
	
		<rect x="73.223" y="73.224" transform="matrix(0.7071 0.7071 -0.7071 0.7071 249.9998 -103.5533)" display="inline" fill="#AF5504" width="353.553" height="353.553"/>
	
		<radialGradient id="SVGID_6_" cx="-182.9502" cy="172.1948" r="0.068" gradientTransform="matrix(2291.6716 0 0 -2218.7549 419476 382252)" gradientUnits="userSpaceOnUse">
		<stop  offset="0" style="stop-color:#423325;stop-opacity:0.98"/>
		<stop  offset="1" style="stop-color:#1C0A00"/>
	</radialGradient>
	<path display="inline" fill="url(#SVGID_6_)" d="M147.521,150.316h204.958v199.368H147.521V150.316z"/>
	<path display="inline" fill="#FF7F18" d="M147.521,150.316h204.958v199.368H147.521V150.316z M138.205,359.001h223.59V141h-223.59
		V359.001z M284.655,218.698c0-0.745,0.279-1.118,1.119-1.118H300.4c0.744,0,1.117,0.279,1.117,1.118v73.506
		c0,0.744-0.187,1.117-1.117,1.117h-14.44c-0.932,0-1.21-0.466-1.21-1.211v-73.413H284.655L284.655,218.698z M283.631,197.55
		c0-5.963,4.192-9.503,9.503-9.503c5.684,0,9.503,3.82,9.503,9.503c0,6.149-4.006,9.502-9.689,9.502
		C287.544,207.053,283.631,203.699,283.631,197.55z M241.708,249.349c-2.608-10.341-8.757-32.887-11.086-43.787h-0.187
		c-1.957,10.9-6.894,29.346-10.807,43.787H241.708z M215.809,264.441l-7.36,27.949c-0.187,0.744-0.465,0.931-1.396,0.931h-13.695
		c-0.932,0-1.118-0.28-0.932-1.397l26.458-92.604c0.466-1.676,0.746-3.167,0.932-7.732c0-0.652,0.28-0.931,0.745-0.931h19.563
		c0.652,0,0.933,0.186,1.119,0.931l29.625,100.522c0.186,0.745,0,1.212-0.746,1.212h-15.466c-0.744,0-1.21-0.187-1.396-0.839
		l-7.639-28.041H215.809L215.809,264.441z"/>
</g>
<g id="Warstwa_9" display="none">
	
		<rect x="73.223" y="73.224" transform="matrix(0.7071 0.7071 -0.7071 0.7071 249.9998 -103.5533)" display="inline" fill="#FCE37C" width="353.553" height="353.553"/>
	
		<linearGradient id="SVGID_7_" gradientUnits="userSpaceOnUse" x1="1.0908" y1="500.8418" x2="1.1752" y2="500.7581" gradientTransform="matrix(1849.2675 0 0 -1853.392 -1894 928380)">
		<stop  offset="0" style="stop-color:#387EB8"/>
		<stop  offset="1" style="stop-color:#366994"/>
	</linearGradient>
	<path display="inline" fill="url(#SVGID_7_)" d="M252.015,93.086c-80.086,0-75.086,34.73-75.086,34.73l0.089,35.982h76.424v10.802
		H146.663c0,0-51.247-5.812-51.247,74.994c0,80.809,44.729,77.942,44.729,77.942h26.694v-37.498c0,0-1.439-44.729,44.016-44.729
		h75.8c0,0,42.586,0.688,42.586-41.159v-69.19C329.241,134.96,335.709,93.086,252.015,93.086z M209.873,117.283
		c7.587-0.007,13.742,6.138,13.749,13.724c0,0.008,0,0.017,0,0.024c0.007,7.587-6.138,13.743-13.724,13.749
		c-0.008,0-0.017,0-0.025,0c-7.586,0.007-13.741-6.137-13.748-13.723c0-0.008,0-0.017,0-0.025
		c-0.007-7.586,6.138-13.742,13.724-13.749C209.857,117.283,209.865,117.283,209.873,117.283z"/>
	
		<linearGradient id="SVGID_8_" gradientUnits="userSpaceOnUse" x1="0.7949" y1="501.1279" x2="0.8855" y2="501.0421" gradientTransform="matrix(1849.2671 0 0 -1853.3917 -1250 929007)">
		<stop  offset="0" style="stop-color:#FFE052"/>
		<stop  offset="1" style="stop-color:#FFC331"/>
	</linearGradient>
	<path display="inline" fill="url(#SVGID_8_)" d="M254.288,406.915c80.086,0,75.085-34.729,75.085-34.729l-0.089-35.98h-76.425
		v-10.803h106.778c0,0,51.247,5.813,51.247-74.996c0-80.807-44.729-77.941-44.729-77.941h-26.694v37.497
		c0,0,1.438,44.729-44.016,44.729h-75.799c0,0-42.586-0.688-42.586,41.161v69.191c0,0-6.467,41.872,77.227,41.872H254.288z
		 M296.429,382.721c-7.587,0.007-13.742-6.138-13.748-13.724c0-0.009,0-0.017,0-0.024c-0.009-7.587,6.135-13.743,13.722-13.75
		c0.009,0,0.018,0,0.026,0c7.586-0.007,13.742,6.138,13.749,13.724c0,0.008,0,0.017,0,0.024c0.006,7.586-6.139,13.742-13.725,13.749
		C296.445,382.72,296.437,382.72,296.429,382.721L296.429,382.721z"/>
</g>
<g id="Warstwa_10" display="none">
	
		<rect x="73.223" y="73.224" transform="matrix(0.7071 0.7071 -0.7071 0.7071 249.9998 -103.5533)" display="inline" fill="#8AAFC1" width="353.553" height="353.553"/>
	<path display="inline" fill="none" d="M69.655,125h360.688v250H69.655V125z"/>
	<path display="inline" fill="#5D87A1" d="M183.063,312.907h-9.765c-0.346-16.482-1.296-31.978-2.851-46.498h-0.087l-14.868,46.498
		h-7.433l-14.779-46.498h-0.084c-1.097,13.942-1.787,29.44-2.074,46.498h-8.901c0.573-20.742,2.015-40.188,4.319-58.343h12.103
		l14.086,42.871h0.087l14.173-42.871h11.58C181.105,275.827,182.603,295.276,183.063,312.907 M225.413,269.862
		c-3.976,21.576-9.222,37.253-15.731,47.038c-5.073,7.533-10.631,11.303-16.681,11.303c-1.614,0-3.604-0.487-5.963-1.452v-5.202
		c1.152,0.166,2.505,0.259,4.06,0.259c2.826,0,5.099-0.777,6.831-2.336c2.072-1.897,3.108-4.032,3.108-6.393
		c0-1.618-0.807-4.929-2.419-9.94l-10.716-33.277h9.594l7.69,24.889c1.729,5.651,2.451,9.597,2.162,11.844
		c4.206-11.233,7.142-23.48,8.817-36.734h9.248V269.862z"/>
	<path display="inline" fill="#F8981D" d="M355.394,312.907h-27.737v-58.343h9.331v51.161h18.406V312.907z M320.394,314.317
		l-10.725-5.293c0.95-0.781,1.859-1.627,2.679-2.606c4.56-5.354,6.832-13.273,6.832-23.764c0-19.302-7.573-28.957-22.728-28.957
		c-7.431,0-13.226,2.449-17.373,7.351c-4.553,5.358-6.828,13.249-6.828,23.683c0,10.254,2.015,17.778,6.046,22.551
		c3.691,4.322,9.25,6.487,16.688,6.487c2.774,0,5.32-0.34,7.639-1.024l13.965,8.128L320.394,314.317z M285.65,301.233
		c-2.362-3.801-3.545-9.902-3.545-18.317c0-14.689,4.464-22.042,13.397-22.042c4.671,0,8.095,1.758,10.283,5.269
		c2.359,3.806,3.545,9.854,3.545,18.149c0,14.812-4.467,22.218-13.394,22.218C291.263,306.512,287.842,304.758,285.65,301.233
		 M268.185,296.737c0,4.947-1.815,9.006-5.441,12.186c-3.632,3.166-8.498,4.753-14.6,4.753c-5.705,0-11.238-1.822-16.592-5.449
		l2.506-5.01c4.609,2.308,8.781,3.454,12.526,3.454c3.515,0,6.262-0.778,8.254-2.324c1.992-1.551,3.178-3.727,3.178-6.479
		c0-3.466-2.418-6.428-6.851-8.91c-4.09-2.245-12.267-6.94-12.267-6.94c-4.433-3.229-6.65-6.698-6.65-12.411
		c0-4.729,1.654-8.547,4.966-11.45c3.315-2.915,7.592-4.367,12.835-4.367c5.416,0,10.339,1.449,14.774,4.322l-2.251,5.011
		c-3.793-1.61-7.536-2.416-11.229-2.416c-2.99,0-5.299,0.719-6.905,2.162c-1.619,1.438-2.618,3.277-2.618,5.534
		c0,3.45,2.468,6.45,7.024,8.979c4.144,2.249,12.523,7.026,12.523,7.026C265.916,287.632,268.185,291.067,268.185,296.737"/>
	<path display="inline" fill="#5D87A1" d="M367.108,235.024c-5.644-0.143-10.011,0.425-13.677,1.976
		c-1.058,0.423-2.743,0.423-2.89,1.761c0.571,0.566,0.637,1.479,1.133,2.26c0.848,1.411,2.319,3.306,3.666,4.295
		c1.478,1.133,2.961,2.253,4.517,3.24c2.74,1.696,5.848,2.684,8.521,4.373c1.555,0.984,3.104,2.255,4.662,3.313
		c0.767,0.565,1.257,1.479,2.25,1.833v-0.216c-0.496-0.633-0.64-1.55-1.127-2.256l-2.116-2.041
		c-2.046-2.749-4.588-5.146-7.332-7.116c-2.257-1.555-7.191-3.669-8.107-6.269l-0.143-0.145c1.552-0.144,3.393-0.706,4.863-1.139
		c2.399-0.632,4.585-0.489,7.047-1.121c1.133-0.283,2.256-0.638,3.393-0.986v-0.637c-1.276-1.27-2.186-2.957-3.529-4.156
		c-3.589-3.101-7.543-6.133-11.631-8.671c-2.188-1.412-5.004-2.323-7.335-3.524c-0.838-0.425-2.253-0.635-2.747-1.339
		c-1.266-1.552-1.977-3.593-2.893-5.429c-2.039-3.874-4.02-8.173-5.776-12.269c-1.272-2.749-2.046-5.491-3.598-8.033
		c-7.264-11.983-15.153-19.24-27.277-26.362c-2.607-1.484-5.708-2.115-9.021-2.893l-5.289-0.279
		c-1.127-0.495-2.257-1.836-3.24-2.471c-4.026-2.536-14.381-8.032-17.342-0.774c-1.906,4.586,2.821,9.096,4.441,11.422
		c1.198,1.616,2.753,3.453,3.591,5.288c0.497,1.198,0.637,2.469,1.13,3.736c1.13,3.103,2.186,6.554,3.669,9.448
		c0.773,1.476,1.617,3.026,2.604,4.363c0.565,0.781,1.552,1.127,1.767,2.399c-0.984,1.405-1.062,3.523-1.624,5.286
		c-2.536,7.965-1.546,17.831,2.049,23.685c1.124,1.762,3.809,5.642,7.396,4.155c3.179-1.268,2.475-5.284,3.387-8.808
		c0.211-0.852,0.071-1.411,0.493-1.968v0.137c0.984,1.973,1.978,3.872,2.887,5.849c2.188,3.452,5.997,7.048,9.17,9.439
		c1.688,1.276,3.026,3.457,5.14,4.235v-0.211h-0.14c-0.429-0.632-1.056-0.915-1.617-1.406c-1.27-1.27-2.679-2.82-3.666-4.228
		c-2.955-3.95-5.568-8.322-7.89-12.833c-1.137-2.188-2.117-4.582-3.029-6.767c-0.429-0.843-0.429-2.115-1.137-2.541
		c-1.059,1.55-2.604,2.891-3.38,4.79c-1.341,3.036-1.48,6.771-1.978,10.654l-0.279,0.135c-2.244-0.563-3.026-2.887-3.877-4.857
		c-2.113-5.008-2.468-13.048-0.636-18.824c0.49-1.478,2.613-6.132,1.766-7.54c-0.425-1.349-1.834-2.117-2.61-3.178
		c-0.909-1.336-1.902-3.026-2.539-4.51c-1.688-3.945-2.542-8.317-4.361-12.261c-0.851-1.839-2.328-3.74-3.525-5.434
		c-1.345-1.901-2.822-3.242-3.884-5.497c-0.351-0.774-0.844-2.042-0.279-2.887c0.14-0.565,0.426-0.777,0.987-0.918
		c0.912-0.771,3.523,0.209,4.438,0.635c2.614,1.057,4.799,2.042,6.981,3.523c0.983,0.708,2.042,2.047,3.309,2.399h1.483
		c2.251,0.491,4.79,0.137,6.909,0.775c3.734,1.2,7.118,2.959,10.15,4.861c9.234,5.854,16.849,14.174,21.988,24.11
		c0.842,1.619,1.201,3.103,1.972,4.791c1.483,3.458,3.321,6.982,4.795,10.366c1.48,3.312,2.894,6.692,5.007,9.444
		c1.056,1.479,5.292,2.255,7.192,3.031c1.406,0.632,3.594,1.194,4.863,1.97c2.399,1.478,4.787,3.174,7.043,4.799
		C363.368,231.85,366.897,233.613,367.108,235.024 M295.205,173.767c-0.975-0.009-1.943,0.108-2.887,0.355v0.141h0.136
		c0.568,1.126,1.556,1.907,2.26,2.891c0.568,1.13,1.059,2.25,1.617,3.379l0.134-0.14c0.996-0.703,1.49-1.833,1.49-3.525
		c-0.429-0.498-0.494-0.985-0.851-1.479C296.688,174.684,295.772,174.333,295.205,173.767"/>
	<path display="inline" fill="#F8981D" d="M373.822,312.897h1.459v-7.146h-2.191l-1.785,4.878l-1.943-4.878h-2.107v7.146h1.378
		v-5.438h0.078l2.033,5.438h1.052l2.027-5.438V312.897L373.822,312.897z M362.055,312.897h1.546v-5.937h2.023v-1.212h-5.677v1.212
		h2.104L362.055,312.897L362.055,312.897z"/>
</g>
<g id="Warstwa_11" display="none">
	
		<rect x="73.223" y="73.224" transform="matrix(0.7071 0.7071 -0.7071 0.7071 249.9998 -103.5533)" display="inline" fill="#E8B5B5" width="353.553" height="353.553"/>
	<path display="inline" fill="#2F2707" d="M281.514,228.843c-6.957,0-12.139,3.416-12.139,11.638
		c0,6.195,3.414,10.496,11.764,10.496c7.078,0,11.885-4.171,11.885-10.753C293.023,232.765,288.723,228.843,281.514,228.843
		L281.514,228.843z M267.604,286.899c-1.646,2.02-3.289,4.168-3.289,6.7c0,5.056,6.447,6.577,15.305,6.577
		c7.334,0,17.326-0.515,17.326-7.334c0-4.054-4.807-4.304-10.881-4.685L267.604,286.899L267.604,286.899z M305.039,229.225
		c2.271,2.908,4.678,6.957,4.678,12.774c0,14.037-11.002,22.257-26.934,22.257c-4.053,0-7.719-0.504-9.994-1.136l-4.176,6.7
		l12.395,0.759c21.881,1.395,34.777,2.028,34.777,18.842c0,14.548-12.771,22.764-34.777,22.764
		c-22.891,0-31.618-5.817-31.618-15.808c0-5.691,2.53-8.721,6.956-12.901c-4.174-1.765-5.563-4.925-5.563-8.342
		c0-2.784,1.389-5.312,3.668-7.718c2.275-2.399,4.805-4.805,7.84-7.587c-6.195-3.035-10.877-9.611-10.877-18.973
		c0-14.541,9.613-24.528,28.959-24.528c5.439,0,8.729,0.499,11.639,1.264h24.664v10.746L305.039,229.225L305.039,229.225z
		 M338.926,206.242c-7.211,0-11.385-4.177-11.385-11.389c0-7.201,4.174-11.126,11.385-11.126c7.334,0,11.51,3.925,11.51,11.126
		C350.436,202.065,346.262,206.242,338.926,206.242z M322.607,282.245v-9.986l6.453-0.883c1.771-0.255,2.021-0.633,2.021-2.534
		v-37.183c0-1.387-0.377-2.277-1.646-2.652l-6.828-2.405l1.391-10.241h26.182v52.481c0,2.026,0.121,2.279,2.025,2.535l6.449,0.883
		v9.985H322.607z M408.668,277.342c-5.439,2.654-13.408,5.057-20.619,5.057c-15.049,0-20.738-6.063-20.738-20.362v-33.132
		c0-0.758,0-1.264-1.016-1.264h-8.852v-11.26c11.133-1.268,15.557-6.832,16.947-20.617h12.016v17.963c0,0.883,0,1.265,1.014,1.265
		h17.83v12.646h-18.844v30.225c0,7.462,1.773,10.368,8.6,10.368c3.545,0,7.209-0.883,10.242-2.021L408.668,277.342"/>
	<path display="inline" fill="#DE4C36" d="M221.277,244.153l-57.826-57.823c-3.33-3.33-8.729-3.331-12.061-0.002
		c-0.001,0.001-0.001,0.002-0.002,0.002l-12.008,12.009l15.232,15.231c3.653-1.242,7.694-0.301,10.421,2.428
		c2.743,2.746,3.677,6.817,2.407,10.485l14.678,14.68c3.551-1.223,7.65-0.431,10.486,2.409c3.963,3.961,3.965,10.385,0.004,14.348
		c-0.001,0.002-0.002,0.003-0.004,0.005c-3.962,3.965-10.388,3.969-14.353,0.007c-2.9-2.897-3.772-7.256-2.211-11.046
		l-13.689-13.689l-0.001,36.026c0.992,0.49,1.898,1.139,2.684,1.919c3.964,3.964,3.965,10.39,0.002,14.354
		c0,0-0.001,0.001-0.002,0.002c-3.965,3.965-10.393,3.965-14.352,0c-3.965-3.963-3.967-10.389-0.005-14.354
		c0.951-0.951,2.082-1.705,3.327-2.216v-36.362c-1.245-0.508-2.375-1.262-3.322-2.215c-3.003-3-3.726-7.407-2.187-11.096
		l-15.015-15.017l-39.649,39.646c-3.332,3.332-3.332,8.733,0,12.065c0,0,0,0,0,0.001l57.827,57.823c3.331,3.33,8.731,3.33,12.062,0
		l57.557-57.554C224.608,252.888,224.608,247.486,221.277,244.153"/>
</g>
<g id="Warstwa_12" display="none">
	
		<rect x="73.223" y="73.224" transform="matrix(0.7071 0.7071 -0.7071 0.7071 249.9998 -103.5533)" display="inline" fill="#5BAABC" width="353.553" height="353.553"/>
	<g display="inline">
		<path fill="#364548" d="M154.844,305.166v-17.45c0-2.294,1.434-4.135,3.808-4.135h0.657c2.373,0,3.8,1.844,3.8,4.135v36.737
			c0,8.959-4.426,16.087-12.138,20.629c-3.534,2.092-7.566,3.192-11.673,3.183h-1.64c-8.96,0-16.08-4.429-20.628-12.137
			c-2.096-3.532-3.196-7.567-3.183-11.675v-1.637c0-8.962,4.428-16.086,12.135-20.636c3.533-2.098,7.567-3.198,11.676-3.184h1.64
			C145.361,298.997,150.505,301.348,154.844,305.166L154.844,305.166z M122.11,323.633c0,6.472,3.137,11.337,8.807,14.44
			c2.293,1.255,4.782,1.928,7.398,1.928c6.352,0,11.064-2.996,14.313-8.379c1.511-2.504,2.215-5.244,2.215-8.156
			c0-5.61-2.655-9.987-7.176-13.239c-2.741-1.971-5.826-2.96-9.191-2.96c-6.924,0-11.906,3.498-14.897,9.712
			C122.571,319.079,122.11,321.31,122.11,323.633L122.11,323.633z M191.778,298.997h1.145c9.575,0,16.857,4.645,21.472,13.003
			c1.844,3.344,2.833,6.992,2.833,10.816v1.637c0,8.959-4.417,16.097-12.143,20.629c-3.576,2.098-7.526,3.183-11.67,3.183h-1.637
			c-8.961,0-16.082-4.429-20.628-12.137c-2.097-3.532-3.198-7.566-3.186-11.675v-1.637c0-8.963,4.446-16.064,12.133-20.634
			C183.671,300.06,187.625,298.997,191.778,298.997L191.778,298.997z M176.229,323.633c0,6.282,3.082,10.903,8.388,14.152
			c2.491,1.525,5.235,2.216,8.146,2.216c6.207,0,10.794-3.146,13.987-8.385c1.524-2.498,2.212-5.242,2.212-8.15
			c0-5.841-2.813-10.304-7.624-13.537c-2.635-1.773-5.569-2.662-8.743-2.662c-6.923,0-11.906,3.498-14.896,9.712
			C176.689,319.079,176.228,321.31,176.229,323.633L176.229,323.633z M251.582,307.927c-1.247-0.584-3.583-0.778-4.931-0.83
			c-6.905-0.26-11.9,3.629-14.831,9.72c-1.012,2.101-1.474,4.324-1.474,6.649c0,7.078,3.717,12.034,10.035,15.056
			c2.308,1.103,5.288,1.312,7.81,1.312c2.219,0,5.354-1.358,7.323-2.294l0.341-0.162h1.528l0.169,0.034
			c1.878,0.392,3.297,1.583,3.297,3.604v0.818c0,5.032-9.195,6.184-12.704,6.429c-12.382,0.856-21.642-5.943-25.172-17.754
			c-0.613-2.051-0.889-4.088-0.889-6.226v-1.635c0-8.962,4.447-16.06,12.133-20.626c3.574-2.122,7.526-3.188,11.678-3.188h1.638
			c4.405,0,8.462,1.251,12.099,3.734l0.299,0.207l0.188,0.312c0.394,0.65,0.73,1.404,0.73,2.178v0.818
			c0,2.109-1.578,3.244-3.483,3.611l-0.157,0.027h-0.488C255.486,309.722,252.684,308.445,251.582,307.927L251.582,307.927z
			 M278.388,313.523c3.21-3.215,6.431-6.423,9.688-9.584c0.908-0.883,4.346-4.615,5.699-4.615h1.48l0.168,0.035
			c1.886,0.392,3.297,1.585,3.297,3.611v0.816c0,1.383-1.619,2.988-2.511,3.935c-1.899,2.013-3.897,3.959-5.841,5.93l-9.984,10.137
			c4.299,4.309,8.594,8.62,12.857,12.962c1.183,1.198,2.357,2.405,3.521,3.622c0.411,0.432,1.017,0.97,1.361,1.567
			c0.37,0.562,0.597,1.193,0.597,1.868v0.854l-0.047,0.197c-0.465,1.886-1.661,3.406-3.75,3.406h-0.658
			c-1.367,0-2.912-1.546-3.849-2.431c-1.93-1.819-3.794-3.732-5.685-5.591l-6.345-6.229v9.955c0,2.293-1.437,4.136-3.807,4.136
			h-0.651c-2.373,0-3.807-1.843-3.807-4.136v-56.094c0-2.293,1.434-4.127,3.807-4.127h0.651c2.37,0,3.807,1.834,3.807,4.127V313.523
			L278.388,313.523z M381.386,299.324h0.821c2.479,0,4.133,1.671,4.133,4.135c0,3.422-3.271,4.297-6.101,4.297
			c-3.711,0-7.256,2.248-9.813,4.768c-3.19,3.145-4.586,7.174-4.586,11.602v20.006c0,2.293-1.433,4.134-3.808,4.134h-0.652
			c-2.376,0-3.807-1.84-3.807-4.134v-21.154c0-8.124,3.954-14.755,10.548-19.406C372.058,300.792,376.566,299.325,381.386,299.324
			L381.386,299.324z M322.65,338.973c3.007,1.05,6.437,0.899,9.521,0.362c1.579-0.671,5.615-2.432,7.099-2.173l0.232,0.039
			l0.213,0.104c0.906,0.439,1.771,1.061,2.234,1.983c1.082,2.162,0.562,4.336-1.563,5.563l-0.707,0.408
			c-7.839,4.523-16.177,3.896-23.99-0.329c-3.736-2.02-6.595-5.018-8.703-8.673l-0.492-0.854
			c-5.033-8.716-4.354-17.883,1.322-26.171c1.959-2.864,4.52-5.077,7.514-6.809l1.133-0.654c7.382-4.261,15.294-3.969,22.875-0.229
			c4.077,2.011,7.381,5.01,9.656,8.952l0.41,0.71c1.652,2.864-0.488,5.36-2.699,7.067c-2.566,1.979-5.156,4.361-7.616,6.484
			C333.605,329.49,328.13,334.234,322.65,338.973L322.65,338.973z M315.553,333.987c6.132-5.257,12.267-10.521,18.383-15.801
			c2.091-1.802,4.383-3.673,6.455-5.567c-1.663-2.098-4.443-3.609-6.804-4.51c-4.768-1.816-9.467-1.206-13.839,1.317
			c-5.722,3.304-8.158,8.564-7.945,15.111c0.085,2.579,0.778,5.064,2.146,7.258C314.432,332.569,314.971,333.296,315.553,333.987z
			 M270.954,168.386h24.386v24.929h12.33c5.695,0,11.551-1.015,16.943-2.842c2.65-0.898,5.624-2.149,8.238-3.722
			c-3.443-4.494-5.2-10.169-5.717-15.763c-0.704-7.609,0.832-17.513,5.98-23.468l2.564-2.965l3.054,2.456
			c7.69,6.178,14.159,14.813,15.3,24.655c9.26-2.724,20.133-2.079,28.295,2.631l3.348,1.933l-1.761,3.44
			c-6.904,13.472-21.337,17.646-35.446,16.907c-21.113,52.587-67.08,77.484-122.814,77.484c-28.795,0-55.212-10.764-70.256-36.311
			l-0.246-0.416l-2.192-4.46c-5.085-11.245-6.774-23.564-5.629-35.874l0.345-3.687h20.854v-24.929h24.385V144h48.774v-24.387h29.265
			V168.386"/>
		<path fill="#22A0C8" d="M349.962,177.609c1.635-12.708-7.875-22.689-13.772-27.429c-6.797,7.858-7.854,28.451,2.81,37.123
			c-5.95,5.285-18.489,10.076-31.329,10.076H151.381c-1.248,13.403,1.105,25.746,6.479,36.309l1.778,3.252
			c1.125,1.91,2.356,3.756,3.685,5.529c6.425,0.413,12.35,0.555,17.77,0.436h0.002c10.651-0.234,19.342-1.494,25.928-3.775
			c0.99-0.309,2.043,0.244,2.351,1.235c0.295,0.945-0.196,1.957-1.122,2.312c-0.876,0.305-1.789,0.589-2.732,0.858h-0.003
			c-5.187,1.481-10.748,2.478-17.923,2.921c0.427,0.007-0.443,0.063-0.446,0.063c-0.244,0.017-0.551,0.052-0.796,0.064
			c-2.824,0.158-5.873,0.192-8.989,0.192c-3.408,0-6.765-0.063-10.518-0.257l-0.096,0.064
			c13.022,14.637,33.383,23.416,58.907,23.416c54.016,0,99.833-23.945,120.122-77.702c14.394,1.477,28.227-2.194,34.519-14.478
			C370.273,172.035,357.384,173.878,349.962,177.609"/>
		<path fill="#37B1D9" d="M349.962,177.609c1.635-12.708-7.875-22.689-13.772-27.429c-6.797,7.858-7.854,28.451,2.81,37.123
			c-5.95,5.285-18.489,10.076-31.329,10.076H160.636c-0.638,20.526,6.979,36.106,20.456,45.526h0.003
			c10.651-0.234,19.342-1.494,25.928-3.775c0.99-0.309,2.043,0.244,2.351,1.235c0.295,0.945-0.196,1.957-1.122,2.312
			c-0.876,0.305-1.789,0.589-2.732,0.858h-0.003c-5.187,1.481-11.226,2.606-18.401,3.048c-0.002,0-0.174-0.165-0.176-0.165
			c18.383,9.43,45.038,9.396,75.598-2.343c34.267-13.165,66.154-38.244,88.401-66.93
			C350.605,177.295,350.278,177.45,349.962,177.609"/>
		<path fill="#1B81A5" d="M151.674,213.663c0.971,7.18,3.071,13.902,6.186,20.025l1.778,3.252c1.125,1.91,2.355,3.756,3.685,5.529
			c6.427,0.413,12.351,0.555,17.772,0.436c10.651-0.234,19.342-1.494,25.928-3.775c0.99-0.309,2.043,0.244,2.351,1.235
			c0.295,0.945-0.196,1.957-1.122,2.312c-0.876,0.305-1.789,0.589-2.732,0.858h-0.003c-5.187,1.481-11.194,2.542-18.369,2.985
			c-0.246,0.015-0.676,0.018-0.925,0.031c-2.822,0.158-5.839,0.256-8.956,0.256c-3.408,0-6.893-0.066-10.644-0.257
			c13.022,14.638,33.509,23.448,59.033,23.448c46.243,0,86.475-17.553,109.827-56.335H151.674"/>
		<path fill="#1D91B4" d="M162.043,213.663c2.764,12.606,9.407,22.501,19.052,29.242c10.651-0.234,19.342-1.494,25.928-3.775
			c0.99-0.309,2.043,0.244,2.351,1.235c0.295,0.945-0.196,1.957-1.122,2.312c-0.876,0.305-1.789,0.589-2.732,0.858h-0.003
			c-5.187,1.481-11.321,2.542-18.497,2.985c18.382,9.428,44.96,9.293,75.518-2.445c18.487-7.104,36.279-17.676,52.241-30.412
			H162.043"/>
		<path fill="#23A3C2" d="M172.593,172.451h21.136v21.135h-21.136V172.451z M174.354,174.212h1.668v17.613h-1.668V174.212z
			 M177.49,174.212h1.735v17.613h-1.734L177.49,174.212L177.49,174.212z M180.691,174.212h1.735v17.613h-1.735V174.212z
			 M183.895,174.212h1.734v17.613h-1.734V174.212z M187.098,174.212h1.734v17.613h-1.734V174.212L187.098,174.212z M190.299,174.212
			h1.669v17.613h-1.669V174.212z M196.98,148.064h21.137v21.135h-21.138L196.98,148.064L196.98,148.064z M198.742,149.826h1.667
			v17.612h-1.667V149.826z M201.877,149.826h1.733v17.612h-1.732L201.877,149.826L201.877,149.826z M205.079,149.826h1.734v17.612
			h-1.734V149.826z M208.282,149.826h1.734v17.612h-1.734V149.826z M211.484,149.826h1.734v17.612h-1.734V149.826z M214.686,149.826
			h1.67v17.612h-1.67V149.826z"/>
		<path fill="#34BBDE" d="M196.98,172.451h21.137v21.135h-21.138L196.98,172.451L196.98,172.451z M198.742,174.212h1.667v17.613
			h-1.667V174.212z M201.877,174.212h1.733v17.613h-1.732L201.877,174.212L201.877,174.212z M205.079,174.212h1.734v17.613h-1.734
			V174.212z M208.282,174.212h1.734v17.613h-1.734V174.212z M211.484,174.212h1.734v17.613h-1.734V174.212z M214.686,174.212h1.67
			v17.613h-1.67V174.212z"/>
		<path fill="#23A3C2" d="M221.367,172.451h21.136v21.135h-21.136V172.451z M223.128,174.212h1.667v17.613h-1.667V174.212z
			 M226.264,174.212h1.734v17.613h-1.734V174.212z M229.466,174.212h1.734v17.613h-1.734V174.212z M232.669,174.212h1.734v17.613
			h-1.734V174.212z M235.871,174.212h1.736v17.613h-1.736V174.212z M239.074,174.212h1.667v17.613h-1.667V174.212z"/>
		<path fill="#34BBDE" d="M221.367,148.064h21.136v21.135h-21.136V148.064z M223.128,149.826h1.667v17.612h-1.667V149.826z
			 M226.264,149.826h1.734v17.612h-1.734V149.826z M229.466,149.826h1.734v17.612h-1.734V149.826z M232.669,149.826h1.734v17.612
			h-1.734V149.826z M235.871,149.826h1.736v17.612h-1.736V149.826z M239.074,149.826h1.667v17.612h-1.667V149.826z M245.754,172.451
			h21.135v21.135h-21.135V172.451z M247.515,174.212h1.667v17.613h-1.667V174.212z M250.651,174.212h1.734v17.613h-1.734V174.212z
			 M253.854,174.212h1.733v17.613h-1.733V174.212z M257.056,174.212h1.735v17.613h-1.735V174.212z M260.258,174.212h1.736v17.613
			h-1.736V174.212z M263.461,174.212h1.668v17.613h-1.668V174.212z"/>
		<path fill="#23A3C2" d="M245.754,148.064h21.135v21.135h-21.135V148.064z M247.515,149.826h1.667v17.612h-1.667V149.826z
			 M250.651,149.826h1.734v17.612h-1.734V149.826z M253.854,149.826h1.733v17.612h-1.733V149.826z M257.056,149.826h1.735v17.612
			h-1.735V149.826z M260.258,149.826h1.736v17.612h-1.736V149.826z M263.461,149.826h1.668v17.612h-1.668V149.826z"/>
		<path fill="#34BBDE" d="M245.754,123.677h21.135v21.138h-21.135V123.677z M247.515,125.438h1.667v17.614h-1.667v-17.615V125.438z
			 M250.651,125.438h1.734v17.614h-1.734v-17.615V125.438z M253.854,125.438h1.733v17.614h-1.733v-17.615V125.438z M257.056,125.438
			h1.735v17.614h-1.735v-17.615V125.438z M260.258,125.438h1.736v17.614h-1.736v-17.615V125.438z M263.461,125.438h1.668v17.614
			h-1.668v-17.615V125.438z"/>
		<path fill="#23A3C2" d="M270.141,172.451h21.135v21.135h-21.135V172.451z M271.9,174.212h1.669v17.613h-1.668L271.9,174.212
			L271.9,174.212z M275.035,174.212h1.735v17.613h-1.734L275.035,174.212L275.035,174.212z M278.238,174.212h1.736v17.613h-1.736
			V174.212z M281.441,174.212h1.734v17.613h-1.734V174.212z M284.645,174.212h1.734v17.613h-1.734V174.212z M287.846,174.212h1.668
			v17.613h-1.668V174.212z"/>
		<path fill="#D3ECEC" d="M216.793,227.854c3.22-0.043,5.865,2.533,5.908,5.753c0.042,3.221-2.534,5.866-5.754,5.909
			c-0.052,0.001-0.104,0.001-0.157,0c-3.22-0.044-5.796-2.689-5.752-5.91C211.082,230.446,213.633,227.895,216.793,227.854"/>
		<path fill="#364548" d="M216.793,229.508c0.533,0,1.042,0.101,1.511,0.283c-0.814,0.472-1.091,1.515-0.618,2.329
			c0.304,0.524,0.864,0.847,1.47,0.849c0.645,0,1.205-0.357,1.495-0.886c0.884,2.13-0.126,4.573-2.255,5.457
			c-2.13,0.884-4.573-0.125-5.457-2.256c-0.884-2.129,0.125-4.572,2.255-5.456C215.701,229.616,216.244,229.508,216.793,229.508
			 M113.659,215.771h271.238c-5.905-1.498-18.686-3.522-16.578-11.262c-10.739,12.427-36.638,8.719-43.174,2.591
			c-7.277,10.556-49.649,6.543-52.604-1.681c-9.125,10.709-37.399,10.709-46.523,0c-2.958,8.224-45.328,12.237-52.607,1.68
			c-6.536,6.128-32.432,9.836-43.172-2.589C132.346,212.249,119.566,214.273,113.659,215.771"/>
		<path fill="#BDD9D7" d="M232.292,269.871c-14.44-6.852-22.365-16.168-26.775-26.336c-5.364,1.53-11.812,2.51-19.304,2.93
			c-2.821,0.158-5.791,0.238-8.905,0.238c-3.592,0-7.377-0.105-11.351-0.316c13.243,13.236,29.533,23.425,59.698,23.611
			C227.882,269.998,230.092,269.955,232.292,269.871"/>
		<path fill="#D3ECEC" d="M210.881,252.918c-1.998-2.712-3.936-6.12-5.36-9.385c-5.365,1.532-11.813,2.512-19.307,2.933
			C191.361,249.26,198.721,251.848,210.881,252.918"/>
	</g>
</g>
<g id="Warstwa_13">
	
		<rect x="73.223" y="73.224" transform="matrix(0.7071 0.7071 -0.7071 0.7071 249.9998 -103.5533)" fill="#897EA5" width="353.553" height="353.553"/>
	<path fill="#563D7C" d="M175.804,275.132c0,10.581,8.578,19.157,19.158,19.157h110.261c10.583,0,19.159-8.578,19.159-19.157
		V164.869c0-10.582-8.578-19.158-19.157-19.158H194.962c-10.583,0-19.159,8.578-19.159,19.158V275.132L175.804,275.132z"/>
	<path fill="#FFFFFF" d="M237.416,211.433v-21.041h18.521c1.765,0,3.465,0.147,5.104,0.441c1.637,0.294,3.087,0.819,4.347,1.575
		c1.259,0.756,2.268,1.807,3.023,3.15c0.756,1.344,1.134,3.066,1.134,5.166c0,3.78-1.134,6.51-3.401,8.189
		c-2.269,1.681-5.166,2.521-8.693,2.521H237.416L237.416,211.433z M217.635,175.021v89.959h43.594c4.032,0,7.959-0.504,11.781-1.512
		c3.821-1.008,7.224-2.562,10.204-4.662c2.982-2.099,5.355-4.809,7.119-8.126c1.765-3.318,2.646-7.245,2.646-11.781
		c0-5.627-1.366-10.436-4.095-14.425c-2.73-3.991-6.868-6.783-12.411-8.379c4.032-1.932,7.077-4.41,9.136-7.434
		c2.057-3.023,3.086-6.803,3.086-11.339c0-4.2-0.693-7.728-2.079-10.583s-3.339-5.145-5.859-6.867
		c-2.52-1.722-5.543-2.961-9.071-3.716c-3.526-0.757-7.434-1.134-11.717-1.134H217.635L217.635,175.021z M237.416,249.608v-24.695
		h21.544c4.284,0,7.729,0.986,10.332,2.961c2.604,1.974,3.906,5.271,3.906,9.89c0,2.353-0.399,4.284-1.197,5.796
		c-0.798,1.513-1.869,2.71-3.213,3.591c-1.344,0.883-2.897,1.513-4.661,1.891c-1.765,0.377-3.612,0.566-5.544,0.566H237.416
		L237.416,249.608z"/>
	<g>
		<path fill="#FFFFFF" d="M131.939,308.024c0.203-0.038,0.369-0.095,0.535-0.095c6.832,0.026,13.665,0.017,20.496,0.112
			c2.328,0.032,4.467,0.853,6.38,2.215c4.366,3.106,4.769,11.98-1.224,15.165c-0.305,0.161-0.608,0.325-1.022,0.547
			c1.139,0.522,2.259,0.873,3.198,1.497c3.605,2.395,5.073,7.752,3.459,12.458c-1.408,4.106-4.751,5.802-8.64,6.704
			c-1.277,0.296-2.614,0.45-3.926,0.459c-6.386,0.046-12.773,0.021-19.256,0.021C131.939,334.095,131.939,321.08,131.939,308.024
			L131.939,308.024z M138.77,341.38c4.75,0,9.363,0.108,13.967-0.039c2.895-0.093,4.986-3.195,4.812-6.213
			c-0.172-2.975-2.003-5.504-4.834-5.637c-4.565-0.213-9.142-0.152-13.714-0.2c-0.068-0.001-0.137,0.101-0.23,0.172V341.38
			L138.77,341.38z M138.786,324.199c4.245,0,8.339,0.154,12.416-0.052c3.001-0.151,4.696-2.552,4.583-5.833
			c-0.099-2.904-1.814-4.651-4.903-4.733c-3.872-0.102-7.748-0.054-11.623-0.063c-0.158,0-0.315,0.084-0.474,0.13V324.199z
			 M350.495,318.83h5.695v3.052c0.635-0.489,1.406-1.032,2.119-1.644c4.363-3.745,14.714-3.285,18.256,4.256
			c3.048,6.491,2.915,13.019-1.199,19.061c-2.278,3.347-5.809,4.543-9.806,4.328c-3.473-0.188-6.531-1.279-8.937-4.494v14.231
			h-6.128C350.495,344.679,350.495,331.791,350.495,318.83L350.495,318.83z M356.281,333.122c0.256,1.421,0.397,2.877,0.794,4.258
			c0.886,3.083,3.581,5.362,6.374,5.56c3.735,0.264,6.417-1.117,7.768-4.429c1.716-4.208,1.655-8.453-0.853-12.386
			c-2.958-4.641-10.047-4.252-12.554,0.608C356.778,328.734,356.274,330.84,356.281,333.122L356.281,333.122z M346.461,343.06
			c0,1.163,0.041,2.344-0.03,3.519c-0.017,0.291-0.381,0.78-0.616,0.801c-1.776,0.148-3.582,0.407-5.335,0.224
			c-1.546-0.161-2.397-1.471-2.874-2.986c-3.67,2.987-7.879,3.634-12.355,3.079c-3.743-0.464-6.845-3.538-7.111-6.951
			c-0.367-4.704,1.439-7.767,5.663-8.882c2.962-0.781,6.048-1.096,9.077-1.624c0.734-0.128,1.479-0.232,2.195-0.429
			c1.379-0.376,2.373-1.14,2.475-2.708c0.104-1.622-0.524-2.886-2.049-3.5c-2.602-1.047-5.252-1.021-7.813,0.178
			c-1.169,0.547-1.862,1.647-2.475,3.516h-6.003c0.005-2.288,0.801-4.212,2.321-5.831c2.009-2.14,4.625-2.979,7.444-3.273
			c2.95-0.309,5.885-0.295,8.75,0.672c3.855,1.3,5.701,3.843,5.695,7.914c-0.006,4.321-0.002,8.644-0.003,12.966
			C343.416,342.81,343.416,342.81,346.461,343.06L346.461,343.06z M337.183,333.307c-1.892,0.327-3.622,0.579-5.33,0.937
			c-1.797,0.375-3.628,0.701-5.341,1.328c-1.68,0.616-2.251,2.186-2.195,3.871c0.053,1.611,1.154,2.515,2.572,3.011
			c2.434,0.85,4.873,0.745,7.193-0.341c1.662-0.777,2.928-2.049,3.077-3.99C337.281,336.504,337.183,334.869,337.183,333.307z
			 M182.723,318.013c9.415-0.11,14.935,6.791,14.352,16.187c-0.202,3.266-1.079,6.318-3.229,8.899
			c-2.316,2.781-5.297,4.245-8.871,4.643c-2.984,0.333-5.883,0.137-8.648-1.117c-4.118-1.869-6.466-5.132-7.454-9.479
			c-0.678-2.979-0.648-5.945,0.111-8.892C170.66,321.753,175.666,318.038,182.723,318.013L182.723,318.013z M174.528,333.008
			c0.247,1.379,0.376,2.793,0.764,4.132c0.987,3.407,3.677,5.657,6.752,5.806c3.801,0.185,6.461-1.414,7.874-4.955
			c1.379-3.457,1.381-6.993-0.131-10.408c-2.241-5.06-8.344-6.353-12.274-2.593C175.271,327.134,174.693,329.982,174.528,333.008
			L174.528,333.008z M215.385,318.014c8.491-0.014,14.269,5.709,14.376,14.219c0.045,3.594-0.54,7.021-2.65,10.03
			c-3.019,4.311-7.381,5.818-12.402,5.59c-1.85-0.084-3.768-0.496-5.493-1.173c-4.048-1.589-6.462-4.718-7.535-8.906
			c-0.941-3.678-0.837-7.332,0.361-10.927C203.879,321.333,208.918,318.023,215.385,318.014L215.385,318.014z M223.524,332.243
			c-0.137-0.755-0.272-2.213-0.679-3.592c-1.034-3.506-3.768-5.635-7.212-5.784c-3.244-0.142-6.162,1.771-7.419,5.12
			c-1.482,3.946-1.373,7.876,0.859,11.552c2.326,3.829,7.599,4.669,11.057,1.812C222.769,339.171,223.414,336.16,223.524,332.243
			L223.524,332.243z M276.022,326.691c-1.938,0-3.825,0.016-5.71-0.021c-0.232-0.005-0.594-0.237-0.669-0.445
			c-1.061-2.945-3.556-3.296-6.136-3.311c-1.069-0.007-2.207,0.254-3.199,0.67c-2.116,0.888-2.352,3.283-0.367,4.431
			c1.377,0.796,2.992,1.224,4.545,1.66c2.196,0.619,4.465,0.991,6.646,1.651c5.581,1.687,7.762,7.282,4.638,11.895
			c-1.499,2.212-3.741,3.409-6.311,4.029c-3.798,0.917-7.58,0.984-11.292-0.357c-3.973-1.434-6.07-4.314-6.38-8.674h6.06
			c1.725,4.498,6.594,6.25,11.155,3.951c1.055-0.532,1.759-1.289,1.829-2.532c0.076-1.329-0.438-2.472-1.63-2.917
			c-2.127-0.793-4.349-1.337-6.532-1.978c-1.809-0.53-3.674-0.913-5.42-1.604c-3.365-1.333-4.828-3.627-4.809-7.125
			c0.02-3.049,1.802-5.662,4.963-6.809c4.352-1.578,8.791-1.774,13.162-0.063c2.955,1.158,4.715,3.44,5.447,6.514
			C276.08,325.942,276.022,326.256,276.022,326.691z M243.118,318.751h5.609v4.587h-5.497c-0.039,0.55-0.089,0.934-0.089,1.317
			c-0.005,4.631-0.008,9.26,0.001,13.89c0.001,0.615,0.049,1.233,0.11,1.847c0.121,1.225,0.8,1.951,2.033,2.019
			c1.129,0.063,2.265,0.014,3.461,0.014v4.587c-2.563,0.634-5.166,0.6-7.687,0.038c-2.935-0.653-4.127-2.673-4.153-6.496
			c-0.035-5.202-0.011-10.405-0.011-15.608v-1.529h-4.659v-4.64h4.596v-8.495h6.286
			C243.118,313.059,243.118,315.817,243.118,318.751L243.118,318.751z M295.58,347.187c-2.414,0-4.699,0.075-6.977-0.021
			c-2.207-0.094-3.908-1.557-4.389-3.742c-0.275-1.245-0.422-2.517-0.436-3.792c-0.048-4.896-0.02-9.791-0.02-14.687v-1.549h-4.645
			v-4.578h4.574v-8.529h6.299v8.392h5.583v4.611h-5.357c-0.063,0.415-0.147,0.703-0.147,0.99c-0.004,4.984-0.02,9.968,0.012,14.951
			c0.018,2.636,0.707,3.27,3.32,3.251c0.697-0.004,1.396,0,2.182,0V347.187z M306.055,318.846v4.826
			c2.42-4.106,5.768-6.246,10.711-5.518v5.955c-2.35-0.354-4.614-0.416-6.621,1.025c-2.63,1.892-3.549,4.655-3.615,7.702
			c-0.102,4.71-0.025,9.425-0.025,14.241h-6.169v-28.232C302.203,318.846,304.033,318.846,306.055,318.846z"/>
	</g>
</g>
</svg>
