<?xml version="1.0" encoding="utf-8"?>
<!-- Generator: Adobe Illustrator 16.0.0, SVG Export Plug-In . SVG Version: 6.00 Build 0)  -->
<!DOCTYPE svg PUBLIC "-//W3C//DTD SVG 1.1//EN" "http://www.w3.org/Graphics/SVG/1.1/DTD/svg11.dtd">
<svg version="1.1" id="Warstwa_1" xmlns="http://www.w3.org/2000/svg" xmlns:xlink="http://www.w3.org/1999/xlink" x="0px" y="0px"
	 width="50px" height="50px" viewBox="0 0 50 50" enable-background="new 0 0 50 50" xml:space="preserve">
<g>
	<g>
		<path fill="#E5E5E5" d="M25.816,26.063l-4.55-1.262v1.24v0.868c0,0.974,2.039,1.765,4.554,1.765c2.514,0,4.553-0.791,4.553-1.765
			c0-0.009-0.004-0.015-0.004-0.024v-2.084L25.816,26.063z"/>
		<path fill="#E5E5E5" d="M18.189,23.35l1.626,0.523l0.139-0.267l0.597-0.046l0.084,0.08l-0.512,0.11l-0.075,0.199
			c0,0-1.157,2.182-0.987,3.248c0,0,0.723,0.387,1.445,0l0.191-2.917v-0.243l1.076-0.219l-0.075,0.169l-0.802,0.235l0.37,0.119
			l4.55,1.263l4.553-1.263l3.078-0.992l-7.631-2.644L18.189,23.35z"/>
	</g>
</g>
<rect x="17.302" y="16.197" transform="matrix(-0.7071 -0.7071 0.7071 -0.7071 26.4358 60.043)" fill="none" stroke="#E5E5E5" stroke-width="0.75" stroke-miterlimit="10" width="16.701" height="16.7"/>
</svg>
