<?xml version="1.0" encoding="utf-8"?>
<!-- Generator: Adobe Illustrator 16.0.0, SVG Export Plug-In . SVG Version: 6.00 Build 0)  -->
<!DOCTYPE svg PUBLIC "-//W3C//DTD SVG 1.1//EN" "http://www.w3.org/Graphics/SVG/1.1/DTD/svg11.dtd">
<svg version="1.1" id="Warstwa_1" xmlns="http://www.w3.org/2000/svg" xmlns:xlink="http://www.w3.org/1999/xlink" x="0px" y="0px"
	 width="50px" height="50px" viewBox="0 0 50 50" enable-background="new 0 0 50 50" xml:space="preserve">
<rect x="17.103" y="16.197" transform="matrix(-0.7071 -0.7071 0.7071 -0.7071 26.0932 59.9016)" fill="none" stroke="#E5E5E5" stroke-width="0.75" stroke-miterlimit="10" width="16.701" height="16.7"/>
<path fill="none" d="M13,13h24v24H13V13z"/>
<path fill="#E5E5E5" d="M22.198,24.37c0.75,1.474,1.958,2.677,3.432,3.432l1.146-1.146c0.14-0.141,0.349-0.188,0.53-0.125
	c0.584,0.193,1.214,0.297,1.86,0.297c0.286,0,0.521,0.234,0.521,0.521v1.818c0,0.286-0.234,0.521-0.521,0.521
	c-4.891,0-8.854-3.963-8.854-8.854c0-0.287,0.234-0.521,0.521-0.521h1.823c0.286,0,0.521,0.234,0.521,0.521
	c0,0.651,0.104,1.276,0.296,1.859c0.058,0.183,0.016,0.386-0.13,0.531L22.198,24.37z"/>
</svg>
