<?xml version="1.0" encoding="utf-8"?>
<!-- Generator: Adobe Illustrator 16.0.0, SVG Export Plug-In . SVG Version: 6.00 Build 0)  -->
<!DOCTYPE svg PUBLIC "-//W3C//DTD SVG 1.1//EN" "http://www.w3.org/Graphics/SVG/1.1/DTD/svg11.dtd">
<svg version="1.1" id="Warstwa_1" xmlns="http://www.w3.org/2000/svg" xmlns:xlink="http://www.w3.org/1999/xlink" x="0px" y="0px"
	 width="353.55px" height="353.55px" viewBox="73.224 73.222 353.55 353.55" enable-background="new 73.224 73.222 353.55 353.55"
	 xml:space="preserve">
<g id="Warstwa_1_1_" display="none">
	<rect x="73.225" y="73.221" display="inline" fill="#3DB8E8" width="353.55" height="353.549"/>
	<g display="inline">
		<path fill="#2062AF" d="M376.578,271.273l-38.75,67.307l-67.308,38.75L125.714,256.997l130.531-130.531L376.578,271.273z"/>
		<path fill="#3C9CD7" d="M201.718,202.469L326.44,327.191l0.151-0.088l31.358-54.467L254.656,149.531L201.718,202.469
			L201.718,202.469z"/>
		<path d="M141.407,202.35l-7.891-7.891l11.512-11.512l-8.634-8.634l-20.146,20.146l24.404,24.403l20.146-20.146l-7.879-7.879
			L141.407,202.35z M165.738,162.237l8.048-8.048l-8.634-8.633l-20.147,20.147l8.634,8.634c5.393,0,8.088-0.115,15.884-0.116
			c-2.279,2.279-7.991,8.009-7.992,8.008l7.877,7.877l20.148-20.148l-7.879-7.879L165.738,162.237L165.738,162.237z
			 M194.294,133.681l8.047-8.048L193.708,117l-20.147,20.147l8.634,8.634c5.391,0.001,8.088-0.115,15.884-0.116
			c-2.279,2.279-7.991,8.009-7.992,8.008l7.877,7.877l20.148-20.148l-7.879-7.879L194.294,133.681L194.294,133.681z"/>
		<path fill="#FFFFFF" d="M234.818,235.665l-22.147,53.76l16.909,14.392l21.006-52.385l22.345-55.723l-14.391-17.628
			L234.818,235.665L234.818,235.665z"/>
		
			<linearGradient id="SVGID_1_" gradientUnits="userSpaceOnUse" x1="-1726.2966" y1="2276.001" x2="-1726.2966" y2="2285.584" gradientTransform="matrix(3.2822 -3.2822 -3.2822 -3.2822 13383.8359 2090.3645)">
			<stop  offset="0.387" style="stop-color:#D1D3D4;stop-opacity:0"/>
			<stop  offset="1" style="stop-color:#D1D3D4"/>
		</linearGradient>
		<path fill="url(#SVGID_1_)" d="M212.67,289.425l16.909,14.392l21.006-52.385l-15.767-15.767L212.67,289.425z"/>
		
			<linearGradient id="SVGID_2_" gradientUnits="userSpaceOnUse" x1="-1714.322" y1="2280.7813" x2="-1714.322" y2="2290.7432" gradientTransform="matrix(3.2822 -3.2822 -3.2822 -3.2822 13383.8359 2090.3645)">
			<stop  offset="0.387" style="stop-color:#D1D3D4;stop-opacity:0"/>
			<stop  offset="1" style="stop-color:#D1D3D4"/>
		</linearGradient>
		<path fill="url(#SVGID_2_)" d="M258.54,178.081l-23.722,57.583l15.767,15.766l22.345-55.722L258.54,178.081z"/>
		
			<linearGradient id="SVGID_3_" gradientUnits="userSpaceOnUse" x1="-1732.0608" y1="2271.7266" x2="-1709.0427" y2="2271.7266" gradientTransform="matrix(3.2822 -3.2822 -3.2822 -3.2822 13383.8359 2090.3645)">
			<stop  offset="0" style="stop-color:#E8E7E5"/>
			<stop  offset="1" style="stop-color:#FFFFFF"/>
		</linearGradient>
		<path fill="url(#SVGID_3_)" d="M212.729,289.366l16.909,14.392l56.483-56.124l19.607,22.125l-13.312,23.743l-22.308,13.313
			l-14.029-11.871l-16.549,16.549l27.162,22.844l43.352-23.566l23.564-42.991l-45.329-53.964L212.729,289.366L212.729,289.366z"/>
		<path opacity="0.05" enable-background="new    " d="M250.624,251.471l-37.954,37.954l16.909,14.392l36.813-36.577
			L250.624,251.471L250.624,251.471z M292.487,293.334l-0.129,0.229l-22.305,13.312l-14.03-11.872l-16.549,16.549l27.161,22.844
			l43.35-23.563L292.487,293.334z"/>
		
			<linearGradient id="SVGID_4_" gradientUnits="userSpaceOnUse" x1="-1733.1199" y1="2288.3047" x2="-1708.1296" y2="2288.3047" gradientTransform="matrix(3.2822 -3.2822 -3.2822 -3.2822 13383.8359 2090.3645)">
			<stop  offset="0" style="stop-color:#E8E7E5"/>
			<stop  offset="1" style="stop-color:#FFFFFF"/>
		</linearGradient>
		<path fill="url(#SVGID_4_)" d="M176.516,260.105l82.024-82.025l14.391,17.628l-78.427,78.428L176.516,260.105L176.516,260.105z"/>
		<path opacity="0.05" enable-background="new    " d="M217.887,218.733l-41.372,41.372l17.988,14.031l39.393-39.393
			L217.887,218.733L217.887,218.733z"/>
	</g>
</g>
<g id="Warstwa_2" display="none">
	<rect x="73.225" y="73.222" display="inline" fill="#FC7B3A" width="353.549" height="353.549"/>
	<g display="inline">
		<path fill="#E44D26" d="M271.059,378.758l-145.36-121.561l130.75-130.75L377.975,271.8l-38.698,68.387L271.059,378.758z"/>
		<path fill="#F16529" d="M328.012,328.76l31.269-55.26l-103.85-124.209l-53.444,53.444L328.012,328.76z"/>
		<path fill="#EBEBEB" d="M251.486,252.234l-21.66,21.659l-18.258-15.266l23.156-23.156l-16.369-16.369l-41.044,41.043l4.783,4.001
			l49.131,41.083l36.63-36.629L251.486,252.234L251.486,252.234z M293.996,294.745l-0.055,0.09l-23.152,13.308l-14.218-11.887
			l-16.431,16.43l27.994,23.407l42.835-24.224l0.056-0.096L293.996,294.745z"/>
		<path d="M101.595,208.763l8.317-8.317l8.218,8.218l7.61-7.61l-8.218-8.218l8.318-8.318l24.887,24.887l-8.318,8.318l-8.334-8.334
			l-7.61,7.609l8.334,8.334l-8.317,8.317L101.595,208.763z M145.033,181.833l-7.322,7.322l-8.254-8.254l22.968-22.968l8.253,8.253
			l-7.325,7.325l16.632,16.632l-8.32,8.32L145.033,181.833L145.033,181.833z M156.07,154.288l8.675-8.674l14.079,3.41l-3.414-14.075
			l8.678-8.678l24.887,24.887l-8.286,8.286l-12.336-12.335l3.126,14.573l-0.144,0.144l-14.576-3.123l12.336,12.336l-8.139,8.139
			L156.07,154.288L156.07,154.288z M188.225,122.133l8.32-8.32l16.662,16.662l11.699-11.699l8.225,8.225l-20.019,20.019
			L188.225,122.133z"/>
		<path fill="#FFFFFF" d="M251.428,252.291l16.367,16.367l20.156-20.157l19.33,23.13l-13.33,23.183l17.031,17.031l24.257-42.857
			l-2.521-3.012l-39.245-46.938l-3.996-4.795l-4.411,4.411L251.428,252.291z M218.297,219.16l16.369,16.369l39.539-39.539
			l-3.352-4.006l-7.552-9.044l-3.999-4.785L218.297,219.16z"/>
	</g>
</g>
<g id="Warstwa_3" display="none">
	<rect x="73.225" y="73.222" display="inline" fill="#FFE97B" width="353.549" height="353.549"/>
	<path display="inline" fill="#F7DF1E" d="M103.017,249.999l146.984-146.984l146.985,146.984L250.002,396.983L103.017,249.999z"/>
	<path display="inline" d="M264.497,334.182l4.44-18.056c6.016,1.677,11.247,2.959,15.981-1.776c4.539-4.538,5.626-9.175-1.28-16.08
		l-46.965-46.966l13.813-13.813l47.159,47.159c14.307,14.307,12.434,29.205,0.197,41.441c-11.05,11.049-23.187,11.739-33.349,8.09
		 M311.861,283.859l4.734-17.76c7.797,1.876,15.195,1.579,22.003-5.229c5.724-5.723,6.512-12.234,2.564-16.181
		c-4.735-4.735-10.163-2.664-19.238,0.889l-4.935,1.97c-14.206,5.726-26.144,7.006-37.392-4.241
		c-10.359-10.36-10.361-26.145,1.973-38.479c8.781-8.781,18.154-12.037,30.685-8.583l-3.847,17.663
		c-6.611-1.874-10.852-0.987-14.799,2.96c-4.047,4.047-4.046,9.176-0.691,12.53c4.143,4.143,8.385,3.257,16.87-0.098l4.934-1.975
		c16.772-6.708,28.514-8.188,40.057,3.355c12.433,12.432,9.473,29.006-3.649,42.128
		C338.301,285.637,323.896,287.806,311.861,283.859"/>
</g>
<g id="Warstwa_4" display="none">
	<rect x="73.225" y="73.222" display="inline" fill="#53C1DE" width="353.549" height="353.549"/>
	<path display="inline" fill="#FFFFFF" d="M150.812,348.55c14.934,14.934,43.458,14.292,74.304-0.84
		c18.52,27.703,40.917,42.562,60.763,37.235c20.397-5.477,34.506-29.914,36.808-64.197c33.176-2.486,57.235-14.468,62.53-34.321
		c5.443-20.407-10.518-44.229-39.068-63.345c16.028-31.861,17.535-57.143,2.405-72.273c-14.587-14.587-41.815-12.598-72.303,2.273
		c-19.739-29.897-42.219-43.77-62.884-38.221c-19.924,5.349-31.803,29.93-34.15,63.77c-35.537,2.111-58.689,15.059-64.203,35.732
		c-5.317,19.933,10.047,42.503,38.192,61.436C138.737,305.758,136.284,334.021,150.812,348.55z"/>
	<path display="inline" fill="#53C1DE" d="M279.201,165.639c-2.511,1.228-4.99,2.52-7.435,3.872
		c-0.965-1.594-1.959-3.169-2.982-4.729c-16.493-25.051-36.026-38.989-51.09-34.942c-14.445,3.878-23.918,24.37-25.882,52.668
		c-0.191,2.792-0.312,5.588-0.36,8.386c-1.867,0.04-3.733,0.113-5.598,0.222c-29.94,1.777-51.769,11.74-55.788,26.81
		c-3.854,14.451,9.168,32.895,32.707,48.728c2.333,1.567,4.705,3.074,7.115,4.52c-1.611,2.889-3.102,5.741-4.456,8.544
		c-12.11,25.074-13.825,47.108-3.288,57.646c10.884,10.884,34.547,9.055,60.531-3.694c2.105-1.036,4.183-2.124,6.235-3.263
		c1.558,2.594,3.188,5.146,4.889,7.648c15.672,23.016,33.899,35.509,48.293,31.646c14.864-3.991,25.101-25.403,27.039-54.282
		c0.153-2.282,0.247-4.633,0.288-7.04c3.029-0.055,6.057-0.192,9.078-0.415c27.768-2.083,47.694-11.637,51.536-26.037
		c3.966-14.872-9.475-34.433-33.523-50.534c-1.837-1.23-3.757-2.443-5.748-3.642c0.783-1.438,1.535-2.868,2.247-4.285
		c13.463-26.803,15.775-50.685,4.747-61.713C327.181,151.173,304.697,153.202,279.201,165.639L279.201,165.639z"/>
	<path display="inline" fill="#FFFFFF" d="M323.528,218.701c-0.641,1.276-1.32,2.57-2.026,3.872
		c-9.259-4.813-19.741-9.294-31.139-13.355c-4.046-11.049-8.548-21.318-13.377-30.47c2.316-1.276,4.609-2.472,6.868-3.573
		c21.844-10.658,40.027-12.298,46.401-5.925c6.789,6.789,4.896,26.308-6.726,49.449L323.528,218.701z M330.609,240.204
		c10.634,7.122,18.911,14.896,24.021,22.335c4.593,6.683,6.246,12.545,5.151,16.65c-2.331,8.738-18.33,16.409-42.077,18.188
		c-2.723,0.205-5.541,0.333-8.441,0.392c-0.463-10.362-1.811-21.599-3.973-33.412c7.737-9.243,14.526-18.497,20.119-27.451
		C327.211,237.996,328.948,239.094,330.609,240.204L330.609,240.204z M291.193,346.669c-3.496,7.317-7.748,11.678-11.853,12.78
		c-8.733,2.346-23.37-7.688-36.771-27.37c-1.583-2.329-3.098-4.7-4.548-7.112c8.783-5.602,17.892-12.42,27.091-20.239
		c11.695,1.979,23.068,3.175,33.699,3.551c-0.035,2.144-0.124,4.287-0.265,6.426C297.689,327.475,295.086,338.527,291.193,346.669
		L291.193,346.669z M218.003,324.143c-11.49,5.635-22.366,8.903-31.363,9.601c-8.086,0.626-13.989-0.88-16.994-3.885
		c-6.394-6.394-5.017-24.084,5.34-45.528c1.303-2.688,2.684-5.339,4.143-7.946c9.345,4.949,19.702,9.54,30.738,13.619
		c4.146,11.194,8.814,21.71,13.829,31.161C221.823,322.203,219.925,323.196,218.003,324.143z M168.696,257.851
		c-20.168-13.567-30.7-28.482-28.377-37.19c2.475-9.278,20.316-17.419,46.165-18.953c1.654-0.098,3.346-0.164,5.068-0.203
		c0.377,10.58,1.571,21.86,3.553,33.473c-7.493,9.025-14.17,18.161-19.792,27.076c-2.241-1.345-4.448-2.747-6.618-4.203H168.696
		L168.696,257.851z M263.151,200.803c-4.684-1.247-9.391-2.396-14.123-3.441c6.312-4.897,12.619-9.324,18.812-13.214
		c3.337,6.364,6.523,13.323,9.501,20.742C272.638,203.433,267.907,202.071,263.151,200.803L263.151,200.803z M202.17,201.606
		c7.208,0.288,14.859,1.009,22.811,2.142c-7.242,6.588-14.17,13.512-20.762,20.752C203.132,216.588,202.448,208.913,202.17,201.606z
		 M201.221,262.835c1.265,4.711,2.64,9.392,4.125,14.038c-7.366-2.997-14.331-6.223-20.776-9.615
		c3.89-6.131,8.316-12.393,13.188-18.655C198.801,253.373,199.956,258.119,201.221,262.835z M251.596,302.123
		c-6.393,5.108-12.687,9.662-18.787,13.58c-3.455-6.557-6.749-13.67-9.811-21.195c4.656,1.479,9.346,2.85,14.066,4.107
		C241.88,299.901,246.724,301.07,251.596,302.123z M298.635,297.656c-7.392-0.282-15.182-0.979-23.21-2.079
		c3.494-3.229,6.99-6.591,10.474-10.075c3.58-3.579,7.037-7.198,10.366-10.837C297.492,282.732,298.288,290.436,298.635,297.656z
		 M294.781,222.188c7.695,3.002,14.851,6.201,21.346,9.55c-3.93,6.255-8.492,12.688-13.59,19.175
		c-1.086-4.799-2.268-9.576-3.545-14.328C297.696,231.755,296.292,226.956,294.781,222.188L294.781,222.188z M288.745,239.335
		c1.962,7.281,3.686,14.624,5.17,22.018c-4.839,5.582-10.03,11.158-15.519,16.646c-5.464,5.465-10.951,10.61-16.401,15.398
		c-7.46-1.397-14.865-3.076-22.198-5.031c-7.294-1.945-14.514-4.166-21.641-6.658c-2.499-7.123-4.731-14.337-6.688-21.627
		l0.001,0.002c-1.959-7.291-3.64-14.653-5.041-22.071c4.828-5.616,9.976-11.179,15.388-16.591
		c5.438-5.438,11.007-10.592,16.627-15.416c7.38,1.426,14.709,3.108,21.972,5.049c7.288,1.938,14.513,4.112,21.66,6.52
		C284.559,224.747,286.781,232.006,288.745,239.335L288.745,239.335z M220.447,140.085c9.271-2.488,25.236,8.9,39.476,30.53
		c0.926,1.411,1.827,2.839,2.703,4.282c-8.967,5.604-18.13,12.264-27.191,19.771c-11.696-2.045-22.945-3.293-33.371-3.683
		c0.047-2.582,0.159-5.166,0.334-7.742C204.079,158.994,211.741,142.422,220.447,140.085L220.447,140.085z"/>
	<path display="inline" fill="#53C1DE" d="M234.27,233.874c8.662-8.662,22.703-8.661,31.363-0.001c8.661,8.662,8.66,22.704,0,31.364
		c-8.661,8.661-22.704,8.66-31.364-0.001C225.609,256.576,225.609,242.534,234.27,233.874"/>
</g>
<g id="Warstwa_5" display="none">
	<rect x="73.225" y="73.222" display="inline" fill="#AE94FF" width="353.549" height="353.549"/>
	<path display="inline" fill="#764ABC" d="M308.106,234.995c6.271-7.717,5.547-19.053-1.93-26.044
		c-7.476-6.994-19.291-6.753-26.525,0.482l-0.482,0.482c-7.236,7.718-6.752,19.774,0.963,27.009
		c3.859,3.376,8.439,5.064,12.781,5.065c7.961,24.357,7.236,48.713-1.685,77.412c-6.029,19.533-16.88,35.207-31.832,46.782
		c-12.3,9.405-25.563,13.021-38.827,10.369c-19.533-4.101-33.039-16.159-39.309-35.45c-4.583-13.747-4.102-27.733-2.895-35.69
		c-4.101-2.172-10.852-6.029-15.435-9.165c-9.646,60.29,28.217,90.918,54.985,96.466c20.016,4.101,43.65-4.582,61.496-22.428
		c4.822-4.823,9.162-10.128,12.78-16.155C317.031,317.229,322.094,275.508,308.106,234.995L308.106,234.995z M320.647,162.647
		c-39.791-3.136-78.617,12.057-109.486,42.926l-3.857,3.856c-6.511-2.171-13.988-0.481-19.053,4.583l-0.482,0.482
		c-7.233,7.716-6.751,19.773,0.966,27.01c7.475,6.992,19.293,6.752,26.527-0.481l0.482-0.482c5.064-5.546,6.271-13.505,3.617-20.016
		l4.341-4.342c18.327-18.327,40.995-30.385,67.04-35.69c20.017-4.101,39.069-2.412,56.431,5.306
		c14.229,6.029,23.875,16.158,27.976,28.941c6.028,19.531,1.688,37.86-13.264,52.812c-9.646,9.646-21.705,15.915-28.697,18.568
		c-0.24,5.065-1.205,13.746-2.17,19.535c15.192-5.548,28.456-13.506,38.585-23.634c23.15-23.151,27.49-53.053,21.22-72.346
		C383.828,188.693,359.231,165.06,320.647,162.647L320.647,162.647z M232.143,319.154c7.477,6.994,19.293,6.754,26.527-0.48
		l0.483-0.483c7.232-7.716,6.751-19.774-0.965-27.009c-7.477-6.994-19.292-6.753-26.527,0.481l-0.482,0.483
		c-0.483,0.482-1.207,1.206-1.448,1.928c-26.285-6.512-48.23-20.257-66.077-40.997c-13.504-15.435-21.222-32.798-23.153-51.608
		c-1.929-15.917,7.235-33.761,16.159-43.167c25.077-26.043,67.762-5.061,81.268,6.996c3.858-2.412,10.853-6.029,15.675-8.44
		c-41.961-36.174-86.333-32.317-109.484-9.166c-21.704,21.704-26.044,57.395-10.851,88.504
		c19.775,41.962,56.673,64.389,93.569,74.277c0.485,2.895,2.413,6.272,5.308,8.684L232.143,319.154L232.143,319.154z"/>
</g>
<g id="Warstwa_6" display="none">
	<rect x="73.225" y="73.222" display="inline" fill="#F495C9" width="353.549" height="353.549"/>
	<path display="inline" fill="#CF649A" d="M337.487,151.716c-7.894,7.982-12.859,16.763-15.787,25.366
		c-6.343-2.083-12.151-3.636-15.255-6.032c-3.592-2.795-6.03-4.258-9.355-8.56c-3.327-4.301-6.521-11.928-6.964-12.371
		c-0.444-0.355-2.838-1.863-7.449,2.659c-4.612,4.522-7.629,9.402-6.875,11.042c0.755,1.64,2.617,5.277,4.878,8.692
		c3.371,4.966,9.801,28.071,12.817,40.576c-4.568-1.465-8.561-2.794-10.955-4.657c-3.591-2.794-6.031-4.257-9.356-8.56
		c-3.327-4.301-6.519-11.928-6.963-12.373c-0.442-0.354-2.837-1.863-7.448,2.659c-4.613,4.524-7.628,9.402-6.874,11.042
		c0.754,1.641,3.104,4.967,4.878,8.691c1.819,3.681,15.388,39.425,18.937,48.737c1.818,4.744,3.148,8.647,3.991,11.353
		c0.844,2.705,0.088,0.178,0.178,0.443c0.709,2.306,1.108,3.594,1.108,3.594l0.044,0.044c0.486,1.728,0.887,3.458,0.575,3.77
		c-0.222,0.222-3.636-2.308-6.962-7.14c-6.919-10.199-16.274-27.538-16.807-27.983c-0.222-0.221-1.82-3.326-6.343-1.197
		c-4.434,2.04-3.591,5.188-3.858,5.455c-0.266,0.266,0.223,1.197,0.223,1.197s-11.441-18.625-21.907-8.159
		c-6.563,6.563-8.47,22.75-6.43,33.747c-1.287,4.39-4.036,13.702-6.918,23.592c-1.109,3.771-2.217,7.717-3.326,11.397l-1.021-0.046
		c-26.208-0.843-59.246,13.036-76.452-6.121c-6.253-6.962-21.374-26.696-0.088-90.199c17.427-52.018,49.977-75.079,65.365-69.357
		c21.951,8.204,28.249,57.961-3.813,98.093c-12.196,15.3-24.746,17.208-28.559,17.029c-3.992-0.177-4.347,0-4.657,1.109
		c-0.533,1.772,2.04,2.927,3.592,3.592c3.858,1.73,13.26,2.262,23.281-2.794c8.78-4.434,26.12-19.379,38.093-46.429
		c13.393-30.333,6.963-70.91-17.693-85.544c-25.1-14.9-64.833,11.707-85.055,54.189c-12.018,25.323-21.862,55.921-22.794,84.081
		c-1.153,33.438,10.2,50.288,17.206,54.988c24.923,16.851,67.317,1.685,88.913,0.223c-0.267,0.886-0.488,1.729-0.71,2.483
		c-2.926,8.602-13.392,42.04-6.742,59.688c7.54,19.955,24.613,22.662,30.734,19.203c18.936-10.688,26.696-33.259,22.705-53.66
		c-4.035-20.354-20.842-35.21-31.84-38.669l-0.4-0.132l1.861-7.186c1.199-4.655,2.485-9.135,3.637-13.038
		c2.44,5.277,5.987,10.865,12.108,18.05c7.185,8.426,20.486,15.344,28.69,15.121c3.592-0.134,5.854-2.306,7.229-3.68
		c4.878-4.878,3.058-11.132,0.665-18.403c-2.884-8.914-7.053-18.404-7.053-18.404s15.168,21.818,24.258,12.728
		c3.325-3.325,2.35-10.954,1.64-14.679l0.045,0.045c0,0-0.045-0.222-0.177-0.709c-0.09-0.463-0.192-0.921-0.31-1.374l-0.089-0.089
		c-0.977-3.637-3.282-11.886-7.583-25.056c-5.544-16.983-14.146-36.585-14.146-36.585s3.991,2.927,11.308,6.962
		c4.346,2.396,10.154,3.947,15.387,5.898c0.533,3.194,0.8,5.058,0.8,5.058l0.089-0.001c0.355,2.484,0.667,5.189,0.932,7.938
		c0.886,9.933,1.642,21.509,2.706,23.991c1.241,2.926,2.971,4.301,5.853,3.902c2.084-0.311,4.391-2.262,6.475-4.701
		c3.813-4.346,5.633-8.203,6.43-10.243c1.419-3.017,2.749-6.74,3.415-10.953c1.151-7.716-0.798-15.078-7.273-21.021
		c-3.546-3.281-8.025-5.542-12.593-7.361c-0.177-0.975-0.354-1.952-0.577-2.971c-3.237-17.251-9.091-33.925-9.091-33.925
		s3.993,2.926,11.308,6.962c3.726,2.041,8.56,3.504,13.173,5.101c-1.198,11.929,0.887,22.261,3.547,27.76
		c4.922,10.155,10.378,11.53,15.033,8.47c2.084-1.374,3.771-4.656,4.834-7.316c1.552-3.059,3.06-7.139,3.725-11.62
		c1.153-7.716,0.843-16.541-5.542-22.484c-2.972-2.705-6.519-4.744-10.199-6.386c3.282-7.893,9.178-16.452,19.468-24.522
		c22.039-17.428,38.271-9.003,42.66-3.104c4.393,5.898,3.105,12.86,2.616,15.122c-0.533,2.218-0.664,2.973,0.091,3.46
		c1.107,0.754,1.684,0.089,2.704-1.285c1.374-1.908,6.163-14.59-2.971-24.435C382.765,132.78,357.887,131.051,337.487,151.716
		L337.487,151.716z M236.6,355.219c0.622,13.66-5.854,25.543-12.062,27.141c-6.652,1.774-15.522-10.377-15.078-25.986
		c0.266-9.49,2.351-20.09,3.903-26.875c0.355-1.506,0.932-3.769,1.596-6.475c0.089-0.442,0.178-0.708,0.178-0.708
		c0.131-0.487,0.265-1.063,0.398-1.641C229.327,328.522,235.98,340.852,236.6,355.219L236.6,355.219z M251.856,275.13
		c3.281,7.806,12.727,26.83,9.046,28.913c-3.148,1.82-15.432-7.45-22.572-21.595c-3.593-7.141-6.208-17.295-6.476-21.996
		c-0.398-7.584,2.174-12.816,4.791-12.151C239.926,249.277,249.816,270.253,251.856,275.13z M309.992,254.599
		c-0.487,1.464-1.021,2.705-1.684,2.839c-0.488,0.133-0.445-1.24-0.445-1.24s-0.354-10.202-0.842-14.591
		c-0.311-2.526-0.622-5.498-1.064-8.78l0.532,0.533C312.875,239.743,311.014,250.119,309.992,254.599L309.992,254.599z
		 M333.406,217.348c-1.241,0.177-2.792-1.552-5.543-9.091c-1.107-2.972-2.396-8.514-1.95-15.432
		c1.772,0.887,3.325,1.906,4.479,3.149C338.33,204.001,335.623,212.647,333.406,217.348z"/>
</g>
<g id="Warstwa_7" display="none">
	<rect x="73.225" y="73.222" display="inline" fill="#121966" width="353.549" height="353.549"/>
	
		<radialGradient id="SVGID_5_" cx="-932.4285" cy="1078.3818" r="0.0685" gradientTransform="matrix(1620.4565 -1620.4565 1568.8966 1568.8966 -180725 -3202593)" gradientUnits="userSpaceOnUse">
		<stop  offset="0" style="stop-color:#34364E;stop-opacity:0.98"/>
		<stop  offset="1" style="stop-color:#0C0824"/>
	</radialGradient>
	<path display="inline" fill="url(#SVGID_5_)" d="M107.052,251.976l144.927-144.928l140.976,140.976L248.027,392.951
		L107.052,251.976z"/>
	<path display="inline" fill="#31C5F0" d="M107.052,251.976l144.927-144.928l140.976,140.976L248.027,392.951L107.052,251.976z
		 M248.027,406.125l158.102-158.102l-154.15-154.15L93.877,251.975L248.027,406.125L248.027,406.125z M263.704,208.63
		c-5.204,5.203-4.347,9.617-2.172,11.791c2.37,2.371,5.203,2.833,15.811-0.527c15.348-5.334,23.384-3.755,30.434,3.294
		c10.539,10.539,8.169,24.243-2.7,35.111c-5.731,5.732-11.86,9.486-16.339,10.674c-0.659,0.262-1.053,0-1.58-0.527l-9.685-9.685
		c-0.658-0.658-0.527-1.187,0.264-1.317c6.85-1.45,12.779-5.005,17.129-9.355c5.203-5.202,5.203-9.551,2.239-12.515
		c-2.373-2.373-5.997-2.966-16.075,0.262c-13.835,4.877-22.266,4.217-29.841-3.358c-8.5-8.5-8.895-22.202,2.633-33.729
		c5.666-5.666,10.476-8.762,13.637-9.947c0.856-0.198,1.517,0.197,1.977,0.657l9.024,9.024c0.527,0.528,0.527,1.187-0.329,1.649
		C273.389,201.185,267.988,204.347,263.704,208.63L263.704,208.63z M214.891,273.122c1.646-1.385,2.832-2.57,5.467-5.206
		c7.707-7.707,12.253-17.653,1.779-28.127c-8.367-8.367-17.788-7.378-26.549,1.383c-2.634,2.634-5.006,5.27-6.127,6.521
		L214.891,273.122L214.891,273.122z M168.185,249.868c-0.462-0.462,0.132-1.714,0.658-2.24c4.019-4.413,10.145-10.803,16.668-17.326
		c18.247-18.247,35.373-15.348,48.154-2.567c16.732,16.732,11.793,36.034-3.094,50.922c-2.503,2.504-3.493,3.227-5.272,5.006
		l25.296,25.297c0.528,0.527,0.593,0.987,0,1.58l-10.079,10.079c-0.527,0.526-0.988,0.594-1.581,0.001L168.185,249.868
		L168.185,249.868z"/>
</g>
<g id="Warstwa_8" display="none">
	<rect x="73.225" y="73.222" display="inline" fill="#AF5504" width="353.549" height="353.549"/>
	
		<radialGradient id="SVGID_6_" cx="-932.4285" cy="1078.3818" r="0.0685" gradientTransform="matrix(1620.4565 -1620.4565 1568.8966 1568.8966 -180725 -3202593)" gradientUnits="userSpaceOnUse">
		<stop  offset="0" style="stop-color:#423325;stop-opacity:0.98"/>
		<stop  offset="1" style="stop-color:#1C0A00"/>
	</radialGradient>
	<path display="inline" fill="url(#SVGID_6_)" d="M107.052,251.976l144.927-144.928l140.975,140.975L248.026,392.949
		L107.052,251.976z"/>
	<path display="inline" fill="#FF7F18" d="M107.052,251.976l144.927-144.928l140.975,140.975L248.026,392.949L107.052,251.976z
		 M248.027,406.125l158.102-158.102l-154.15-154.15L93.877,251.975L248.027,406.125L248.027,406.125z M252.373,203.36
		c-0.527-0.526-0.593-0.988,0.001-1.582l10.342-10.342c0.526-0.526,0.987-0.593,1.581,0.001l51.977,51.976
		c0.525,0.526,0.657,0.922,0,1.58l-10.211,10.21c-0.659,0.659-1.185,0.526-1.712-0.002l-51.91-51.91L252.373,203.36L252.373,203.36z
		 M236.696,189.13c-4.217-4.216-3.756-9.683,0-13.439c4.019-4.019,9.421-4.018,13.439,0c4.348,4.348,3.886,9.551-0.132,13.57
		C246.182,193.083,241.044,193.479,236.696,189.13z M243.679,255.401c-9.157-5.468-29.447-17.063-38.801-23.123l-0.133,0.133
		c6.324,9.091,15.876,25.625,23.321,38.604L243.679,255.401z M236.037,284.387l14.559,24.968c0.394,0.657,0.329,0.987-0.329,1.646
		l-9.684,9.684c-0.659,0.659-0.989,0.593-1.647-0.329l-46.772-84.189c-0.856-1.515-1.712-2.767-4.809-6.126
		c-0.461-0.461-0.46-0.856-0.131-1.186l13.833-13.833c0.46-0.461,0.791-0.528,1.449-0.134l92.027,50.132
		c0.659,0.396,0.857,0.857,0.33,1.385l-10.937,10.937c-0.525,0.526-0.988,0.724-1.581,0.394l-25.229-14.427L236.037,284.387
		L236.037,284.387z"/>
</g>
<g id="Warstwa_9" display="none">
	<rect x="73.225" y="73.222" display="inline" fill="#FCE37C" width="353.549" height="353.549"/>
	
		<linearGradient id="SVGID_7_" gradientUnits="userSpaceOnUse" x1="123.241" y1="120.5845" x2="280.1666" y2="276.2268" gradientTransform="matrix(0.7071 -0.7071 0.7071 0.7071 -103.5504 249.9985)">
		<stop  offset="0" style="stop-color:#387EB8"/>
		<stop  offset="1" style="stop-color:#366994"/>
	</linearGradient>
	<path display="inline" fill="url(#SVGID_7_)" d="M140.472,137.619c-56.629,56.629-28.536,77.651-28.536,77.651l25.506,25.38
		l54.04-54.04l7.638,7.638l-75.504,75.503c0,0-40.347,32.128,16.792,89.266c57.14,57.141,86.742,23.486,86.742,23.486l18.875-18.876
		l-26.515-26.516c0,0-32.646-30.61-0.504-62.752l53.598-53.598c0,0,30.6-29.626,1.01-59.217l-48.925-48.925
		C224.688,112.622,199.653,78.438,140.472,137.619z M127.783,184.528c5.36-5.37,14.057-5.376,19.426-0.018
		c0.006,0.006,0.012,0.012,0.017,0.018c5.37,5.359,5.377,14.058,0.018,19.427c-0.005,0.005-0.012,0.012-0.018,0.017
		c-5.359,5.369-14.056,5.376-19.425,0.018c-0.006-0.006-0.012-0.012-0.018-0.018c-5.369-5.359-5.377-14.057-0.018-19.426
		C127.772,184.54,127.778,184.534,127.783,184.528z"/>
	
		<linearGradient id="SVGID_8_" gradientUnits="userSpaceOnUse" x1="220.7927" y1="221.5381" x2="387.7183" y2="379.5921" gradientTransform="matrix(0.7071 -0.7071 0.7071 0.7071 -103.5504 249.9985)">
		<stop  offset="0" style="stop-color:#FFE052"/>
		<stop  offset="1" style="stop-color:#FFC331"/>
	</linearGradient>
	<path display="inline" fill="url(#SVGID_8_)" d="M363.99,357.922c56.629-56.628,28.535-77.65,28.535-77.65l-25.504-25.378
		l-54.041,54.041l-7.64-7.64l75.504-75.504c0,0,40.348-32.126-16.792-89.267c-57.14-57.139-86.742-23.484-86.742-23.484
		l-18.875,18.875l26.515,26.515c0,0,32.645,30.611,0.504,62.752l-53.598,53.598c0,0-30.599,29.627-1.007,59.22l48.925,48.925
		c0,0,25.035,34.181,84.216-25V357.922L363.99,357.922z M376.68,311.017c-5.358,5.37-14.057,5.377-19.425,0.017
		c-0.007-0.006-0.012-0.012-0.018-0.017c-5.371-5.358-5.379-14.056-0.02-19.426c0.007-0.007,0.013-0.013,0.019-0.019
		c5.359-5.369,14.058-5.377,19.427-0.018c0.005,0.006,0.012,0.012,0.017,0.017c5.368,5.36,5.376,14.059,0.018,19.427
		C376.691,311.005,376.686,311.01,376.68,311.017L376.68,311.017z"/>
</g>
<g id="Warstwa_10" display="none">
	<rect x="73.225" y="73.222" display="inline" fill="#8AAFC1" width="353.549" height="353.549"/>
	<path display="inline" fill="none" d="M34.091,289.134L289.136,34.089l176.776,176.776L210.867,465.91L34.091,289.134z"/>
	<path display="inline" fill="#5D87A1" d="M247.153,341.813l-6.904,6.904c-11.899-11.41-23.529-21.695-34.896-30.862l-0.062,0.062
		l22.366,43.392l-5.256,5.257l-43.33-22.429l-0.059,0.06c9.083,10.634,19.554,22.08,31.413,34.345l-6.294,6.294
		c-14.262-15.072-26.993-29.842-38.2-44.309l8.558-8.558l40.275,20.354l0.062-0.062l-20.293-40.337l8.188-8.188
		C219.549,316.978,234.36,329.67,247.153,341.813 M246.662,281.429c12.444,18.068,19.821,32.863,22.137,44.385
		c1.739,8.914,0.475,15.51-3.803,19.788c-1.142,1.141-2.894,2.203-5.243,3.189l-3.679-3.679c0.932-0.697,1.955-1.588,3.055-2.687
		c1.998-1.999,3.056-4.155,3.178-6.482c0.124-2.807-0.653-5.05-2.322-6.719c-1.145-1.145-4.057-2.914-8.739-5.318l-31.108-15.952
		l6.785-6.785l23.036,12.162c5.219,2.773,8.519,5.053,9.904,6.846c-4.969-10.917-11.553-21.652-19.74-32.209L246.662,281.429
		L246.662,281.429z"/>
	<path display="inline" fill="#F8981D" d="M369.009,219.956l-19.613,19.613l-41.254-41.254l6.598-6.598l36.176,36.176l13.015-13.015
		L369.009,219.956z M345.257,245.701l-11.326,3.841c0.119-1.223,0.163-2.464,0.052-3.736c-0.562-7.01-4.555-14.217-11.973-21.634
		c-13.648-13.649-25.83-15.121-36.547-4.405c-5.254,5.255-7.62,11.084-7.086,17.482c0.568,7.009,4.54,14.197,11.918,21.575
		c7.25,7.25,13.995,11.146,20.221,11.671c5.666,0.446,11.128-1.953,16.388-7.213c1.962-1.961,3.521-4.002,4.677-6.125l15.623-4.128
		L345.257,245.701z M311.438,261.018c-4.357-1.018-9.508-4.495-15.459-10.445c-10.387-10.387-12.43-18.742-6.112-25.06
		c3.303-3.303,6.967-4.48,10.996-3.545c4.36,1.023,9.475,4.461,15.34,10.327c10.474,10.473,12.552,18.869,6.24,25.181
		C319.14,260.781,315.481,261.96,311.438,261.018 M295.909,270.188c3.497,3.497,5.085,7.651,4.77,12.464
		c-0.33,4.807-2.648,9.369-6.964,13.685c-4.033,4.034-9.234,6.658-15.585,7.879l-1.771-5.314c4.892-1.627,8.651-3.767,11.3-6.415
		c2.485-2.485,3.878-4.978,4.193-7.479c0.312-2.506-0.389-4.882-2.334-6.828c-2.451-2.451-6.256-2.836-11.145-1.456
		c-4.479,1.304-13.582,3.767-13.582,3.767c-5.418,0.852-9.438-0.034-13.478-4.073c-3.344-3.345-4.875-7.213-4.585-11.608
		c0.282-4.405,2.28-8.456,5.987-12.163c3.83-3.83,8.336-6.286,13.502-7.391l1.952,5.135c-3.82,1.543-7.036,3.62-9.647,6.231
		c-2.115,2.114-3.239,4.255-3.354,6.411c-0.128,2.162,0.466,4.169,2.062,5.765c2.44,2.44,6.307,2.815,11.316,1.382
		c4.521-1.339,13.823-3.887,13.823-3.887C287.866,265.354,291.9,266.179,295.909,270.188"/>
	<path display="inline" fill="#5D87A1" d="M322.221,156.602c-4.092,3.89-6.778,7.379-8.274,11.068
		c-0.448,1.047-1.641,2.238-0.798,3.288c0.804-0.003,1.496,0.596,2.399,0.797c1.597,0.398,3.977,0.698,5.629,0.445
		c1.847-0.244,3.687-0.501,5.485-0.903c3.137-0.739,6.032-2.237,9.116-2.933c1.796-0.404,3.79-0.601,5.64-0.954
		c0.942-0.144,1.935,0.156,2.887-0.294l-0.152-0.153c-0.798-0.097-1.549-0.644-2.392-0.798l-2.939,0.053
		c-3.392-0.498-6.883-0.396-10.216,0.152c-2.696,0.497-7.68,2.49-10.166,1.3l-0.203-0.001c0.995-1.199,1.899-2.898,2.633-4.244
		c1.249-2.144,2.896-3.588,4.19-5.776c0.602-1.001,1.144-2.046,1.702-3.096l-0.451-0.451c-1.8,0.005-3.637-0.545-5.434-0.443
		c-4.73,0.345-9.671,0.997-14.355,2.093c-2.546,0.548-5.182,1.896-7.679,2.694c-0.894,0.292-2.042,1.144-2.89,0.996
		c-1.992-0.202-3.938-1.143-5.884-1.793c-4.181-1.297-8.622-2.937-12.761-4.591c-2.844-1.044-5.329-2.436-8.224-3.136
		c-13.61-3.336-24.319-2.89-37.929,0.647c-2.893,0.794-5.532,2.541-8.424,4.333l-3.938,3.542c-1.147,0.447-2.894,0.297-4.038,0.544
		c-4.641,1.054-15.849,4.489-12.81,11.715c1.895,4.591,8.427,4.437,11.216,4.937c1.99,0.295,4.389,0.495,6.279,1.2
		c1.198,0.496,2.196,1.295,3.44,1.843c2.993,1.395,6.18,3.089,9.275,4.086c1.59,0.498,3.284,0.997,4.926,1.245
		c0.952,0.152,1.895-0.301,2.946,0.446c0.297,1.689,1.74,3.242,2.589,4.886c3.838,7.425,11.515,13.701,18.197,15.299
		c2.04,0.451,6.682,1.296,8.167-2.292c1.352-3.144-1.985-5.486-3.833-8.624c-0.453-0.751-0.948-1.047-1.043-1.739l0.097,0.097
		c2.091,0.699,4.137,1.339,6.178,2.094c3.988,0.894,9.225,0.743,13.158,0.19c2.096-0.291,4.584,0.305,6.63-0.639l-0.15-0.15
		l-0.099,0.099c-0.75-0.144-1.394,0.1-2.138,0.149c-1.796,0-3.888-0.101-5.582-0.397c-4.883-0.704-9.821-1.947-14.652-3.496
		c-2.352-0.743-4.737-1.743-6.928-2.643c-0.898-0.293-1.799-1.192-2.601-0.993c0.347,1.845,0.203,3.886,0.997,5.777
		c1.198,3.096,3.741,5.834,6.135,8.933l-0.102,0.293c-1.984,1.188-4.181,0.098-6.176-0.693c-5.035-2.048-10.972-7.481-13.761-12.861
		c-0.698-1.392-2.488-6.184-4.082-6.581c-1.255-0.653-2.794-0.2-4.093-0.401c-1.588-0.302-3.485-0.795-4.985-1.394
		c-3.983-1.595-7.678-4.083-11.753-5.585c-1.902-0.699-4.291-0.999-6.335-1.351c-2.295-0.393-4.288-0.297-6.633-1.141
		c-0.796-0.299-2.042-0.847-2.239-1.844c-0.3-0.498-0.248-0.85,0.049-1.347c0.1-1.189,2.639-2.343,3.587-2.688
		c2.596-1.101,4.837-1.949,7.428-2.446c1.195-0.194,2.892,0.003,4.036-0.643l1.049-1.049c1.939-1.245,3.484-3.29,5.433-4.337
		c3.489-1.792,7.126-2.941,10.615-3.74c10.668-2.39,21.937-1.891,32.596,1.501c1.74,0.549,3.043,1.345,4.782,1.993
		c3.494,1.396,7.285,2.589,10.721,3.939c3.389,1.296,6.777,2.686,10.218,3.138c1.793,0.299,5.337-2.147,7.229-2.942
		c1.44-0.547,3.386-1.697,4.831-2.045c2.741-0.651,5.629-1.141,8.373-1.587C317.331,157.002,321.073,155.753,322.221,156.602
		 M228.063,164.129c-0.696,0.684-1.298,1.451-1.791,2.293l0.1,0.1l0.097-0.097c1.198,0.396,2.448,0.249,3.643,0.447
		c1.2,0.397,2.339,0.842,3.533,1.246l-0.004-0.194c0.207-1.202-0.243-2.349-1.439-3.545c-0.655-0.049-1.045-0.348-1.647-0.444
		C229.759,163.729,228.864,164.129,228.063,164.129"/>
	<path display="inline" fill="#F8981D" d="M382.032,206.918l1.031-1.031l-5.053-5.053l-1.549,1.549l2.187,4.711l-4.823-2.075
		l-1.489,1.489l5.053,5.053l0.975-0.975l-3.846-3.845l0.056-0.055l5.282,2.408l0.744-0.744l-2.412-5.278L382.032,206.918
		L382.032,206.918z M373.712,215.238l1.093-1.093l-4.197-4.198l1.43-1.43l-0.857-0.857l-4.014,4.014l0.857,0.857l1.487-1.488
		L373.712,215.238L373.712,215.238z"/>
</g>
<g id="Warstwa_11" display="none">
	<rect x="73.225" y="73.222" display="inline" fill="#E8B5B5" width="353.549" height="353.549"/>
	<path display="inline" fill="#2F2707" d="M257.325,212.755c-4.919,4.919-6.167,10.999-0.354,16.813
		c4.38,4.38,9.836,5.008,15.739-0.896c5.006-5.005,5.455-11.353,0.801-16.007C268.238,207.39,262.423,207.657,257.325,212.755
		L257.325,212.755z M288.541,263.643c0.266,2.592,0.621,5.272,2.413,7.063c3.575,3.575,9.209,0.092,15.473-6.173
		c5.186-5.186,11.887-12.614,7.064-17.437c-2.866-2.866-6.441,0.356-11.006,4.382L288.541,263.643L288.541,263.643z
		 M274.231,196.391c3.662,0.45,8.228,1.611,12.341,5.725c9.926,9.925,7.958,23.517-3.308,34.783
		c-2.866,2.866-5.814,5.102-7.869,6.264l1.784,7.691l9.302-8.228c16.458-14.485,26.024-23.157,37.913-11.268
		c10.287,10.287,7.067,25.127-8.493,40.688c-16.187,16.186-26.471,18.244-33.536,11.179c-4.024-4.024-4.377-7.956-4.203-14.04
		c-4.2,1.702-7.416,0.449-9.833-1.967c-1.969-1.969-2.773-4.737-2.863-8.051c-0.088-3.304,0-6.795,0.179-10.908
		c-6.526,2.234-14.487,0.895-21.107-5.725c-10.282-10.282-10.547-24.141,3.133-37.821c3.846-3.846,6.524-5.819,9.123-7.336
		l17.44-17.44l7.599,7.599L274.231,196.391L274.231,196.391z M281.942,156.177c-5.1,5.099-11.004,5.096-16.104-0.003
		c-5.093-5.092-4.916-10.818,0.183-15.917c5.186-5.187,10.914-5.364,16.006-0.271C287.126,145.085,287.128,150.99,281.942,156.177z
		 M324.144,221.459l-7.062-7.062l3.939-5.188c1.071-1.432,0.98-1.876-0.363-3.221l-26.293-26.292
		c-0.98-0.98-1.876-1.344-3.039-0.712l-6.528,3.128l-6.257-8.226l18.513-18.513l37.109,37.109c1.433,1.433,1.697,1.526,3.225,0.361
		l5.185-3.936l7.061,7.061L324.144,221.459z M381.531,157.137c-1.97,5.724-5.905,13.057-11.004,18.156
		c-10.642,10.641-18.951,10.377-29.063,0.267l-23.428-23.428c-0.536-0.536-0.894-0.894-1.611-0.176l-6.26,6.26l-7.963-7.962
		c6.976-8.769,6.17-15.832-2.595-26.562l8.497-8.496l12.701,12.701c0.624,0.625,0.895,0.895,1.612,0.177l12.607-12.608l8.942,8.942
		l-13.326,13.325l21.373,21.373c5.276,5.276,8.585,6.077,13.412,1.25c2.507-2.507,4.474-5.722,5.813-8.671L381.531,157.137"/>
	<path display="inline" fill="#DE4C36" d="M225.557,266.175l-81.775,0.002c-4.709,0-8.528,3.817-8.53,8.527
		c0,0.001,0.001,0.002,0,0.003l0.001,16.982h21.541c1.705-3.462,5.228-5.654,9.085-5.652c3.882,0.002,7.421,2.22,9.116,5.712
		l20.76,0.001c1.646-3.376,5.104-5.714,9.118-5.711c5.603-0.002,10.146,4.539,10.148,10.143c0,0.002,0,0.004,0,0.006
		c0.003,5.605-4.538,10.152-10.144,10.154c-4.099,0.002-7.798-2.464-9.374-6.248l-19.359,0.001l25.473,25.475
		c1.048-0.354,2.147-0.537,3.256-0.541c5.605-0.001,10.15,4.543,10.151,10.148c0,0,0,0.001,0,0.003
		c0,5.607-4.546,10.152-10.149,10.148c-5.605,0.002-10.151-4.541-10.153-10.146c0-1.345,0.267-2.678,0.785-3.92l-25.712-25.711
		c-1.239,0.521-2.572,0.786-3.915,0.783c-4.245,0.002-7.872-2.604-9.392-6.301h-21.236l-0.002,56.068
		c0,4.713,3.819,8.532,8.532,8.532c0,0,0,0,0,0.001l81.776-0.003c4.71-0.001,8.529-3.819,8.53-8.529l0.001-81.396
		C234.089,269.996,230.27,266.176,225.557,266.175"/>
</g>
<g id="Warstwa_12">
	<rect x="73.225" y="73.222" fill="#5BAABC" width="353.549" height="353.549"/>
	<g>
		<path fill="#364548" d="M221.725,356.293l-12.339-12.34c-1.622-1.622-1.91-3.938-0.231-5.616l0.464-0.464
			c1.678-1.679,3.991-1.384,5.611,0.236l25.977,25.978c6.335,6.335,8.246,14.505,6.004,23.169c-1.02,3.979-3.094,7.607-6.003,10.506
			l-1.16,1.159c-6.335,6.336-14.502,8.237-23.168,6.004c-3.98-1.016-7.611-3.092-10.506-6.005l-1.158-1.157
			c-6.337-6.338-8.244-14.506-6.012-23.173c1.015-3.982,3.09-7.612,6.005-10.508l1.16-1.16
			C210.657,358.637,215.957,356.66,221.725,356.293L221.725,356.293z M211.636,392.497c4.577,4.577,10.235,5.798,16.439,3.983
			c2.509-0.734,4.744-2.018,6.594-3.868c4.492-4.491,5.705-9.942,4.196-16.046c-0.702-2.839-2.142-5.274-4.201-7.333
			c-3.967-3.968-8.939-5.185-14.436-4.288c-3.332,0.545-6.212,2.027-8.591,4.407c-4.896,4.896-5.946,10.893-3.667,17.4
			C208.742,388.951,209.994,390.855,211.636,392.497L211.636,392.497z M243.479,325.814l0.81-0.811
			c6.771-6.771,15.204-8.634,24.377-5.988c3.668,1.062,6.947,2.941,9.651,5.646l1.157,1.157c6.336,6.335,8.26,14.506,6.001,23.173
			c-1.045,4.013-3.07,7.573-6.001,10.503l-1.157,1.158c-6.337,6.337-14.504,8.24-23.169,6.004c-3.98-1.016-7.61-3.089-10.508-6.003
			l-1.158-1.157c-6.337-6.338-8.215-14.504-6.012-23.17C238.499,332.299,240.543,328.75,243.479,325.814L243.479,325.814z
			 M249.905,354.229c4.442,4.442,9.89,5.53,15.939,4.075c2.839-0.682,5.268-2.135,7.326-4.193c4.389-4.389,5.408-9.856,3.961-15.819
			c-0.688-2.843-2.143-5.271-4.198-7.327c-4.13-4.13-9.275-5.296-14.964-4.181c-3.116,0.609-5.819,2.056-8.063,4.301
			c-4.896,4.895-5.946,10.892-3.666,17.399C247.01,350.684,248.262,352.588,249.905,354.229L249.905,354.229z M292.082,289.84
			c-1.295,0.47-3.084,1.983-4.074,2.901c-5.066,4.698-5.848,10.98-3.615,17.359c0.771,2.201,2.016,4.1,3.66,5.744
			c5.005,5.005,11.138,5.881,17.742,3.55c2.412-0.852,4.667-2.812,6.45-4.594c1.569-1.57,2.826-4.746,3.556-6.801l0.127-0.355
			l1.08-1.081l0.145-0.095c1.604-1.051,3.45-1.212,4.879,0.217l0.579,0.578c3.558,3.559-2.13,10.875-4.438,13.529
			c-8.149,9.361-19.505,11.101-30.354,5.245c-1.884-1.017-3.519-2.263-5.03-3.773l-1.156-1.156
			c-6.338-6.338-8.212-14.501-6.006-23.165c1.027-4.027,3.068-7.575,6.003-10.511l1.159-1.159c3.114-3.114,6.868-5.099,11.195-5.914
			l0.357-0.064l0.354,0.087c0.738,0.181,1.51,0.477,2.057,1.024l0.578,0.578c1.491,1.49,1.178,3.41,0.091,5.016l-0.092,0.13
			l-0.346,0.346C296.112,288.35,293.227,289.428,292.082,289.84L292.082,289.84z M314.993,274.844
			c-0.003-4.543,0.005-9.09,0.074-13.628c0.018-1.266-0.19-6.337,0.766-7.293l1.047-1.047l0.144-0.094
			c1.61-1.057,3.452-1.211,4.885,0.222l0.577,0.577c0.978,0.978,0.967,3.257,1.007,4.558c0.08,2.767,0.043,5.556,0.063,8.323
			l0.108,14.229c6.087,0.007,12.172,0.019,18.257,0.074c1.684,0.011,3.367,0.034,5.051,0.071c0.597,0.016,1.404-0.033,2.07,0.146
			c0.658,0.135,1.266,0.42,1.742,0.897l0.604,0.604l0.106,0.172c1.004,1.663,1.233,3.583-0.243,5.061l-0.466,0.465
			c-0.967,0.967-3.152,0.966-4.44,1.003c-2.651,0.078-5.321,0.044-7.974,0.066l-8.891,0.083l7.039,7.038
			c1.621,1.621,1.908,3.94,0.232,5.616l-0.461,0.461c-1.678,1.678-3.994,1.389-5.615-0.233l-39.664-39.664
			c-1.622-1.621-1.905-3.932-0.227-5.61l0.46-0.46c1.675-1.675,3.988-1.396,5.61,0.227L314.993,274.844L314.993,274.844z
			 M377.783,191.973l0.581-0.581c1.753-1.752,4.104-1.741,5.847,0.001c2.419,2.419,0.725,5.352-1.276,7.353
			c-2.624,2.624-3.541,6.72-3.567,10.31c-0.032,4.48,1.83,8.316,4.961,11.447l14.146,14.146c1.621,1.622,1.909,3.937,0.23,5.616
			l-0.461,0.461c-1.68,1.68-3.993,1.392-5.615-0.23l-14.958-14.958c-5.745-5.745-7.638-13.23-6.264-21.181
			C372.226,199.606,374.376,195.382,377.783,191.973L377.783,191.973z M364.286,261.541c2.869-1.383,5.188-3.916,6.989-6.477
			c0.643-1.591,2.25-5.69,3.483-6.556l0.191-0.137l0.224-0.077c0.951-0.33,2.003-0.501,2.982-0.177
			c2.293,0.764,3.463,2.668,2.829,5.039l-0.212,0.788c-2.345,8.741-8.684,14.194-17.197,16.731
			c-4.069,1.213-8.211,1.115-12.286,0.021l-0.952-0.256c-9.721-2.604-15.724-9.566-17.57-19.439
			c-0.64-3.411-0.394-6.787,0.498-10.128l0.34-1.264c2.206-8.233,8.008-13.622,16.013-16.337c4.304-1.46,8.762-1.677,13.157-0.497
			l0.792,0.212c3.194,0.857,3.446,4.135,3.09,6.905c-0.416,3.214-0.563,6.729-0.801,9.97
			C365.328,247.089,364.812,254.315,364.286,261.541L364.286,261.541z M355.743,263.034c0.618-8.054,1.234-16.114,1.825-24.172
			c0.204-2.752,0.502-5.696,0.629-8.5c-2.66-0.308-5.695,0.59-8,1.622c-4.656,2.087-7.548,5.842-8.855,10.716
			c-1.709,6.383,0.287,11.825,5.067,16.303c1.884,1.764,4.131,3.032,6.649,3.615C353.948,262.823,354.843,262.957,355.743,263.034z
			 M207.11,177.472l17.243-17.243l17.627,17.627l8.719-8.718c4.026-4.027,7.449-8.886,9.971-13.99
			c1.238-2.509,2.457-5.497,3.193-8.458c-5.613-0.743-10.868-3.513-15.188-7.104c-5.879-4.883-11.796-12.972-12.367-20.822
			l-0.283-3.91l3.896-0.423c9.806-1.069,20.486,0.463,28.252,6.615c4.622-8.474,12.767-15.706,21.868-18.147l3.734-1l1.188,3.678
			c4.645,14.407-2.61,27.565-13.109,37.019c22.256,52.114,7.356,102.222-32.053,141.632c-20.361,20.361-46.652,31.43-75.354,24.003
			l-0.468-0.12l-4.703-1.604c-11.547-4.355-21.453-11.871-29.347-21.386l-2.363-2.851l14.746-14.746l-17.627-17.628l17.243-17.243
			l-17.242-17.242l34.488-34.488l-17.244-17.244l20.694-20.694L207.11,177.472"/>
		<path fill="#22A0C8" d="M269.498,128.127c-7.83-10.142-21.612-10.476-29.134-9.657c0.751,10.363,14.565,25.671,28.238,24.263
			c-0.471,7.944-5.949,20.199-15.028,29.278L143.06,282.524c8.595,10.36,18.986,17.424,30.255,21.093l3.557,1.042
			c2.146,0.556,4.323,0.99,6.515,1.305c4.836-4.252,9.125-8.341,12.874-12.257l0.001-0.002c7.366-7.697,12.62-14.733,15.664-21.003
			c0.482-0.919,1.617-1.272,2.537-0.789c0.876,0.459,1.245,1.522,0.841,2.428c-0.403,0.835-0.848,1.682-1.325,2.539l-0.002,0.002
			c-2.62,4.715-5.848,9.352-10.608,14.739c0.307-0.298-0.269,0.357-0.271,0.359c-0.161,0.185-0.353,0.427-0.518,0.608
			c-1.885,2.108-4.017,4.288-6.221,6.492c-2.409,2.409-4.828,4.738-7.619,7.255l-0.022,0.113
			c19.557,1.143,40.163-7.048,58.21-25.096c38.195-38.195,53.661-87.524,29.995-139.883c11.224-9.134,18.409-21.511,14.172-34.646
			C279.918,109.824,272.108,120.24,269.498,128.127"/>
		<path fill="#37B1D9" d="M269.498,128.127c-7.83-10.142-21.612-10.476-29.134-9.657c0.751,10.363,14.565,25.671,28.238,24.263
			c-0.471,7.944-5.949,20.199-15.028,29.278l-103.97,103.97c14.063,14.965,30.465,20.596,46.657,17.727l0.002-0.002
			c7.366-7.697,12.62-14.733,15.664-21.003c0.482-0.919,1.617-1.272,2.537-0.789c0.876,0.459,1.245,1.522,0.841,2.428
			c-0.403,0.835-0.848,1.682-1.325,2.539l-0.002,0.002c-2.62,4.715-6.095,9.78-10.856,15.167c-0.001,0.001-0.24,0.006-0.241,0.008
			c19.667-6.331,38.491-25.203,51.8-55.113c14.921-33.539,19.734-73.82,15.182-109.835
			C269.731,127.45,269.609,127.791,269.498,128.127"/>
		<path fill="#1B81A5" d="M154.781,293.832c5.763,4.391,12.002,7.658,18.534,9.785l3.557,1.042c2.146,0.556,4.322,0.991,6.515,1.305
			c4.837-4.253,9.126-8.342,12.875-12.259c7.366-7.697,12.62-14.733,15.664-21.003c0.482-0.919,1.617-1.272,2.537-0.789
			c0.876,0.459,1.245,1.522,0.841,2.428c-0.403,0.835-0.848,1.682-1.325,2.539l-0.002,0.002c-2.62,4.715-6.118,9.713-10.878,15.1
			c-0.163,0.185-0.465,0.49-0.632,0.676c-1.884,2.107-3.947,4.31-6.151,6.514c-2.41,2.41-4.92,4.827-7.708,7.345
			c19.558,1.143,40.274-7.114,58.322-25.162c32.699-32.699,48.736-73.559,37.825-117.494L154.781,293.832"/>
		<path fill="#1D91B4" d="M162.114,286.5c10.868,6.959,22.563,9.258,34.149,7.205c7.366-7.697,12.62-14.733,15.664-21.003
			c0.482-0.919,1.617-1.272,2.537-0.789c0.876,0.459,1.245,1.522,0.841,2.428c-0.403,0.835-0.848,1.682-1.325,2.539l-0.002,0.002
			c-2.62,4.715-6.208,9.803-10.969,15.19c19.665-6.332,38.362-25.221,51.671-55.129c8.048-18.096,13.153-38.151,15.435-58.444
			L162.114,286.5"/>
		<path fill="#23A3C2" d="M140.432,249.898l14.945-14.945l14.945,14.945l-14.945,14.945L140.432,249.898z M142.922,249.898
			l1.18-1.18l12.454,12.455l-1.179,1.18L142.922,249.898z M145.139,247.681l1.227-1.227l12.455,12.454l-1.226,1.227L145.139,247.681
			L145.139,247.681z M147.403,245.417l1.227-1.227l12.455,12.454l-1.227,1.228L147.403,245.417z M149.669,243.152l1.227-1.226
			l12.455,12.454l-1.227,1.227L149.669,243.152z M151.934,240.887l1.226-1.226l12.455,12.455l-1.227,1.227L151.934,240.887
			L151.934,240.887z M154.198,238.624l1.18-1.18l12.455,12.454l-1.18,1.181L154.198,238.624z M140.432,215.41l14.947-14.947
			l14.945,14.945l-14.947,14.947L140.432,215.41L140.432,215.41z M142.925,215.41l1.179-1.179l12.453,12.454l-1.179,1.179
			L142.925,215.41z M145.141,213.193l1.225-1.225l12.454,12.454l-1.225,1.224L145.141,213.193L145.141,213.193z M147.405,210.929
			l1.226-1.226l12.453,12.454l-1.226,1.226L147.405,210.929z M149.67,208.665l1.226-1.226l12.454,12.453l-1.227,1.227
			L149.67,208.665z M151.934,206.4l1.227-1.227l12.453,12.454l-1.227,1.226L151.934,206.4z M154.198,204.136l1.181-1.181
			l12.454,12.454l-1.181,1.181L154.198,204.136z"/>
		<path fill="#34BBDE" d="M157.676,232.654l14.947-14.946l14.945,14.944L172.62,247.6L157.676,232.654L157.676,232.654z
			 M160.168,232.653l1.179-1.179l12.455,12.454l-1.179,1.179L160.168,232.653z M162.384,230.437l1.225-1.225l12.455,12.455
			l-1.224,1.224L162.384,230.437L162.384,230.437z M164.649,228.172l1.226-1.226l12.455,12.455l-1.226,1.226L164.649,228.172z
			 M166.913,225.908l1.226-1.227l12.455,12.454l-1.226,1.227L166.913,225.908z M169.177,223.644l1.227-1.227l12.454,12.455
			l-1.226,1.226L169.177,223.644z M171.441,221.379l1.181-1.181l12.454,12.455l-1.181,1.181L171.441,221.379z"/>
		<path fill="#23A3C2" d="M174.921,215.41l14.945-14.945l14.945,14.944l-14.945,14.945L174.921,215.41z M177.411,215.41l1.179-1.179
			l12.455,12.455l-1.179,1.179L177.411,215.41z M179.628,213.192l1.227-1.227l12.455,12.455l-1.227,1.227L179.628,213.192z
			 M181.892,210.928l1.227-1.226l12.455,12.454l-1.227,1.227L181.892,210.928z M184.157,208.663l1.226-1.226l12.455,12.455
			l-1.226,1.226L184.157,208.663z M186.422,206.399l1.227-1.227l12.455,12.455l-1.227,1.227L186.422,206.399z M188.686,204.135
			l1.18-1.18l12.455,12.455l-1.18,1.179L188.686,204.135z"/>
		<path fill="#34BBDE" d="M157.677,198.166l14.945-14.945l14.945,14.945l-14.945,14.945L157.677,198.166z M160.168,198.167
			l1.179-1.179l12.454,12.454l-1.179,1.179L160.168,198.167z M162.385,195.949l1.227-1.227l12.453,12.454l-1.226,1.226
			L162.385,195.949z M164.649,193.685l1.227-1.227l12.453,12.454l-1.226,1.227L164.649,193.685z M166.914,191.42l1.226-1.226
			l12.454,12.453l-1.226,1.226L166.914,191.42z M169.178,189.156l1.227-1.227l12.454,12.453l-1.227,1.228L169.178,189.156z
			 M171.443,186.892l1.18-1.18l12.453,12.454l-1.179,1.179L171.443,186.892z M192.165,198.166l14.945-14.945l14.944,14.945
			L207.11,213.11L192.165,198.166z M194.655,198.166l1.179-1.179l12.455,12.454l-1.179,1.179L194.655,198.166z M196.872,195.948
			l1.227-1.226l12.454,12.455l-1.226,1.226L196.872,195.948z M199.137,193.684l1.226-1.226l12.455,12.454l-1.226,1.226
			L199.137,193.684z M201.402,191.419l1.227-1.227l12.455,12.454l-1.228,1.228L201.402,191.419z M203.666,189.155l1.228-1.228
			l12.454,12.455l-1.228,1.228L203.666,189.155z M205.931,186.89l1.179-1.18l12.455,12.455l-1.18,1.18L205.931,186.89z"/>
		<path fill="#23A3C2" d="M174.921,180.921l14.944-14.945l14.945,14.945l-14.944,14.944L174.921,180.921z M177.412,180.922
			l1.179-1.179l12.453,12.454l-1.179,1.179L177.412,180.922z M179.629,178.705l1.226-1.227l12.454,12.454l-1.227,1.227
			L179.629,178.705z M181.894,176.44l1.226-1.226l12.454,12.453l-1.226,1.226L181.894,176.44z M184.158,174.176l1.227-1.227
			l12.453,12.454l-1.227,1.227L184.158,174.176z M186.423,171.912l1.228-1.228l12.454,12.454l-1.228,1.228L186.423,171.912z
			 M188.687,169.646l1.18-1.179l12.454,12.454l-1.18,1.179L188.687,169.646z"/>
		<path fill="#34BBDE" d="M157.676,163.677l14.945-14.944l14.947,14.947l-14.944,14.944L157.676,163.677z M160.167,163.678
			l1.179-1.179l12.455,12.455l-1.179,1.179L160.167,163.678L160.167,163.678z M162.384,161.46l1.227-1.227l12.455,12.455
			l-1.227,1.227L162.384,161.46L162.384,161.46z M164.649,159.195l1.226-1.226l12.455,12.455l-1.226,1.226L164.649,159.195
			L164.649,159.195z M166.913,156.931l1.227-1.227l12.455,12.455l-1.227,1.227L166.913,156.931L166.913,156.931z M169.177,154.667
			l1.228-1.228l12.455,12.455l-1.228,1.228L169.177,154.667L169.177,154.667z M171.443,152.401l1.179-1.179l12.455,12.455
			l-1.179,1.18L171.443,152.401L171.443,152.401z"/>
		<path fill="#23A3C2" d="M209.409,180.922l14.945-14.944l14.944,14.944l-14.944,14.944L209.409,180.922z M211.898,180.923
			l1.18-1.18l12.455,12.454l-1.18,1.18L211.898,180.923L211.898,180.923z M214.115,178.706l1.226-1.227l12.455,12.454l-1.226,1.226
			L214.115,178.706L214.115,178.706z M216.379,176.441l1.228-1.228l12.455,12.454l-1.228,1.228L216.379,176.441z M218.644,174.177
			l1.226-1.227l12.455,12.455l-1.226,1.226L218.644,174.177z M220.91,171.911l1.226-1.227l12.455,12.455l-1.226,1.226
			L220.91,171.911z M223.173,169.647l1.18-1.18l12.455,12.455l-1.18,1.179L223.173,169.647z"/>
		<path fill="#D3ECEC" d="M210.862,257.82c2.247-2.308,5.938-2.356,8.246-0.11c2.308,2.248,2.356,5.94,0.109,8.248
			c-0.036,0.037-0.073,0.073-0.11,0.11c-2.309,2.246-6,2.197-8.247-0.111C208.657,263.691,208.656,260.084,210.862,257.82"/>
		<path fill="#364548" d="M212.031,258.989c0.377-0.377,0.809-0.665,1.269-0.868c-0.242,0.91,0.3,1.843,1.21,2.084
			c0.585,0.156,1.21-0.012,1.639-0.438c0.457-0.457,0.6-1.104,0.431-1.684c2.131,0.88,3.145,3.322,2.264,5.453
			c-0.881,2.131-3.322,3.146-5.454,2.264c-2.13-0.881-3.145-3.321-2.263-5.453C211.336,259.838,211.643,259.377,212.031,258.989
			 M129.392,322.203l191.794-191.794c-5.235,3.116-15.703,10.722-19.687,3.759c1.193,16.381-19.741,32.072-28.696,32.36
			c2.318,12.61-30.48,39.733-38.385,36.008c1.12,14.025-18.873,34.018-32.897,32.897c3.724,7.907-23.398,40.705-36.01,38.386
			c-0.289,8.955-15.978,29.889-32.358,28.697C140.115,306.499,132.509,316.967,129.392,322.203"/>
		<path fill="#BDD9D7" d="M251.532,276.571c-15.056,5.366-27.247,4.382-37.556,0.311c-2.711,4.875-6.577,10.127-11.578,15.722
			c-1.883,2.106-3.926,4.263-6.128,6.465c-2.54,2.54-5.291,5.143-8.25,7.803c18.724-0.005,37.447-4.318,58.908-25.517
			C248.504,279.779,250.036,278.187,251.532,276.571"/>
		<path fill="#D3ECEC" d="M224.405,279.724c-3.331-0.505-7.111-1.544-10.426-2.846c-2.711,4.877-6.577,10.128-11.578,15.726
			C208.015,290.939,215.049,287.565,224.405,279.724"/>
	</g>
</g>
</svg>
