<?xml version="1.0" encoding="utf-8"?>
<!-- Generator: Adobe Illustrator 16.0.0, SVG Export Plug-In . SVG Version: 6.00 Build 0)  -->
<!DOCTYPE svg PUBLIC "-//W3C//DTD SVG 1.1//EN" "http://www.w3.org/Graphics/SVG/1.1/DTD/svg11.dtd">
<svg version="1.1" id="Warstwa_1" xmlns="http://www.w3.org/2000/svg" xmlns:xlink="http://www.w3.org/1999/xlink" x="0px" y="0px"
	 width="353.55px" height="353.55px" viewBox="73.224 73.222 353.55 353.55" enable-background="new 73.224 73.222 353.55 353.55"
	 xml:space="preserve">
<g id="Warstwa_1_1_" display="none">
	
		<rect x="73.225" y="73.221" transform="matrix(-0.7071 -0.7071 0.7071 -0.7071 250.003 603.5464)" display="inline" fill="#3DB8E8" width="353.55" height="353.549"/>
	<g display="inline">
		<path fill="#2062AF" d="M324.459,354.546l-74.993,20.192l-74.994-20.192l-17.306-187.483h184.599L324.459,354.546z"/>
		<path fill="#3C9CD7" d="M249.466,182.249v176.384l0.169,0.045l60.688-16.341l14.01-160.088H249.466L249.466,182.249z"/>
		<path d="M206.905,139.518v-11.159h16.281v-12.21h-28.491v34.512h28.491v-11.143H206.905z M252.473,128.359h11.382v-12.21h-28.493
			v12.21c3.813,3.813,5.801,5.638,11.313,11.15c-3.223,0-11.313,0.012-11.313,0.011v11.14h28.493v-11.143L252.473,128.359
			L252.473,128.359z M292.858,128.359h11.381v-12.21h-28.493v12.21c3.812,3.813,5.801,5.638,11.313,11.15
			c-3.223,0-11.313,0.012-11.313,0.011v11.14h28.494v-11.143L292.858,128.359L292.858,128.359z"/>
		<path fill="#FFFFFF" d="M249.399,229.127l-53.675,22.354l1.78,22.133l51.895-22.188l55.202-23.602l2.289-22.64L249.399,229.127
			L249.399,229.127z"/>
		
			<linearGradient id="SVGID_1_" gradientUnits="userSpaceOnUse" x1="-1726.2966" y1="2276.002" x2="-1726.2966" y2="2285.5859" gradientTransform="matrix(4.6418 0 0 -4.6418 8235.6836 10838.3594)">
			<stop  offset="0.387" style="stop-color:#D1D3D4;stop-opacity:0"/>
			<stop  offset="1" style="stop-color:#D1D3D4"/>
		</linearGradient>
		<path fill="url(#SVGID_1_)" d="M195.724,251.48l1.78,22.133l51.895-22.188v-22.297L195.724,251.48z"/>
		
			<linearGradient id="SVGID_2_" gradientUnits="userSpaceOnUse" x1="-1714.322" y1="2280.7832" x2="-1714.322" y2="2290.7441" gradientTransform="matrix(4.6418 0 0 -4.6418 8235.6836 10838.3594)">
			<stop  offset="0.387" style="stop-color:#D1D3D4;stop-opacity:0"/>
			<stop  offset="1" style="stop-color:#D1D3D4"/>
		</linearGradient>
		<path fill="url(#SVGID_2_)" d="M306.891,205.183L249.4,229.127v22.297l55.202-23.602L306.891,205.183z"/>
		
			<linearGradient id="SVGID_3_" gradientUnits="userSpaceOnUse" x1="-1732.0603" y1="2271.7285" x2="-1709.0422" y2="2271.7285" gradientTransform="matrix(4.6418 0 0 -4.6418 8235.6836 10838.3594)">
			<stop  offset="0" style="stop-color:#E8E7E5"/>
			<stop  offset="1" style="stop-color:#FFFFFF"/>
		</linearGradient>
		<path fill="url(#SVGID_3_)" d="M195.807,251.48l1.78,22.133l79.625,0.254l-1.78,29.51l-26.201,7.376l-25.188-6.36l-1.526-18.314
			h-23.403l3.054,35.359l47.317,13.99l47.063-13.736l6.105-70.211H195.807L195.807,251.48z"/>
		<path opacity="0.05" enable-background="new    " d="M249.399,251.48h-53.675l1.78,22.133l51.895,0.167V251.48L249.399,251.48z
			 M249.399,310.684l-0.254,0.07l-25.184-6.359l-1.526-18.315h-23.403l3.053,35.358l47.314,13.991V310.684z"/>
		
			<linearGradient id="SVGID_4_" gradientUnits="userSpaceOnUse" x1="-1733.1194" y1="2288.3057" x2="-1708.1292" y2="2288.3057" gradientTransform="matrix(4.6418 0 0 -4.6418 8235.6836 10838.3594)">
			<stop  offset="0" style="stop-color:#E8E7E5"/>
			<stop  offset="1" style="stop-color:#FFFFFF"/>
		</linearGradient>
		<path fill="url(#SVGID_4_)" d="M190.891,205.183h116l-2.289,22.641H193.689L190.891,205.183L190.891,205.183z"/>
		<path opacity="0.05" enable-background="new    " d="M249.399,205.183H190.89l2.798,22.641h55.71L249.399,205.183L249.399,205.183
			z"/>
	</g>
</g>
<g id="Warstwa_2">
	<rect x="73.225" y="73.222" fill="#FC7B3A" width="353.549" height="353.55"/>
	<g>
		<path fill="#E44D26" d="M271.058,378.758L125.698,257.197l130.75-130.75L377.975,271.8l-38.699,68.387L271.058,378.758z"/>
		<path fill="#F16529" d="M328.011,328.76l31.27-55.261L255.431,149.29l-53.445,53.445L328.011,328.76z"/>
		<path fill="#EBEBEB" d="M251.485,252.233l-21.659,21.659l-18.259-15.266l23.156-23.155l-16.369-16.369l-41.044,41.044l4.783,4.001
			l49.131,41.083l36.629-36.629L251.485,252.233L251.485,252.233z M293.996,294.745l-0.055,0.09l-23.152,13.308l-14.218-11.888
			l-16.431,16.431l27.993,23.407l42.836-24.224l0.055-0.096L293.996,294.745z"/>
		<path d="M101.594,208.763l8.317-8.317l8.218,8.218l7.61-7.609l-8.218-8.218l8.318-8.318l24.887,24.887l-8.318,8.318l-8.334-8.334
			l-7.609,7.609l8.334,8.334l-8.317,8.317L101.594,208.763z M145.033,181.833l-7.322,7.322l-8.253-8.253l22.968-22.968l8.253,8.253
			l-7.325,7.325l16.633,16.632l-8.32,8.32L145.033,181.833L145.033,181.833z M156.07,154.288l8.674-8.675l14.079,3.41l-3.413-14.075
			l8.678-8.678l24.887,24.887l-8.286,8.286l-12.335-12.336l3.125,14.574l-0.144,0.144l-14.576-3.123l12.335,12.336l-8.139,8.139
			L156.07,154.288L156.07,154.288z M188.225,122.133l8.32-8.32l16.662,16.661l11.699-11.699l8.226,8.225l-20.02,20.02
			L188.225,122.133z"/>
		<path fill="#FFFFFF" d="M251.428,252.291l16.367,16.367l20.156-20.157l19.329,23.131l-13.33,23.183l17.032,17.031l24.257-42.857
			l-2.521-3.012l-39.245-46.939l-3.997-4.795l-4.41,4.411L251.428,252.291z M218.297,219.16l16.369,16.369l39.539-39.539
			l-3.352-4.006l-7.553-9.043l-3.998-4.786L218.297,219.16z"/>
	</g>
</g>
<g id="Warstwa_3" display="none">
	<rect x="73.225" y="73.222" display="inline" fill="#FFE97B" width="353.549" height="353.55"/>
	<path display="inline" fill="#F7DF1E" d="M103.017,249.999l146.984-146.984l146.985,146.984L250.002,396.983L103.017,249.999z"/>
	<path display="inline" d="M264.496,334.182l4.441-18.056c6.016,1.677,11.246,2.959,15.981-1.776
		c4.539-4.539,5.626-9.175-1.28-16.081l-46.965-46.965l13.813-13.813l47.16,47.159c14.307,14.307,12.433,29.205,0.196,41.44
		c-11.049,11.05-23.186,11.74-33.349,8.091 M311.861,283.859l4.734-17.761c7.797,1.876,15.195,1.579,22.003-5.229
		c5.723-5.724,6.511-12.234,2.564-16.181c-4.735-4.735-10.163-2.664-19.238,0.888l-4.936,1.97
		c-14.206,5.726-26.143,7.006-37.391-4.241c-10.36-10.36-10.362-26.146,1.973-38.479c8.78-8.781,18.154-12.037,30.685-8.583
		l-3.848,17.664c-6.61-1.875-10.852-0.987-14.799,2.96c-4.046,4.047-4.045,9.176-0.69,12.53c4.143,4.143,8.385,3.257,16.87-0.097
		l4.933-1.975c16.773-6.708,28.515-8.188,40.058,3.355c12.433,12.433,9.473,29.007-3.649,42.129
		C338.301,285.637,323.896,287.806,311.861,283.859"/>
</g>
<g id="Warstwa_4" display="none">
	<rect x="73.225" y="73.222" display="inline" fill="#53C1DE" width="353.549" height="353.55"/>
	<path display="inline" fill="#FFFFFF" d="M150.812,348.549c14.933,14.934,43.457,14.293,74.304-0.839
		c18.52,27.702,40.917,42.562,60.762,37.235c20.397-5.477,34.506-29.914,36.809-64.197c33.176-2.486,57.234-14.468,62.53-34.321
		c5.443-20.408-10.518-44.229-39.068-63.346c16.028-31.861,17.535-57.143,2.404-72.273c-14.586-14.587-41.814-12.598-72.302,2.274
		c-19.739-29.897-42.219-43.77-62.884-38.221c-19.924,5.349-31.803,29.931-34.151,63.77c-35.537,2.111-58.689,15.059-64.203,35.732
		c-5.317,19.933,10.048,42.502,38.192,61.436C138.737,305.758,136.284,334.021,150.812,348.549z"/>
	<path display="inline" fill="#53C1DE" d="M279.201,165.639c-2.512,1.228-4.991,2.52-7.435,3.872
		c-0.966-1.594-1.96-3.169-2.982-4.729c-16.494-25.051-36.026-38.989-51.09-34.942c-14.445,3.878-23.918,24.369-25.881,52.668
		c-0.191,2.792-0.312,5.588-0.361,8.386c-1.866,0.04-3.733,0.113-5.597,0.223c-29.94,1.777-51.769,11.74-55.789,26.809
		c-3.854,14.451,9.168,32.895,32.707,48.728c2.333,1.566,4.705,3.074,7.115,4.52c-1.61,2.889-3.102,5.741-4.456,8.544
		c-12.11,25.073-13.824,47.108-3.287,57.646c10.884,10.884,34.546,9.055,60.531-3.694c2.104-1.036,4.183-2.125,6.235-3.263
		c1.558,2.594,3.188,5.145,4.889,7.648c15.672,23.016,33.9,35.509,48.293,31.646c14.863-3.992,25.101-25.404,27.039-54.282
		c0.152-2.282,0.247-4.633,0.287-7.041c3.029-0.054,6.057-0.192,9.079-0.414c27.768-2.083,47.694-11.637,51.536-26.037
		c3.966-14.872-9.475-34.434-33.524-50.535c-1.836-1.23-3.756-2.443-5.748-3.642c0.784-1.438,1.535-2.868,2.248-4.284
		c13.462-26.804,15.775-50.685,4.746-61.714C327.18,151.173,304.697,153.202,279.201,165.639L279.201,165.639z"/>
	<path display="inline" fill="#FFFFFF" d="M323.528,218.701c-0.642,1.277-1.32,2.57-2.026,3.872
		c-9.259-4.813-19.741-9.294-31.14-13.354c-4.045-11.049-8.547-21.318-13.376-30.47c2.316-1.276,4.609-2.472,6.868-3.573
		c21.844-10.658,40.027-12.298,46.4-5.925c6.789,6.789,4.897,26.308-6.725,49.449L323.528,218.701z M330.609,240.204
		c10.634,7.121,18.911,14.896,24.021,22.334c4.592,6.684,6.246,12.546,5.15,16.651c-2.331,8.738-18.33,16.409-42.076,18.188
		c-2.723,0.204-5.541,0.333-8.441,0.391c-0.463-10.361-1.811-21.599-3.973-33.411c7.736-9.243,14.526-18.497,20.119-27.451
		C327.211,237.996,328.948,239.094,330.609,240.204L330.609,240.204z M291.193,346.669c-3.497,7.317-7.748,11.678-11.853,12.78
		c-8.733,2.346-23.371-7.688-36.771-27.371c-1.583-2.328-3.098-4.699-4.548-7.111c8.784-5.602,17.892-12.42,27.091-20.239
		c11.695,1.979,23.067,3.175,33.699,3.551c-0.035,2.144-0.124,4.286-0.266,6.426C297.689,327.475,295.086,338.527,291.193,346.669
		L291.193,346.669z M218.003,324.143c-11.491,5.635-22.366,8.902-31.363,9.601c-8.086,0.625-13.989-0.88-16.994-3.885
		c-6.394-6.394-5.017-24.084,5.34-45.529c1.303-2.688,2.684-5.339,4.143-7.945c9.345,4.949,19.702,9.54,30.738,13.619
		c4.146,11.193,8.815,21.71,13.83,31.16C221.823,322.203,219.925,323.195,218.003,324.143z M168.695,257.85
		c-20.168-13.566-30.7-28.481-28.377-37.189c2.475-9.278,20.316-17.418,46.165-18.953c1.653-0.098,3.346-0.164,5.067-0.203
		c0.378,10.58,1.572,21.859,3.553,33.473c-7.493,9.024-14.171,18.161-19.792,27.076c-2.241-1.345-4.448-2.747-6.618-4.204H168.695
		L168.695,257.85z M263.151,200.803c-4.684-1.247-9.391-2.396-14.123-3.441c6.312-4.897,12.619-9.324,18.812-13.214
		c3.337,6.364,6.523,13.323,9.501,20.742C272.638,203.433,267.907,202.071,263.151,200.803L263.151,200.803z M202.17,201.606
		c7.208,0.288,14.86,1.009,22.811,2.142c-7.243,6.588-14.17,13.512-20.762,20.752C203.132,216.588,202.448,208.913,202.17,201.606z
		 M201.221,262.835c1.266,4.711,2.64,9.392,4.125,14.038c-7.366-2.997-14.33-6.223-20.776-9.615
		c3.89-6.131,8.316-12.393,13.188-18.655C198.801,253.373,199.956,258.119,201.221,262.835z M251.596,302.123
		c-6.393,5.108-12.687,9.662-18.787,13.58c-3.456-6.557-6.749-13.67-9.811-21.195c4.656,1.479,9.346,2.85,14.066,4.107
		C241.88,299.901,246.724,301.07,251.596,302.123z M298.635,297.656c-7.392-0.282-15.183-0.979-23.211-2.079
		c3.495-3.229,6.99-6.591,10.475-10.075c3.579-3.58,7.037-7.198,10.366-10.837C297.491,282.732,298.288,290.436,298.635,297.656z
		 M294.781,222.188c7.696,3.002,14.852,6.201,21.346,9.55c-3.929,6.255-8.491,12.689-13.589,19.174
		c-1.086-4.799-2.269-9.576-3.545-14.327C297.695,231.754,296.291,226.955,294.781,222.188L294.781,222.188z M288.745,239.335
		c1.961,7.281,3.686,14.624,5.169,22.019c-4.839,5.582-10.029,11.158-15.518,16.646c-5.465,5.465-10.951,10.61-16.401,15.397
		c-7.46-1.396-14.865-3.075-22.198-5.031c-7.295-1.944-14.514-4.165-21.641-6.657c-2.5-7.123-4.731-14.337-6.688-21.627l0.001,0.002
		c-1.96-7.291-3.641-14.653-5.041-22.071c4.828-5.617,9.976-11.179,15.389-16.591c5.438-5.438,11.007-10.591,16.626-15.416
		c7.38,1.425,14.708,3.107,21.971,5.049c7.289,1.938,14.514,4.112,21.661,6.521C284.558,224.747,286.781,232.006,288.745,239.335
		L288.745,239.335z M220.446,140.085c9.272-2.488,25.236,8.9,39.476,30.53c0.926,1.411,1.827,2.838,2.702,4.281
		c-8.967,5.605-18.129,12.265-27.19,19.771c-11.697-2.046-22.945-3.293-33.372-3.683c0.047-2.583,0.16-5.166,0.334-7.742
		C204.078,158.994,211.741,142.421,220.446,140.085L220.446,140.085z"/>
	<path display="inline" fill="#53C1DE" d="M234.27,233.873c8.661-8.661,22.702-8.661,31.362-0.001
		c8.662,8.662,8.661,22.704,0.001,31.364c-8.661,8.661-22.704,8.659-31.364-0.001C225.609,256.575,225.609,242.534,234.27,233.873"
		/>
</g>
<g id="Warstwa_5" display="none">
	<rect x="73.225" y="73.222" display="inline" fill="#AE94FF" width="353.549" height="353.55"/>
	<path display="inline" fill="#764ABC" d="M308.106,234.995c6.271-7.717,5.547-19.053-1.93-26.045
		c-7.476-6.994-19.291-6.753-26.526,0.482l-0.481,0.482c-7.236,7.718-6.752,19.774,0.963,27.009
		c3.858,3.377,8.439,5.064,12.781,5.065c7.961,24.357,7.236,48.713-1.686,77.412c-6.028,19.532-16.88,35.206-31.832,46.781
		c-12.299,9.406-25.562,13.022-38.826,10.37c-19.533-4.101-33.039-16.159-39.31-35.45c-4.583-13.748-4.102-27.733-2.895-35.691
		c-4.101-2.171-10.852-6.029-15.434-9.164c-9.646,60.29,28.216,90.917,54.985,96.466c20.016,4.101,43.65-4.583,61.495-22.428
		c4.823-4.823,9.163-10.128,12.781-16.156C317.031,317.229,322.094,275.508,308.106,234.995L308.106,234.995z M320.647,162.647
		c-39.791-3.136-78.617,12.057-109.486,42.926l-3.856,3.857c-6.511-2.171-13.988-0.482-19.053,4.583l-0.482,0.482
		c-7.233,7.717-6.751,19.773,0.965,27.01c7.476,6.992,19.294,6.752,26.527-0.481l0.482-0.482c5.064-5.547,6.271-13.505,3.617-20.016
		l4.341-4.341c18.328-18.327,40.996-30.386,67.041-35.69c20.017-4.101,39.069-2.411,56.431,5.306
		c14.229,6.029,23.874,16.159,27.976,28.941c6.028,19.531,1.688,37.86-13.264,52.813c-9.646,9.646-21.705,15.915-28.697,18.568
		c-0.24,5.065-1.206,13.746-2.17,19.535c15.191-5.548,28.455-13.506,38.584-23.635c23.151-23.15,27.491-53.053,21.221-72.346
		C383.828,188.693,359.231,165.059,320.647,162.647L320.647,162.647z M232.142,319.154c7.477,6.994,19.292,6.754,26.528-0.48
		l0.483-0.484c7.232-7.716,6.751-19.773-0.965-27.008c-7.477-6.995-19.293-6.753-26.527,0.481l-0.483,0.482
		c-0.483,0.483-1.207,1.207-1.447,1.929c-26.286-6.512-48.23-20.258-66.077-40.997c-13.505-15.435-21.222-32.799-23.153-51.609
		c-1.93-15.917,7.234-33.761,16.159-43.167c25.077-26.043,67.761-5.061,81.268,6.996c3.858-2.412,10.854-6.029,15.675-8.44
		c-41.96-36.174-86.332-32.317-109.483-9.166c-21.704,21.704-26.044,57.395-10.851,88.504
		c19.775,41.962,56.673,64.389,93.569,74.277c0.485,2.895,2.414,6.271,5.308,8.684L232.142,319.154L232.142,319.154z"/>
</g>
<g id="Warstwa_6" display="none">
	<rect x="73.225" y="73.222" display="inline" fill="#F495C9" width="353.549" height="353.55"/>
	<path display="inline" fill="#CF649A" d="M337.487,151.716c-7.894,7.982-12.86,16.763-15.787,25.366
		c-6.343-2.083-12.152-3.636-15.255-6.032c-3.592-2.795-6.03-4.257-9.356-8.559c-3.327-4.301-6.52-11.928-6.963-12.372
		c-0.444-0.355-2.838-1.863-7.45,2.66c-4.611,4.522-7.628,9.402-6.874,11.042c0.755,1.64,2.617,5.277,4.878,8.692
		c3.371,4.966,9.801,28.071,12.816,40.576c-4.567-1.465-8.56-2.794-10.954-4.657c-3.592-2.794-6.032-4.257-9.356-8.559
		c-3.327-4.301-6.519-11.929-6.963-12.373c-0.442-0.354-2.838-1.862-7.448,2.66c-4.613,4.524-7.628,9.402-6.874,11.042
		s3.104,4.966,4.878,8.691c1.819,3.681,15.388,39.425,18.937,48.736c1.817,4.745,3.147,8.648,3.991,11.354s0.088,0.178,0.178,0.443
		c0.709,2.306,1.107,3.593,1.107,3.593l0.045,0.044c0.486,1.729,0.887,3.459,0.575,3.77c-0.222,0.223-3.636-2.307-6.962-7.139
		c-6.919-10.199-16.275-27.538-16.807-27.983c-0.222-0.221-1.821-3.326-6.343-1.196c-4.435,2.04-3.592,5.188-3.858,5.454
		c-0.266,0.266,0.223,1.197,0.223,1.197s-11.441-18.625-21.907-8.159c-6.563,6.563-8.47,22.75-6.43,33.747
		c-1.287,4.39-4.036,13.702-6.918,23.591c-1.109,3.771-2.217,7.717-3.326,11.397l-1.021-0.045
		c-26.208-0.844-59.246,13.036-76.452-6.122c-6.253-6.961-21.375-26.695-0.089-90.199c17.427-52.017,49.978-75.079,65.365-69.357
		c21.951,8.204,28.248,57.961-3.813,98.093c-12.196,15.3-24.745,17.208-28.559,17.029c-3.991-0.177-4.346,0-4.657,1.109
		c-0.532,1.772,2.04,2.927,3.592,3.592c3.858,1.73,13.26,2.262,23.282-2.794c8.78-4.434,26.12-19.379,38.093-46.43
		c13.393-30.333,6.963-70.91-17.693-85.544c-25.1-14.9-64.834,11.707-85.055,54.19c-12.018,25.323-21.862,55.92-22.795,84.081
		c-1.153,33.438,10.2,50.288,17.206,54.988c24.924,16.851,67.317,1.685,88.913,0.222c-0.267,0.887-0.488,1.73-0.709,2.483
		c-2.927,8.603-13.392,42.04-6.742,59.689c7.539,19.955,24.613,22.661,30.733,19.203c18.936-10.688,26.696-33.259,22.705-53.66
		c-4.035-20.354-20.842-35.21-31.84-38.669l-0.4-0.133l1.861-7.185c1.199-4.655,2.485-9.135,3.637-13.038
		c2.44,5.277,5.987,10.865,12.108,18.049c7.184,8.427,20.486,15.344,28.69,15.122c3.591-0.134,5.854-2.306,7.229-3.68
		c4.878-4.878,3.059-11.133,0.665-18.403c-2.883-8.914-7.052-18.404-7.052-18.404s15.167,21.817,24.258,12.728
		c3.325-3.325,2.35-10.954,1.64-14.679l0.045,0.045c0,0-0.045-0.222-0.177-0.71c-0.09-0.463-0.193-0.92-0.311-1.373l-0.089-0.089
		c-0.976-3.638-3.281-11.886-7.582-25.056c-5.544-16.984-14.146-36.585-14.146-36.585s3.991,2.927,11.308,6.963
		c4.345,2.396,10.154,3.947,15.387,5.898c0.533,3.194,0.8,5.057,0.8,5.057l0.089,0c0.355,2.484,0.666,5.189,0.932,7.938
		c0.886,9.933,1.642,21.508,2.706,23.991c1.241,2.926,2.971,4.301,5.853,3.902c2.084-0.311,4.391-2.262,6.475-4.701
		c3.813-4.346,5.633-8.203,6.43-10.243c1.418-3.017,2.749-6.74,3.415-10.953c1.151-7.716-0.798-15.078-7.273-21.021
		c-3.547-3.281-8.025-5.542-12.593-7.361c-0.178-0.974-0.354-1.952-0.577-2.971c-3.237-17.25-9.091-33.925-9.091-33.925
		s3.992,2.927,11.308,6.963c3.726,2.041,8.56,3.504,13.173,5.1c-1.198,11.929,0.887,22.261,3.547,27.76
		c4.922,10.155,10.378,11.53,15.033,8.469c2.084-1.374,3.77-4.656,4.833-7.316c1.553-3.059,3.06-7.14,3.726-11.62
		c1.152-7.717,0.843-16.542-5.542-22.484c-2.972-2.705-6.519-4.744-10.199-6.386c3.281-7.893,9.178-16.452,19.468-24.522
		c22.039-17.428,38.271-9.003,42.66-3.104c4.392,5.897,3.104,12.859,2.616,15.122c-0.533,2.218-0.664,2.973,0.09,3.46
		c1.108,0.754,1.685,0.089,2.705-1.285c1.374-1.908,6.163-14.59-2.972-24.435C382.764,132.78,357.887,131.051,337.487,151.716
		L337.487,151.716z M236.6,355.219c0.622,13.66-5.854,25.543-12.063,27.141c-6.652,1.773-15.521-10.377-15.078-25.987
		c0.266-9.489,2.351-20.089,3.903-26.874c0.355-1.507,0.933-3.769,1.597-6.475c0.089-0.442,0.178-0.708,0.178-0.708
		c0.131-0.487,0.265-1.063,0.397-1.641C229.327,328.522,235.98,340.852,236.6,355.219L236.6,355.219z M251.856,275.13
		c3.281,7.806,12.727,26.83,9.046,28.912c-3.148,1.82-15.432-7.449-22.572-21.594c-3.593-7.142-6.208-17.296-6.476-21.996
		c-0.399-7.585,2.174-12.816,4.79-12.151C239.926,249.277,249.815,270.252,251.856,275.13z M309.992,254.598
		c-0.487,1.465-1.021,2.706-1.684,2.839c-0.488,0.134-0.445-1.24-0.445-1.24s-0.354-10.201-0.842-14.591
		c-0.312-2.526-0.622-5.498-1.064-8.78l0.532,0.533C312.875,239.743,311.013,250.119,309.992,254.598L309.992,254.598z
		 M333.406,217.348c-1.24,0.178-2.792-1.552-5.543-9.091c-1.107-2.972-2.395-8.514-1.95-15.432c1.773,0.886,3.326,1.905,4.479,3.148
		C338.33,204,335.623,212.647,333.406,217.348z"/>
</g>
<g id="Warstwa_7" display="none">
	<rect x="73.225" y="73.222" display="inline" fill="#121966" width="353.549" height="353.55"/>
	
		<radialGradient id="SVGID_5_" cx="-932.4285" cy="1078.3818" r="0.0685" gradientTransform="matrix(1620.4565 -1620.4565 1568.8966 1568.8966 -180725 -3202593)" gradientUnits="userSpaceOnUse">
		<stop  offset="0" style="stop-color:#34364E;stop-opacity:0.98"/>
		<stop  offset="1" style="stop-color:#0C0824"/>
	</radialGradient>
	<path display="inline" fill="url(#SVGID_5_)" d="M107.051,251.975l144.928-144.927l140.976,140.976L248.027,392.951
		L107.051,251.975z"/>
	<path display="inline" fill="#31C5F0" d="M107.051,251.975l144.928-144.927l140.976,140.976L248.027,392.951L107.051,251.975z
		 M248.027,406.125l158.103-158.103L251.979,93.873L93.877,251.975L248.027,406.125L248.027,406.125z M263.703,208.629
		c-5.203,5.204-4.346,9.617-2.171,11.792c2.37,2.37,5.203,2.833,15.811-0.528c15.348-5.333,23.384-3.755,30.434,3.294
		c10.539,10.539,8.169,24.243-2.7,35.111c-5.732,5.732-11.86,9.486-16.339,10.674c-0.66,0.262-1.053,0-1.58-0.527l-9.685-9.685
		c-0.658-0.658-0.527-1.187,0.264-1.317c6.85-1.45,12.779-5.006,17.129-9.355c5.203-5.203,5.203-9.551,2.239-12.516
		c-2.373-2.373-5.997-2.966-16.076,0.263c-13.834,4.876-22.266,4.216-29.841-3.359c-8.5-8.5-8.894-22.202,2.634-33.729
		c5.665-5.666,10.476-8.762,13.637-9.948c0.855-0.198,1.516,0.197,1.977,0.658l9.024,9.024c0.527,0.527,0.527,1.186-0.329,1.648
		C273.389,201.184,267.987,204.346,263.703,208.629L263.703,208.629z M214.89,273.122c1.646-1.385,2.833-2.57,5.467-5.206
		c7.707-7.707,12.253-17.653,1.78-28.127c-8.367-8.367-17.788-7.379-26.549,1.383c-2.634,2.635-5.006,5.271-6.127,6.522
		L214.89,273.122L214.89,273.122z M168.184,249.868c-0.461-0.462,0.132-1.715,0.659-2.241c4.019-4.413,10.145-10.803,16.668-17.326
		c18.247-18.248,35.373-15.348,48.153-2.567c16.732,16.732,11.794,36.034-3.094,50.922c-2.503,2.503-3.493,3.227-5.272,5.006
		l25.296,25.296c0.527,0.528,0.593,0.987,0,1.581l-10.08,10.079c-0.527,0.526-0.987,0.594-1.581,0.001L168.184,249.868
		L168.184,249.868z"/>
</g>
<g id="Warstwa_8" display="none">
	<rect x="73.224" y="75.222" display="inline" fill="#AF5504" width="353.549" height="353.55"/>
	
		<radialGradient id="SVGID_6_" cx="-932.4294" cy="1078.3828" r="0.068" gradientTransform="matrix(1620.4565 -1620.4565 1568.8966 1568.8966 -180725 -3202592.5)" gradientUnits="userSpaceOnUse">
		<stop  offset="0" style="stop-color:#423325;stop-opacity:0.98"/>
		<stop  offset="1" style="stop-color:#1C0A00"/>
	</radialGradient>
	<path display="inline" fill="url(#SVGID_6_)" d="M107.051,253.975l144.928-144.927l140.974,140.974L248.026,394.949
		L107.051,253.975z"/>
	<path display="inline" fill="#FF7F18" d="M107.051,253.975l144.928-144.927l140.974,140.974L248.026,394.949L107.051,253.975z
		 M248.027,408.125l158.103-158.103L251.979,95.873L93.877,253.975L248.027,408.125L248.027,408.125z M252.373,205.36
		c-0.527-0.527-0.594-0.988,0-1.582l10.343-10.342c0.526-0.526,0.987-0.593,1.58,0l51.977,51.977c0.526,0.526,0.657,0.923,0,1.58
		l-10.21,10.21c-0.659,0.66-1.186,0.526-1.713-0.001l-51.91-51.91L252.373,205.36L252.373,205.36z M236.695,191.13
		c-4.216-4.217-3.756-9.684,0-13.439c4.019-4.019,9.421-4.018,13.439,0c4.348,4.349,3.886,9.552-0.133,13.57
		C246.182,195.083,241.043,195.478,236.695,191.13z M243.679,257.401c-9.157-5.468-29.447-17.063-38.801-23.123l-0.132,0.132
		c6.323,9.091,15.876,25.625,23.321,38.604L243.679,257.401z M236.037,286.387l14.559,24.968c0.394,0.657,0.329,0.987-0.329,1.645
		l-9.684,9.685c-0.659,0.658-0.989,0.592-1.647-0.33l-46.772-84.188c-0.856-1.515-1.712-2.768-4.809-6.127
		c-0.461-0.46-0.46-0.856-0.131-1.185l13.833-13.833c0.46-0.46,0.791-0.528,1.449-0.133l92.028,50.131
		c0.658,0.396,0.857,0.858,0.33,1.386l-10.937,10.937c-0.525,0.525-0.988,0.723-1.581,0.393l-25.229-14.426L236.037,286.387
		L236.037,286.387z"/>
</g>
</svg>
