<?xml version="1.0" encoding="utf-8"?>
<!-- Generator: Adobe Illustrator 16.0.0, SVG Export Plug-In . SVG Version: 6.00 Build 0)  -->
<!DOCTYPE svg PUBLIC "-//W3C//DTD SVG 1.1//EN" "http://www.w3.org/Graphics/SVG/1.1/DTD/svg11.dtd">
<svg version="1.1" id="Warstwa_1" xmlns="http://www.w3.org/2000/svg" xmlns:xlink="http://www.w3.org/1999/xlink" x="0px" y="0px"
	 width="353.551px" height="353.55px" viewBox="0 0 353.551 353.55" enable-background="new 0 0 353.551 353.55"
	 xml:space="preserve">
<rect x="1.323" y="0.001" fill="#597256" width="353.545" height="353.545"/>
<g>
	<path fill="#689F63" d="M239.255,241.772c-0.688,0.688-1.551,1.188-2.501,1.444l-10,2.564c-1.463,0.413-1.191-0.23-0.989-0.646
		c0.814-1.688,0.969-2.041,1.546-4.135c0.061-0.221,0.271-0.375,0.501-0.436l7.688-1.962c0.269-0.08,0.516-0.327,0.583-0.584
		l7.954-29.677c0.075-0.271-0.015-0.588-0.222-0.795l-21.713-21.713c-0.217-0.217-0.521-0.295-0.809-0.228l-29.659,7.957
		c-0.278,0.069-0.509,0.302-0.579,0.579l-7.953,29.656c-0.078,0.285,0.009,0.604,0.215,0.811l21.713,21.713
		c0.207,0.207,0.519,0.291,0.797,0.213l8.129-2.178c4.196-1.396,4.258-4.756,2.6-6.414l-21.429-21.43
		c-0.308-0.307-0.303-0.781,0.004-1.088l2.383-2.383c0.297-0.297,0.777-0.308,1.084,0l21.439,21.438
		c3.729,3.729,3.838,7.907,0.301,11.444c-1.088,1.088-1.945,1.945-5.516,3.16l-7.779,2.092c-1.926,0.513-4-0.053-5.408-1.461
		l-21.712-21.713c-1.413-1.412-1.979-3.484-1.455-5.401l7.969-29.7c0.52-1.863,2.102-3.447,3.956-3.955l29.682-7.941
		c1.918-0.514,3.989,0.043,5.401,1.455l21.713,21.713c1.408,1.408,1.965,3.48,1.456,5.402l-7.945,29.678
		c-0.255,0.949-0.759,1.813-1.455,2.51"/>
	<path fill="#689F63" d="M230.105,221c-8.231,8.231-13.737,6.18-16.908,3.01c-0.301-0.301-0.298-0.784,0.005-1.086l2.43-2.432
		c0.27-0.269,0.689-0.299,0.998-0.076c2.844,2.109,5.186,2.267,10.164-2.713c3.965-3.965,4.756-6.547,2.651-8.65
		c-1.21-1.209-2.59-1.629-9.353,3.929c-5.661,4.646-9.98,6.692-14.103,2.571c-3.796-3.797-2.854-9.26,2.511-14.625
		c6.023-6.023,11.103-6.918,15.972-2.801c0.17,0.142,0.263,0.348,0.272,0.563c0.005,0.212-0.075,0.425-0.227,0.575l-2.444,2.443
		c-0.254,0.256-0.654,0.297-0.951,0.104c-3.192-2.017-5.448-1.427-9.315,2.44c-4.328,4.326-3.325,6.338-2.195,7.469
		c1.371,1.371,2.364,1.178,8.978-3.891c6.552-5.016,10.381-6.679,14.446-2.613c4.097,4.098,3.027,9.865-2.937,15.83
		 M229.992,175.104l0.631-0.63c0.519-0.519,0.254-0.979,0.042-1.191c-0.557-0.556-0.938-0.174-1.148,0.037l-0.649,0.649
		L229.992,175.104z M227.444,174.09l1.397-1.398c0.48-0.481,1.423-1.423,2.498-0.348c0.748,0.749,0.424,1.384,0.229,1.766
		c0.6-0.522,1.003-0.194,1.598,0.25c0.361,0.287,0.982,0.786,1.285,0.861l-0.862,0.863c-0.212-0.165-1.379-1.068-1.437-1.125
		c-0.288-0.175-0.48-0.208-0.769,0.08l-0.712,0.711l1.63,1.628l-0.786,0.787L227.444,174.09z M227.788,177.798
		c1.687,1.687,4.413,1.689,6.085,0.019c1.686-1.687,1.652-4.441-0.004-6.099c-1.691-1.691-4.414-1.654-6.086,0.02
		c-1.649,1.648-1.71,4.356-0.005,6.061 M234.462,171.143c1.997,1.997,1.992,5.261,0,7.253c-1.979,1.979-5.237,2.016-7.253,0
		c-2.056-2.054-1.941-5.313,0-7.253c1.954-1.954,5.199-2.044,7.248,0.005"/>
	<path fill="#333333" d="M96.034,215.082c-0.866-0.865-2.12-1.205-3.299-0.889l-31.426,8.473c-0.535,0.139-1.016,0.412-1.413,0.779
		l-0.207,0.206c-0.368,0.397-0.642,0.878-0.786,1.418l-8.471,31.427c-0.31,1.176,0.022,2.436,0.889,3.303l30.959,30.871
		c0.429,0.428,1.051,0.607,1.64,0.443c0.592-0.145,1.054-0.605,1.195-1.197l5.067-18.65c0.304-1.193-0.026-2.438-0.885-3.297
		l-14.442-14.442c-0.861-0.862-1.201-2.114-0.884-3.29l2.141-7.957c0.158-0.592,0.464-1.109,0.883-1.529
		c0.413-0.412,0.939-0.728,1.521-0.875l7.953-2.14c1.176-0.317,2.43,0.019,3.292,0.882l14.441,14.44
		c0.856,0.856,2.111,1.187,3.299,0.883l18.64-5.063c0.592-0.151,1.055-0.615,1.206-1.205c0.153-0.578-0.016-1.211-0.444-1.639
		L96.034,215.082z M206.263,137.044c0.215,0.215,0.301,0.528,0.22,0.822l-2.9,10.801c-0.08,0.293-0.31,0.523-0.604,0.602
		l-10.802,2.902c-0.296,0.082-0.607-0.004-0.823-0.22l-7.91-7.91c-0.216-0.216-0.301-0.527-0.226-0.819l2.892-10.804
		c0.08-0.297,0.313-0.528,0.608-0.608l10.809-2.896c0.297-0.08,0.607,0.005,0.824,0.222L206.263,137.044z M149.524,76.602
		c-0.583,0.165-1.033,0.627-1.186,1.211c-0.15,0.584,0.019,1.206,0.448,1.635l30.612,30.614c0.303,0.302,0.419,0.74,0.31,1.151
		c-0.109,0.41-0.432,0.732-0.845,0.844l-7.875,2.119c-1.174,0.314-2.09,1.229-2.406,2.407l-8.439,31.473
		c-0.315,1.174,0.021,2.431,0.876,3.288l23.041,23.04c0.861,0.862,2.113,1.192,3.292,0.881l31.481-8.432
		c1.173-0.316,2.091-1.234,2.41-2.41l8.425-31.485c0.311-1.178-0.021-2.431-0.881-3.292l-57.422-57.422
		c-0.875-0.875-2.153-1.203-3.345-0.866L149.524,76.602z M266.448,60.623c0.312-1.172-0.028-2.423-0.887-3.28l-5.583-5.584
		c-0.858-0.859-2.107-1.195-3.283-0.885l-31.34,8.318c-1.183,0.316-2.101,1.234-2.416,2.416l-8.435,31.467
		c-0.316,1.182,0.019,2.43,0.88,3.292l23.031,23.031c0.867,0.866,2.134,1.2,3.312,0.88l31.122-8.525
		c1.148-0.31,2.048-1.2,2.378-2.351l5.326-18.655c0.165-0.589,0.006-1.229-0.428-1.663c-0.435-0.433-1.069-0.607-1.657-0.441
		l-31.595,8.553c-0.587,0.164-1.22-0.005-1.647-0.435l-7.226-7.225c-0.432-0.431-0.604-1.054-0.44-1.646l2.643-9.849
		c0.155-0.588,0.612-1.045,1.201-1.202l9.854-2.646c0.584-0.16,1.215,0.01,1.644,0.438l5.682,5.681
		c0.429,0.429,1.06,0.597,1.646,0.442c0.585-0.16,1.047-0.622,1.201-1.21L266.448,60.623z"/>
	<path fill="#689F63" d="M244.04,80.875c0.059-0.226,0.234-0.402,0.462-0.462l6.038-1.62c0.227-0.061,0.466,0.005,0.632,0.17
		l4.422,4.422c0.165,0.165,0.229,0.405,0.17,0.631l-1.621,6.038c-0.06,0.228-0.236,0.403-0.462,0.462l-6.034,1.618
		c-0.229,0.063-0.471,0-0.637-0.165l-4.422-4.422c-0.165-0.165-0.233-0.401-0.17-0.631L244.04,80.875z"/>
	<g>
		<g>
			<defs>
				<path id="SVGID_1_" d="M114.899,173.305l-8.391,31.295c-0.313,1.172,0.021,2.419,0.876,3.272l22.923,22.924
					c0.855,0.854,2.103,1.189,3.273,0.876l31.305-8.384c1.169-0.313,2.084-1.229,2.397-2.396l8.379-31.303
					c0.311-1.168-0.024-2.416-0.879-3.271l-22.922-22.922c-0.854-0.855-2.104-1.189-3.275-0.875l-31.291,8.386
					c-0.585,0.159-1.106,0.466-1.521,0.88s-0.723,0.936-0.88,1.521"/>
			</defs>
			<use xlink:href="#SVGID_1_"  overflow="visible" fill="#689F63"/>
			<clipPath id="SVGID_2_">
				<use xlink:href="#SVGID_1_"  overflow="visible"/>
			</clipPath>
			<g transform="translate(-78.306 -164.016)" clip-path="url(#SVGID_2_)">
				<path fill="#689F63" d="M324.507,467.358l-83.32,28.506l29.816,87.151l83.318-28.502L324.507,467.358z"/>
			</g>
		</g>
	</g>
</g>
<g id="Warstwa_2" display="none">
	
		<rect x="73.229" y="73.226" transform="matrix(-0.7071 -0.7071 0.7071 -0.7071 250.0025 603.5485)" display="inline" fill="#FC7B3A" width="353.543" height="353.542"/>
	<g display="inline">
		<path fill="#E44D26" d="M173.842,355.936l-16.827-188.742h184.908l-16.85,188.712l-75.721,20.992L173.842,355.936z"/>
		<path fill="#F16529" d="M249.469,360.854l61.186-16.965l14.396-161.263h-75.582V360.854z"/>
		<path fill="#EBEBEB" d="M249.469,252.628h-30.632l-2.115-23.705h32.747v-23.148h-58.046l0.555,6.211l5.689,63.793h51.803
			L249.469,252.628L249.469,252.628z M249.469,312.75l-0.104,0.023l-25.779-6.961l-1.647-18.459H198.7l3.242,36.346l47.418,13.16
			l0.105-0.027V312.75H249.469z"/>
		<path d="M174.219,115.902h11.763v11.622h10.763v-11.622h11.764v35.195h-11.764v-11.786h-10.763v11.786H174.22L174.219,115.902z
			 M223.976,127.575h-10.354v-11.672h32.48v11.672h-10.358v23.522h-11.768L223.976,127.575L223.976,127.575z M251.257,115.902
			h12.269l7.544,12.366l7.539-12.366h12.271v35.195h-11.718v-17.445l-8.096,12.515h-0.203l-8.099-12.515v17.445h-11.511
			L251.257,115.902L251.257,115.902z M296.732,115.902h11.767v23.563h16.545v11.632h-28.312V115.902z"/>
		<path fill="#FFFFFF" d="M249.387,252.628v23.146h28.506l-2.688,30.022l-25.817,6.968v24.086l47.457-13.151l0.347-3.912
			l5.44-60.941l0.563-6.217h-6.236H249.387z M249.387,205.775v23.148h55.916l0.463-5.203l1.055-11.734l0.559-6.211H249.387z"/>
	</g>
</g>
<g id="Warstwa_3" display="none">
	
		<rect x="73.229" y="73.226" transform="matrix(-0.7071 -0.7071 0.7071 -0.7071 250.0025 603.5485)" display="inline" fill="#FFE97B" width="353.543" height="353.542"/>
	<path display="inline" fill="#F7DF1E" d="M146.066,146.066h207.867v207.868H146.066V146.066z"/>
	<path display="inline" d="M200.723,319.775l15.906-9.627c3.067,5.439,5.859,10.045,12.558,10.045
		c6.419,0,10.466-2.51,10.466-12.275v-66.42h19.535v66.693c0,20.232-11.858,29.441-29.164,29.441
		c-15.626,0-24.695-8.094-29.302-17.859 M269.797,317.684l15.906-9.211c4.188,6.84,9.628,11.86,19.256,11.86
		c8.095,0,13.256-4.047,13.256-9.627c0-6.697-5.305-9.07-14.231-12.978l-4.883-2.099c-14.095-5.996-23.439-13.53-23.439-29.438
		c0-14.65,11.159-25.814,28.604-25.814c12.418,0,21.349,4.326,27.767,15.629l-15.21,9.771c-3.35-6-6.976-8.37-12.558-8.37
		c-5.725,0-9.35,3.629-9.35,8.37c0,5.856,3.625,8.231,11.997,11.858l4.887,2.094c16.604,7.117,25.95,14.373,25.95,30.695
		c0,17.582-13.813,27.209-32.368,27.209C287.237,337.636,275.517,328.984,269.797,317.684"/>
</g>
<g id="Warstwa_4" display="none">
	
		<rect x="73.229" y="73.226" transform="matrix(-0.7071 -0.7071 0.7071 -0.7071 250.0025 603.5485)" display="inline" fill="#53C1DE" width="353.543" height="353.542"/>
	<path display="inline" fill="#FFFFFF" d="M110.177,249.548c0,21.119,20.622,40.834,53.135,51.947
		c-6.493,32.684-1.163,59.026,16.636,69.295c18.297,10.551,45.553,3.246,71.423-19.367c25.217,21.701,50.7,30.24,68.483,19.947
		c18.279-10.582,23.837-38.713,17.166-72.418c33.863-11.195,52.806-28.009,52.806-49.404c0-20.629-20.659-38.478-52.731-49.518
		c7.183-35.1,1.097-60.805-17.439-71.494c-17.871-10.306-43.651-1.324-69.239,20.944c-26.621-23.635-52.146-30.851-70.665-20.132
		c-17.854,10.335-22.949,37.159-16.437,70.447C131.896,210.751,110.177,229.001,110.177,249.548z"/>
	<path display="inline" fill="#53C1DE" d="M330.299,210.996c-2.646-0.908-5.313-1.748-7.994-2.52
		c0.443-1.811,0.854-3.627,1.234-5.453c6.052-29.377,2.096-53.044-11.42-60.834c-12.956-7.472-34.145,0.319-55.542,18.941
		c-2.108,1.839-4.173,3.731-6.186,5.675c-1.349-1.292-2.721-2.56-4.115-3.801c-22.428-19.914-44.906-28.305-58.404-20.491
		c-12.942,7.493-16.776,29.743-11.329,57.583c0.542,2.759,1.152,5.5,1.836,8.23c-3.183,0.902-6.253,1.865-9.191,2.891
		c-26.293,9.166-43.086,23.535-43.086,38.438c0,15.391,18.024,30.83,45.414,40.189c2.221,0.756,4.46,1.455,6.716,2.102
		c-0.731,2.936-1.384,5.893-1.951,8.865c-5.192,27.355-1.138,49.078,11.771,56.525c13.333,7.688,35.712-0.215,57.503-19.266
		c1.722-1.506,3.45-3.104,5.182-4.773c2.182,2.104,4.419,4.146,6.714,6.125c21.106,18.162,41.952,25.498,54.854,18.031
		c13.319-7.711,17.646-31.049,12.028-59.438c-0.431-2.171-0.931-4.386-1.489-6.642c1.569-0.463,3.112-0.94,4.618-1.438
		c28.473-9.435,46.994-24.687,46.994-40.282C374.452,234.693,357.119,220.229,330.299,210.996L330.299,210.996z"/>
	<path display="inline" fill="#FFFFFF" d="M324.12,279.859c-1.354,0.449-2.751,0.885-4.171,1.305
		c-3.144-9.949-7.387-20.531-12.574-31.461c4.951-10.674,9.029-21.119,12.088-31.004c2.54,0.735,5.007,1.512,7.383,2.329
		c22.98,7.91,37,19.608,37,28.621c0,9.601-15.141,22.065-39.723,30.21H324.12z M313.924,300.072
		c2.481,12.555,2.84,23.904,1.19,32.777c-1.479,7.973-4.454,13.287-8.132,15.416c-7.827,4.529-24.563-1.357-42.613-16.893
		c-2.068-1.779-4.153-3.684-6.245-5.691c6.999-7.654,13.992-16.553,20.815-26.436c12.007-1.064,23.352-2.809,33.637-5.186
		C313.082,296.107,313.532,298.111,313.924,300.072L313.924,300.072z M210.77,347.482c-7.646,2.701-13.735,2.777-17.418,0.654
		c-7.834-4.516-11.09-21.961-6.646-45.354c0.526-2.767,1.133-5.515,1.813-8.244c10.172,2.25,21.435,3.869,33.468,4.844
		c6.871,9.67,14.066,18.558,21.318,26.341c-1.541,1.491-3.119,2.942-4.731,4.356C228.936,338.503,219.28,344.479,210.77,347.482
		L210.77,347.482z M174.946,279.8c-12.108-4.141-22.109-9.52-28.966-15.389c-6.16-5.275-9.271-10.515-9.271-14.764
		c0-9.042,13.481-20.576,35.971-28.418c2.821-0.979,5.673-1.877,8.548-2.688c3.107,10.106,7.187,20.676,12.104,31.365
		c-4.982,10.846-9.118,21.584-12.255,31.813C179.018,281.13,176.974,280.49,174.946,279.8z M186.955,198.059
		c-4.668-23.854-1.567-41.848,6.23-46.363c8.312-4.813,26.684,2.049,46.045,19.242c1.238,1.1,2.48,2.25,3.728,3.44
		c-7.214,7.749-14.347,16.569-21.155,26.181c-11.681,1.083-22.862,2.821-33.142,5.151
		C188.028,203.173,187.458,200.623,186.955,198.059L186.955,198.059L186.955,198.059z M294.084,224.511
		c-2.432-4.194-4.945-8.336-7.555-12.42c7.927,1,15.519,2.33,22.646,3.957c-2.143,6.859-4.81,14.033-7.948,21.386
		C298.933,233.08,296.552,228.771,294.084,224.511L294.084,224.511z M250.396,181.958c4.895,5.301,9.794,11.221,14.615,17.645
		c-9.779-0.463-19.574-0.465-29.354-0.008C240.483,193.233,245.427,187.322,250.396,181.958z M206.43,224.583
		c-2.438,4.226-4.774,8.508-7.011,12.842c-3.09-7.327-5.732-14.532-7.894-21.489c7.086-1.585,14.645-2.882,22.518-3.866
		C211.408,216.181,208.869,220.354,206.43,224.583z M214.27,287.984c-8.133-0.908-15.805-2.139-22.889-3.682
		c2.192-7.08,4.896-14.438,8.051-21.926c2.246,4.338,4.594,8.623,7.042,12.852C208.97,279.542,211.569,283.794,214.27,287.984z
		 M250.69,318.087c-5.026-5.426-10.044-11.428-14.941-17.883c4.755,0.188,9.604,0.283,14.529,0.283
		c5.063,0,10.066-0.115,14.993-0.335C260.434,306.727,255.55,312.736,250.69,318.087z M301.327,261.998
		c3.319,7.564,6.117,14.887,8.343,21.848c-7.201,1.646-14.979,2.969-23.169,3.949c2.626-4.162,5.168-8.375,7.625-12.639
		C296.624,270.824,299.026,266.438,301.327,261.998L301.327,261.998z M284.936,269.855c-3.763,6.535-7.733,12.945-11.914,19.225
		c-7.369,0.525-14.981,0.799-22.744,0.799c-7.729,0-15.246-0.242-22.484-0.711c-4.287-6.262-8.336-12.686-12.14-19.254
		c-3.782-6.533-7.316-13.207-10.595-20.01c3.271-6.804,6.792-13.482,10.563-20.021v0.002c3.771-6.541,7.787-12.936,12.042-19.17
		c7.386-0.559,14.959-0.852,22.612-0.852c7.69,0,15.271,0.295,22.657,0.855c4.211,6.229,8.203,12.599,11.966,19.107
		c3.783,6.522,7.354,13.17,10.706,19.926C292.29,256.58,288.73,263.285,284.936,269.855L284.936,269.855z M306.822,151.38
		c8.315,4.797,11.551,24.138,6.325,49.502c-0.343,1.652-0.715,3.299-1.116,4.938c-10.304-2.377-21.491-4.146-33.207-5.246
		c-6.823-9.717-13.896-18.553-20.992-26.201c1.858-1.793,3.767-3.54,5.711-5.238C281.877,153.177,299.014,146.877,306.822,151.38
		L306.822,151.38z"/>
	<path display="inline" fill="#53C1DE" d="M250.278,227.473c12.249,0,22.179,9.929,22.179,22.176
		c0,12.25-9.931,22.179-22.179,22.179s-22.177-9.932-22.177-22.179S238.03,227.473,250.278,227.473"/>
</g>
<g id="Warstwa_5" display="none">
	
		<rect x="73.229" y="73.226" transform="matrix(-0.7071 -0.7071 0.7071 -0.7071 250.0025 603.5485)" display="inline" fill="#AE94FF" width="353.543" height="353.542"/>
	<path display="inline" fill="#764ABC" d="M301.695,280.477c9.894-1.022,17.396-9.552,17.052-19.78
		c-0.341-10.232-8.864-18.416-19.098-18.416h-0.682c-10.574,0.34-18.758,9.207-18.417,19.778c0.341,5.116,2.387,9.549,5.455,12.618
		c-11.594,22.854-29.327,39.564-55.93,53.548c-18.075,9.549-36.831,12.959-55.59,10.571c-15.348-2.047-27.282-8.867-34.787-20.123
		c-10.911-16.711-11.936-34.787-2.729-52.862c6.479-12.961,16.71-22.511,23.189-27.284c-1.364-4.436-3.41-11.938-4.435-17.395
		c-49.452,35.813-44.336,84.24-29.331,107.093c11.254,17.054,34.104,27.625,59.343,27.625c6.82,0,13.642-0.683,20.461-2.388
		C249.857,344.936,282.939,319.014,301.695,280.477L301.695,280.477z M361.72,238.186c-25.919-30.354-64.116-47.065-107.771-47.065
		h-5.453c-3.068-6.139-9.552-10.23-16.714-10.23H231.1c-10.571,0.342-18.756,9.208-18.416,19.781
		c0.342,10.229,8.868,18.416,19.098,18.416h0.683c7.504-0.34,13.982-5.114,16.712-11.596h6.14c25.919,0,50.474,7.502,72.644,22.168
		c17.054,11.254,29.33,25.922,36.148,43.654c5.798,14.324,5.456,28.309-0.683,40.246c-9.55,18.072-25.577,27.965-46.725,27.965
		c-13.642,0-26.602-4.094-33.422-7.162c-3.752,3.412-10.571,8.867-15.348,12.279c14.665,6.818,29.671,10.57,43.995,10.57
		c32.74,0,56.953-18.074,66.161-36.15C387.979,301.279,387.298,267.175,361.72,238.186L361.72,238.186z M188.471,286.271
		c0.341,10.232,8.865,18.418,19.098,18.418h0.685c10.569-0.342,18.757-9.209,18.416-19.779c-0.341-10.232-8.866-18.418-19.1-18.418
		h-0.683c-0.684,0-1.706,0-2.388,0.34c-13.981-23.189-19.779-48.428-17.733-75.713c1.363-20.461,8.187-38.198,20.121-52.864
		c9.891-12.619,28.987-18.757,41.949-19.098c36.146-0.683,51.492,44.336,52.52,62.412c4.434,1.022,11.938,3.411,17.052,5.116
		c-4.092-55.25-38.193-83.898-70.936-83.898c-30.694,0-59,22.168-70.255,54.909c-15.688,43.655-5.456,85.604,13.642,118.686
		c-1.704,2.39-2.729,6.142-2.387,9.894L188.471,286.271L188.471,286.271z"/>
</g>
<g id="Warstwa_6" display="none">
	
		<rect x="73.229" y="73.226" transform="matrix(-0.7071 -0.7071 0.7071 -0.7071 250.0025 603.5485)" display="inline" fill="#F495C9" width="353.543" height="353.542"/>
	<path display="inline" fill="#CF649A" d="M381.357,242.365c-11.226,0.063-20.946,2.76-29.1,6.771
		c-3.014-5.957-6.021-11.163-6.521-15.051c-0.563-4.518-1.254-7.275-0.563-12.668c0.688-5.396,3.822-13.045,3.822-13.672
		c-0.063-0.566-0.688-3.324-7.146-3.389s-12.042,1.256-12.669,2.947c-0.626,1.691-1.881,5.58-2.697,9.596
		c-1.128,5.896-12.919,26.777-19.629,37.756c-2.194-4.268-4.077-8.029-4.453-11.039c-0.563-4.517-1.255-7.275-0.563-12.668
		c0.688-5.396,3.823-13.045,3.823-13.674c-0.063-0.563-0.688-3.322-7.146-3.387c-6.461-0.063-12.042,1.255-12.669,2.947
		c-0.627,1.693-1.316,5.707-2.696,9.596c-1.315,3.891-16.997,38.758-21.071,47.854c-2.068,4.641-3.89,8.34-5.205,10.85
		s-0.063,0.188-0.188,0.439c-1.129,2.131-1.757,3.322-1.757,3.322v0.063c-0.878,1.565-1.818,3.072-2.26,3.072
		c-0.313,0-0.938-4.203,0.126-9.972c2.318-12.104,7.965-30.979,7.901-31.671c0-0.313,1.064-3.639-3.639-5.331
		c-4.578-1.692-6.208,1.129-6.585,1.129c-0.376,0-0.688,1.004-0.688,1.004s5.078-21.26-9.723-21.26
		c-9.282,0-22.075,10.097-28.409,19.315c-4.014,2.193-12.543,6.836-21.572,11.791c-3.45,1.881-7.023,3.889-10.411,5.707
		l-0.688-0.754c-17.937-19.13-51.11-32.677-49.73-58.39c0.501-9.345,3.764-33.991,63.719-63.843
		c49.104-24.459,88.428-17.749,95.263-2.823c9.721,21.323-21.01,60.959-72.06,66.666c-19.441,2.194-29.664-5.33-32.234-8.151
		c-2.696-2.947-3.072-3.074-4.077-2.51c-1.63,0.877-0.627,3.514,0,5.08c1.506,3.951,7.777,10.977,18.438,14.486
		c9.344,3.072,32.173,4.767,59.767-5.895c30.919-11.98,55.064-45.218,47.979-73c-7.212-28.284-54.123-37.566-98.462-21.825
		c-26.403,9.408-55.001,24.083-75.571,43.336c-24.459,22.829-28.348,42.771-26.717,51.047c5.708,29.539,46.409,48.793,62.715,63.029
		c-0.815,0.438-1.568,0.877-2.259,1.254c-8.151,4.014-39.195,20.258-46.975,37.438c-8.778,19.44,1.381,33.429,8.153,35.312
		c20.946,5.832,42.396-4.642,53.998-21.89c11.539-17.245,10.159-39.636,4.829-49.856l-0.189-0.377l6.396-3.765
		c4.141-2.444,8.218-4.702,11.791-6.647c-2.006,5.457-3.448,11.916-4.2,21.324c-0.878,11.039,3.637,25.336,9.595,30.979
		c2.635,2.445,5.771,2.511,7.714,2.511c6.898,0,10.034-5.709,13.483-12.543c4.265-8.343,8.026-18,8.026-18
		s-4.703,26.151,8.151,26.151c4.703,0,9.407-6.084,11.539-9.219v0.063c0,0,0.125-0.188,0.377-0.627
		c0.265-0.391,0.516-0.787,0.752-1.189v-0.127c1.883-3.262,6.084-10.725,12.355-23.078c8.089-15.93,15.865-35.873,15.865-35.873
		s0.753,4.894,3.071,12.92c1.38,4.768,4.391,9.973,6.71,15.051c-1.882,2.637-3.011,4.143-3.011,4.143l0.063,0.063
		c-1.505,2.008-3.197,4.142-4.954,6.271c-6.396,7.648-14.048,16.369-15.051,18.878c-1.19,2.946-0.939,5.144,1.379,6.896
		c1.692,1.256,4.704,1.508,7.901,1.256c5.771-0.379,9.783-1.816,11.79-2.696c3.136-1.13,6.71-2.821,10.159-5.33
		c6.271-4.644,10.098-11.228,9.721-20.007c-0.188-4.827-1.756-9.596-3.699-14.107c0.563-0.814,1.132-1.631,1.692-2.511
		c9.909-14.485,17.562-30.416,17.562-30.416s0.755,4.894,3.071,12.919c1.191,4.076,3.575,8.529,5.708,12.922
		c-9.281,7.588-15.113,16.366-17.121,22.137c-3.698,10.662-0.813,15.492,4.644,16.619c2.442,0.502,5.958-0.627,8.591-1.756
		c3.261-1.064,7.212-2.886,10.851-5.582c6.271-4.643,12.292-11.102,11.979-19.816c-0.188-4.014-1.255-7.965-2.696-11.729
		c7.901-3.262,18.123-5.145,31.105-3.574c27.905,3.262,33.428,20.694,32.358,27.971c-1.063,7.275-6.896,11.289-8.843,12.543
		c-1.944,1.191-2.571,1.633-2.383,2.511c0.25,1.315,1.128,1.255,2.821,1.005c2.318-0.379,14.675-5.959,15.177-19.38
		C426.763,260.992,410.395,242.177,381.357,242.365L381.357,242.365z M166.121,314.925c-9.221,10.099-22.201,13.923-27.722,10.662
		c-5.958-3.449-3.638-18.313,7.714-29.037c6.898-6.522,15.867-12.543,21.764-16.243c1.315-0.813,3.324-2.007,5.707-3.449
		c0.376-0.25,0.627-0.375,0.627-0.375c0.438-0.252,0.938-0.563,1.44-0.879C179.856,290.906,175.842,304.328,166.121,314.925
		L166.121,314.925z M233.54,269.082c-3.199,7.84-9.974,27.971-14.048,26.84c-3.515-0.938-5.646-16.18-0.69-31.229
		c2.509-7.59,7.84-16.617,10.975-20.132c5.081-5.646,10.601-7.524,11.979-5.205C243.385,242.365,235.546,264.189,233.54,269.082z
		 M289.167,295.671c-1.38,0.691-2.636,1.191-3.197,0.816c-0.439-0.25,0.563-1.191,0.563-1.191s6.964-7.463,9.723-10.912
		c1.565-2.006,3.447-4.327,5.456-6.961v0.752C301.709,287.207,293.056,293.227,289.167,295.671L289.167,295.671z M332.063,285.888
		c-1.003-0.752-0.877-3.071,2.509-10.348c1.318-2.885,4.327-7.715,9.533-12.291c0.627,1.881,1.004,3.699,0.94,5.394
		C344.983,279.932,336.953,284.132,332.063,285.888z"/>
</g>
<g id="Warstwa_7" display="none">
	<rect x="73.225" y="73.222" display="inline" fill="#121966" width="353.549" height="353.551"/>
	
		<radialGradient id="SVGID_3_" cx="-2577.9539" cy="1078.6138" r="0.068" gradientTransform="matrix(1620.4565 -1620.4565 1568.8966 1568.8966 2485413.75 -5869459.5)" gradientUnits="userSpaceOnUse">
		<stop  offset="0" style="stop-color:#34364E;stop-opacity:0.98"/>
		<stop  offset="1" style="stop-color:#0C0824"/>
	</radialGradient>
	<path display="inline" fill="url(#SVGID_3_)" d="M107.052,251.975L251.98,107.048l140.978,140.976L248.027,392.951L107.052,251.975
		z"/>
	<path display="inline" fill="#31C5F0" d="M107.052,251.975L251.98,107.048l140.978,140.976L248.027,392.951L107.052,251.975z
		 M248.027,406.125l158.104-158.103L251.979,93.873L93.877,251.975L248.027,406.125L248.027,406.125z M263.703,208.628
		c-5.203,5.205-4.347,9.617-2.172,11.793c2.37,2.369,5.203,2.832,15.813-0.528c15.348-5.333,23.384-3.755,30.434,3.294
		c10.539,10.539,8.169,24.242-2.7,35.111c-5.73,5.732-11.858,9.486-16.339,10.674c-0.659,0.262-1.053,0-1.579-0.527l-9.686-9.686
		c-0.658-0.657-0.527-1.186,0.264-1.316c6.851-1.449,12.779-5.006,17.13-9.355c5.202-5.203,5.202-9.551,2.238-12.516
		c-2.373-2.373-5.997-2.966-16.076,0.264c-13.834,4.875-22.266,4.215-29.841-3.358c-8.5-8.5-8.895-22.202,2.635-33.729
		c5.664-5.666,10.477-8.763,13.637-9.949c0.854-0.196,1.517,0.197,1.978,0.658l9.023,9.024c0.526,0.526,0.526,1.187-0.329,1.647
		C273.389,201.184,267.987,204.345,263.703,208.628L263.703,208.628z M214.89,273.123c1.646-1.385,2.833-2.57,5.467-5.207
		c7.707-7.707,12.253-17.652,1.78-28.127c-8.367-8.367-17.788-7.379-26.55,1.383c-2.634,2.637-5.006,5.271-6.127,6.522
		L214.89,273.123L214.89,273.123z M168.184,249.869c-0.461-0.463,0.132-1.716,0.659-2.242c4.019-4.412,10.145-10.803,16.668-17.326
		c18.246-18.248,35.373-15.348,48.152-2.565c16.731,16.731,11.794,36.034-3.095,50.923c-2.503,2.504-3.492,3.227-5.271,5.006
		l25.297,25.297c0.526,0.527,0.593,0.986,0,1.58l-10.08,10.08c-0.527,0.524-0.987,0.594-1.581,0L168.184,249.869L168.184,249.869z"
		/>
</g>
<g id="Warstwa_8" display="none">
	<rect x="0.001" display="inline" fill="#AF5504" width="353.549" height="353.55"/>
	
		<radialGradient id="SVGID_4_" cx="-2577.9539" cy="1078.5679" r="0.068" gradientTransform="matrix(1620.4565 -1620.4565 1568.8966 1568.8966 2485413.75 -5869459.5)" gradientUnits="userSpaceOnUse">
		<stop  offset="0" style="stop-color:#423325;stop-opacity:0.98"/>
		<stop  offset="1" style="stop-color:#1C0A00"/>
	</radialGradient>
	<path display="inline" fill="url(#SVGID_4_)" d="M33.828,178.751L178.756,33.825L319.73,174.799L174.802,319.726L33.828,178.751z"
		/>
	<path display="inline" fill="#FF7F18" d="M33.828,178.751L178.756,33.825L319.73,174.799L174.802,319.726L33.828,178.751z
		 M174.803,332.902l158.104-158.103L178.756,20.65L20.653,178.751L174.803,332.902L174.803,332.902z M179.149,130.137
		c-0.525-0.526-0.594-0.987,0-1.582l10.344-10.342c0.525-0.526,0.986-0.593,1.579,0l51.979,51.978c0.526,0.525,0.657,0.922,0,1.58
		l-10.21,10.209c-0.659,0.66-1.187,0.525-1.713,0l-51.91-51.91L179.149,130.137L179.149,130.137z M163.471,115.908
		c-4.216-4.217-3.756-9.684,0-13.439c4.019-4.019,9.421-4.018,13.439,0c4.348,4.35,3.886,9.553-0.135,13.57
		C172.959,119.861,167.819,120.255,163.471,115.908z M170.456,182.177c-9.157-5.467-29.447-17.062-38.803-23.123l-0.132,0.132
		c6.323,9.092,15.876,25.625,23.321,38.604L170.456,182.177z M162.813,211.164l14.561,24.969c0.394,0.656,0.328,0.986-0.329,1.646
		l-9.686,9.687c-0.658,0.658-0.987,0.592-1.646-0.33l-46.772-84.188c-0.854-1.517-1.712-2.77-4.809-6.127
		c-0.461-0.461-0.46-0.856-0.131-1.186l13.833-13.833c0.46-0.46,0.791-0.528,1.447-0.134l92.028,50.132
		c0.658,0.396,0.857,0.857,0.33,1.386l-10.937,10.938c-0.525,0.524-0.988,0.723-1.581,0.393l-25.229-14.426L162.813,211.164
		L162.813,211.164z"/>
</g>
</svg>
