<?xml version="1.0" encoding="utf-8"?>
<!-- Generator: Adobe Illustrator 16.0.0, SVG Export Plug-In . SVG Version: 6.00 Build 0)  -->
<!DOCTYPE svg PUBLIC "-//W3C//DTD SVG 1.1//EN" "http://www.w3.org/Graphics/SVG/1.1/DTD/svg11.dtd">
<svg version="1.1" xmlns="http://www.w3.org/2000/svg" xmlns:xlink="http://www.w3.org/1999/xlink" x="0px" y="0px" width="500px"
	 height="500px" viewBox="0 0 500 500" enable-background="new 0 0 500 500" xml:space="preserve">
<g id="Warstwa_1" display="none">
	
		<rect x="73.223" y="73.223" transform="matrix(0.7071 0.7071 -0.7071 0.7071 250 -103.5534)" display="inline" fill="#3DB8E8" width="353.553" height="353.553"/>
	<g display="inline">
		<path fill="#2062AF" d="M324.459,354.546l-74.993,20.192l-74.994-20.192l-17.306-187.483h184.599L324.459,354.546z"/>
		<path fill="#3C9CD7" d="M249.466,182.249v176.384l0.169,0.045l60.688-16.341l14.009-160.088H249.466L249.466,182.249z"/>
		<path d="M206.905,139.518v-11.159h16.281v-12.21h-28.491v34.512h28.491v-11.143H206.905z M252.473,128.359h11.382v-12.21h-28.493
			v12.21c3.813,3.813,5.8,5.638,11.313,11.15c-3.223,0-11.313,0.012-11.313,0.011v11.14h28.493v-11.143L252.473,128.359
			L252.473,128.359z M292.858,128.359h11.381v-12.21h-28.494v12.21c3.812,3.813,5.801,5.638,11.314,11.15
			c-3.223,0-11.314,0.012-11.314,0.011v11.14h28.495v-11.143L292.858,128.359L292.858,128.359z"/>
		<path fill="#FFFFFF" d="M249.399,229.127l-53.675,22.353l1.78,22.133l51.895-22.188l55.202-23.602l2.289-22.64L249.399,229.127
			L249.399,229.127z"/>
		
			<linearGradient id="SVGID_1_" gradientUnits="userSpaceOnUse" x1="-986.9434" y1="-1062.2256" x2="-986.9434" y2="-1071.8091" gradientTransform="matrix(4.6418 0 0 4.6418 4803.7559 5204.25)">
			<stop  offset="0.387" style="stop-color:#D1D3D4;stop-opacity:0"/>
			<stop  offset="1" style="stop-color:#D1D3D4"/>
		</linearGradient>
		<path fill="url(#SVGID_1_)" d="M195.724,251.48l1.78,22.133l51.895-22.188v-22.297L195.724,251.48z"/>
		
			<linearGradient id="SVGID_2_" gradientUnits="userSpaceOnUse" x1="-974.9688" y1="-1067.0054" x2="-974.9688" y2="-1076.9678" gradientTransform="matrix(4.6418 0 0 4.6418 4803.7559 5204.25)">
			<stop  offset="0.387" style="stop-color:#D1D3D4;stop-opacity:0"/>
			<stop  offset="1" style="stop-color:#D1D3D4"/>
		</linearGradient>
		<path fill="url(#SVGID_2_)" d="M306.891,205.183l-57.491,23.944v22.297l55.202-23.602L306.891,205.183z"/>
		
			<linearGradient id="SVGID_3_" gradientUnits="userSpaceOnUse" x1="-992.7075" y1="-1057.9507" x2="-969.6895" y2="-1057.9507" gradientTransform="matrix(4.6418 0 0 4.6418 4803.7559 5204.25)">
			<stop  offset="0" style="stop-color:#E8E7E5"/>
			<stop  offset="1" style="stop-color:#FFFFFF"/>
		</linearGradient>
		<path fill="url(#SVGID_3_)" d="M195.807,251.48l1.78,22.133l79.625,0.254l-1.78,29.51l-26.201,7.376l-25.188-6.36l-1.526-18.315
			h-23.403l3.053,35.36l47.318,13.99l47.062-13.737l6.106-70.21H195.807z"/>
		<path opacity="0.05" enable-background="new    " d="M249.399,251.48h-53.675l1.78,22.133l51.895,0.167V251.48L249.399,251.48z
			 M249.399,310.683l-0.254,0.071l-25.184-6.359l-1.526-18.316h-23.403l3.052,35.359l47.315,13.991V310.683z"/>
		
			<linearGradient id="SVGID_4_" gradientUnits="userSpaceOnUse" x1="-993.7666" y1="-1074.5283" x2="-968.7764" y2="-1074.5283" gradientTransform="matrix(4.6418 0 0 4.6418 4803.7559 5204.25)">
			<stop  offset="0" style="stop-color:#E8E7E5"/>
			<stop  offset="1" style="stop-color:#FFFFFF"/>
		</linearGradient>
		<path fill="url(#SVGID_4_)" d="M190.891,205.183h116l-2.289,22.641H193.689L190.891,205.183L190.891,205.183z"/>
		<path opacity="0.05" enable-background="new    " d="M249.399,205.183h-58.509l2.798,22.641h55.71V205.183L249.399,205.183z"/>
	</g>
</g>
<g id="Warstwa_2" display="none">
	
		<rect x="73.223" y="73.224" transform="matrix(0.7071 0.7071 -0.7071 0.7071 249.9998 -103.5533)" display="inline" fill="#FC7B3A" width="353.553" height="353.553"/>
	<g display="inline">
		<path fill="#E44D26" d="M173.842,355.936l-16.828-188.742h184.908l-16.847,188.712l-75.721,20.993L173.842,355.936z"/>
		<path fill="#F16529" d="M249.468,360.854l61.186-16.965l14.396-161.262h-75.582V360.854z"/>
		<path fill="#EBEBEB" d="M249.468,252.629h-30.631l-2.116-23.705h32.747v-23.149h-58.045l0.554,6.211l5.69,63.791h51.802V252.629z
			 M249.468,312.749l-0.102,0.024l-25.781-6.96l-1.648-18.46H198.7l3.244,36.346l47.418,13.161l0.106-0.029V312.749z"/>
		<path d="M174.218,115.902h11.763v11.622h10.761v-11.622h11.764v35.195h-11.764v-11.786h-10.761v11.786h-11.762L174.218,115.902z
			 M223.976,127.575h-10.355v-11.672h32.482v11.672h-10.36v23.522h-11.766V127.575L223.976,127.575z M251.257,115.902h12.268
			l7.544,12.366l7.539-12.366h12.272v35.195h-11.718v-17.445l-8.094,12.515h-0.203l-8.099-12.515v17.445h-11.51V115.902
			L251.257,115.902z M296.732,115.902h11.767v23.563h16.545v11.632h-28.312V115.902z"/>
		<path fill="#FFFFFF" d="M249.387,252.629v23.147h28.506l-2.688,30.023l-25.818,6.967v24.085l47.457-13.152l0.347-3.912
			l5.44-60.941l0.565-6.217h-6.238H249.387z M249.387,205.775v23.149h55.916l0.463-5.203l1.055-11.735l0.556-6.211H249.387z"/>
	</g>
</g>
<g id="Warstwa_3" display="none">
	
		<rect x="73.223" y="73.224" transform="matrix(0.7071 0.7071 -0.7071 0.7071 249.9998 -103.5533)" display="inline" fill="#FFE97B" width="353.553" height="353.553"/>
	<path display="inline" fill="#F7DF1E" d="M146.066,146.066h207.867v207.867H146.066V146.066z"/>
	<path display="inline" d="M200.723,319.775l15.907-9.627c3.069,5.44,5.861,10.046,12.557,10.046
		c6.419,0,10.466-2.511,10.466-12.277v-66.419h19.535v66.694c0,20.232-11.86,29.442-29.164,29.442
		c-15.626,0-24.697-8.094-29.302-17.861 M269.797,317.683l15.906-9.21c4.187,6.839,9.628,11.861,19.256,11.861
		c8.094,0,13.255-4.047,13.255-9.628c0-6.697-5.302-9.07-14.231-12.976l-4.883-2.096c-14.094-5.997-23.441-13.533-23.441-29.439
		c0-14.651,11.161-25.814,28.604-25.814c12.418,0,21.349,4.326,27.767,15.628l-15.21,9.769c-3.35-6-6.976-8.371-12.558-8.371
		c-5.722,0-9.349,3.628-9.349,8.371c0,5.859,3.627,8.233,11.999,11.861l4.884,2.092c16.604,7.117,25.953,14.373,25.953,30.697
		c0,17.582-13.813,27.209-32.371,27.209C287.237,337.637,275.517,328.985,269.797,317.683"/>
</g>
<g id="Warstwa_4" display="none">
	
		<rect x="73.223" y="73.224" transform="matrix(0.7071 0.7071 -0.7071 0.7071 249.9998 -103.5533)" display="inline" fill="#53C1DE" width="353.553" height="353.553"/>
	<path display="inline" fill="#FFFFFF" d="M110.176,249.548c0,21.119,20.623,40.835,53.135,51.947
		c-6.493,32.685-1.163,59.029,16.636,69.295c18.295,10.551,45.551,3.247,71.421-19.367c25.217,21.701,50.702,30.241,68.485,19.947
		c18.279-10.582,23.837-38.712,17.166-72.418c33.863-11.195,52.806-28.007,52.806-49.404c0-20.629-20.66-38.476-52.734-49.518
		c7.183-35.098,1.097-60.803-17.439-71.492c-17.871-10.306-43.653-1.324-69.241,20.944c-26.621-23.635-52.147-30.851-70.665-20.132
		c-17.854,10.335-22.949,37.159-16.435,70.448C131.896,210.751,110.176,229.002,110.176,249.548z"/>
	<path display="inline" fill="#53C1DE" d="M330.298,210.995c-2.643-0.907-5.31-1.747-7.994-2.519
		c0.444-1.81,0.856-3.627,1.235-5.453c6.051-29.377,2.095-53.044-11.418-60.834c-12.956-7.472-34.145,0.319-55.544,18.941
		c-2.109,1.839-4.171,3.731-6.184,5.675c-1.348-1.292-2.72-2.56-4.115-3.801c-22.428-19.914-44.908-28.305-58.406-20.491
		c-12.943,7.493-16.777,29.743-11.329,57.583c0.542,2.757,1.154,5.5,1.836,8.226c-3.181,0.904-6.253,1.867-9.192,2.891
		c-26.293,9.167-43.086,23.535-43.086,38.437c0,15.392,18.025,30.831,45.414,40.19c2.221,0.756,4.46,1.455,6.716,2.101
		c-0.733,2.936-1.384,5.893-1.951,8.866c-5.194,27.356-1.138,49.079,11.771,56.525c13.333,7.688,35.712-0.215,57.503-19.263
		c1.722-1.506,3.451-3.102,5.182-4.776c2.18,2.104,4.419,4.146,6.713,6.126c21.107,18.162,41.953,25.497,54.852,18.031
		c13.321-7.712,17.649-31.048,12.029-59.438c-0.429-2.169-0.929-4.384-1.49-6.64c1.572-0.463,3.114-0.942,4.619-1.441
		c28.472-9.433,46.995-24.684,46.995-40.281C374.454,234.693,357.121,220.229,330.298,210.995L330.298,210.995z"/>
	<path display="inline" fill="#FFFFFF" d="M324.122,279.859c-1.357,0.449-2.751,0.884-4.171,1.305
		c-3.144-9.95-7.387-20.531-12.576-31.462c4.953-10.673,9.031-21.118,12.087-31.004c2.54,0.736,5.007,1.512,7.383,2.33
		c22.983,7.91,37,19.608,37,28.621c0,9.601-15.14,22.065-39.721,30.21H324.122z M313.923,300.071
		c2.484,12.555,2.84,23.905,1.193,32.778c-1.479,7.973-4.454,13.288-8.132,15.417c-7.827,4.53-24.565-1.359-42.615-16.892
		c-2.069-1.78-4.153-3.682-6.245-5.693c6.999-7.654,13.992-16.552,20.817-26.434c12.007-1.065,23.35-2.808,33.637-5.185
		C313.083,296.107,313.534,298.111,313.923,300.071L313.923,300.071z M210.77,347.483c-7.647,2.701-13.737,2.778-17.418,0.655
		c-7.834-4.517-11.09-21.961-6.648-45.355c0.528-2.765,1.133-5.514,1.813-8.245c10.172,2.25,21.433,3.869,33.468,4.845
		c6.871,9.669,14.066,18.557,21.318,26.34c-1.541,1.491-3.119,2.943-4.731,4.356C228.936,338.503,219.28,344.478,210.77,347.483
		L210.77,347.483z M174.946,279.801c-12.11-4.141-22.111-9.52-28.966-15.389c-6.16-5.275-9.27-10.513-9.27-14.763
		c0-9.042,13.483-20.578,35.97-28.418c2.822-0.979,5.673-1.877,8.548-2.689c3.108,10.108,7.185,20.677,12.104,31.365
		c-4.983,10.847-9.118,21.584-12.255,31.813C179.018,281.13,176.974,280.49,174.946,279.801z M186.955,198.059
		c-4.668-23.854-1.568-41.848,6.232-46.363c8.31-4.81,26.682,2.049,46.045,19.242c1.238,1.1,2.481,2.25,3.726,3.44
		c-7.214,7.748-14.345,16.568-21.156,26.181c-11.68,1.083-22.862,2.822-33.141,5.151c-0.633-2.536-1.203-5.088-1.707-7.652V198.059z
		 M294.084,224.511c-2.43-4.194-4.946-8.335-7.553-12.42c7.925,1,15.516,2.33,22.645,3.958c-2.14,6.859-4.807,14.033-7.948,21.385
		C298.933,233.079,296.551,228.771,294.084,224.511L294.084,224.511z M250.396,181.959c4.893,5.301,9.794,11.221,14.615,17.644
		c-9.779-0.463-19.574-0.465-29.354-0.007C240.483,193.233,245.426,187.322,250.396,181.959z M206.43,224.583
		c-2.437,4.226-4.774,8.508-7.01,12.843c-3.09-7.328-5.733-14.533-7.892-21.49c7.086-1.585,14.643-2.882,22.516-3.866
		C211.408,216.181,208.869,220.354,206.43,224.583z M214.27,287.984c-8.133-0.908-15.804-2.138-22.888-3.681
		c2.193-7.08,4.895-14.439,8.05-21.925c2.246,4.338,4.594,8.623,7.042,12.851C208.97,279.543,211.569,283.795,214.27,287.984z
		 M250.69,318.088c-5.028-5.427-10.044-11.428-14.943-17.883c4.755,0.187,9.604,0.282,14.531,0.282
		c5.062,0,10.066-0.114,14.993-0.333C260.434,306.727,255.55,312.736,250.69,318.088z M301.329,261.998
		c3.319,7.565,6.117,14.886,8.34,21.847c-7.201,1.644-14.976,2.967-23.168,3.949c2.626-4.161,5.168-8.375,7.625-12.638
		C296.624,270.823,299.026,266.437,301.329,261.998L301.329,261.998z M284.936,269.856c-3.762,6.535-7.735,12.946-11.914,19.224
		c-7.369,0.526-14.983,0.798-22.744,0.798c-7.728,0-15.246-0.241-22.486-0.71c-4.287-6.263-8.336-12.685-12.138-19.254
		c-3.784-6.533-7.318-13.208-10.595-20.01c3.269-6.804,6.792-13.483,10.563-20.021v0.002c3.77-6.541,7.787-12.936,12.042-19.171
		c7.386-0.558,14.959-0.851,22.614-0.851c7.69,0,15.272,0.294,22.657,0.857c4.211,6.226,8.203,12.598,11.966,19.106
		c3.783,6.524,7.354,13.17,10.706,19.927C292.29,256.579,288.73,263.284,284.936,269.856L284.936,269.856z M306.822,151.38
		c8.315,4.797,11.551,24.138,6.325,49.502c-0.343,1.652-0.715,3.299-1.116,4.938c-10.304-2.377-21.493-4.147-33.207-5.246
		c-6.825-9.717-13.896-18.553-20.994-26.201c1.86-1.793,3.766-3.54,5.711-5.238C281.877,153.177,299.014,146.877,306.822,151.38
		L306.822,151.38z"/>
	<path display="inline" fill="#53C1DE" d="M250.278,227.473c12.249,0,22.177,9.929,22.177,22.176
		c0,12.249-9.929,22.178-22.177,22.178c-12.248,0-22.177-9.93-22.177-22.178C228.101,237.402,238.03,227.473,250.278,227.473"/>
</g>
<g id="Warstwa_5" display="none">
	
		<rect x="73.223" y="73.224" transform="matrix(0.7071 0.7071 -0.7071 0.7071 249.9998 -103.5533)" display="inline" fill="#AE94FF" width="353.553" height="353.553"/>
	<path display="inline" fill="#764ABC" d="M301.695,280.476c9.891-1.022,17.394-9.55,17.052-19.781
		c-0.341-10.231-8.867-18.416-19.098-18.416h-0.682c-10.574,0.341-18.757,9.208-18.417,19.78c0.341,5.116,2.387,9.549,5.456,12.619
		c-11.594,22.852-29.328,39.562-55.93,53.546c-18.075,9.55-36.831,12.959-55.588,10.572c-15.348-2.046-27.284-8.867-34.788-20.122
		c-10.912-16.712-11.935-34.788-2.728-52.863c6.48-12.961,16.71-22.511,23.19-27.284c-1.364-4.435-3.41-11.937-4.433-17.394
		c-49.452,35.811-44.336,84.24-29.331,107.091c11.254,17.053,34.105,27.626,59.342,27.626c6.821,0,13.641-0.683,20.461-2.387
		C249.857,344.935,282.939,319.014,301.695,280.476L301.695,280.476z M361.72,238.186c-25.919-30.354-64.116-47.065-107.771-47.065
		h-5.455c-3.069-6.139-9.55-10.232-16.712-10.232H231.1c-10.571,0.342-18.756,9.208-18.416,19.782
		c0.342,10.23,8.868,18.417,19.098,18.417h0.681c7.503-0.341,13.984-5.116,16.711-11.596h6.14c25.919,0,50.474,7.502,72.642,22.168
		c17.053,11.254,29.331,25.921,36.15,43.654c5.798,14.325,5.456,28.308-0.683,40.246c-9.548,18.074-25.577,27.966-46.722,27.966
		c-13.642,0-26.602-4.094-33.422-7.163c-3.752,3.412-10.573,8.867-15.348,12.279c14.665,6.82,29.671,10.572,43.995,10.572
		c32.74,0,56.953-18.076,66.161-36.151C387.979,301.279,387.297,267.175,361.72,238.186L361.72,238.186z M188.471,286.272
		c0.341,10.232,8.866,18.417,19.098,18.417h0.683c10.571-0.341,18.756-9.209,18.416-19.78c-0.341-10.232-8.867-18.417-19.098-18.417
		h-0.683c-0.683,0-1.706,0-2.387,0.34c-13.982-23.191-19.78-48.428-17.734-75.713c1.364-20.463,8.185-38.198,20.121-52.864
		c9.891-12.619,28.988-18.757,41.95-19.098c36.148-0.683,51.494,44.336,52.519,62.412c4.434,1.023,11.937,3.411,17.052,5.116
		c-4.092-55.25-38.195-83.898-70.936-83.898c-30.694,0-59,22.168-70.255,54.909c-15.688,43.655-5.456,85.604,13.642,118.686
		c-1.704,2.389-2.729,6.141-2.387,9.893V286.272z"/>
</g>
<g id="Warstwa_6" display="none">
	
		<rect x="73.223" y="73.224" transform="matrix(0.7071 0.7071 -0.7071 0.7071 249.9998 -103.5533)" display="inline" fill="#F495C9" width="353.553" height="353.553"/>
	<path display="inline" fill="#CF649A" d="M381.357,242.364c-11.226,0.063-20.946,2.76-29.1,6.774
		c-3.011-5.958-6.021-11.164-6.521-15.052c-0.564-4.516-1.254-7.275-0.564-12.668c0.689-5.394,3.825-13.045,3.825-13.672
		c-0.064-0.565-0.69-3.324-7.149-3.387c-6.459-0.063-12.042,1.254-12.669,2.947c-0.626,1.693-1.881,5.582-2.697,9.596
		c-1.128,5.895-12.919,26.779-19.629,37.754c-2.194-4.266-4.077-8.028-4.453-11.039c-0.564-4.515-1.255-7.275-0.564-12.668
		c0.689-5.394,3.826-13.044,3.826-13.672c-0.063-0.564-0.69-3.324-7.148-3.387c-6.461-0.063-12.042,1.255-12.669,2.948
		s-1.316,5.707-2.696,9.595c-1.317,3.889-16.997,38.758-21.073,47.852c-2.069,4.641-3.888,8.341-5.205,10.85
		c-1.316,2.509-0.063,0.188-0.188,0.439c-1.129,2.132-1.757,3.324-1.757,3.324v0.063c-0.878,1.567-1.818,3.072-2.259,3.072
		c-0.313,0-0.939-4.202,0.126-9.971c2.32-12.104,7.964-30.98,7.903-31.671c0-0.313,1.064-3.639-3.639-5.331
		c-4.578-1.693-6.208,1.129-6.585,1.129c-0.376,0-0.689,1.004-0.689,1.004s5.08-21.26-9.721-21.26
		c-9.282,0-22.075,10.097-28.409,19.316c-4.014,2.194-12.543,6.835-21.574,11.79c-3.45,1.882-7.024,3.889-10.411,5.707l-0.689-0.754
		c-17.936-19.128-51.112-32.675-49.732-58.388c0.501-9.344,3.763-33.991,63.718-63.843c49.105-24.459,88.428-17.749,95.263-2.823
		c9.721,21.323-21.01,60.959-72.059,66.666c-19.442,2.195-29.665-5.33-32.235-8.153c-2.697-2.947-3.073-3.073-4.077-2.508
		c-1.63,0.877-0.627,3.512,0,5.08c1.505,3.951,7.777,10.975,18.438,14.487c9.344,3.073,32.173,4.766,59.767-5.895
		c30.919-11.978,55.064-45.217,47.978-73c-7.212-28.284-54.123-37.566-98.462-21.825c-26.404,9.408-55.001,24.083-75.572,43.336
		c-24.459,22.828-28.347,42.771-26.716,51.049c5.708,29.539,46.409,48.792,62.714,63.028c-0.815,0.438-1.568,0.878-2.258,1.254
		c-8.152,4.014-39.196,20.258-46.973,37.44c-8.78,19.441,1.38,33.428,8.153,35.31c20.947,5.832,42.395-4.641,53.998-21.888
		c11.539-17.246,10.16-39.636,4.829-49.858l-0.189-0.376l6.396-3.764c4.14-2.445,8.217-4.703,11.791-6.648
		c-2.006,5.457-3.449,11.916-4.201,21.324c-0.878,11.038,3.637,25.336,9.595,30.98c2.634,2.445,5.77,2.509,7.714,2.509
		c6.898,0,10.034-5.708,13.483-12.543c4.265-8.342,8.027-17.999,8.027-17.999s-4.703,26.152,8.153,26.152
		c4.703,0,9.407-6.084,11.539-9.22v0.063c0,0,0.125-0.188,0.377-0.626c0.263-0.391,0.514-0.787,0.752-1.191v-0.126
		c1.882-3.261,6.084-10.725,12.355-23.078c8.089-15.93,15.866-35.873,15.866-35.873s0.753,4.892,3.073,12.919
		c1.379,4.767,4.389,9.972,6.71,15.051c-1.882,2.635-3.011,4.141-3.011,4.141l0.063,0.063c-1.505,2.007-3.198,4.14-4.954,6.271
		c-6.396,7.65-14.048,16.369-15.051,18.878c-1.191,2.946-0.94,5.142,1.379,6.898c1.694,1.254,4.704,1.505,7.903,1.254
		c5.769-0.377,9.783-1.818,11.79-2.697c3.136-1.129,6.71-2.822,10.159-5.33c6.271-4.641,10.098-11.226,9.721-20.006
		c-0.188-4.829-1.756-9.595-3.699-14.11c0.563-0.815,1.129-1.631,1.692-2.509c9.909-14.487,17.561-30.417,17.561-30.417
		s0.753,4.893,3.072,12.919c1.191,4.077,3.575,8.53,5.708,12.921c-9.282,7.588-15.114,16.368-17.121,22.138
		c-3.701,10.661-0.815,15.491,4.641,16.619c2.445,0.502,5.958-0.627,8.591-1.756c3.261-1.065,7.212-2.885,10.851-5.582
		c6.271-4.641,12.292-11.1,11.979-19.817c-0.188-4.014-1.255-7.964-2.696-11.728c7.901-3.261,18.123-5.143,31.105-3.574
		c27.908,3.261,33.428,20.695,32.361,27.97c-1.065,7.276-6.898,11.289-8.843,12.543c-1.945,1.191-2.571,1.632-2.383,2.51
		c0.25,1.317,1.128,1.254,2.821,1.004c2.321-0.378,14.675-5.959,15.177-19.379C426.763,260.991,410.395,242.177,381.357,242.364
		L381.357,242.364z M166.121,314.925c-9.219,10.098-22.201,13.923-27.72,10.662c-5.958-3.449-3.638-18.313,7.714-29.037
		c6.898-6.522,15.867-12.543,21.762-16.243c1.317-0.815,3.324-2.006,5.707-3.449c0.376-0.25,0.627-0.376,0.627-0.376
		c0.438-0.251,0.94-0.564,1.442-0.879C179.856,290.905,175.842,304.327,166.121,314.925L166.121,314.925z M233.54,269.081
		c-3.199,7.84-9.972,27.971-14.048,26.841c-3.513-0.939-5.644-16.18-0.691-31.23c2.509-7.59,7.84-16.62,10.975-20.133
		c5.081-5.645,10.599-7.525,11.979-5.205C243.385,242.364,235.546,264.189,233.54,269.081z M289.167,295.672
		c-1.38,0.69-2.634,1.191-3.198,0.816c-0.439-0.251,0.563-1.191,0.563-1.191s6.962-7.464,9.721-10.913
		c1.567-2.006,3.449-4.327,5.456-6.961v0.753C301.71,287.206,293.056,293.226,289.167,295.672L289.167,295.672z M332.063,285.888
		c-1.003-0.752-0.877-3.072,2.509-10.348c1.318-2.885,4.327-7.714,9.533-12.291c0.627,1.881,1.004,3.699,0.94,5.393
		C344.983,279.931,336.955,284.132,332.063,285.888z"/>
</g>
<g id="Warstwa_7">
	
		<rect x="73.223" y="73.224" transform="matrix(0.7071 0.7071 -0.7071 0.7071 249.9998 -103.5533)" fill="#121966" width="353.553" height="353.553"/>
	
		<radialGradient id="SVGID_5_" cx="-182.9502" cy="172.1948" r="0.068" gradientTransform="matrix(2291.6716 0 0 -2218.7549 419476 382252)" gradientUnits="userSpaceOnUse">
		<stop  offset="0" style="stop-color:#34364E;stop-opacity:0.98"/>
		<stop  offset="1" style="stop-color:#0C0824"/>
	</radialGradient>
	<path fill="url(#SVGID_5_)" d="M147.521,150.316h204.958v199.369H147.521V150.316z"/>
	<path fill="#31C5F0" d="M147.521,150.316h204.958v199.369H147.521V150.316z M138.205,359.001h223.59V141h-223.59V359.001z
		 M288.941,230.436c-7.359,0-9.873,3.727-9.873,6.802c0,3.353,1.675,5.683,11.552,10.807c14.625,7.081,19.191,13.88,19.191,23.849
		c0,14.905-11.366,22.918-26.737,22.918c-8.106,0-15.094-1.678-19.101-4.006c-0.651-0.28-0.744-0.744-0.744-1.49V275.62
		c0-0.931,0.466-1.212,1.118-0.745c5.869,3.819,12.575,5.497,18.727,5.497c7.358,0,10.433-3.074,10.433-7.267
		c0-3.355-2.143-6.337-11.553-11.181c-13.23-6.334-18.725-12.763-18.725-23.476c0-12.02,9.41-21.988,25.712-21.988
		c8.012,0,13.603,1.212,16.677,2.609c0.745,0.465,0.932,1.211,0.932,1.862v12.763c0,0.746-0.466,1.211-1.398,0.933
		C301.054,232.02,294.998,230.436,288.941,230.436L288.941,230.436z M208.822,241.523c2.143,0.185,3.82,0.185,7.546,0.185
		c10.9,0,21.148-3.819,21.148-18.631c0-11.833-7.36-17.795-19.751-17.795c-3.726,0-7.267,0.187-8.944,0.279V241.523z
		 M192.239,192.054c0-0.653,1.305-1.119,2.049-1.119c5.962-0.279,14.813-0.465,24.037-0.465c25.806,0,35.866,14.16,35.866,32.234
		c0,23.663-17.141,33.819-38.196,33.819c-3.54,0-4.751-0.188-7.267-0.188v35.774c0,0.746-0.279,1.118-1.118,1.118h-14.254
		c-0.745,0-1.118-0.279-1.118-1.118L192.239,192.054L192.239,192.054z"/>
</g>
</svg>
