<?xml version="1.0" encoding="utf-8"?>
<!-- Generator: Adobe Illustrator 16.0.0, SVG Export Plug-In . SVG Version: 6.00 Build 0)  -->
<!DOCTYPE svg PUBLIC "-//W3C//DTD SVG 1.1//EN" "http://www.w3.org/Graphics/SVG/1.1/DTD/svg11.dtd">
<svg version="1.1" id="Warstwa_1" xmlns="http://www.w3.org/2000/svg" xmlns:xlink="http://www.w3.org/1999/xlink" x="0px" y="0px"
	 width="353.55px" height="353.55px" viewBox="73.224 73.222 353.55 353.55" enable-background="new 73.224 73.222 353.55 353.55"
	 xml:space="preserve">
<g id="Warstwa_1_1_" display="none">
	<rect x="73.225" y="73.221" display="inline" fill="#3DB8E8" width="353.55" height="353.549"/>
	<g display="inline">
		<path fill="#2062AF" d="M376.578,271.273l-38.75,67.307l-67.308,38.75L125.714,256.997l130.531-130.531L376.578,271.273z"/>
		<path fill="#3C9CD7" d="M201.718,202.469L326.44,327.191l0.151-0.088l31.358-54.467L254.656,149.531L201.718,202.469
			L201.718,202.469z"/>
		<path d="M141.407,202.35l-7.891-7.891l11.512-11.512l-8.634-8.634l-20.146,20.146l24.404,24.403l20.146-20.146l-7.879-7.879
			L141.407,202.35z M165.738,162.237l8.048-8.048l-8.634-8.633l-20.147,20.147l8.634,8.634c5.393,0,8.088-0.115,15.884-0.116
			c-2.279,2.279-7.991,8.009-7.992,8.008l7.877,7.877l20.148-20.148l-7.879-7.879L165.738,162.237L165.738,162.237z
			 M194.294,133.681l8.047-8.048L193.708,117l-20.147,20.147l8.634,8.634c5.391,0.001,8.088-0.115,15.884-0.116
			c-2.279,2.279-7.991,8.009-7.992,8.008l7.877,7.877l20.148-20.148l-7.879-7.879L194.294,133.681L194.294,133.681z"/>
		<path fill="#FFFFFF" d="M234.818,235.665l-22.147,53.76l16.909,14.392l21.006-52.385l22.345-55.723l-14.391-17.628
			L234.818,235.665L234.818,235.665z"/>
		
			<linearGradient id="SVGID_1_" gradientUnits="userSpaceOnUse" x1="-1726.2966" y1="2276.001" x2="-1726.2966" y2="2285.584" gradientTransform="matrix(3.2822 -3.2822 -3.2822 -3.2822 13383.8359 2090.3645)">
			<stop  offset="0.387" style="stop-color:#D1D3D4;stop-opacity:0"/>
			<stop  offset="1" style="stop-color:#D1D3D4"/>
		</linearGradient>
		<path fill="url(#SVGID_1_)" d="M212.67,289.425l16.909,14.392l21.006-52.385l-15.767-15.767L212.67,289.425z"/>
		
			<linearGradient id="SVGID_2_" gradientUnits="userSpaceOnUse" x1="-1714.322" y1="2280.7813" x2="-1714.322" y2="2290.7432" gradientTransform="matrix(3.2822 -3.2822 -3.2822 -3.2822 13383.8359 2090.3645)">
			<stop  offset="0.387" style="stop-color:#D1D3D4;stop-opacity:0"/>
			<stop  offset="1" style="stop-color:#D1D3D4"/>
		</linearGradient>
		<path fill="url(#SVGID_2_)" d="M258.54,178.081l-23.722,57.583l15.767,15.766l22.345-55.722L258.54,178.081z"/>
		
			<linearGradient id="SVGID_3_" gradientUnits="userSpaceOnUse" x1="-1732.0608" y1="2271.7266" x2="-1709.0427" y2="2271.7266" gradientTransform="matrix(3.2822 -3.2822 -3.2822 -3.2822 13383.8359 2090.3645)">
			<stop  offset="0" style="stop-color:#E8E7E5"/>
			<stop  offset="1" style="stop-color:#FFFFFF"/>
		</linearGradient>
		<path fill="url(#SVGID_3_)" d="M212.729,289.366l16.909,14.392l56.483-56.124l19.607,22.125l-13.312,23.743l-22.308,13.313
			l-14.029-11.871l-16.549,16.549l27.162,22.844l43.352-23.566l23.564-42.991l-45.329-53.964L212.729,289.366L212.729,289.366z"/>
		<path opacity="0.05" enable-background="new    " d="M250.624,251.471l-37.954,37.954l16.909,14.392l36.813-36.577
			L250.624,251.471L250.624,251.471z M292.487,293.334l-0.129,0.229l-22.305,13.312l-14.03-11.872l-16.549,16.549l27.161,22.844
			l43.35-23.563L292.487,293.334z"/>
		
			<linearGradient id="SVGID_4_" gradientUnits="userSpaceOnUse" x1="-1733.1199" y1="2288.3047" x2="-1708.1296" y2="2288.3047" gradientTransform="matrix(3.2822 -3.2822 -3.2822 -3.2822 13383.8359 2090.3645)">
			<stop  offset="0" style="stop-color:#E8E7E5"/>
			<stop  offset="1" style="stop-color:#FFFFFF"/>
		</linearGradient>
		<path fill="url(#SVGID_4_)" d="M176.516,260.105l82.024-82.025l14.391,17.628l-78.427,78.428L176.516,260.105L176.516,260.105z"/>
		<path opacity="0.05" enable-background="new    " d="M217.887,218.733l-41.372,41.372l17.988,14.031l39.393-39.393
			L217.887,218.733L217.887,218.733z"/>
	</g>
</g>
<g id="Warstwa_2" display="none">
	<rect x="73.225" y="73.222" display="inline" fill="#FC7B3A" width="353.549" height="353.549"/>
	<g display="inline">
		<path fill="#E44D26" d="M271.059,378.758l-145.36-121.561l130.75-130.75L377.975,271.8l-38.698,68.387L271.059,378.758z"/>
		<path fill="#F16529" d="M328.012,328.76l31.269-55.26l-103.85-124.209l-53.444,53.444L328.012,328.76z"/>
		<path fill="#EBEBEB" d="M251.486,252.234l-21.66,21.659l-18.258-15.266l23.156-23.156l-16.369-16.369l-41.044,41.043l4.783,4.001
			l49.131,41.083l36.63-36.629L251.486,252.234L251.486,252.234z M293.996,294.745l-0.055,0.09l-23.152,13.308l-14.218-11.887
			l-16.431,16.43l27.994,23.407l42.835-24.224l0.056-0.096L293.996,294.745z"/>
		<path d="M101.595,208.763l8.317-8.317l8.218,8.218l7.61-7.61l-8.218-8.218l8.318-8.318l24.887,24.887l-8.318,8.318l-8.334-8.334
			l-7.61,7.609l8.334,8.334l-8.317,8.317L101.595,208.763z M145.033,181.833l-7.322,7.322l-8.254-8.254l22.968-22.968l8.253,8.253
			l-7.325,7.325l16.632,16.632l-8.32,8.32L145.033,181.833L145.033,181.833z M156.07,154.288l8.675-8.674l14.079,3.41l-3.414-14.075
			l8.678-8.678l24.887,24.887l-8.286,8.286l-12.336-12.335l3.126,14.573l-0.144,0.144l-14.576-3.123l12.336,12.336l-8.139,8.139
			L156.07,154.288L156.07,154.288z M188.225,122.133l8.32-8.32l16.662,16.662l11.699-11.699l8.225,8.225l-20.019,20.019
			L188.225,122.133z"/>
		<path fill="#FFFFFF" d="M251.428,252.291l16.367,16.367l20.156-20.157l19.33,23.13l-13.33,23.183l17.031,17.031l24.257-42.857
			l-2.521-3.012l-39.245-46.938l-3.996-4.795l-4.411,4.411L251.428,252.291z M218.297,219.16l16.369,16.369l39.539-39.539
			l-3.352-4.006l-7.552-9.044l-3.999-4.785L218.297,219.16z"/>
	</g>
</g>
<g id="Warstwa_3" display="none">
	<rect x="73.225" y="73.222" display="inline" fill="#FFE97B" width="353.549" height="353.549"/>
	<path display="inline" fill="#F7DF1E" d="M103.017,249.999l146.984-146.984l146.985,146.984L250.002,396.983L103.017,249.999z"/>
	<path display="inline" d="M264.497,334.182l4.44-18.056c6.016,1.677,11.247,2.959,15.981-1.776c4.539-4.538,5.626-9.175-1.28-16.08
		l-46.965-46.966l13.813-13.813l47.159,47.159c14.307,14.307,12.434,29.205,0.197,41.441c-11.05,11.049-23.187,11.739-33.349,8.09
		 M311.861,283.859l4.734-17.76c7.797,1.876,15.195,1.579,22.003-5.229c5.724-5.723,6.512-12.234,2.564-16.181
		c-4.735-4.735-10.163-2.664-19.238,0.889l-4.935,1.97c-14.206,5.726-26.144,7.006-37.392-4.241
		c-10.359-10.36-10.361-26.145,1.973-38.479c8.781-8.781,18.154-12.037,30.685-8.583l-3.847,17.663
		c-6.611-1.874-10.852-0.987-14.799,2.96c-4.047,4.047-4.046,9.176-0.691,12.53c4.143,4.143,8.385,3.257,16.87-0.098l4.934-1.975
		c16.772-6.708,28.514-8.188,40.057,3.355c12.433,12.432,9.473,29.006-3.649,42.128
		C338.301,285.637,323.896,287.806,311.861,283.859"/>
</g>
<g id="Warstwa_4" display="none">
	<rect x="73.225" y="73.222" display="inline" fill="#53C1DE" width="353.549" height="353.549"/>
	<path display="inline" fill="#FFFFFF" d="M150.812,348.55c14.934,14.934,43.458,14.292,74.304-0.84
		c18.52,27.703,40.917,42.562,60.763,37.235c20.397-5.477,34.506-29.914,36.808-64.197c33.176-2.486,57.235-14.468,62.53-34.321
		c5.443-20.407-10.518-44.229-39.068-63.345c16.028-31.861,17.535-57.143,2.405-72.273c-14.587-14.587-41.815-12.598-72.303,2.273
		c-19.739-29.897-42.219-43.77-62.884-38.221c-19.924,5.349-31.803,29.93-34.15,63.77c-35.537,2.111-58.689,15.059-64.203,35.732
		c-5.317,19.933,10.047,42.503,38.192,61.436C138.737,305.758,136.284,334.021,150.812,348.55z"/>
	<path display="inline" fill="#53C1DE" d="M279.201,165.639c-2.511,1.228-4.99,2.52-7.435,3.872
		c-0.965-1.594-1.959-3.169-2.982-4.729c-16.493-25.051-36.026-38.989-51.09-34.942c-14.445,3.878-23.918,24.37-25.882,52.668
		c-0.191,2.792-0.312,5.588-0.36,8.386c-1.867,0.04-3.733,0.113-5.598,0.222c-29.94,1.777-51.769,11.74-55.788,26.81
		c-3.854,14.451,9.168,32.895,32.707,48.728c2.333,1.567,4.705,3.074,7.115,4.52c-1.611,2.889-3.102,5.741-4.456,8.544
		c-12.11,25.074-13.825,47.108-3.288,57.646c10.884,10.884,34.547,9.055,60.531-3.694c2.105-1.036,4.183-2.124,6.235-3.263
		c1.558,2.594,3.188,5.146,4.889,7.648c15.672,23.016,33.899,35.509,48.293,31.646c14.864-3.991,25.101-25.403,27.039-54.282
		c0.153-2.282,0.247-4.633,0.288-7.04c3.029-0.055,6.057-0.192,9.078-0.415c27.768-2.083,47.694-11.637,51.536-26.037
		c3.966-14.872-9.475-34.433-33.523-50.534c-1.837-1.23-3.757-2.443-5.748-3.642c0.783-1.438,1.535-2.868,2.247-4.285
		c13.463-26.803,15.775-50.685,4.747-61.713C327.181,151.173,304.697,153.202,279.201,165.639L279.201,165.639z"/>
	<path display="inline" fill="#FFFFFF" d="M323.528,218.701c-0.641,1.276-1.32,2.57-2.026,3.872
		c-9.259-4.813-19.741-9.294-31.139-13.355c-4.046-11.049-8.548-21.318-13.377-30.47c2.316-1.276,4.609-2.472,6.868-3.573
		c21.844-10.658,40.027-12.298,46.401-5.925c6.789,6.789,4.896,26.308-6.726,49.449L323.528,218.701z M330.609,240.204
		c10.634,7.122,18.911,14.896,24.021,22.335c4.593,6.683,6.246,12.545,5.151,16.65c-2.331,8.738-18.33,16.409-42.077,18.188
		c-2.723,0.205-5.541,0.333-8.441,0.392c-0.463-10.362-1.811-21.599-3.973-33.412c7.737-9.243,14.526-18.497,20.119-27.451
		C327.211,237.996,328.948,239.094,330.609,240.204L330.609,240.204z M291.193,346.669c-3.496,7.317-7.748,11.678-11.853,12.78
		c-8.733,2.346-23.37-7.688-36.771-27.37c-1.583-2.329-3.098-4.7-4.548-7.112c8.783-5.602,17.892-12.42,27.091-20.239
		c11.695,1.979,23.068,3.175,33.699,3.551c-0.035,2.144-0.124,4.287-0.265,6.426C297.689,327.475,295.086,338.527,291.193,346.669
		L291.193,346.669z M218.003,324.143c-11.49,5.635-22.366,8.903-31.363,9.601c-8.086,0.626-13.989-0.88-16.994-3.885
		c-6.394-6.394-5.017-24.084,5.34-45.528c1.303-2.688,2.684-5.339,4.143-7.946c9.345,4.949,19.702,9.54,30.738,13.619
		c4.146,11.194,8.814,21.71,13.829,31.161C221.823,322.203,219.925,323.196,218.003,324.143z M168.696,257.851
		c-20.168-13.567-30.7-28.482-28.377-37.19c2.475-9.278,20.316-17.419,46.165-18.953c1.654-0.098,3.346-0.164,5.068-0.203
		c0.377,10.58,1.571,21.86,3.553,33.473c-7.493,9.025-14.17,18.161-19.792,27.076c-2.241-1.345-4.448-2.747-6.618-4.203H168.696
		L168.696,257.851z M263.151,200.803c-4.684-1.247-9.391-2.396-14.123-3.441c6.312-4.897,12.619-9.324,18.812-13.214
		c3.337,6.364,6.523,13.323,9.501,20.742C272.638,203.433,267.907,202.071,263.151,200.803L263.151,200.803z M202.17,201.606
		c7.208,0.288,14.859,1.009,22.811,2.142c-7.242,6.588-14.17,13.512-20.762,20.752C203.132,216.588,202.448,208.913,202.17,201.606z
		 M201.221,262.835c1.265,4.711,2.64,9.392,4.125,14.038c-7.366-2.997-14.331-6.223-20.776-9.615
		c3.89-6.131,8.316-12.393,13.188-18.655C198.801,253.373,199.956,258.119,201.221,262.835z M251.596,302.123
		c-6.393,5.108-12.687,9.662-18.787,13.58c-3.455-6.557-6.749-13.67-9.811-21.195c4.656,1.479,9.346,2.85,14.066,4.107
		C241.88,299.901,246.724,301.07,251.596,302.123z M298.635,297.656c-7.392-0.282-15.182-0.979-23.21-2.079
		c3.494-3.229,6.99-6.591,10.474-10.075c3.58-3.579,7.037-7.198,10.366-10.837C297.492,282.732,298.288,290.436,298.635,297.656z
		 M294.781,222.188c7.695,3.002,14.851,6.201,21.346,9.55c-3.93,6.255-8.492,12.688-13.59,19.175
		c-1.086-4.799-2.268-9.576-3.545-14.328C297.696,231.755,296.292,226.956,294.781,222.188L294.781,222.188z M288.745,239.335
		c1.962,7.281,3.686,14.624,5.17,22.018c-4.839,5.582-10.03,11.158-15.519,16.646c-5.464,5.465-10.951,10.61-16.401,15.398
		c-7.46-1.397-14.865-3.076-22.198-5.031c-7.294-1.945-14.514-4.166-21.641-6.658c-2.499-7.123-4.731-14.337-6.688-21.627
		l0.001,0.002c-1.959-7.291-3.64-14.653-5.041-22.071c4.828-5.616,9.976-11.179,15.388-16.591
		c5.438-5.438,11.007-10.592,16.627-15.416c7.38,1.426,14.709,3.108,21.972,5.049c7.288,1.938,14.513,4.112,21.66,6.52
		C284.559,224.747,286.781,232.006,288.745,239.335L288.745,239.335z M220.447,140.085c9.271-2.488,25.236,8.9,39.476,30.53
		c0.926,1.411,1.827,2.839,2.703,4.282c-8.967,5.604-18.13,12.264-27.191,19.771c-11.696-2.045-22.945-3.293-33.371-3.683
		c0.047-2.582,0.159-5.166,0.334-7.742C204.079,158.994,211.741,142.422,220.447,140.085L220.447,140.085z"/>
	<path display="inline" fill="#53C1DE" d="M234.27,233.874c8.662-8.662,22.703-8.661,31.363-0.001c8.661,8.662,8.66,22.704,0,31.364
		c-8.661,8.661-22.704,8.66-31.364-0.001C225.609,256.576,225.609,242.534,234.27,233.874"/>
</g>
<g id="Warstwa_5" display="none">
	<rect x="73.225" y="73.222" display="inline" fill="#AE94FF" width="353.549" height="353.549"/>
	<path display="inline" fill="#764ABC" d="M308.106,234.995c6.271-7.717,5.547-19.053-1.93-26.044
		c-7.476-6.994-19.291-6.753-26.525,0.482l-0.482,0.482c-7.236,7.718-6.752,19.774,0.963,27.009
		c3.859,3.376,8.439,5.064,12.781,5.065c7.961,24.357,7.236,48.713-1.685,77.412c-6.029,19.533-16.88,35.207-31.832,46.782
		c-12.3,9.405-25.563,13.021-38.827,10.369c-19.533-4.101-33.039-16.159-39.309-35.45c-4.583-13.747-4.102-27.733-2.895-35.69
		c-4.101-2.172-10.852-6.029-15.435-9.165c-9.646,60.29,28.217,90.918,54.985,96.466c20.016,4.101,43.65-4.582,61.496-22.428
		c4.822-4.823,9.162-10.128,12.78-16.155C317.031,317.229,322.094,275.508,308.106,234.995L308.106,234.995z M320.647,162.647
		c-39.791-3.136-78.617,12.057-109.486,42.926l-3.857,3.856c-6.511-2.171-13.988-0.481-19.053,4.583l-0.482,0.482
		c-7.233,7.716-6.751,19.773,0.966,27.01c7.475,6.992,19.293,6.752,26.527-0.481l0.482-0.482c5.064-5.546,6.271-13.505,3.617-20.016
		l4.341-4.342c18.327-18.327,40.995-30.385,67.04-35.69c20.017-4.101,39.069-2.412,56.431,5.306
		c14.229,6.029,23.875,16.158,27.976,28.941c6.028,19.531,1.688,37.86-13.264,52.812c-9.646,9.646-21.705,15.915-28.697,18.568
		c-0.24,5.065-1.205,13.746-2.17,19.535c15.192-5.548,28.456-13.506,38.585-23.634c23.15-23.151,27.49-53.053,21.22-72.346
		C383.828,188.693,359.231,165.06,320.647,162.647L320.647,162.647z M232.143,319.154c7.477,6.994,19.293,6.754,26.527-0.48
		l0.483-0.483c7.232-7.716,6.751-19.774-0.965-27.009c-7.477-6.994-19.292-6.753-26.527,0.481l-0.482,0.483
		c-0.483,0.482-1.207,1.206-1.448,1.928c-26.285-6.512-48.23-20.257-66.077-40.997c-13.504-15.435-21.222-32.798-23.153-51.608
		c-1.929-15.917,7.235-33.761,16.159-43.167c25.077-26.043,67.762-5.061,81.268,6.996c3.858-2.412,10.853-6.029,15.675-8.44
		c-41.961-36.174-86.333-32.317-109.484-9.166c-21.704,21.704-26.044,57.395-10.851,88.504
		c19.775,41.962,56.673,64.389,93.569,74.277c0.485,2.895,2.413,6.272,5.308,8.684L232.143,319.154L232.143,319.154z"/>
</g>
<g id="Warstwa_6" display="none">
	<rect x="73.225" y="73.222" display="inline" fill="#F495C9" width="353.549" height="353.549"/>
	<path display="inline" fill="#CF649A" d="M337.487,151.716c-7.894,7.982-12.859,16.763-15.787,25.366
		c-6.343-2.083-12.151-3.636-15.255-6.032c-3.592-2.795-6.03-4.258-9.355-8.56c-3.327-4.301-6.521-11.928-6.964-12.371
		c-0.444-0.355-2.838-1.863-7.449,2.659c-4.612,4.522-7.629,9.402-6.875,11.042c0.755,1.64,2.617,5.277,4.878,8.692
		c3.371,4.966,9.801,28.071,12.817,40.576c-4.568-1.465-8.561-2.794-10.955-4.657c-3.591-2.794-6.031-4.257-9.356-8.56
		c-3.327-4.301-6.519-11.928-6.963-12.373c-0.442-0.354-2.837-1.863-7.448,2.659c-4.613,4.524-7.628,9.402-6.874,11.042
		c0.754,1.641,3.104,4.967,4.878,8.691c1.819,3.681,15.388,39.425,18.937,48.737c1.818,4.744,3.148,8.647,3.991,11.353
		c0.844,2.705,0.088,0.178,0.178,0.443c0.709,2.306,1.108,3.594,1.108,3.594l0.044,0.044c0.486,1.728,0.887,3.458,0.575,3.77
		c-0.222,0.222-3.636-2.308-6.962-7.14c-6.919-10.199-16.274-27.538-16.807-27.983c-0.222-0.221-1.82-3.326-6.343-1.197
		c-4.434,2.04-3.591,5.188-3.858,5.455c-0.266,0.266,0.223,1.197,0.223,1.197s-11.441-18.625-21.907-8.159
		c-6.563,6.563-8.47,22.75-6.43,33.747c-1.287,4.39-4.036,13.702-6.918,23.592c-1.109,3.771-2.217,7.717-3.326,11.397l-1.021-0.046
		c-26.208-0.843-59.246,13.036-76.452-6.121c-6.253-6.962-21.374-26.696-0.088-90.199c17.427-52.018,49.977-75.079,65.365-69.357
		c21.951,8.204,28.249,57.961-3.813,98.093c-12.196,15.3-24.746,17.208-28.559,17.029c-3.992-0.177-4.347,0-4.657,1.109
		c-0.533,1.772,2.04,2.927,3.592,3.592c3.858,1.73,13.26,2.262,23.281-2.794c8.78-4.434,26.12-19.379,38.093-46.429
		c13.393-30.333,6.963-70.91-17.693-85.544c-25.1-14.9-64.833,11.707-85.055,54.189c-12.018,25.323-21.862,55.921-22.794,84.081
		c-1.153,33.438,10.2,50.288,17.206,54.988c24.923,16.851,67.317,1.685,88.913,0.223c-0.267,0.886-0.488,1.729-0.71,2.483
		c-2.926,8.602-13.392,42.04-6.742,59.688c7.54,19.955,24.613,22.662,30.734,19.203c18.936-10.688,26.696-33.259,22.705-53.66
		c-4.035-20.354-20.842-35.21-31.84-38.669l-0.4-0.132l1.861-7.186c1.199-4.655,2.485-9.135,3.637-13.038
		c2.44,5.277,5.987,10.865,12.108,18.05c7.185,8.426,20.486,15.344,28.69,15.121c3.592-0.134,5.854-2.306,7.229-3.68
		c4.878-4.878,3.058-11.132,0.665-18.403c-2.884-8.914-7.053-18.404-7.053-18.404s15.168,21.818,24.258,12.728
		c3.325-3.325,2.35-10.954,1.64-14.679l0.045,0.045c0,0-0.045-0.222-0.177-0.709c-0.09-0.463-0.192-0.921-0.31-1.374l-0.089-0.089
		c-0.977-3.637-3.282-11.886-7.583-25.056c-5.544-16.983-14.146-36.585-14.146-36.585s3.991,2.927,11.308,6.962
		c4.346,2.396,10.154,3.947,15.387,5.898c0.533,3.194,0.8,5.058,0.8,5.058l0.089-0.001c0.355,2.484,0.667,5.189,0.932,7.938
		c0.886,9.933,1.642,21.509,2.706,23.991c1.241,2.926,2.971,4.301,5.853,3.902c2.084-0.311,4.391-2.262,6.475-4.701
		c3.813-4.346,5.633-8.203,6.43-10.243c1.419-3.017,2.749-6.74,3.415-10.953c1.151-7.716-0.798-15.078-7.273-21.021
		c-3.546-3.281-8.025-5.542-12.593-7.361c-0.177-0.975-0.354-1.952-0.577-2.971c-3.237-17.251-9.091-33.925-9.091-33.925
		s3.993,2.926,11.308,6.962c3.726,2.041,8.56,3.504,13.173,5.101c-1.198,11.929,0.887,22.261,3.547,27.76
		c4.922,10.155,10.378,11.53,15.033,8.47c2.084-1.374,3.771-4.656,4.834-7.316c1.552-3.059,3.06-7.139,3.725-11.62
		c1.153-7.716,0.843-16.541-5.542-22.484c-2.972-2.705-6.519-4.744-10.199-6.386c3.282-7.893,9.178-16.452,19.468-24.522
		c22.039-17.428,38.271-9.003,42.66-3.104c4.393,5.898,3.105,12.86,2.616,15.122c-0.533,2.218-0.664,2.973,0.091,3.46
		c1.107,0.754,1.684,0.089,2.704-1.285c1.374-1.908,6.163-14.59-2.971-24.435C382.765,132.78,357.887,131.051,337.487,151.716
		L337.487,151.716z M236.6,355.219c0.622,13.66-5.854,25.543-12.062,27.141c-6.652,1.774-15.522-10.377-15.078-25.986
		c0.266-9.49,2.351-20.09,3.903-26.875c0.355-1.506,0.932-3.769,1.596-6.475c0.089-0.442,0.178-0.708,0.178-0.708
		c0.131-0.487,0.265-1.063,0.398-1.641C229.327,328.522,235.98,340.852,236.6,355.219L236.6,355.219z M251.856,275.13
		c3.281,7.806,12.727,26.83,9.046,28.913c-3.148,1.82-15.432-7.45-22.572-21.595c-3.593-7.141-6.208-17.295-6.476-21.996
		c-0.398-7.584,2.174-12.816,4.791-12.151C239.926,249.277,249.816,270.253,251.856,275.13z M309.992,254.599
		c-0.487,1.464-1.021,2.705-1.684,2.839c-0.488,0.133-0.445-1.24-0.445-1.24s-0.354-10.202-0.842-14.591
		c-0.311-2.526-0.622-5.498-1.064-8.78l0.532,0.533C312.875,239.743,311.014,250.119,309.992,254.599L309.992,254.599z
		 M333.406,217.348c-1.241,0.177-2.792-1.552-5.543-9.091c-1.107-2.972-2.396-8.514-1.95-15.432
		c1.772,0.887,3.325,1.906,4.479,3.149C338.33,204.001,335.623,212.647,333.406,217.348z"/>
</g>
<g id="Warstwa_7" display="none">
	<rect x="73.225" y="73.222" display="inline" fill="#121966" width="353.549" height="353.549"/>
	
		<radialGradient id="SVGID_5_" cx="-932.4285" cy="1078.3818" r="0.0685" gradientTransform="matrix(1620.4565 -1620.4565 1568.8966 1568.8966 -180725 -3202593)" gradientUnits="userSpaceOnUse">
		<stop  offset="0" style="stop-color:#34364E;stop-opacity:0.98"/>
		<stop  offset="1" style="stop-color:#0C0824"/>
	</radialGradient>
	<path display="inline" fill="url(#SVGID_5_)" d="M107.052,251.976l144.927-144.928l140.976,140.976L248.027,392.951
		L107.052,251.976z"/>
	<path display="inline" fill="#31C5F0" d="M107.052,251.976l144.927-144.928l140.976,140.976L248.027,392.951L107.052,251.976z
		 M248.027,406.125l158.102-158.102l-154.15-154.15L93.877,251.975L248.027,406.125L248.027,406.125z M263.704,208.63
		c-5.204,5.203-4.347,9.617-2.172,11.791c2.37,2.371,5.203,2.833,15.811-0.527c15.348-5.334,23.384-3.755,30.434,3.294
		c10.539,10.539,8.169,24.243-2.7,35.111c-5.731,5.732-11.86,9.486-16.339,10.674c-0.659,0.262-1.053,0-1.58-0.527l-9.685-9.685
		c-0.658-0.658-0.527-1.187,0.264-1.317c6.85-1.45,12.779-5.005,17.129-9.355c5.203-5.202,5.203-9.551,2.239-12.515
		c-2.373-2.373-5.997-2.966-16.075,0.262c-13.835,4.877-22.266,4.217-29.841-3.358c-8.5-8.5-8.895-22.202,2.633-33.729
		c5.666-5.666,10.476-8.762,13.637-9.947c0.856-0.198,1.517,0.197,1.977,0.657l9.024,9.024c0.527,0.528,0.527,1.187-0.329,1.649
		C273.389,201.185,267.988,204.347,263.704,208.63L263.704,208.63z M214.891,273.122c1.646-1.385,2.832-2.57,5.467-5.206
		c7.707-7.707,12.253-17.653,1.779-28.127c-8.367-8.367-17.788-7.378-26.549,1.383c-2.634,2.634-5.006,5.27-6.127,6.521
		L214.891,273.122L214.891,273.122z M168.185,249.868c-0.462-0.462,0.132-1.714,0.658-2.24c4.019-4.413,10.145-10.803,16.668-17.326
		c18.247-18.247,35.373-15.348,48.154-2.567c16.732,16.732,11.793,36.034-3.094,50.922c-2.503,2.504-3.493,3.227-5.272,5.006
		l25.296,25.297c0.528,0.527,0.593,0.987,0,1.58l-10.079,10.079c-0.527,0.526-0.988,0.594-1.581,0.001L168.185,249.868
		L168.185,249.868z"/>
</g>
<g id="Warstwa_8" display="none">
	<rect x="73.225" y="73.222" display="inline" fill="#AF5504" width="353.549" height="353.549"/>
	
		<radialGradient id="SVGID_6_" cx="-932.4285" cy="1078.3818" r="0.0685" gradientTransform="matrix(1620.4565 -1620.4565 1568.8966 1568.8966 -180725 -3202593)" gradientUnits="userSpaceOnUse">
		<stop  offset="0" style="stop-color:#423325;stop-opacity:0.98"/>
		<stop  offset="1" style="stop-color:#1C0A00"/>
	</radialGradient>
	<path display="inline" fill="url(#SVGID_6_)" d="M107.052,251.976l144.927-144.928l140.975,140.975L248.026,392.949
		L107.052,251.976z"/>
	<path display="inline" fill="#FF7F18" d="M107.052,251.976l144.927-144.928l140.975,140.975L248.026,392.949L107.052,251.976z
		 M248.027,406.125l158.102-158.102l-154.15-154.15L93.877,251.975L248.027,406.125L248.027,406.125z M252.373,203.36
		c-0.527-0.526-0.593-0.988,0.001-1.582l10.342-10.342c0.526-0.526,0.987-0.593,1.581,0.001l51.977,51.976
		c0.525,0.526,0.657,0.922,0,1.58l-10.211,10.21c-0.659,0.659-1.185,0.526-1.712-0.002l-51.91-51.91L252.373,203.36L252.373,203.36z
		 M236.696,189.13c-4.217-4.216-3.756-9.683,0-13.439c4.019-4.019,9.421-4.018,13.439,0c4.348,4.348,3.886,9.551-0.132,13.57
		C246.182,193.083,241.044,193.479,236.696,189.13z M243.679,255.401c-9.157-5.468-29.447-17.063-38.801-23.123l-0.133,0.133
		c6.324,9.091,15.876,25.625,23.321,38.604L243.679,255.401z M236.037,284.387l14.559,24.968c0.394,0.657,0.329,0.987-0.329,1.646
		l-9.684,9.684c-0.659,0.659-0.989,0.593-1.647-0.329l-46.772-84.189c-0.856-1.515-1.712-2.767-4.809-6.126
		c-0.461-0.461-0.46-0.856-0.131-1.186l13.833-13.833c0.46-0.461,0.791-0.528,1.449-0.134l92.027,50.132
		c0.659,0.396,0.857,0.857,0.33,1.385l-10.937,10.937c-0.525,0.526-0.988,0.724-1.581,0.394l-25.229-14.427L236.037,284.387
		L236.037,284.387z"/>
</g>
<g id="Warstwa_9">
	<rect x="73.225" y="73.222" fill="#FCE37C" width="353.549" height="353.549"/>
	
		<linearGradient id="SVGID_7_" gradientUnits="userSpaceOnUse" x1="123.241" y1="120.5845" x2="280.1666" y2="276.2268" gradientTransform="matrix(0.7071 -0.7071 0.7071 0.7071 -103.5504 249.9985)">
		<stop  offset="0" style="stop-color:#387EB8"/>
		<stop  offset="1" style="stop-color:#366994"/>
	</linearGradient>
	<path fill="url(#SVGID_7_)" d="M140.472,137.619c-56.629,56.629-28.536,77.651-28.536,77.651l25.506,25.38l54.04-54.04l7.638,7.638
		l-75.504,75.503c0,0-40.347,32.128,16.792,89.266c57.14,57.141,86.742,23.486,86.742,23.486l18.875-18.876l-26.515-26.516
		c0,0-32.646-30.61-0.504-62.752l53.598-53.598c0,0,30.6-29.626,1.01-59.217l-48.925-48.925
		C224.688,112.622,199.653,78.438,140.472,137.619z M127.783,184.528c5.36-5.37,14.057-5.376,19.426-0.018
		c0.006,0.006,0.012,0.012,0.017,0.018c5.37,5.359,5.377,14.058,0.018,19.427c-0.005,0.005-0.012,0.012-0.018,0.017
		c-5.359,5.369-14.056,5.376-19.425,0.018c-0.006-0.006-0.012-0.012-0.018-0.018c-5.369-5.359-5.377-14.057-0.018-19.426
		C127.772,184.54,127.778,184.534,127.783,184.528z"/>
	
		<linearGradient id="SVGID_8_" gradientUnits="userSpaceOnUse" x1="220.7927" y1="221.5381" x2="387.7183" y2="379.5921" gradientTransform="matrix(0.7071 -0.7071 0.7071 0.7071 -103.5504 249.9985)">
		<stop  offset="0" style="stop-color:#FFE052"/>
		<stop  offset="1" style="stop-color:#FFC331"/>
	</linearGradient>
	<path fill="url(#SVGID_8_)" d="M363.99,357.922c56.629-56.628,28.535-77.65,28.535-77.65l-25.504-25.378l-54.041,54.041l-7.64-7.64
		l75.504-75.504c0,0,40.348-32.126-16.792-89.267c-57.14-57.139-86.742-23.484-86.742-23.484l-18.875,18.875l26.515,26.515
		c0,0,32.645,30.611,0.504,62.752l-53.598,53.598c0,0-30.599,29.627-1.007,59.22l48.925,48.925c0,0,25.035,34.181,84.216-25V357.922
		L363.99,357.922z M376.68,311.017c-5.358,5.37-14.057,5.377-19.425,0.017c-0.007-0.006-0.012-0.012-0.018-0.017
		c-5.371-5.358-5.379-14.056-0.02-19.426c0.007-0.007,0.013-0.013,0.019-0.019c5.359-5.369,14.058-5.377,19.427-0.018
		c0.005,0.006,0.012,0.012,0.017,0.017c5.368,5.36,5.376,14.059,0.018,19.427C376.691,311.005,376.686,311.01,376.68,311.017
		L376.68,311.017z"/>
</g>
</svg>
