<?xml version="1.0" encoding="utf-8"?>
<!-- Generator: Adobe Illustrator 16.0.0, SVG Export Plug-In . SVG Version: 6.00 Build 0)  -->
<!DOCTYPE svg PUBLIC "-//W3C//DTD SVG 1.1//EN" "http://www.w3.org/Graphics/SVG/1.1/DTD/svg11.dtd">
<svg version="1.1" xmlns="http://www.w3.org/2000/svg" xmlns:xlink="http://www.w3.org/1999/xlink" x="0px" y="0px" width="500px"
	 height="500px" viewBox="0 0 500 500" enable-background="new 0 0 500 500" xml:space="preserve">
<g id="Warstwa_1" display="none">
	
		<rect x="73.223" y="73.223" transform="matrix(0.7071 0.7071 -0.7071 0.7071 250 -103.5534)" display="inline" fill="#3DB8E8" width="353.553" height="353.553"/>
	<g display="inline">
		<path fill="#2062AF" d="M324.459,354.546l-74.993,20.192l-74.994-20.192l-17.306-187.483h184.599L324.459,354.546z"/>
		<path fill="#3C9CD7" d="M249.466,182.249v176.384l0.169,0.045l60.688-16.341l14.009-160.088H249.466L249.466,182.249z"/>
		<path d="M206.905,139.518v-11.159h16.281v-12.21h-28.491v34.512h28.491v-11.143H206.905z M252.473,128.359h11.382v-12.21h-28.493
			v12.21c3.813,3.813,5.8,5.638,11.313,11.15c-3.223,0-11.313,0.012-11.313,0.011v11.14h28.493v-11.143L252.473,128.359
			L252.473,128.359z M292.858,128.359h11.381v-12.21h-28.494v12.21c3.812,3.813,5.801,5.638,11.314,11.15
			c-3.223,0-11.314,0.012-11.314,0.011v11.14h28.495v-11.143L292.858,128.359L292.858,128.359z"/>
		<path fill="#FFFFFF" d="M249.399,229.127l-53.675,22.353l1.78,22.133l51.895-22.188l55.202-23.602l2.289-22.64L249.399,229.127
			L249.399,229.127z"/>
		
			<linearGradient id="SVGID_1_" gradientUnits="userSpaceOnUse" x1="-986.9434" y1="-1062.2256" x2="-986.9434" y2="-1071.8091" gradientTransform="matrix(4.6418 0 0 4.6418 4803.7559 5204.25)">
			<stop  offset="0.387" style="stop-color:#D1D3D4;stop-opacity:0"/>
			<stop  offset="1" style="stop-color:#D1D3D4"/>
		</linearGradient>
		<path fill="url(#SVGID_1_)" d="M195.724,251.48l1.78,22.133l51.895-22.188v-22.297L195.724,251.48z"/>
		
			<linearGradient id="SVGID_2_" gradientUnits="userSpaceOnUse" x1="-974.9688" y1="-1067.0054" x2="-974.9688" y2="-1076.9678" gradientTransform="matrix(4.6418 0 0 4.6418 4803.7559 5204.25)">
			<stop  offset="0.387" style="stop-color:#D1D3D4;stop-opacity:0"/>
			<stop  offset="1" style="stop-color:#D1D3D4"/>
		</linearGradient>
		<path fill="url(#SVGID_2_)" d="M306.891,205.183l-57.491,23.944v22.297l55.202-23.602L306.891,205.183z"/>
		
			<linearGradient id="SVGID_3_" gradientUnits="userSpaceOnUse" x1="-992.7075" y1="-1057.9507" x2="-969.6895" y2="-1057.9507" gradientTransform="matrix(4.6418 0 0 4.6418 4803.7559 5204.25)">
			<stop  offset="0" style="stop-color:#E8E7E5"/>
			<stop  offset="1" style="stop-color:#FFFFFF"/>
		</linearGradient>
		<path fill="url(#SVGID_3_)" d="M195.807,251.48l1.78,22.133l79.625,0.254l-1.78,29.51l-26.201,7.376l-25.188-6.36l-1.526-18.315
			h-23.403l3.053,35.36l47.318,13.99l47.062-13.737l6.106-70.21H195.807z"/>
		<path opacity="0.05" enable-background="new    " d="M249.399,251.48h-53.675l1.78,22.133l51.895,0.167V251.48L249.399,251.48z
			 M249.399,310.683l-0.254,0.071l-25.184-6.359l-1.526-18.316h-23.403l3.052,35.359l47.315,13.991V310.683z"/>
		
			<linearGradient id="SVGID_4_" gradientUnits="userSpaceOnUse" x1="-993.7666" y1="-1074.5283" x2="-968.7764" y2="-1074.5283" gradientTransform="matrix(4.6418 0 0 4.6418 4803.7559 5204.25)">
			<stop  offset="0" style="stop-color:#E8E7E5"/>
			<stop  offset="1" style="stop-color:#FFFFFF"/>
		</linearGradient>
		<path fill="url(#SVGID_4_)" d="M190.891,205.183h116l-2.289,22.641H193.689L190.891,205.183L190.891,205.183z"/>
		<path opacity="0.05" enable-background="new    " d="M249.399,205.183h-58.509l2.798,22.641h55.71V205.183L249.399,205.183z"/>
	</g>
</g>
<g id="Warstwa_2" display="none">
	
		<rect x="73.223" y="73.224" transform="matrix(0.7071 0.7071 -0.7071 0.7071 249.9998 -103.5533)" display="inline" fill="#FC7B3A" width="353.553" height="353.553"/>
	<g display="inline">
		<path fill="#E44D26" d="M173.842,355.936l-16.828-188.742h184.908l-16.847,188.712l-75.721,20.993L173.842,355.936z"/>
		<path fill="#F16529" d="M249.468,360.854l61.186-16.965l14.396-161.262h-75.582V360.854z"/>
		<path fill="#EBEBEB" d="M249.468,252.629h-30.631l-2.116-23.705h32.747v-23.149h-58.045l0.554,6.211l5.69,63.791h51.802V252.629z
			 M249.468,312.749l-0.102,0.024l-25.781-6.96l-1.648-18.46H198.7l3.244,36.346l47.418,13.161l0.106-0.029V312.749z"/>
		<path d="M174.218,115.902h11.763v11.622h10.761v-11.622h11.764v35.195h-11.764v-11.786h-10.761v11.786h-11.762L174.218,115.902z
			 M223.976,127.575h-10.355v-11.672h32.482v11.672h-10.36v23.522h-11.766V127.575L223.976,127.575z M251.257,115.902h12.268
			l7.544,12.366l7.539-12.366h12.272v35.195h-11.718v-17.445l-8.094,12.515h-0.203l-8.099-12.515v17.445h-11.51V115.902
			L251.257,115.902z M296.732,115.902h11.767v23.563h16.545v11.632h-28.312V115.902z"/>
		<path fill="#FFFFFF" d="M249.387,252.629v23.147h28.506l-2.688,30.023l-25.818,6.967v24.085l47.457-13.152l0.347-3.912
			l5.44-60.941l0.565-6.217h-6.238H249.387z M249.387,205.775v23.149h55.916l0.463-5.203l1.055-11.735l0.556-6.211H249.387z"/>
	</g>
</g>
<g id="Warstwa_3" display="none">
	
		<rect x="73.223" y="73.224" transform="matrix(0.7071 0.7071 -0.7071 0.7071 249.9998 -103.5533)" display="inline" fill="#FFE97B" width="353.553" height="353.553"/>
	<path display="inline" fill="#F7DF1E" d="M146.066,146.066h207.867v207.867H146.066V146.066z"/>
	<path display="inline" d="M200.723,319.775l15.907-9.627c3.069,5.44,5.861,10.046,12.557,10.046
		c6.419,0,10.466-2.511,10.466-12.277v-66.419h19.535v66.694c0,20.232-11.86,29.442-29.164,29.442
		c-15.626,0-24.697-8.094-29.302-17.861 M269.797,317.683l15.906-9.21c4.187,6.839,9.628,11.861,19.256,11.861
		c8.094,0,13.255-4.047,13.255-9.628c0-6.697-5.302-9.07-14.231-12.976l-4.883-2.096c-14.094-5.997-23.441-13.533-23.441-29.439
		c0-14.651,11.161-25.814,28.604-25.814c12.418,0,21.349,4.326,27.767,15.628l-15.21,9.769c-3.35-6-6.976-8.371-12.558-8.371
		c-5.722,0-9.349,3.628-9.349,8.371c0,5.859,3.627,8.233,11.999,11.861l4.884,2.092c16.604,7.117,25.953,14.373,25.953,30.697
		c0,17.582-13.813,27.209-32.371,27.209C287.237,337.637,275.517,328.985,269.797,317.683"/>
</g>
<g id="Warstwa_4">
	
		<rect x="73.223" y="73.224" transform="matrix(0.7071 0.7071 -0.7071 0.7071 249.9998 -103.5533)" fill="#53C1DE" width="353.553" height="353.553"/>
	<path fill="#FFFFFF" d="M110.176,249.548c0,21.119,20.623,40.835,53.135,51.947c-6.493,32.685-1.163,59.029,16.636,69.295
		c18.295,10.551,45.551,3.247,71.421-19.367c25.217,21.701,50.702,30.241,68.485,19.947c18.279-10.582,23.837-38.712,17.166-72.418
		c33.863-11.195,52.806-28.007,52.806-49.404c0-20.629-20.66-38.476-52.734-49.518c7.183-35.098,1.097-60.803-17.439-71.492
		c-17.871-10.306-43.653-1.324-69.241,20.944c-26.621-23.635-52.147-30.851-70.665-20.132
		c-17.854,10.335-22.949,37.159-16.435,70.448C131.896,210.751,110.176,229.002,110.176,249.548z"/>
	<path fill="#53C1DE" d="M330.298,210.995c-2.643-0.907-5.31-1.747-7.994-2.519c0.444-1.81,0.856-3.627,1.235-5.453
		c6.051-29.377,2.095-53.044-11.418-60.834c-12.956-7.472-34.145,0.319-55.544,18.941c-2.109,1.839-4.171,3.731-6.184,5.675
		c-1.348-1.292-2.72-2.56-4.115-3.801c-22.428-19.914-44.908-28.305-58.406-20.491c-12.943,7.493-16.777,29.743-11.329,57.583
		c0.542,2.757,1.154,5.5,1.836,8.226c-3.181,0.904-6.253,1.867-9.192,2.891c-26.293,9.167-43.086,23.535-43.086,38.437
		c0,15.392,18.025,30.831,45.414,40.19c2.221,0.756,4.46,1.455,6.716,2.101c-0.733,2.936-1.384,5.893-1.951,8.866
		c-5.194,27.356-1.138,49.079,11.771,56.525c13.333,7.688,35.712-0.215,57.503-19.263c1.722-1.506,3.451-3.102,5.182-4.776
		c2.18,2.104,4.419,4.146,6.713,6.126c21.107,18.162,41.953,25.497,54.852,18.031c13.321-7.712,17.649-31.048,12.029-59.438
		c-0.429-2.169-0.929-4.384-1.49-6.64c1.572-0.463,3.114-0.942,4.619-1.441c28.472-9.433,46.995-24.684,46.995-40.281
		C374.454,234.693,357.121,220.229,330.298,210.995L330.298,210.995z"/>
	<path fill="#FFFFFF" d="M324.122,279.859c-1.357,0.449-2.751,0.884-4.171,1.305c-3.144-9.95-7.387-20.531-12.576-31.462
		c4.953-10.673,9.031-21.118,12.087-31.004c2.54,0.736,5.007,1.512,7.383,2.33c22.983,7.91,37,19.608,37,28.621
		c0,9.601-15.14,22.065-39.721,30.21H324.122z M313.923,300.071c2.484,12.555,2.84,23.905,1.193,32.778
		c-1.479,7.973-4.454,13.288-8.132,15.417c-7.827,4.53-24.565-1.359-42.615-16.892c-2.069-1.78-4.153-3.682-6.245-5.693
		c6.999-7.654,13.992-16.552,20.817-26.434c12.007-1.065,23.35-2.808,33.637-5.185C313.083,296.107,313.534,298.111,313.923,300.071
		L313.923,300.071z M210.77,347.483c-7.647,2.701-13.737,2.778-17.418,0.655c-7.834-4.517-11.09-21.961-6.648-45.355
		c0.528-2.765,1.133-5.514,1.813-8.245c10.172,2.25,21.433,3.869,33.468,4.845c6.871,9.669,14.066,18.557,21.318,26.34
		c-1.541,1.491-3.119,2.943-4.731,4.356C228.936,338.503,219.28,344.478,210.77,347.483L210.77,347.483z M174.946,279.801
		c-12.11-4.141-22.111-9.52-28.966-15.389c-6.16-5.275-9.27-10.513-9.27-14.763c0-9.042,13.483-20.578,35.97-28.418
		c2.822-0.979,5.673-1.877,8.548-2.689c3.108,10.108,7.185,20.677,12.104,31.365c-4.983,10.847-9.118,21.584-12.255,31.813
		C179.018,281.13,176.974,280.49,174.946,279.801z M186.955,198.059c-4.668-23.854-1.568-41.848,6.232-46.363
		c8.31-4.81,26.682,2.049,46.045,19.242c1.238,1.1,2.481,2.25,3.726,3.44c-7.214,7.748-14.345,16.568-21.156,26.181
		c-11.68,1.083-22.862,2.822-33.141,5.151c-0.633-2.536-1.203-5.088-1.707-7.652V198.059z M294.084,224.511
		c-2.43-4.194-4.946-8.335-7.553-12.42c7.925,1,15.516,2.33,22.645,3.958c-2.14,6.859-4.807,14.033-7.948,21.385
		C298.933,233.079,296.551,228.771,294.084,224.511L294.084,224.511z M250.396,181.959c4.893,5.301,9.794,11.221,14.615,17.644
		c-9.779-0.463-19.574-0.465-29.354-0.007C240.483,193.233,245.426,187.322,250.396,181.959z M206.43,224.583
		c-2.437,4.226-4.774,8.508-7.01,12.843c-3.09-7.328-5.733-14.533-7.892-21.49c7.086-1.585,14.643-2.882,22.516-3.866
		C211.408,216.181,208.869,220.354,206.43,224.583z M214.27,287.984c-8.133-0.908-15.804-2.138-22.888-3.681
		c2.193-7.08,4.895-14.439,8.05-21.925c2.246,4.338,4.594,8.623,7.042,12.851C208.97,279.543,211.569,283.795,214.27,287.984z
		 M250.69,318.088c-5.028-5.427-10.044-11.428-14.943-17.883c4.755,0.187,9.604,0.282,14.531,0.282
		c5.062,0,10.066-0.114,14.993-0.333C260.434,306.727,255.55,312.736,250.69,318.088z M301.329,261.998
		c3.319,7.565,6.117,14.886,8.34,21.847c-7.201,1.644-14.976,2.967-23.168,3.949c2.626-4.161,5.168-8.375,7.625-12.638
		C296.624,270.823,299.026,266.437,301.329,261.998L301.329,261.998z M284.936,269.856c-3.762,6.535-7.735,12.946-11.914,19.224
		c-7.369,0.526-14.983,0.798-22.744,0.798c-7.728,0-15.246-0.241-22.486-0.71c-4.287-6.263-8.336-12.685-12.138-19.254
		c-3.784-6.533-7.318-13.208-10.595-20.01c3.269-6.804,6.792-13.483,10.563-20.021v0.002c3.77-6.541,7.787-12.936,12.042-19.171
		c7.386-0.558,14.959-0.851,22.614-0.851c7.69,0,15.272,0.294,22.657,0.857c4.211,6.226,8.203,12.598,11.966,19.106
		c3.783,6.524,7.354,13.17,10.706,19.927C292.29,256.579,288.73,263.284,284.936,269.856L284.936,269.856z M306.822,151.38
		c8.315,4.797,11.551,24.138,6.325,49.502c-0.343,1.652-0.715,3.299-1.116,4.938c-10.304-2.377-21.493-4.147-33.207-5.246
		c-6.825-9.717-13.896-18.553-20.994-26.201c1.86-1.793,3.766-3.54,5.711-5.238C281.877,153.177,299.014,146.877,306.822,151.38
		L306.822,151.38z"/>
	<path fill="#53C1DE" d="M250.278,227.473c12.249,0,22.177,9.929,22.177,22.176c0,12.249-9.929,22.178-22.177,22.178
		c-12.248,0-22.177-9.93-22.177-22.178C228.101,237.402,238.03,227.473,250.278,227.473"/>
</g>
</svg>
