<?xml version="1.0" encoding="utf-8"?>
<!-- Generator: Adobe Illustrator 16.0.0, SVG Export Plug-In . SVG Version: 6.00 Build 0)  -->
<!DOCTYPE svg PUBLIC "-//W3C//DTD SVG 1.1//EN" "http://www.w3.org/Graphics/SVG/1.1/DTD/svg11.dtd">
<svg version="1.1" id="Warstwa_1" xmlns="http://www.w3.org/2000/svg" xmlns:xlink="http://www.w3.org/1999/xlink" x="0px" y="0px"
	 width="353.55px" height="353.55px" viewBox="73.224 73.222 353.55 353.55" enable-background="new 73.224 73.222 353.55 353.55"
	 xml:space="preserve">
<g id="Warstwa_1_1_" display="none">
	
		<rect x="73.225" y="73.221" transform="matrix(-0.7071 -0.7071 0.7071 -0.7071 250.003 603.5464)" display="inline" fill="#3DB8E8" width="353.55" height="353.549"/>
	<g display="inline">
		<path fill="#2062AF" d="M324.459,354.546l-74.993,20.192l-74.994-20.192l-17.306-187.483h184.599L324.459,354.546z"/>
		<path fill="#3C9CD7" d="M249.466,182.249v176.384l0.169,0.045l60.688-16.341l14.01-160.088H249.466L249.466,182.249z"/>
		<path d="M206.905,139.518v-11.159h16.281v-12.21h-28.491v34.512h28.491v-11.143H206.905z M252.473,128.359h11.382v-12.21h-28.493
			v12.21c3.813,3.813,5.801,5.638,11.313,11.15c-3.223,0-11.313,0.012-11.313,0.011v11.14h28.493v-11.143L252.473,128.359
			L252.473,128.359z M292.858,128.359h11.381v-12.21h-28.493v12.21c3.812,3.813,5.801,5.638,11.313,11.15
			c-3.223,0-11.313,0.012-11.313,0.011v11.14h28.494v-11.143L292.858,128.359L292.858,128.359z"/>
		<path fill="#FFFFFF" d="M249.399,229.127l-53.675,22.354l1.78,22.133l51.895-22.188l55.202-23.602l2.289-22.64L249.399,229.127
			L249.399,229.127z"/>
		
			<linearGradient id="SVGID_1_" gradientUnits="userSpaceOnUse" x1="-1726.2966" y1="2276.002" x2="-1726.2966" y2="2285.5859" gradientTransform="matrix(4.6418 0 0 -4.6418 8235.6836 10838.3594)">
			<stop  offset="0.387" style="stop-color:#D1D3D4;stop-opacity:0"/>
			<stop  offset="1" style="stop-color:#D1D3D4"/>
		</linearGradient>
		<path fill="url(#SVGID_1_)" d="M195.724,251.48l1.78,22.133l51.895-22.188v-22.297L195.724,251.48z"/>
		
			<linearGradient id="SVGID_2_" gradientUnits="userSpaceOnUse" x1="-1714.322" y1="2280.7832" x2="-1714.322" y2="2290.7441" gradientTransform="matrix(4.6418 0 0 -4.6418 8235.6836 10838.3594)">
			<stop  offset="0.387" style="stop-color:#D1D3D4;stop-opacity:0"/>
			<stop  offset="1" style="stop-color:#D1D3D4"/>
		</linearGradient>
		<path fill="url(#SVGID_2_)" d="M306.891,205.183L249.4,229.127v22.297l55.202-23.602L306.891,205.183z"/>
		
			<linearGradient id="SVGID_3_" gradientUnits="userSpaceOnUse" x1="-1732.0603" y1="2271.7285" x2="-1709.0422" y2="2271.7285" gradientTransform="matrix(4.6418 0 0 -4.6418 8235.6836 10838.3594)">
			<stop  offset="0" style="stop-color:#E8E7E5"/>
			<stop  offset="1" style="stop-color:#FFFFFF"/>
		</linearGradient>
		<path fill="url(#SVGID_3_)" d="M195.807,251.48l1.78,22.133l79.625,0.254l-1.78,29.51l-26.201,7.376l-25.188-6.36l-1.526-18.314
			h-23.403l3.054,35.359l47.317,13.99l47.063-13.736l6.105-70.211H195.807L195.807,251.48z"/>
		<path opacity="0.05" enable-background="new    " d="M249.399,251.48h-53.675l1.78,22.133l51.895,0.167V251.48L249.399,251.48z
			 M249.399,310.684l-0.254,0.07l-25.184-6.359l-1.526-18.315h-23.403l3.053,35.358l47.314,13.991V310.684z"/>
		
			<linearGradient id="SVGID_4_" gradientUnits="userSpaceOnUse" x1="-1733.1194" y1="2288.3057" x2="-1708.1292" y2="2288.3057" gradientTransform="matrix(4.6418 0 0 -4.6418 8235.6836 10838.3594)">
			<stop  offset="0" style="stop-color:#E8E7E5"/>
			<stop  offset="1" style="stop-color:#FFFFFF"/>
		</linearGradient>
		<path fill="url(#SVGID_4_)" d="M190.891,205.183h116l-2.289,22.641H193.689L190.891,205.183L190.891,205.183z"/>
		<path opacity="0.05" enable-background="new    " d="M249.399,205.183H190.89l2.798,22.641h55.71L249.399,205.183L249.399,205.183
			z"/>
	</g>
</g>
<g id="Warstwa_2" display="none">
	
		<rect x="73.224" y="73.222" transform="matrix(-0.7071 -0.7071 0.7071 -0.7071 250.0008 603.547)" display="inline" fill="#FC7B3A" width="353.55" height="353.55"/>
	<g display="inline">
		<path fill="#E44D26" d="M173.842,355.936l-16.828-188.742h184.908l-16.848,188.712l-75.721,20.992L173.842,355.936z"/>
		<path fill="#F16529" d="M249.468,360.854l61.186-16.965l14.396-161.262h-75.582V360.854z"/>
		<path fill="#EBEBEB" d="M249.468,252.629h-30.631l-2.116-23.705h32.747v-23.149h-58.045l0.554,6.211l5.69,63.792h51.802
			L249.468,252.629L249.468,252.629z M249.468,312.749l-0.103,0.024l-25.78-6.961l-1.648-18.459H198.7l3.243,36.346l47.418,13.16
			l0.106-0.028V312.749z"/>
		<path d="M174.218,115.902h11.763v11.622h10.762v-11.622h11.764v35.195h-11.764v-11.786h-10.762v11.786h-11.762L174.218,115.902z
			 M223.976,127.575h-10.354v-11.672h32.481v11.672h-10.359v23.522h-11.767L223.976,127.575L223.976,127.575z M251.257,115.902
			h12.268l7.544,12.366l7.539-12.366h12.272v35.195h-11.718v-17.445l-8.095,12.515h-0.203l-8.099-12.515v17.445h-11.51
			L251.257,115.902L251.257,115.902z M296.732,115.902h11.767v23.563h16.545v11.632h-28.312V115.902z"/>
		<path fill="#FFFFFF" d="M249.387,252.629v23.146h28.506l-2.688,30.023l-25.818,6.967v24.086l47.457-13.152l0.347-3.912
			l5.44-60.941l0.564-6.217h-6.237H249.387z M249.387,205.775v23.149h55.916l0.463-5.203l1.055-11.735l0.557-6.211H249.387z"/>
	</g>
</g>
<g id="Warstwa_3" display="none">
	
		<rect x="73.224" y="73.222" transform="matrix(-0.7071 -0.7071 0.7071 -0.7071 250.0008 603.547)" display="inline" fill="#FFE97B" width="353.55" height="353.55"/>
	<path display="inline" fill="#F7DF1E" d="M146.066,146.066h207.867v207.868H146.066V146.066z"/>
	<path display="inline" d="M200.723,319.775l15.907-9.627c3.068,5.439,5.86,10.045,12.557,10.045c6.419,0,10.466-2.51,10.466-12.276
		v-66.419h19.535v66.693c0,20.232-11.859,29.442-29.164,29.442c-15.626,0-24.696-8.094-29.302-17.86 M269.797,317.684l15.906-9.211
		c4.187,6.84,9.628,11.861,19.256,11.861c8.094,0,13.255-4.047,13.255-9.628c0-6.697-5.303-9.07-14.231-12.976l-4.883-2.097
		c-14.094-5.997-23.44-13.532-23.44-29.438c0-14.651,11.16-25.814,28.604-25.814c12.418,0,21.349,4.326,27.767,15.628l-15.21,9.77
		c-3.35-6-6.976-8.371-12.558-8.371c-5.723,0-9.349,3.628-9.349,8.371c0,5.858,3.626,8.232,11.998,11.86l4.885,2.092
		c16.604,7.117,25.952,14.373,25.952,30.697c0,17.582-13.813,27.209-32.37,27.209C287.237,337.637,275.517,328.984,269.797,317.684"
		/>
</g>
<g id="Warstwa_4" display="none">
	
		<rect x="73.224" y="73.222" transform="matrix(-0.7071 -0.7071 0.7071 -0.7071 250.0008 603.547)" display="inline" fill="#53C1DE" width="353.55" height="353.55"/>
	<path display="inline" fill="#FFFFFF" d="M110.176,249.548c0,21.119,20.623,40.835,53.135,51.947
		c-6.493,32.685-1.163,59.028,16.636,69.295c18.296,10.551,45.552,3.247,71.422-19.367c25.217,21.701,50.701,30.241,68.484,19.947
		c18.279-10.582,23.837-38.712,17.166-72.418c33.863-11.195,52.806-28.007,52.806-49.404c0-20.629-20.66-38.476-52.733-49.518
		c7.183-35.098,1.097-60.803-17.439-71.492c-17.871-10.306-43.652-1.324-69.24,20.944c-26.621-23.635-52.147-30.851-70.665-20.132
		c-17.854,10.335-22.949,37.159-16.436,70.448C131.896,210.751,110.176,229.002,110.176,249.548z"/>
	<path display="inline" fill="#53C1DE" d="M330.298,210.995c-2.644-0.907-5.311-1.747-7.994-2.519
		c0.444-1.81,0.855-3.627,1.235-5.453c6.051-29.377,2.095-53.044-11.419-60.834c-12.956-7.472-34.145,0.319-55.543,18.941
		c-2.109,1.839-4.172,3.731-6.185,5.675c-1.348-1.292-2.72-2.56-4.115-3.801c-22.428-19.914-44.907-28.305-58.405-20.491
		c-12.943,7.493-16.777,29.743-11.329,57.583c0.542,2.757,1.153,5.5,1.836,8.227c-3.182,0.904-6.253,1.867-9.192,2.891
		c-26.293,9.167-43.086,23.535-43.086,38.437c0,15.392,18.025,30.831,45.414,40.19c2.221,0.756,4.46,1.455,6.716,2.102
		c-0.732,2.936-1.384,5.893-1.951,8.865c-5.193,27.356-1.138,49.079,11.771,56.525c13.333,7.688,35.712-0.215,57.503-19.264
		c1.722-1.506,3.451-3.102,5.182-4.775c2.181,2.104,4.419,4.146,6.713,6.126c21.107,18.162,41.953,25.497,54.853,18.031
		c13.32-7.712,17.648-31.048,12.028-59.438c-0.429-2.169-0.929-4.384-1.489-6.64c1.571-0.463,3.113-0.942,4.619-1.44
		c28.472-9.434,46.994-24.685,46.994-40.282C374.453,234.693,357.12,220.229,330.298,210.995L330.298,210.995z"/>
	<path display="inline" fill="#FFFFFF" d="M324.121,279.859c-1.356,0.449-2.751,0.884-4.171,1.305
		c-3.144-9.95-7.387-20.531-12.575-31.462c4.952-10.673,9.03-21.118,12.087-31.004c2.54,0.736,5.007,1.512,7.383,2.33
		c22.982,7.91,37,19.608,37,28.621c0,9.601-15.14,22.065-39.722,30.21H324.121z M313.923,300.071
		c2.483,12.555,2.84,23.905,1.192,32.778c-1.479,7.973-4.454,13.287-8.132,15.416c-7.827,4.53-24.564-1.358-42.614-16.892
		c-2.069-1.78-4.153-3.683-6.245-5.692c6.999-7.654,13.992-16.553,20.816-26.435c12.007-1.065,23.351-2.808,33.637-5.185
		C313.082,296.107,313.533,298.111,313.923,300.071L313.923,300.071z M210.77,347.482c-7.646,2.701-13.736,2.778-17.418,0.655
		c-7.834-4.517-11.09-21.961-6.647-45.354c0.527-2.766,1.133-5.514,1.813-8.245c10.172,2.25,21.434,3.869,33.468,4.845
		c6.871,9.669,14.066,18.557,21.318,26.34c-1.541,1.491-3.119,2.943-4.731,4.356C228.936,338.503,219.28,344.479,210.77,347.482
		L210.77,347.482z M174.946,279.801c-12.109-4.141-22.11-9.52-28.966-15.389c-6.16-5.275-9.27-10.514-9.27-14.763
		c0-9.042,13.482-20.578,35.97-28.418c2.822-0.979,5.673-1.877,8.548-2.689c3.108,10.108,7.186,20.677,12.104,31.365
		c-4.983,10.847-9.118,21.584-12.255,31.813C179.018,281.13,176.974,280.49,174.946,279.801z M186.955,198.059
		c-4.668-23.854-1.568-41.848,6.231-46.363c8.311-4.811,26.683,2.049,46.045,19.242c1.238,1.1,2.481,2.25,3.727,3.44
		c-7.214,7.748-14.346,16.568-21.156,26.181c-11.68,1.083-22.862,2.822-33.141,5.151
		C188.028,203.174,187.458,200.622,186.955,198.059L186.955,198.059L186.955,198.059z M294.084,224.511
		c-2.431-4.194-4.946-8.335-7.554-12.42c7.926,1,15.517,2.33,22.646,3.958c-2.141,6.859-4.808,14.033-7.948,21.385
		C298.933,233.079,296.551,228.771,294.084,224.511L294.084,224.511z M250.396,181.959c4.894,5.301,9.794,11.221,14.615,17.644
		c-9.779-0.463-19.574-0.465-29.354-0.007C240.483,193.233,245.426,187.322,250.396,181.959z M206.43,224.583
		c-2.437,4.226-4.774,8.508-7.01,12.843c-3.09-7.328-5.733-14.533-7.893-21.49c7.086-1.585,14.644-2.882,22.517-3.866
		C211.408,216.181,208.869,220.354,206.43,224.583z M214.27,287.984c-8.133-0.908-15.804-2.139-22.888-3.682
		c2.193-7.08,4.895-14.438,8.05-21.925c2.246,4.338,4.594,8.623,7.042,12.851C208.97,279.543,211.569,283.795,214.27,287.984z
		 M250.69,318.088c-5.027-5.427-10.044-11.428-14.942-17.883c4.755,0.188,9.604,0.282,14.53,0.282
		c5.063,0,10.066-0.114,14.993-0.333C260.434,306.727,255.55,312.736,250.69,318.088z M301.328,261.998
		c3.319,7.564,6.117,14.886,8.341,21.847c-7.201,1.645-14.977,2.968-23.168,3.949c2.626-4.161,5.168-8.375,7.625-12.638
		C296.624,270.823,299.026,266.438,301.328,261.998L301.328,261.998z M284.936,269.855c-3.762,6.535-7.734,12.946-11.914,19.225
		c-7.369,0.525-14.982,0.798-22.744,0.798c-7.728,0-15.246-0.241-22.485-0.71c-4.287-6.263-8.336-12.686-12.139-19.254
		c-3.783-6.533-7.317-13.208-10.595-20.01c3.27-6.804,6.792-13.483,10.563-20.021v0.002c3.77-6.541,7.787-12.936,12.042-19.171
		c7.386-0.558,14.959-0.851,22.613-0.851c7.69,0,15.272,0.294,22.657,0.856c4.211,6.227,8.203,12.598,11.966,19.106
		c3.783,6.524,7.354,13.17,10.706,19.927C292.29,256.579,288.73,263.284,284.936,269.855L284.936,269.855z M306.822,151.38
		c8.315,4.797,11.551,24.138,6.325,49.502c-0.343,1.652-0.715,3.299-1.116,4.938c-10.304-2.377-21.492-4.147-33.207-5.246
		c-6.824-9.717-13.896-18.553-20.993-26.201c1.859-1.793,3.766-3.54,5.711-5.238C281.877,153.177,299.014,146.877,306.822,151.38
		L306.822,151.38z"/>
	<path display="inline" fill="#53C1DE" d="M250.278,227.473c12.249,0,22.178,9.929,22.178,22.176c0,12.25-9.93,22.178-22.178,22.178
		s-22.177-9.931-22.177-22.178C228.101,237.402,238.03,227.473,250.278,227.473"/>
</g>
<g id="Warstwa_5" display="none">
	
		<rect x="73.224" y="73.222" transform="matrix(-0.7071 -0.7071 0.7071 -0.7071 250.0008 603.547)" display="inline" fill="#AE94FF" width="353.55" height="353.55"/>
	<path display="inline" fill="#764ABC" d="M301.695,280.477c9.892-1.022,17.395-9.551,17.052-19.781
		c-0.341-10.231-8.866-18.416-19.098-18.416h-0.682c-10.574,0.341-18.757,9.208-18.417,19.779c0.341,5.116,2.387,9.549,5.456,12.619
		c-11.594,22.853-29.328,39.563-55.93,53.547c-18.075,9.549-36.831,12.959-55.589,10.571c-15.348-2.046-27.283-8.867-34.787-20.122
		c-10.912-16.712-11.936-34.788-2.729-52.863c6.48-12.961,16.71-22.511,23.19-27.284c-1.364-4.435-3.41-11.937-4.434-17.394
		c-49.452,35.811-44.336,84.24-29.331,107.092c11.254,17.053,34.105,27.625,59.343,27.625c6.82,0,13.641-0.683,20.461-2.387
		C249.857,344.936,282.939,319.014,301.695,280.477L301.695,280.477z M361.72,238.186c-25.919-30.354-64.116-47.065-107.771-47.065
		h-5.454c-3.069-6.139-9.551-10.232-16.713-10.232H231.1c-10.571,0.342-18.756,9.208-18.416,19.782
		c0.342,10.23,8.868,18.417,19.098,18.417h0.682c7.503-0.341,13.983-5.116,16.711-11.596h6.14c25.919,0,50.474,7.502,72.642,22.168
		c17.054,11.254,29.331,25.921,36.15,43.654c5.798,14.324,5.456,28.308-0.683,40.246c-9.548,18.073-25.577,27.965-46.723,27.965
		c-13.642,0-26.602-4.094-33.422-7.162c-3.752,3.412-10.572,8.867-15.348,12.279c14.665,6.819,29.671,10.571,43.995,10.571
		c32.74,0,56.953-18.075,66.161-36.151C387.979,301.279,387.297,267.175,361.72,238.186L361.72,238.186z M188.471,286.271
		c0.341,10.232,8.866,18.418,19.098,18.418h0.684c10.57-0.342,18.756-9.209,18.416-19.78c-0.341-10.232-8.867-18.417-19.099-18.417
		h-0.683c-0.683,0-1.706,0-2.387,0.34c-13.982-23.191-19.78-48.428-17.734-75.713c1.364-20.463,8.186-38.198,20.121-52.864
		c9.891-12.619,28.988-18.757,41.95-19.098c36.147-0.683,51.493,44.336,52.519,62.412c4.434,1.023,11.938,3.411,17.052,5.116
		c-4.092-55.25-38.194-83.898-70.936-83.898c-30.694,0-59,22.168-70.255,54.909c-15.688,43.655-5.456,85.604,13.642,118.686
		c-1.704,2.39-2.729,6.142-2.387,9.894L188.471,286.271L188.471,286.271z"/>
</g>
<g id="Warstwa_6">
	<rect x="73.225" y="73.222" fill="#F495C9" width="353.549" height="353.55"/>
	<path fill="#CF649A" d="M337.487,151.716c-7.894,7.982-12.86,16.763-15.787,25.366c-6.343-2.083-12.152-3.636-15.255-6.032
		c-3.592-2.795-6.03-4.257-9.356-8.559c-3.327-4.301-6.52-11.928-6.963-12.372c-0.444-0.355-2.838-1.863-7.45,2.66
		c-4.611,4.522-7.628,9.402-6.874,11.042c0.755,1.64,2.617,5.277,4.878,8.692c3.371,4.966,9.801,28.071,12.816,40.576
		c-4.567-1.465-8.56-2.794-10.954-4.657c-3.592-2.794-6.032-4.257-9.356-8.559c-3.327-4.301-6.519-11.929-6.963-12.373
		c-0.442-0.354-2.838-1.862-7.448,2.66c-4.613,4.524-7.628,9.402-6.874,11.042s3.104,4.966,4.878,8.691
		c1.819,3.681,15.388,39.425,18.937,48.736c1.817,4.745,3.147,8.648,3.991,11.354s0.088,0.178,0.178,0.443
		c0.709,2.306,1.107,3.593,1.107,3.593l0.045,0.044c0.486,1.729,0.887,3.459,0.575,3.77c-0.222,0.223-3.636-2.307-6.962-7.139
		c-6.919-10.199-16.275-27.538-16.807-27.983c-0.222-0.221-1.821-3.326-6.343-1.196c-4.435,2.04-3.592,5.188-3.858,5.454
		c-0.266,0.266,0.223,1.197,0.223,1.197s-11.441-18.625-21.907-8.159c-6.563,6.563-8.47,22.75-6.43,33.747
		c-1.287,4.39-4.036,13.702-6.918,23.591c-1.109,3.771-2.217,7.717-3.326,11.397l-1.021-0.045
		c-26.208-0.844-59.246,13.036-76.452-6.122c-6.253-6.961-21.375-26.695-0.089-90.199c17.427-52.017,49.978-75.079,65.365-69.357
		c21.951,8.204,28.248,57.961-3.813,98.093c-12.196,15.3-24.745,17.208-28.559,17.029c-3.991-0.177-4.346,0-4.657,1.109
		c-0.532,1.772,2.04,2.927,3.592,3.592c3.858,1.73,13.26,2.262,23.282-2.794c8.78-4.434,26.12-19.379,38.093-46.43
		c13.393-30.333,6.963-70.91-17.693-85.544c-25.1-14.9-64.834,11.707-85.055,54.19c-12.018,25.323-21.862,55.92-22.795,84.081
		c-1.153,33.438,10.2,50.288,17.206,54.988c24.924,16.851,67.317,1.685,88.913,0.222c-0.267,0.887-0.488,1.73-0.709,2.483
		c-2.927,8.603-13.392,42.04-6.742,59.689c7.539,19.955,24.613,22.661,30.733,19.203c18.936-10.688,26.696-33.259,22.705-53.66
		c-4.035-20.354-20.842-35.21-31.84-38.669l-0.4-0.133l1.861-7.185c1.199-4.655,2.485-9.135,3.637-13.038
		c2.44,5.277,5.987,10.865,12.108,18.049c7.184,8.427,20.486,15.344,28.69,15.122c3.591-0.134,5.854-2.306,7.229-3.68
		c4.878-4.878,3.059-11.133,0.665-18.403c-2.883-8.914-7.052-18.404-7.052-18.404s15.167,21.817,24.258,12.728
		c3.325-3.325,2.35-10.954,1.64-14.679l0.045,0.045c0,0-0.045-0.222-0.177-0.71c-0.09-0.463-0.193-0.92-0.311-1.373l-0.089-0.089
		c-0.976-3.638-3.281-11.886-7.582-25.056c-5.544-16.984-14.146-36.585-14.146-36.585s3.991,2.927,11.308,6.963
		c4.345,2.396,10.154,3.947,15.387,5.898c0.533,3.194,0.8,5.057,0.8,5.057l0.089,0c0.355,2.484,0.666,5.189,0.932,7.938
		c0.886,9.933,1.642,21.508,2.706,23.991c1.241,2.926,2.971,4.301,5.853,3.902c2.084-0.311,4.391-2.262,6.475-4.701
		c3.813-4.346,5.633-8.203,6.43-10.243c1.418-3.017,2.749-6.74,3.415-10.953c1.151-7.716-0.798-15.078-7.273-21.021
		c-3.547-3.281-8.025-5.542-12.593-7.361c-0.178-0.974-0.354-1.952-0.577-2.971c-3.237-17.25-9.091-33.925-9.091-33.925
		s3.992,2.927,11.308,6.963c3.726,2.041,8.56,3.504,13.173,5.1c-1.198,11.929,0.887,22.261,3.547,27.76
		c4.922,10.155,10.378,11.53,15.033,8.469c2.084-1.374,3.77-4.656,4.833-7.316c1.553-3.059,3.06-7.14,3.726-11.62
		c1.152-7.717,0.843-16.542-5.542-22.484c-2.972-2.705-6.519-4.744-10.199-6.386c3.281-7.893,9.178-16.452,19.468-24.522
		c22.039-17.428,38.271-9.003,42.66-3.104c4.392,5.897,3.104,12.859,2.616,15.122c-0.533,2.218-0.664,2.973,0.09,3.46
		c1.108,0.754,1.685,0.089,2.705-1.285c1.374-1.908,6.163-14.59-2.972-24.435C382.764,132.78,357.887,131.051,337.487,151.716
		L337.487,151.716z M236.6,355.219c0.622,13.66-5.854,25.543-12.063,27.141c-6.652,1.773-15.521-10.377-15.078-25.987
		c0.266-9.489,2.351-20.089,3.903-26.874c0.355-1.507,0.933-3.769,1.597-6.475c0.089-0.442,0.178-0.708,0.178-0.708
		c0.131-0.487,0.265-1.063,0.397-1.641C229.327,328.522,235.98,340.852,236.6,355.219L236.6,355.219z M251.856,275.13
		c3.281,7.806,12.727,26.83,9.046,28.912c-3.148,1.82-15.432-7.449-22.572-21.594c-3.593-7.142-6.208-17.296-6.476-21.996
		c-0.399-7.585,2.174-12.816,4.79-12.151C239.926,249.277,249.815,270.252,251.856,275.13z M309.992,254.598
		c-0.487,1.465-1.021,2.706-1.684,2.839c-0.488,0.134-0.445-1.24-0.445-1.24s-0.354-10.201-0.842-14.591
		c-0.312-2.526-0.622-5.498-1.064-8.78l0.532,0.533C312.875,239.743,311.013,250.119,309.992,254.598L309.992,254.598z
		 M333.406,217.348c-1.24,0.178-2.792-1.552-5.543-9.091c-1.107-2.972-2.395-8.514-1.95-15.432c1.773,0.886,3.326,1.905,4.479,3.148
		C338.33,204,335.623,212.647,333.406,217.348z"/>
</g>
<g id="Warstwa_7" display="none">
	<rect x="73.225" y="73.222" display="inline" fill="#121966" width="353.549" height="353.55"/>
	
		<radialGradient id="SVGID_5_" cx="-932.4285" cy="1078.3818" r="0.0685" gradientTransform="matrix(1620.4565 -1620.4565 1568.8966 1568.8966 -180725 -3202593)" gradientUnits="userSpaceOnUse">
		<stop  offset="0" style="stop-color:#34364E;stop-opacity:0.98"/>
		<stop  offset="1" style="stop-color:#0C0824"/>
	</radialGradient>
	<path display="inline" fill="url(#SVGID_5_)" d="M107.051,251.975l144.928-144.927l140.976,140.976L248.027,392.951
		L107.051,251.975z"/>
	<path display="inline" fill="#31C5F0" d="M107.051,251.975l144.928-144.927l140.976,140.976L248.027,392.951L107.051,251.975z
		 M248.027,406.125l158.103-158.103L251.979,93.873L93.877,251.975L248.027,406.125L248.027,406.125z M263.703,208.629
		c-5.203,5.204-4.346,9.617-2.171,11.792c2.37,2.37,5.203,2.833,15.811-0.528c15.348-5.333,23.384-3.755,30.434,3.294
		c10.539,10.539,8.169,24.243-2.7,35.111c-5.732,5.732-11.86,9.486-16.339,10.674c-0.66,0.262-1.053,0-1.58-0.527l-9.685-9.685
		c-0.658-0.658-0.527-1.187,0.264-1.317c6.85-1.45,12.779-5.006,17.129-9.355c5.203-5.203,5.203-9.551,2.239-12.516
		c-2.373-2.373-5.997-2.966-16.076,0.263c-13.834,4.876-22.266,4.216-29.841-3.359c-8.5-8.5-8.894-22.202,2.634-33.729
		c5.665-5.666,10.476-8.762,13.637-9.948c0.855-0.198,1.516,0.197,1.977,0.658l9.024,9.024c0.527,0.527,0.527,1.186-0.329,1.648
		C273.389,201.184,267.987,204.346,263.703,208.629L263.703,208.629z M214.89,273.122c1.646-1.385,2.833-2.57,5.467-5.206
		c7.707-7.707,12.253-17.653,1.78-28.127c-8.367-8.367-17.788-7.379-26.549,1.383c-2.634,2.635-5.006,5.271-6.127,6.522
		L214.89,273.122L214.89,273.122z M168.184,249.868c-0.461-0.462,0.132-1.715,0.659-2.241c4.019-4.413,10.145-10.803,16.668-17.326
		c18.247-18.248,35.373-15.348,48.153-2.567c16.732,16.732,11.794,36.034-3.094,50.922c-2.503,2.503-3.493,3.227-5.272,5.006
		l25.296,25.296c0.527,0.528,0.593,0.987,0,1.581l-10.08,10.079c-0.527,0.526-0.987,0.594-1.581,0.001L168.184,249.868
		L168.184,249.868z"/>
</g>
<g id="Warstwa_8" display="none">
	<rect x="73.224" y="75.222" display="inline" fill="#AF5504" width="353.549" height="353.55"/>
	
		<radialGradient id="SVGID_6_" cx="-932.4294" cy="1078.3828" r="0.068" gradientTransform="matrix(1620.4565 -1620.4565 1568.8966 1568.8966 -180725 -3202592.5)" gradientUnits="userSpaceOnUse">
		<stop  offset="0" style="stop-color:#423325;stop-opacity:0.98"/>
		<stop  offset="1" style="stop-color:#1C0A00"/>
	</radialGradient>
	<path display="inline" fill="url(#SVGID_6_)" d="M107.051,253.975l144.928-144.927l140.974,140.974L248.026,394.949
		L107.051,253.975z"/>
	<path display="inline" fill="#FF7F18" d="M107.051,253.975l144.928-144.927l140.974,140.974L248.026,394.949L107.051,253.975z
		 M248.027,408.125l158.103-158.103L251.979,95.873L93.877,253.975L248.027,408.125L248.027,408.125z M252.373,205.36
		c-0.527-0.527-0.594-0.988,0-1.582l10.343-10.342c0.526-0.526,0.987-0.593,1.58,0l51.977,51.977c0.526,0.526,0.657,0.923,0,1.58
		l-10.21,10.21c-0.659,0.66-1.186,0.526-1.713-0.001l-51.91-51.91L252.373,205.36L252.373,205.36z M236.695,191.13
		c-4.216-4.217-3.756-9.684,0-13.439c4.019-4.019,9.421-4.018,13.439,0c4.348,4.349,3.886,9.552-0.133,13.57
		C246.182,195.083,241.043,195.478,236.695,191.13z M243.679,257.401c-9.157-5.468-29.447-17.063-38.801-23.123l-0.132,0.132
		c6.323,9.091,15.876,25.625,23.321,38.604L243.679,257.401z M236.037,286.387l14.559,24.968c0.394,0.657,0.329,0.987-0.329,1.645
		l-9.684,9.685c-0.659,0.658-0.989,0.592-1.647-0.33l-46.772-84.188c-0.856-1.515-1.712-2.768-4.809-6.127
		c-0.461-0.46-0.46-0.856-0.131-1.185l13.833-13.833c0.46-0.46,0.791-0.528,1.449-0.133l92.028,50.131
		c0.658,0.396,0.857,0.858,0.33,1.386l-10.937,10.937c-0.525,0.525-0.988,0.723-1.581,0.393l-25.229-14.426L236.037,286.387
		L236.037,286.387z"/>
</g>
</svg>
