<?xml version="1.0" encoding="utf-8"?>
<!-- Generator: Adobe Illustrator 16.0.0, SVG Export Plug-In . SVG Version: 6.00 Build 0)  -->
<!DOCTYPE svg PUBLIC "-//W3C//DTD SVG 1.1//EN" "http://www.w3.org/Graphics/SVG/1.1/DTD/svg11.dtd">
<svg version="1.1" id="Warstwa_1" xmlns="http://www.w3.org/2000/svg" xmlns:xlink="http://www.w3.org/1999/xlink" x="0px" y="0px"
	 width="353.551px" height="353.55px" viewBox="0 0 353.551 353.55" enable-background="new 0 0 353.551 353.55"
	 xml:space="preserve">
<g id="TS">
	<rect x="0" fill="#03AEF9" width="353.551" height="353.55"/>
	
		<rect x="72.843" y="72.844" transform="matrix(0.7071 -0.7071 0.7071 0.7071 -73.2234 176.7742)" fill="#FFFFFF" width="207.865" height="207.865"/>
	<path fill="#007ACC" d="M103.286,250.272l73.49,73.488l146.985-146.983L176.777,29.792L29.792,176.777L103.286,250.272z
		 M215.879,125.963c4.666-2.799,9.17-3.985,14.488-3.896c2.801,0.09,7.444,0.723,8.237,1.194c0.231,0.136-1.865,10.819-3.337,17.099
		c-0.044,0.233-1.212,0.187-2.781-0.117c-4.644-0.866-7.815-0.071-11.054,2.756c-4.764,4.151-5.322,9.377-1.38,13.23
		c1.142,1.144,1.977,1.654,3.385,2.124c3.01,1.051,6.042,0.442,14.234-2.797c15.047-5.996,22.531-7.516,29.576-6.064
		c7.859,1.613,16.125,8.473,19.623,16.215c3.781,8.446,2.15,18.385-4.614,27.903c-2.075,2.963-8.12,8.865-11.313,11.082
		c-6.953,4.853-15.469,7.536-22.748,7.165c-2.852-0.137-9.382-1.402-9.499-1.849c-0.022-0.159,0.216-1.139,0.491-2.218l2.315-8.602
		l1.773-6.68l2.194,0.426c3.128,0.649,8.421,0.529,10.921-0.235c7.161-2.22,13.251-9.008,13.577-15.025
		c0.118-2.592-0.608-4.431-2.496-6.32c-1.706-1.705-2.66-2.248-4.827-2.637c-2.775-0.489-6.486,0.466-15.985,4.225
		c-10.847,4.318-16.146,5.552-22.351,5.315c-3.594-0.14-8.209-1.489-11.384-3.31c-2.639-1.516-7.982-6.578-9.639-9.122
		c-5.788-8.911-5.344-19.527,1.123-29.026c2.097-3.077,8.307-8.914,11.476-10.825L215.879,125.963z M187.505,166.599l6.064,5.974
		l-19.13,19.13l54.358,54.36l-13.53,13.53l-54.358-54.359l-19.13,19.131l-5.902-5.902l-5.906-6.223
		c-0.021-0.162,11.577-11.853,25.713-25.941l25.757-25.621L187.505,166.599z"/>
</g>
</svg>
