<?xml version="1.0" encoding="utf-8"?>
<!-- Generator: Adobe Illustrator 16.0.0, SVG Export Plug-In . SVG Version: 6.00 Build 0)  -->
<!DOCTYPE svg PUBLIC "-//W3C//DTD SVG 1.1//EN" "http://www.w3.org/Graphics/SVG/1.1/DTD/svg11.dtd">
<svg version="1.1" id="Warstwa_1" xmlns="http://www.w3.org/2000/svg" xmlns:xlink="http://www.w3.org/1999/xlink" x="0px" y="0px"
	 width="353.551px" height="353.55px" viewBox="0 0 353.551 353.55" enable-background="new 0 0 353.551 353.55"
	 xml:space="preserve">
<g id="Warstwa_1_1_" display="none">
	
		<rect x="73.227" y="73.226" transform="matrix(0.7071 0.7071 -0.7071 0.7071 249.9987 -103.5534)" display="inline" fill="#3DB8E8" width="353.546" height="353.546"/>
	<g display="inline">
		<path fill="#2062AF" d="M324.46,354.546l-74.994,20.191l-74.993-20.191l-17.307-187.483h184.6L324.46,354.546z"/>
		<path fill="#3C9CD7" d="M249.466,182.25v176.383l0.17,0.046l60.688-16.341l14.01-160.088H249.466L249.466,182.25z"/>
		<path d="M206.905,139.518v-11.159h16.281v-12.21h-28.491v34.512h28.491v-11.143H206.905z M252.473,128.359h11.382v-12.21h-28.493
			v12.21c3.813,3.813,5.801,5.638,11.313,11.15c-3.223,0-11.313,0.012-11.313,0.011v11.14h28.493v-11.143L252.473,128.359
			L252.473,128.359z M292.858,128.359h11.381v-12.21h-28.493v12.21c3.813,3.813,5.801,5.638,11.313,11.15
			c-3.224,0-11.313,0.012-11.313,0.011v11.14h28.494v-11.143L292.858,128.359L292.858,128.359z"/>
		<path fill="#FFFFFF" d="M249.399,229.126l-53.675,22.354l1.779,22.134l51.896-22.189l55.202-23.602l2.289-22.64L249.399,229.126
			L249.399,229.126z"/>
		
			<linearGradient id="SVGID_1_" gradientUnits="userSpaceOnUse" x1="-1573.0989" y1="-1996.2295" x2="-1573.0989" y2="-2005.8125" gradientTransform="matrix(4.6418 0 0 4.6418 7524.5732 9539.709)">
			<stop  offset="0.387" style="stop-color:#D1D3D4;stop-opacity:0"/>
			<stop  offset="1" style="stop-color:#D1D3D4"/>
		</linearGradient>
		<path fill="url(#SVGID_1_)" d="M195.724,251.48l1.779,22.133l51.896-22.188v-22.297L195.724,251.48z"/>
		
			<linearGradient id="SVGID_2_" gradientUnits="userSpaceOnUse" x1="-1561.1243" y1="-2001.0098" x2="-1561.1243" y2="-2010.9712" gradientTransform="matrix(4.6418 0 0 4.6418 7524.5732 9539.709)">
			<stop  offset="0.387" style="stop-color:#D1D3D4;stop-opacity:0"/>
			<stop  offset="1" style="stop-color:#D1D3D4"/>
		</linearGradient>
		<path fill="url(#SVGID_2_)" d="M306.891,205.183L249.4,229.126v22.297l55.202-23.602L306.891,205.183z"/>
		
			<linearGradient id="SVGID_3_" gradientUnits="userSpaceOnUse" x1="-1578.863" y1="-1991.9546" x2="-1555.845" y2="-1991.9546" gradientTransform="matrix(4.6418 0 0 4.6418 7524.5732 9539.709)">
			<stop  offset="0" style="stop-color:#E8E7E5"/>
			<stop  offset="1" style="stop-color:#FFFFFF"/>
		</linearGradient>
		<path fill="url(#SVGID_3_)" d="M195.807,251.48l1.779,22.133l79.625,0.254l-1.779,29.51l-26.201,7.377l-25.188-6.36l-1.525-18.313
			h-23.403l3.054,35.358l47.317,13.99l47.063-13.736l6.105-70.211L195.807,251.48L195.807,251.48z"/>
		<path opacity="0.05" enable-background="new    " d="M249.399,251.48h-53.675l1.779,22.133l51.896,0.167V251.48L249.399,251.48z
			 M249.399,310.684l-0.254,0.069l-25.185-6.358l-1.525-18.315h-23.403l3.053,35.358l47.314,13.991V310.684L249.399,310.684z"/>
		
			<linearGradient id="SVGID_4_" gradientUnits="userSpaceOnUse" x1="-1579.9221" y1="-2008.5322" x2="-1554.9319" y2="-2008.5322" gradientTransform="matrix(4.6418 0 0 4.6418 7524.5732 9539.709)">
			<stop  offset="0" style="stop-color:#E8E7E5"/>
			<stop  offset="1" style="stop-color:#FFFFFF"/>
		</linearGradient>
		<path fill="url(#SVGID_4_)" d="M190.891,205.183h116l-2.289,22.641H193.689L190.891,205.183L190.891,205.183z"/>
		<path opacity="0.05" enable-background="new    " d="M249.399,205.183H190.89l2.798,22.641h55.71L249.399,205.183L249.399,205.183
			z"/>
	</g>
</g>
<g id="Warstwa_2" display="none">
	
		<rect x="73.226" y="73.227" transform="matrix(0.7071 0.7071 -0.7071 0.7071 250.0008 -103.5531)" display="inline" fill="#FC7B3A" width="353.547" height="353.546"/>
	<g display="inline">
		<path fill="#E44D26" d="M173.842,355.936l-16.827-188.742h184.908l-16.849,188.712l-75.721,20.992L173.842,355.936z"/>
		<path fill="#F16529" d="M249.468,360.854l61.187-16.965l14.396-161.263h-75.583V360.854L249.468,360.854z"/>
		<path fill="#EBEBEB" d="M249.468,252.628h-30.631l-2.115-23.705h32.747v-23.148h-58.046l0.555,6.211l5.689,63.792h51.803
			L249.468,252.628L249.468,252.628z M249.468,312.75l-0.103,0.023l-25.78-6.961l-1.647-18.459H198.7l3.243,36.346l47.418,13.16
			l0.105-0.027L249.468,312.75L249.468,312.75z"/>
		<path d="M174.218,115.902h11.764v11.622h10.762v-11.622h11.764v35.195h-11.764v-11.786h-10.762v11.786h-11.762L174.218,115.902z
			 M223.976,127.575h-10.354v-11.672h32.481v11.672h-10.359v23.522h-11.767L223.976,127.575L223.976,127.575z M251.257,115.902
			h12.269l7.544,12.366l7.539-12.366h12.271v35.195h-11.718v-17.445l-8.095,12.515h-0.203l-8.099-12.515v17.445h-11.511
			L251.257,115.902L251.257,115.902z M296.732,115.902h11.767v23.563h16.546v11.632h-28.313V115.902z"/>
		<path fill="#FFFFFF" d="M249.387,252.628v23.146h28.506l-2.688,30.023l-25.817,6.967v24.086l47.457-13.152l0.347-3.912l5.44-60.94
			l0.563-6.218h-6.237H249.387L249.387,252.628z M249.387,205.775v23.148h55.916l0.463-5.202l1.055-11.735l0.558-6.211H249.387z"/>
	</g>
</g>
<g id="Warstwa_3" display="none">
	<rect x="0.001" y="0" display="inline" fill="#FFE97B" width="353.549" height="353.551"/>
	<path display="inline" fill="#F7DF1E" d="M29.793,176.777L176.776,29.792l146.985,146.984L176.777,323.76L29.793,176.777z"/>
	<path display="inline" d="M191.271,260.959l4.441-18.056c6.016,1.677,11.246,2.959,15.98-1.776
		c4.539-4.539,5.626-9.175-1.279-16.081l-46.966-46.965l13.813-13.813l47.16,47.158c14.307,14.307,12.433,29.205,0.196,41.439
		c-11.05,11.051-23.187,11.74-33.35,8.092 M238.636,210.636l4.734-17.761c7.797,1.876,15.194,1.579,22.003-5.229
		c5.723-5.724,6.511-12.233,2.563-16.181c-4.734-4.735-10.163-2.664-19.237,0.888l-4.937,1.971
		c-14.206,5.726-26.143,7.006-37.391-4.241c-10.36-10.36-10.362-26.146,1.973-38.479c8.78-8.781,18.154-12.037,30.686-8.582
		l-3.849,17.664c-6.609-1.875-10.852-0.988-14.799,2.959c-4.046,4.047-4.045,9.176-0.69,12.53c4.144,4.144,8.386,3.257,16.87-0.097
		l4.934-1.975c16.772-6.709,28.515-8.188,40.058,3.354c12.434,12.433,9.474,29.007-3.648,42.129
		C265.077,212.415,250.672,214.583,238.636,210.636"/>
</g>
<g id="Warstwa_4" display="none">
	<rect x="73.225" y="73.222" display="inline" fill="#53C1DE" width="353.549" height="353.551"/>
	<path display="inline" fill="#FFFFFF" d="M150.812,348.548c14.933,14.935,43.457,14.293,74.304-0.838
		c18.521,27.701,40.917,42.562,60.762,37.234c20.397-5.477,34.507-29.914,36.81-64.197c33.176-2.485,57.234-14.467,62.53-34.32
		c5.442-20.408-10.519-44.229-39.068-63.346c16.028-31.861,17.535-57.144,2.404-72.273c-14.586-14.587-41.814-12.598-72.303,2.274
		c-19.738-29.897-42.219-43.77-62.884-38.221c-19.924,5.349-31.803,29.931-34.151,63.77c-35.536,2.111-58.688,15.06-64.202,35.732
		c-5.317,19.934,10.048,42.502,38.191,61.436C138.737,305.757,136.284,334.021,150.812,348.548z"/>
	<path display="inline" fill="#53C1DE" d="M279.201,165.639c-2.512,1.228-4.991,2.52-7.435,3.872
		c-0.967-1.594-1.96-3.169-2.982-4.729c-16.494-25.051-36.026-38.989-51.09-34.942c-14.445,3.878-23.918,24.369-25.881,52.667
		c-0.191,2.793-0.313,5.589-0.361,8.387c-1.866,0.04-3.732,0.113-5.597,0.223c-29.94,1.777-51.77,11.74-55.789,26.809
		c-3.854,14.451,9.168,32.896,32.707,48.729c2.333,1.566,4.705,3.074,7.115,4.52c-1.61,2.89-3.103,5.742-4.456,8.545
		c-12.11,25.072-13.824,47.107-3.287,57.646c10.884,10.883,34.546,9.055,60.531-3.695c2.104-1.035,4.183-2.125,6.234-3.262
		c1.559,2.594,3.188,5.145,4.889,7.647c15.673,23.016,33.9,35.509,48.294,31.646c14.862-3.992,25.101-25.404,27.039-54.281
		c0.151-2.282,0.247-4.633,0.287-7.041c3.028-0.055,6.057-0.192,9.078-0.414c27.769-2.084,47.694-11.637,51.536-26.037
		c3.967-14.872-9.475-34.434-33.523-50.535c-1.836-1.23-3.756-2.443-5.748-3.643c0.784-1.438,1.535-2.867,2.248-4.283
		c13.462-26.805,15.774-50.685,4.746-61.714C327.18,151.173,304.697,153.202,279.201,165.639L279.201,165.639z"/>
	<path display="inline" fill="#FFFFFF" d="M323.528,218.701c-0.642,1.277-1.32,2.57-2.025,3.873
		c-9.26-4.814-19.741-9.295-31.141-13.355c-4.045-11.049-8.547-21.317-13.376-30.469c2.316-1.276,4.609-2.473,6.868-3.574
		c21.844-10.658,40.027-12.298,46.4-5.925C337.044,176.04,335.151,195.559,323.528,218.701L323.528,218.701z M330.609,240.205
		c10.634,7.121,18.911,14.896,24.021,22.334c4.592,6.684,6.246,12.545,5.149,16.65c-2.331,8.738-18.33,16.409-42.076,18.188
		c-2.723,0.205-5.541,0.334-8.44,0.392c-0.463-10.36-1.812-21.599-3.974-33.411c7.736-9.243,14.526-18.497,20.119-27.451
		C327.212,237.996,328.948,239.093,330.609,240.205L330.609,240.205z M291.193,346.669c-3.497,7.316-7.748,11.678-11.854,12.779
		c-8.732,2.346-23.37-7.688-36.771-27.371c-1.583-2.328-3.098-4.699-4.548-7.111c8.784-5.602,17.892-12.42,27.091-20.238
		c11.695,1.979,23.067,3.175,33.699,3.551c-0.035,2.145-0.124,4.286-0.266,6.426C297.689,327.475,295.086,338.527,291.193,346.669
		L291.193,346.669z M218.003,324.143c-11.49,5.635-22.365,8.901-31.362,9.601c-8.086,0.625-13.989-0.879-16.994-3.885
		c-6.395-6.395-5.018-24.084,5.34-45.529c1.303-2.688,2.684-5.338,4.143-7.945c9.346,4.949,19.702,9.541,30.738,13.619
		c4.146,11.193,8.815,21.711,13.83,31.16C221.823,322.203,219.925,323.195,218.003,324.143z M168.695,257.85
		c-20.168-13.565-30.7-28.481-28.377-37.188c2.475-9.279,20.315-17.418,46.165-18.953c1.653-0.099,3.346-0.164,5.066-0.203
		c0.379,10.58,1.572,21.858,3.554,33.473c-7.493,9.023-14.171,18.161-19.792,27.076c-2.241-1.346-4.448-2.747-6.618-4.204H168.695
		L168.695,257.85z M263.151,200.802c-4.685-1.246-9.392-2.395-14.123-3.44c6.312-4.897,12.619-9.323,18.812-13.214
		c3.338,6.364,6.523,13.323,9.501,20.742C272.638,203.433,267.907,202.071,263.151,200.802L263.151,200.802z M202.17,201.606
		c7.208,0.288,14.86,1.009,22.812,2.142c-7.243,6.588-14.17,13.512-20.762,20.752C203.132,216.587,202.448,208.914,202.17,201.606z
		 M201.221,262.835c1.266,4.711,2.64,9.392,4.125,14.037c-7.366-2.996-14.33-6.223-20.776-9.615
		c3.89-6.131,8.316-12.393,13.188-18.654C198.801,253.373,199.956,258.119,201.221,262.835z M251.596,302.123
		c-6.394,5.108-12.688,9.662-18.787,13.58c-3.456-6.557-6.749-13.67-9.812-21.195c4.656,1.479,9.346,2.851,14.066,4.107
		C241.88,299.901,246.724,301.07,251.596,302.123z M298.635,297.656c-7.393-0.281-15.184-0.979-23.212-2.078
		c3.495-3.229,6.99-6.592,10.476-10.076c3.579-3.58,7.037-7.197,10.366-10.836C297.491,282.732,298.288,290.436,298.635,297.656z
		 M294.781,222.188c7.696,3.002,14.853,6.201,21.347,9.55c-3.93,6.256-8.491,12.689-13.59,19.174
		c-1.086-4.799-2.269-9.576-3.545-14.326C297.695,231.753,296.291,226.955,294.781,222.188L294.781,222.188z M288.745,239.335
		c1.961,7.281,3.687,14.623,5.169,22.019c-4.839,5.582-10.028,11.158-15.518,16.646c-5.465,5.465-10.951,10.61-16.401,15.397
		c-7.46-1.396-14.865-3.075-22.198-5.03c-7.295-1.945-14.514-4.166-21.641-6.658c-2.5-7.123-4.731-14.336-6.688-21.627l0.002,0.002
		c-1.961-7.291-3.642-14.652-5.041-22.07c4.827-5.617,9.976-11.18,15.389-16.592c5.438-5.438,11.007-10.59,16.626-15.416
		c7.38,1.426,14.708,3.107,21.971,5.05c7.289,1.938,14.515,4.112,21.661,6.521C284.558,224.748,286.781,232.005,288.745,239.335
		L288.745,239.335z M220.446,140.085c9.271-2.488,25.236,8.9,39.476,30.53c0.927,1.411,1.827,2.838,2.702,4.281
		c-8.967,5.605-18.129,12.266-27.189,19.771c-11.697-2.047-22.945-3.293-33.372-3.684c0.047-2.583,0.16-5.166,0.334-7.742
		C204.078,158.994,211.741,142.421,220.446,140.085L220.446,140.085z"/>
	<path display="inline" fill="#53C1DE" d="M234.27,233.873c8.661-8.66,22.702-8.66,31.361,0c8.662,8.662,8.661,22.703,0.001,31.363
		c-8.66,8.661-22.703,8.659-31.363-0.001C225.609,256.576,225.609,242.535,234.27,233.873"/>
</g>
<g id="Warstwa_5" display="none">
	<rect x="73.225" y="73.222" display="inline" fill="#AE94FF" width="353.549" height="353.551"/>
	<path display="inline" fill="#764ABC" d="M308.106,234.996c6.271-7.718,5.547-19.054-1.93-26.045
		c-7.477-6.994-19.291-6.754-26.526,0.481l-0.481,0.481c-7.235,7.719-6.752,19.774,0.963,27.01
		c3.858,3.377,8.439,5.063,12.781,5.064c7.961,24.357,7.236,48.713-1.686,77.412c-6.028,19.532-16.88,35.206-31.832,46.781
		c-12.299,9.406-25.563,13.021-38.826,10.369c-19.533-4.1-33.039-16.158-39.311-35.449c-4.582-13.748-4.102-27.732-2.895-35.691
		c-4.101-2.171-10.852-6.029-15.434-9.164c-9.646,60.291,28.216,90.918,54.984,96.467c20.017,4.101,43.65-4.584,61.495-22.428
		c4.823-4.824,9.163-10.129,12.781-16.156C317.031,317.229,322.094,275.507,308.106,234.996L308.106,234.996z M320.647,162.647
		c-39.791-3.136-78.617,12.057-109.486,42.927l-3.855,3.856c-6.512-2.171-13.988-0.481-19.054,4.583l-0.481,0.482
		c-7.233,7.717-6.751,19.772,0.965,27.01c7.476,6.992,19.294,6.752,26.527-0.481l0.481-0.481c5.064-5.547,6.271-13.506,3.617-20.017
		l4.341-4.341c18.328-18.327,40.996-30.387,67.041-35.689c20.018-4.102,39.069-2.412,56.432,5.305
		c14.229,6.029,23.874,16.16,27.976,28.941c6.028,19.531,1.688,37.86-13.264,52.813c-9.646,9.646-21.705,15.915-28.697,18.567
		c-0.24,5.065-1.206,13.746-2.17,19.535c15.191-5.548,28.455-13.506,38.584-23.635c23.151-23.15,27.491-53.053,21.221-72.346
		C383.828,188.693,359.231,165.059,320.647,162.647L320.647,162.647z M232.142,319.154c7.477,6.994,19.292,6.754,26.527-0.48
		l0.483-0.483c7.231-7.716,6.751-19.772-0.965-27.008c-7.478-6.995-19.293-6.753-26.527,0.481l-0.482,0.481
		c-0.483,0.483-1.207,1.207-1.447,1.929c-26.286-6.512-48.23-20.258-66.077-40.996c-13.505-15.436-21.222-32.8-23.153-51.609
		c-1.93-15.918,7.234-33.761,16.159-43.167c25.077-26.043,67.761-5.061,81.268,6.996c3.858-2.412,10.854-6.029,15.676-8.44
		c-41.96-36.174-86.332-32.317-109.483-9.166c-21.704,21.704-26.044,57.395-10.851,88.504
		c19.774,41.962,56.673,64.389,93.568,74.277c0.485,2.895,2.414,6.271,5.309,8.684L232.142,319.154L232.142,319.154z"/>
</g>
<g id="Warstwa_6" display="none">
	<rect x="73.225" y="73.222" display="inline" fill="#F495C9" width="353.549" height="353.551"/>
	<path display="inline" fill="#CF649A" d="M337.487,151.716c-7.894,7.982-12.859,16.763-15.787,25.366
		c-6.343-2.083-12.151-3.636-15.255-6.032c-3.592-2.795-6.03-4.257-9.356-8.559c-3.326-4.301-6.52-11.928-6.963-12.372
		c-0.443-0.355-2.838-1.863-7.45,2.66c-4.61,4.522-7.628,9.402-6.873,11.042c0.755,1.64,2.616,5.277,4.878,8.692
		c3.37,4.966,9.801,28.07,12.815,40.576c-4.566-1.465-8.56-2.795-10.954-4.657c-3.592-2.794-6.032-4.257-9.355-8.56
		c-3.327-4.301-6.52-11.929-6.963-12.373c-0.442-0.354-2.839-1.861-7.448,2.66c-4.613,4.524-7.628,9.402-6.874,11.043
		c0.754,1.639,3.104,4.965,4.878,8.69c1.819,3.681,15.388,39.425,18.937,48.735c1.817,4.746,3.147,8.648,3.991,11.354
		s0.088,0.179,0.179,0.442c0.709,2.307,1.106,3.594,1.106,3.594l0.045,0.044c0.486,1.729,0.887,3.459,0.575,3.771
		c-0.222,0.223-3.636-2.308-6.962-7.14c-6.919-10.198-16.275-27.538-16.807-27.983c-0.223-0.221-1.821-3.326-6.344-1.195
		c-4.435,2.04-3.592,5.188-3.857,5.453c-0.267,0.267,0.223,1.197,0.223,1.197s-11.441-18.625-21.907-8.158
		c-6.563,6.563-8.47,22.75-6.43,33.746c-1.287,4.391-4.036,13.703-6.918,23.592c-1.109,3.771-2.217,7.717-3.326,11.396l-1.021-0.045
		c-26.208-0.844-59.246,13.036-76.452-6.121c-6.253-6.962-21.375-26.695-0.089-90.199c17.427-52.018,49.978-75.08,65.364-69.357
		c21.951,8.204,28.248,57.961-3.813,98.093c-12.196,15.3-24.745,17.208-28.56,17.029c-3.99-0.177-4.346,0-4.656,1.108
		c-0.532,1.772,2.04,2.928,3.592,3.592c3.857,1.73,13.26,2.263,23.282-2.793c8.779-4.435,26.12-19.379,38.093-46.43
		c13.393-30.334,6.963-70.911-17.693-85.544c-25.1-14.9-64.834,11.707-85.055,54.19c-12.018,25.323-21.862,55.92-22.795,84.081
		c-1.153,33.438,10.2,50.287,17.206,54.988c24.924,16.851,67.316,1.685,88.913,0.222c-0.268,0.887-0.488,1.729-0.709,2.483
		c-2.928,8.603-13.393,42.039-6.742,59.688c7.539,19.955,24.613,22.661,30.732,19.203c18.937-10.688,26.696-33.259,22.705-53.66
		c-4.034-20.354-20.842-35.21-31.84-38.669l-0.399-0.133l1.86-7.186c1.199-4.654,2.485-9.135,3.638-13.037
		c2.439,5.276,5.986,10.864,12.107,18.049c7.185,8.427,20.486,15.344,28.69,15.121c3.591-0.133,5.854-2.306,7.229-3.68
		c4.878-4.878,3.06-11.133,0.665-18.402c-2.883-8.914-7.052-18.404-7.052-18.404s15.167,21.816,24.258,12.729
		c3.325-3.326,2.351-10.955,1.641-14.68l0.045,0.045c0,0-0.045-0.222-0.178-0.71c-0.09-0.463-0.192-0.92-0.311-1.373l-0.089-0.089
		c-0.977-3.639-3.281-11.887-7.582-25.057c-5.544-16.983-14.146-36.584-14.146-36.584s3.991,2.927,11.309,6.963
		c4.345,2.396,10.153,3.947,15.387,5.898c0.533,3.193,0.8,5.057,0.8,5.057h0.09c0.354,2.484,0.666,5.188,0.932,7.938
		c0.886,9.934,1.642,21.508,2.706,23.991c1.241,2.926,2.971,4.301,5.853,3.901c2.084-0.311,4.392-2.262,6.476-4.7
		c3.813-4.347,5.633-8.203,6.43-10.243c1.418-3.018,2.749-6.74,3.415-10.953c1.151-7.716-0.798-15.078-7.273-21.021
		c-3.547-3.28-8.024-5.541-12.593-7.36c-0.178-0.974-0.354-1.952-0.577-2.972c-3.236-17.25-9.091-33.924-9.091-33.924
		s3.992,2.926,11.309,6.963c3.726,2.041,8.56,3.504,13.173,5.1c-1.198,11.93,0.887,22.261,3.547,27.76
		c4.922,10.155,10.378,11.53,15.033,8.469c2.084-1.373,3.77-4.656,4.833-7.315c1.553-3.06,3.06-7.14,3.726-11.62
		c1.152-7.717,0.843-16.542-5.542-22.484c-2.972-2.705-6.519-4.744-10.199-6.386c3.281-7.893,9.179-16.452,19.469-24.522
		c22.039-17.428,38.271-9.003,42.659-3.104c4.393,5.897,3.104,12.859,2.616,15.122c-0.533,2.218-0.664,2.973,0.09,3.46
		c1.108,0.754,1.686,0.089,2.705-1.285c1.374-1.908,6.163-14.59-2.972-24.435C382.764,132.78,357.887,131.051,337.487,151.716
		L337.487,151.716z M236.6,355.218c0.622,13.66-5.854,25.544-12.063,27.142c-6.651,1.772-15.521-10.377-15.078-25.987
		c0.267-9.488,2.352-20.088,3.903-26.873c0.354-1.508,0.933-3.77,1.597-6.476c0.089-0.442,0.179-0.708,0.179-0.708
		c0.131-0.486,0.265-1.063,0.396-1.641C229.327,328.522,235.98,340.852,236.6,355.218L236.6,355.218z M251.856,275.13
		c3.281,7.806,12.727,26.83,9.046,28.912c-3.148,1.819-15.432-7.449-22.572-21.594c-3.593-7.143-6.208-17.297-6.476-21.996
		c-0.399-7.586,2.174-12.816,4.79-12.152C239.926,249.277,249.815,270.251,251.856,275.13z M309.992,254.598
		c-0.486,1.465-1.021,2.706-1.684,2.839c-0.488,0.134-0.445-1.24-0.445-1.24s-0.354-10.201-0.842-14.591
		c-0.312-2.526-0.622-5.498-1.064-8.78l0.532,0.533C312.876,239.744,311.013,250.119,309.992,254.598L309.992,254.598z
		 M333.406,217.348c-1.239,0.178-2.792-1.552-5.543-9.091c-1.106-2.973-2.395-8.514-1.95-15.432
		c1.773,0.885,3.326,1.904,4.479,3.147C338.33,204,335.623,212.647,333.406,217.348z"/>
</g>
<g id="Warstwa_7" display="none">
	<rect x="73.225" y="73.222" display="inline" fill="#121966" width="353.549" height="353.551"/>
	
		<radialGradient id="SVGID_5_" cx="-805.1917" cy="-851.2231" r="0.0685" gradientTransform="matrix(1620.4565 -1620.4565 -1568.8966 -1568.8966 -30518.3496 -2640022.25)" gradientUnits="userSpaceOnUse">
		<stop  offset="0" style="stop-color:#34364E;stop-opacity:0.98"/>
		<stop  offset="1" style="stop-color:#0C0824"/>
	</radialGradient>
	<path display="inline" fill="url(#SVGID_5_)" d="M107.051,251.975l144.929-144.927l140.976,140.976L248.027,392.951
		L107.051,251.975z"/>
	<path display="inline" fill="#31C5F0" d="M107.051,251.975l144.929-144.927l140.976,140.976L248.027,392.951L107.051,251.975z
		 M248.027,406.125l158.104-158.103L251.979,93.873L93.877,251.975L248.027,406.125L248.027,406.125z M263.703,208.628
		c-5.203,5.205-4.346,9.617-2.171,11.793c2.37,2.369,5.203,2.832,15.812-0.528c15.348-5.333,23.384-3.755,30.434,3.294
		c10.539,10.539,8.169,24.243-2.7,35.111c-5.731,5.731-11.86,9.486-16.339,10.674c-0.66,0.262-1.053,0-1.58-0.527l-9.685-9.686
		c-0.658-0.657-0.527-1.186,0.264-1.316c6.85-1.449,12.779-5.006,17.129-9.355c5.203-5.202,5.203-9.551,2.239-12.516
		c-2.373-2.373-5.997-2.966-16.076,0.264c-13.834,4.875-22.266,4.215-29.841-3.359c-8.5-8.5-8.895-22.202,2.634-33.729
		c5.665-5.666,10.476-8.763,13.637-9.949c0.855-0.197,1.517,0.197,1.978,0.658l9.023,9.024c0.527,0.526,0.527,1.187-0.329,1.647
		C273.389,201.184,267.987,204.346,263.703,208.628L263.703,208.628z M214.89,273.123c1.646-1.386,2.833-2.57,5.467-5.207
		c7.707-7.707,12.253-17.652,1.78-28.127c-8.367-8.367-17.788-7.379-26.55,1.383c-2.634,2.636-5.006,5.271-6.127,6.522
		L214.89,273.123L214.89,273.123z M168.184,249.869c-0.461-0.463,0.132-1.716,0.658-2.242c4.02-4.412,10.146-10.803,16.669-17.326
		c18.246-18.248,35.372-15.348,48.152-2.566c16.732,16.732,11.794,36.034-3.094,50.922c-2.503,2.504-3.493,3.227-5.272,5.006
		l25.297,25.297c0.526,0.527,0.593,0.986,0,1.58l-10.08,10.08c-0.527,0.525-0.987,0.594-1.581,0L168.184,249.869L168.184,249.869z"
		/>
</g>
<g id="Warstwa_8" display="none">
	<rect x="73.224" y="75.222" display="inline" fill="#AF5504" width="353.549" height="353.551"/>
	
		<radialGradient id="SVGID_6_" cx="-805.1921" cy="-851.2241" r="0.068" gradientTransform="matrix(1620.4565 -1620.4565 -1568.8966 -1568.8966 -30518.3496 -2640022.25)" gradientUnits="userSpaceOnUse">
		<stop  offset="0" style="stop-color:#423325;stop-opacity:0.98"/>
		<stop  offset="1" style="stop-color:#1C0A00"/>
	</radialGradient>
	<path display="inline" fill="url(#SVGID_6_)" d="M107.051,253.975l144.929-144.927l140.974,140.974L248.026,394.949
		L107.051,253.975z"/>
	<path display="inline" fill="#FF7F18" d="M107.051,253.975l144.929-144.927l140.974,140.974L248.026,394.949L107.051,253.975z
		 M248.027,408.125l158.104-158.103L251.979,95.873L93.877,253.975L248.027,408.125L248.027,408.125z M252.373,205.36
		c-0.526-0.526-0.594-0.987,0-1.582l10.343-10.342c0.526-0.526,0.987-0.593,1.58,0l51.978,51.978c0.526,0.525,0.657,0.922,0,1.58
		l-10.21,10.209c-0.659,0.66-1.186,0.526-1.713,0l-51.91-51.91L252.373,205.36L252.373,205.36z M236.695,191.13
		c-4.216-4.217-3.756-9.685,0-13.439c4.019-4.019,9.421-4.018,13.438,0c4.349,4.35,3.887,9.553-0.133,13.57
		C246.182,195.083,241.043,195.478,236.695,191.13z M243.679,257.401c-9.157-5.468-29.447-17.063-38.802-23.123l-0.132,0.132
		c6.323,9.092,15.876,25.625,23.321,38.604L243.679,257.401z M236.037,286.387l14.56,24.968c0.394,0.657,0.328,0.986-0.329,1.645
		l-9.685,9.686c-0.659,0.658-0.988,0.592-1.646-0.33l-46.772-84.188c-0.855-1.516-1.712-2.769-4.809-6.127
		c-0.461-0.461-0.46-0.856-0.131-1.186l13.833-13.833c0.46-0.46,0.791-0.528,1.448-0.133l92.028,50.131
		c0.658,0.396,0.857,0.858,0.33,1.386l-10.938,10.938c-0.524,0.525-0.987,0.723-1.58,0.393l-25.229-14.426L236.037,286.387
		L236.037,286.387z"/>
</g>
<g id="TS">
	<rect x="0" fill="#03AEF9" width="353.551" height="353.55"/>
	
		<rect x="72.843" y="72.844" transform="matrix(0.7071 -0.7071 0.7071 0.7071 -73.2234 176.7742)" fill="#FFFFFF" width="207.865" height="207.865"/>
	<path fill="#007ACC" d="M103.286,250.272l73.49,73.488l146.985-146.983L176.777,29.792L29.792,176.777L103.286,250.272z
		 M215.879,125.963c4.666-2.799,9.17-3.985,14.488-3.896c2.801,0.09,7.444,0.723,8.237,1.194c0.231,0.136-1.865,10.819-3.337,17.099
		c-0.044,0.233-1.212,0.187-2.781-0.117c-4.644-0.866-7.815-0.071-11.054,2.756c-4.764,4.151-5.322,9.377-1.38,13.23
		c1.142,1.144,1.977,1.654,3.385,2.124c3.01,1.051,6.042,0.442,14.234-2.797c15.047-5.996,22.531-7.516,29.576-6.064
		c7.859,1.613,16.125,8.473,19.623,16.215c3.781,8.446,2.15,18.385-4.614,27.903c-2.075,2.963-8.12,8.865-11.313,11.082
		c-6.953,4.853-15.469,7.536-22.748,7.165c-2.852-0.137-9.382-1.402-9.499-1.849c-0.022-0.159,0.216-1.139,0.491-2.218l2.315-8.602
		l1.773-6.68l2.194,0.426c3.128,0.649,8.421,0.529,10.921-0.235c7.161-2.22,13.251-9.008,13.577-15.025
		c0.118-2.592-0.608-4.431-2.496-6.32c-1.706-1.705-2.66-2.248-4.827-2.637c-2.775-0.489-6.486,0.466-15.985,4.225
		c-10.847,4.318-16.146,5.552-22.351,5.315c-3.594-0.14-8.209-1.489-11.384-3.31c-2.639-1.516-7.982-6.578-9.639-9.122
		c-5.788-8.911-5.344-19.527,1.123-29.026c2.097-3.077,8.307-8.914,11.476-10.825L215.879,125.963z M187.505,166.599l6.064,5.974
		l-19.13,19.13l54.358,54.36l-13.53,13.53l-54.358-54.359l-19.13,19.131l-5.902-5.902l-5.906-6.223
		c-0.021-0.162,11.577-11.853,25.713-25.941l25.757-25.621L187.505,166.599z"/>
</g>
</svg>
