<?xml version="1.0" encoding="utf-8"?>
<!-- Generator: Adobe Illustrator 16.0.0, SVG Export Plug-In . SVG Version: 6.00 Build 0)  -->
<!DOCTYPE svg PUBLIC "-//W3C//DTD SVG 1.1//EN" "http://www.w3.org/Graphics/SVG/1.1/DTD/svg11.dtd">
<svg version="1.1" id="Warstwa_1" xmlns="http://www.w3.org/2000/svg" xmlns:xlink="http://www.w3.org/1999/xlink" x="0px" y="0px"
	 width="2560px" height="1447px" viewBox="0 0 2560 1447" enable-background="new 0 0 2560 1447" xml:space="preserve">
<g>
	<ellipse cx="469.575" cy="793.986" rx="12.629" ry="11.67"/>
	<ellipse cx="455.384" cy="764.23" rx="9.074" ry="8.385"/>
	<ellipse cx="381.245" cy="696.256" rx="9.084" ry="8.394"/>
	<ellipse cx="384.79" cy="731.062" rx="9.685" ry="8.95"/>
	<ellipse cx="449.783" cy="727.25" rx="5.244" ry="4.845"/>
	<line fill="none" stroke="#000000" stroke-miterlimit="10" x1="381.245" y1="696.257" x2="384.79" y2="731.061"/>
	<line fill="none" stroke="#000000" stroke-miterlimit="10" x1="381.245" y1="696.257" x2="449.783" y2="727.25"/>
	<line fill="none" stroke="#000000" stroke-miterlimit="10" x1="384.79" y1="731.061" x2="455.384" y2="764.229"/>
	<line fill="none" stroke="#000000" stroke-miterlimit="10" x1="449.783" y1="727.25" x2="455.384" y2="764.229"/>
	<line fill="none" stroke="#000000" stroke-miterlimit="10" x1="455.384" y1="764.229" x2="469.575" y2="793.986"/>
</g>
<g>
	<ellipse cx="207.084" cy="1071.234" rx="8.911" ry="8.234"/>
	<ellipse cx="293.938" cy="1136.751" rx="5.498" ry="5.081"/>
	<ellipse cx="277.395" cy="1190.531" rx="5.498" ry="5.081"/>
	<ellipse cx="317.867" cy="1202.329" rx="5.499" ry="5.081"/>
	<ellipse cx="314.618" cy="1236.94" rx="5.499" ry="5.082"/>
	<ellipse cx="330.274" cy="1276.522" rx="5.499" ry="5.081"/>
	<ellipse cx="341.271" cy="1240.488" rx="9.633" ry="8.902"/>
	<line fill="none" stroke="#000000" stroke-miterlimit="10" x1="207.084" y1="1071.233" x2="293.938" y2="1136.75"/>
	<line fill="none" stroke="#000000" stroke-miterlimit="10" x1="277.395" y1="1190.529" x2="317.867" y2="1202.329"/>
	<line fill="none" stroke="#000000" stroke-miterlimit="10" x1="293.938" y1="1136.75" x2="277.395" y2="1190.529"/>
	<line fill="none" stroke="#000000" stroke-miterlimit="10" x1="317.867" y1="1202.329" x2="314.618" y2="1236.939"/>
	<line fill="none" stroke="#000000" stroke-miterlimit="10" x1="314.618" y1="1236.939" x2="341.271" y2="1240.486"/>
	<line fill="none" stroke="#000000" stroke-miterlimit="10" x1="341.271" y1="1240.486" x2="330.274" y2="1276.521"/>
</g>
<g>
	<ellipse cx="2236.223" cy="883.445" rx="13.645" ry="12.609"/>
	<ellipse cx="2315.986" cy="847.257" rx="13.645" ry="12.608"/>
	<ellipse cx="2340.801" cy="920.878" rx="13.23" ry="12.225"/>
	<ellipse cx="2332.384" cy="875.426" rx="9.148" ry="8.454"/>
	<ellipse cx="2406.388" cy="931.116" rx="9.147" ry="8.453"/>
	<ellipse cx="2437.85" cy="1006.87" rx="9.148" ry="8.453"/>
	<ellipse cx="2282.311" cy="948.022" rx="9.148" ry="8.453"/>
	<ellipse cx="2317.761" cy="797.201" rx="9.147" ry="8.454"/>
	<line fill="none" stroke="#000000" stroke-miterlimit="10" x1="2236.223" y1="883.446" x2="2315.986" y2="847.257"/>
	<line fill="none" stroke="#000000" stroke-miterlimit="10" x1="2315.986" y1="847.257" x2="2332.384" y2="875.426"/>
	<line fill="none" stroke="#000000" stroke-miterlimit="10" x1="2332.384" y1="875.426" x2="2340.801" y2="920.879"/>
	<line fill="none" stroke="#000000" stroke-miterlimit="10" x1="2340.801" y1="920.879" x2="2406.388" y2="931.115"/>
	<line fill="none" stroke="#000000" stroke-miterlimit="10" x1="2406.388" y1="931.115" x2="2437.85" y2="1006.869"/>
</g>
<g>
	<ellipse cx="1832.188" cy="712.98" rx="5.676" ry="5.245"/>
	<ellipse cx="1854.566" cy="727.927" rx="5.676" ry="5.245"/>
	<path d="M1790.451,772.356c0,4.479-3.925,8.11-8.778,8.11c-4.848,0-8.776-3.632-8.776-8.11c0-4.481,3.929-8.111,8.776-8.111
		C1786.526,764.245,1790.451,767.875,1790.451,772.356z"/>
	<path d="M1832.188,775.632c0,4.479-3.924,8.111-8.776,8.111c-4.849,0-8.776-3.632-8.776-8.111c0-4.481,3.928-8.112,8.776-8.112
		C1828.266,767.52,1832.188,771.15,1832.188,775.632z"/>
	<line fill="none" stroke="#000000" stroke-miterlimit="10" x1="1832.188" y1="712.98" x2="1781.671" y2="772.356"/>
	<line fill="none" stroke="#000000" stroke-miterlimit="10" x1="1781.671" y1="772.356" x2="1823.411" y2="775.632"/>
	<line fill="none" stroke="#000000" stroke-miterlimit="10" x1="1823.411" y1="775.632" x2="1854.566" y2="727.926"/>
</g>
<g>
	<path d="M417.939,90.334c0,6.89-6.035,12.479-13.502,12.479c-7.459,0-13.503-5.589-13.503-12.479
		c0-6.891,6.044-12.479,13.503-12.479C411.904,77.855,417.939,83.444,417.939,90.334z"/>
	<path d="M400.806,120.637c0,6.741-5.904,12.207-13.208,12.207c-7.296,0-13.209-5.465-13.209-12.207
		c0-6.743,5.913-12.208,13.209-12.208C394.902,108.429,400.806,113.894,400.806,120.637z"/>
	<path d="M349.696,165.134c0,4.48-3.924,8.112-8.777,8.112c-4.848,0-8.778-3.632-8.778-8.112c0-4.48,3.93-8.113,8.778-8.113
		C345.772,157.021,349.696,160.654,349.696,165.134z"/>
	<path d="M287.954,217.08c0,4.479-3.924,8.113-8.777,8.113c-4.848,0-8.778-3.634-8.778-8.113c0-4.48,3.93-8.113,8.778-8.113
		C284.03,208.967,287.954,212.599,287.954,217.08z"/>
	<path d="M217.349,223.553c0,4.479-3.924,8.113-8.777,8.113c-4.849,0-8.778-3.634-8.778-8.113c0-4.48,3.93-8.113,8.778-8.113
		C213.424,215.441,217.349,219.073,217.349,223.553z"/>
	<path d="M172.739,256.312c0,4.479-3.924,8.113-8.777,8.113c-4.848,0-8.778-3.634-8.778-8.113c0-4.48,3.93-8.113,8.778-8.113
		C168.815,248.201,172.739,251.832,172.739,256.312z"/>
	<path d="M230.643,251.671c0,4.479-3.924,8.113-8.776,8.113c-4.849,0-8.778-3.634-8.778-8.113c0-4.48,3.93-8.113,8.778-8.113
		C226.719,243.559,230.643,247.191,230.643,251.671z"/>
	<path d="M381.307,278.698c0,4.479-3.925,8.113-8.777,8.113c-4.849,0-8.778-3.634-8.778-8.113c0-4.48,3.93-8.113,8.778-8.113
		C377.382,270.585,381.307,274.217,381.307,278.698z"/>
	<path d="M322.814,253.036c0,6.742-5.903,12.208-13.208,12.208c-7.296,0-13.209-5.466-13.209-12.208
		c0-6.742,5.913-12.207,13.209-12.207C316.911,240.829,322.814,246.296,322.814,253.036z"/>
	<path d="M460.48,237.476c0,4.479-3.924,8.113-8.777,8.113c-4.849,0-8.778-3.634-8.778-8.113c0-4.48,3.929-8.112,8.778-8.112
		C456.556,229.364,460.48,232.996,460.48,237.476z"/>
	<path d="M524.292,250.307c0,4.479-3.924,8.113-8.777,8.113c-4.849,0-8.777-3.634-8.777-8.113s3.929-8.112,8.777-8.112
		C520.369,242.194,524.292,245.827,524.292,250.307z"/>
	<path d="M589.875,217.08c0,4.479-3.925,8.113-8.777,8.113c-4.849,0-8.778-3.634-8.778-8.113c0-4.48,3.929-8.113,8.778-8.113
		C585.95,208.967,589.875,212.599,589.875,217.08z"/>
	<path d="M636.256,167.591c0,4.479-3.924,8.112-8.777,8.112c-4.849,0-8.777-3.633-8.777-8.112c0-4.48,3.929-8.113,8.777-8.113
		C632.333,159.478,636.256,163.111,636.256,167.591z"/>
	<path d="M424.735,338.756c0,4.479-3.924,8.112-8.777,8.112c-4.848,0-8.778-3.634-8.778-8.112c0-4.481,3.93-8.113,8.778-8.113
		C420.811,330.643,424.735,334.275,424.735,338.756z"/>
	<path d="M424.735,363.051c0,4.479-3.924,8.113-8.777,8.113c-4.848,0-8.778-3.634-8.778-8.113c0-4.48,3.93-8.113,8.778-8.113
		C420.811,354.94,424.735,358.571,424.735,363.051z"/>
	<path d="M381.394,365.508c0,4.479-3.925,8.113-8.778,8.113c-4.848,0-8.778-3.634-8.778-8.113c0-4.48,3.93-8.113,8.778-8.113
		C377.469,357.395,381.394,361.028,381.394,365.508z"/>
	<line fill="none" stroke="#000000" stroke-miterlimit="10" x1="404.437" y1="90.107" x2="387.598" y2="120.637"/>
	<line fill="none" stroke="#000000" stroke-miterlimit="10" x1="387.598" y1="120.637" x2="340.919" y2="165.134"/>
	<line fill="none" stroke="#000000" stroke-miterlimit="10" x1="340.919" y1="165.134" x2="279.177" y2="217.08"/>
	<line fill="none" stroke="#000000" stroke-miterlimit="10" x1="279.177" y1="217.08" x2="208.572" y2="223.553"/>
	<line fill="none" stroke="#000000" stroke-miterlimit="10" x1="208.572" y1="223.553" x2="163.962" y2="256.312"/>
	<line fill="none" stroke="#000000" stroke-miterlimit="10" x1="163.962" y1="256.312" x2="221.866" y2="251.671"/>
	<line fill="none" stroke="#000000" stroke-miterlimit="10" x1="221.866" y1="251.671" x2="309.606" y2="253.036"/>
	<line fill="none" stroke="#000000" stroke-miterlimit="10" x1="309.606" y1="253.036" x2="372.529" y2="278.698"/>
	<line fill="none" stroke="#000000" stroke-miterlimit="10" x1="372.529" y1="278.698" x2="415.958" y2="338.756"/>
	<line fill="none" stroke="#000000" stroke-miterlimit="10" x1="415.958" y1="338.756" x2="415.958" y2="363.051"/>
	<line fill="none" stroke="#000000" stroke-miterlimit="10" x1="415.958" y1="363.051" x2="372.616" y2="365.508"/>
	<line fill="none" stroke="#000000" stroke-miterlimit="10" x1="372.529" y1="278.698" x2="451.703" y2="237.476"/>
	<line fill="none" stroke="#000000" stroke-miterlimit="10" x1="451.703" y1="237.476" x2="515.515" y2="250.307"/>
	<line fill="none" stroke="#000000" stroke-miterlimit="10" x1="515.515" y1="250.307" x2="581.098" y2="217.08"/>
	<line fill="none" stroke="#000000" stroke-miterlimit="10" x1="581.098" y1="217.08" x2="627.479" y2="167.591"/>
</g>
<g>
	<ellipse cx="2367.38" cy="301.114" rx="5.034" ry="4.653"/>
	<path d="M2256.775,286.305c-5.73-4.012-6.855-11.546-2.507-16.844c4.335-5.289,12.497-6.33,18.226-2.318
		c5.729,4.013,6.85,11.556,2.51,16.846C2270.656,289.285,2262.5,290.318,2256.775,286.305z"/>
	<path d="M2314.432,548.163c-5.728-4.013-6.852-11.548-2.509-16.847c4.34-5.288,12.502-6.332,18.229-2.319
		c5.729,4.013,6.85,11.557,2.508,16.847C2328.316,551.143,2320.16,552.176,2314.432,548.163z"/>
	<path d="M2356.43,411.027c-3.971-2.784-4.755-8.012-1.74-11.686c3.011-3.668,8.673-4.388,12.644-1.605
		c3.973,2.784,4.751,8.012,1.739,11.68C2366.057,413.092,2360.402,413.808,2356.43,411.027z"/>
	<ellipse cx="2348.256" cy="478.149" rx="9.021" ry="8.337"/>
	<path d="M2320.483,336.774c-3.973-2.784-4.755-8.007-1.739-11.683c3.01-3.668,8.67-4.391,12.644-1.606
		c3.97,2.783,4.75,8.012,1.737,11.682C2330.113,338.841,2324.457,339.557,2320.483,336.774z"/>
	<path d="M2296.396,240.719c-3.975-2.781-4.755-8.007-1.743-11.681c3.01-3.67,8.672-4.391,12.643-1.606
		c3.975,2.78,4.751,8.014,1.739,11.68C2306.021,242.788,2300.364,243.502,2296.396,240.719z"/>
	<line fill="none" stroke="#000000" stroke-miterlimit="10" x1="2301.842" y1="234.077" x2="2264.633" y2="276.724"/>
	<line fill="none" stroke="#000000" stroke-miterlimit="10" x1="2264.633" y1="276.724" x2="2325.936" y2="330.129"/>
	<line fill="none" stroke="#000000" stroke-miterlimit="10" x1="2325.936" y1="330.129" x2="2367.38" y2="301.113"/>
	<line fill="none" stroke="#000000" stroke-miterlimit="10" x1="2367.38" y1="301.113" x2="2301.842" y2="234.077"/>
	<line fill="none" stroke="#000000" stroke-miterlimit="10" x1="2325.936" y1="330.129" x2="2361.881" y2="404.379"/>
	<line fill="none" stroke="#000000" stroke-miterlimit="10" x1="2361.881" y1="404.379" x2="2348.256" y2="478.148"/>
	<line fill="none" stroke="#000000" stroke-miterlimit="10" x1="2348.256" y1="478.148" x2="2322.293" y2="538.581"/>
</g>
<g>
	<path d="M2110.436,1271.441c0,6.391-5.598,11.575-12.521,11.575c-6.912,0-12.523-5.185-12.523-11.575
		c0-6.389,5.611-11.573,12.523-11.573C2104.838,1259.868,2110.436,1265.053,2110.436,1271.441z"/>
	<path d="M2202.782,1274.718c0,4.009-3.511,7.259-7.858,7.259c-4.332,0-7.853-3.249-7.853-7.259c0-4.011,3.519-7.259,7.853-7.259
		C2199.271,1267.459,2202.782,1270.709,2202.782,1274.718z"/>
	<line fill="none" stroke="#000000" stroke-miterlimit="10" x1="2097.913" y1="1271.441" x2="2194.924" y2="1274.718"/>
</g>
<g>
	<path d="M1565.291,1066.238c-5.332,1.506-10.976-1.261-12.605-6.192c-1.631-4.924,1.37-10.14,6.703-11.645
		c5.33-1.507,10.972,1.264,12.604,6.191C1573.623,1059.523,1570.619,1064.731,1565.291,1066.238z"/>
	<ellipse cx="1465.734" cy="1074.857" rx="5.969" ry="5.516"/>
	<path d="M1393.044,1250.116c-5.33,1.508-10.972-1.261-12.605-6.192c-1.628-4.921,1.375-10.138,6.702-11.646
		c5.331-1.505,10.976,1.27,12.603,6.192C1401.38,1243.4,1398.374,1248.61,1393.044,1250.116z"/>
	<path d="M1178.771,1295.754c-4.864,1.372-10.011-1.151-11.5-5.65c-1.486-4.488,1.252-9.248,6.116-10.622
		c4.861-1.372,10.012,1.158,11.497,5.649C1186.374,1289.628,1183.632,1294.38,1178.771,1295.754z"/>
	<path d="M1048.438,1268.771c-4.861,1.374-10.008-1.148-11.497-5.648c-1.489-4.492,1.253-9.248,6.114-10.625
		c4.861-1.371,10.01,1.158,11.496,5.648C1056.041,1262.646,1053.297,1267.398,1048.438,1268.771z"/>
	<path d="M945.609,1306.717c-4.859,1.374-10.007-1.149-11.496-5.647c-1.489-4.492,1.253-9.249,6.112-10.625
		c4.86-1.375,10.012,1.157,11.497,5.649C953.211,1300.594,950.47,1305.344,945.609,1306.717z"/>
	<ellipse cx="905.924" cy="1326.826" rx="9.208" ry="8.507"/>
	<ellipse cx="998.934" cy="1304.784" rx="5.036" ry="4.653"/>
	<line fill="none" stroke="#000000" stroke-miterlimit="10" x1="1562.337" y1="1057.316" x2="1465.734" y2="1074.857"/>
	<line fill="none" stroke="#000000" stroke-miterlimit="10" x1="1465.734" y1="1074.857" x2="1390.094" y2="1241.197"/>
	<line fill="none" stroke="#000000" stroke-miterlimit="10" x1="1390.094" y1="1241.197" x2="1176.078" y2="1287.617"/>
	<line fill="none" stroke="#000000" stroke-miterlimit="10" x1="1176.078" y1="1287.617" x2="1045.743" y2="1260.635"/>
	<line fill="none" stroke="#000000" stroke-miterlimit="10" x1="1045.743" y1="1260.635" x2="998.934" y2="1304.783"/>
	<line fill="none" stroke="#000000" stroke-miterlimit="10" x1="998.934" y1="1304.783" x2="942.919" y2="1298.581"/>
	<line fill="none" stroke="#000000" stroke-miterlimit="10" x1="942.919" y1="1298.581" x2="905.926" y2="1326.825"/>
</g>
</svg>
