<?xml version="1.0" encoding="utf-8"?>
<!-- Generator: Adobe Illustrator 16.0.0, SVG Export Plug-In . SVG Version: 6.00 Build 0)  -->
<!DOCTYPE svg PUBLIC "-//W3C//DTD SVG 1.1//EN" "http://www.w3.org/Graphics/SVG/1.1/DTD/svg11.dtd">
<svg version="1.1" id="Warstwa_1" xmlns="http://www.w3.org/2000/svg" xmlns:xlink="http://www.w3.org/1999/xlink" x="0px" y="0px"
	 width="2560px" height="1447px" viewBox="0 0 2560 1447" enable-background="new 0 0 2560 1447" xml:space="preserve">
<g opacity="0.3">
	<line fill="#E5E5E5" stroke="#E5E5E5" stroke-miterlimit="10" x1="211.17" y1="246.609" x2="214.17" y2="338.359"/>
	<circle fill="#E5E5E5" stroke="#E5E5E5" stroke-miterlimit="10" cx="249.837" cy="403.776" r="5.625"/>
	<circle fill="#E5E5E5" stroke="#E5E5E5" stroke-miterlimit="10" cx="214.17" cy="338.359" r="4.958"/>
	<circle fill="#E5E5E5" stroke="#E5E5E5" stroke-miterlimit="10" cx="211.17" cy="246.609" r="6.958"/>
	<circle fill="#E5E5E5" stroke="#E5E5E5" stroke-miterlimit="10" cx="275.003" cy="246.609" r="7.125"/>
	<circle fill="#E5E5E5" stroke="#E5E5E5" stroke-miterlimit="10" cx="137.253" cy="272.609" r="5.166"/>
	<circle fill="#E5E5E5" stroke="#E5E5E5" stroke-miterlimit="10" cx="76.753" cy="290.109" r="3.375"/>
	<circle fill="#E5E5E5" stroke="#E5E5E5" stroke-miterlimit="10" cx="193.753" cy="166.609" r="4.542"/>
	<circle fill="#E5E5E5" stroke="#E5E5E5" stroke-miterlimit="10" cx="222.253" cy="87.609" r="5.375"/>
	<line fill="#E5E5E5" stroke="#E5E5E5" stroke-miterlimit="10" x1="76.753" y1="290.109" x2="137.253" y2="272.609"/>
	<line fill="#E5E5E5" stroke="#E5E5E5" stroke-miterlimit="10" x1="137.253" y1="272.609" x2="211.17" y2="246.609"/>
	<line fill="#E5E5E5" stroke="#E5E5E5" stroke-miterlimit="10" x1="249.837" y1="403.776" x2="214.17" y2="338.359"/>
	<line fill="#E5E5E5" stroke="#E5E5E5" stroke-miterlimit="10" x1="211.17" y1="246.609" x2="275.003" y2="246.609"/>
	<line fill="#E5E5E5" stroke="#E5E5E5" stroke-miterlimit="10" x1="193.753" y1="166.609" x2="211.17" y2="246.609"/>
	<line fill="#E5E5E5" stroke="#E5E5E5" stroke-miterlimit="10" x1="222.253" y1="87.609" x2="193.753" y2="166.609"/>
</g>
<g opacity="0.3">
	<circle fill="#E5E5E5" stroke="#E5E5E5" stroke-miterlimit="10" cx="416.063" cy="684.453" r="7.125"/>
	<circle fill="#E5E5E5" stroke="#E5E5E5" stroke-miterlimit="10" cx="408.057" cy="666.287" r="5.119"/>
	<circle fill="#E5E5E5" stroke="#E5E5E5" stroke-miterlimit="10" cx="366.23" cy="624.787" r="5.125"/>
	<circle fill="#E5E5E5" stroke="#E5E5E5" stroke-miterlimit="10" cx="368.23" cy="646.037" r="5.464"/>
	<circle fill="#E5E5E5" stroke="#E5E5E5" stroke-miterlimit="10" cx="404.897" cy="643.709" r="2.958"/>
	<line fill="#E5E5E5" stroke="#E5E5E5" stroke-miterlimit="10" x1="366.23" y1="624.787" x2="368.23" y2="646.037"/>
	<line fill="#E5E5E5" stroke="#E5E5E5" stroke-miterlimit="10" x1="366.23" y1="624.787" x2="404.897" y2="643.709"/>
	<line fill="#E5E5E5" stroke="#E5E5E5" stroke-miterlimit="10" x1="368.23" y1="646.037" x2="408.057" y2="666.287"/>
	<line fill="#E5E5E5" stroke="#E5E5E5" stroke-miterlimit="10" x1="404.897" y1="643.709" x2="408.057" y2="666.287"/>
	<line fill="#E5E5E5" stroke="#E5E5E5" stroke-miterlimit="10" x1="408.057" y1="666.287" x2="416.063" y2="684.453"/>
</g>
<g opacity="0.3">
	<circle fill="#E5E5E5" stroke="#E5E5E5" stroke-miterlimit="10" cx="573.169" cy="234.912" r="5.027"/>
	<circle fill="#E5E5E5" stroke="#E5E5E5" stroke-miterlimit="10" cx="622.169" cy="274.912" r="3.102"/>
	<circle fill="#E5E5E5" stroke="#E5E5E5" stroke-miterlimit="10" cx="612.836" cy="307.746" r="3.102"/>
	<circle fill="#E5E5E5" stroke="#E5E5E5" stroke-miterlimit="10" cx="635.669" cy="314.949" r="3.102"/>
	<circle fill="#E5E5E5" stroke="#E5E5E5" stroke-miterlimit="10" cx="633.836" cy="336.079" r="3.102"/>
	<circle fill="#E5E5E5" stroke="#E5E5E5" stroke-miterlimit="10" cx="642.669" cy="360.246" r="3.102"/>
	<circle fill="#E5E5E5" stroke="#E5E5E5" stroke-miterlimit="10" cx="648.873" cy="338.246" r="5.435"/>
	<line fill="#E5E5E5" stroke="#E5E5E5" stroke-miterlimit="10" x1="573.169" y1="234.912" x2="622.169" y2="274.912"/>
	<line fill="#E5E5E5" stroke="#E5E5E5" stroke-miterlimit="10" x1="612.836" y1="307.746" x2="635.669" y2="314.949"/>
	<line fill="#E5E5E5" stroke="#E5E5E5" stroke-miterlimit="10" x1="622.169" y1="274.912" x2="612.836" y2="307.746"/>
	<line fill="#E5E5E5" stroke="#E5E5E5" stroke-miterlimit="10" x1="635.669" y1="314.949" x2="633.836" y2="336.079"/>
	<line fill="#E5E5E5" stroke="#E5E5E5" stroke-miterlimit="10" x1="633.836" y1="336.079" x2="648.873" y2="338.246"/>
	<line fill="#E5E5E5" stroke="#E5E5E5" stroke-miterlimit="10" x1="648.873" y1="338.246" x2="642.669" y2="360.246"/>
</g>
<g opacity="0.3">
	<circle fill="#E5E5E5" stroke="#E5E5E5" stroke-miterlimit="10" cx="2336.616" cy="1179.486" r="5.161"/>
	<circle fill="#E5E5E5" stroke="#E5E5E5" stroke-miterlimit="10" cx="2311.809" cy="1173.325" r="5.161"/>
	<circle fill="#E5E5E5" stroke="#E5E5E5" stroke-miterlimit="10" cx="2386.116" cy="1243.397" r="5.161"/>
	<circle fill="#E5E5E5" stroke="#E5E5E5" stroke-miterlimit="10" cx="2314.082" cy="1189.147" r="5.161"/>
	<path fill="#E5E5E5" stroke="#E5E5E5" stroke-miterlimit="10" d="M2290.944,1260.897c0,4.323-3.504,7.828-7.83,7.828
		c-4.321,0-7.826-3.505-7.826-7.828s3.505-7.828,7.826-7.828C2287.44,1253.069,2290.944,1256.574,2290.944,1260.897z"/>
	<circle fill="#E5E5E5" stroke="#E5E5E5" stroke-miterlimit="10" cx="2340.777" cy="1316.063" r="6.994"/>
	<circle fill="#E5E5E5" stroke="#E5E5E5" stroke-miterlimit="10" cx="2448.449" cy="1345.563" r="7.161"/>
	<line fill="#E5E5E5" stroke="#E5E5E5" stroke-miterlimit="10" x1="2314.082" y1="1189.147" x2="2386.116" y2="1243.397"/>
	<line fill="#E5E5E5" stroke="#E5E5E5" stroke-miterlimit="10" x1="2386.116" y1="1243.397" x2="2448.449" y2="1345.563"/>
	<line fill="#E5E5E5" stroke="#E5E5E5" stroke-miterlimit="10" x1="2448.449" y1="1345.563" x2="2340.777" y2="1316.063"/>
	<line fill="#E5E5E5" stroke="#E5E5E5" stroke-miterlimit="10" x1="2340.777" y1="1316.063" x2="2283.116" y2="1260.897"/>
	<line fill="#E5E5E5" stroke="#E5E5E5" stroke-miterlimit="10" x1="2283.116" y1="1260.897" x2="2314.082" y2="1189.147"/>
	<line fill="#E5E5E5" stroke="#E5E5E5" stroke-miterlimit="10" x1="2340.777" y1="1317.153" x2="2386.116" y2="1243.397"/>
</g>
<g opacity="0.3">
	<circle fill="#E5E5E5" stroke="#E5E5E5" stroke-miterlimit="10" cx="1221.963" cy="448.093" r="7.698"/>
	<circle fill="#E5E5E5" stroke="#E5E5E5" stroke-miterlimit="10" cx="1266.963" cy="426" r="7.698"/>
	<circle fill="#E5E5E5" stroke="#E5E5E5" stroke-miterlimit="10" cx="1280.963" cy="470.948" r="7.464"/>
	<circle fill="#E5E5E5" stroke="#E5E5E5" stroke-miterlimit="10" cx="1276.214" cy="443.198" r="5.161"/>
	<circle fill="#E5E5E5" stroke="#E5E5E5" stroke-miterlimit="10" cx="1317.964" cy="477.198" r="5.161"/>
	<circle fill="#E5E5E5" stroke="#E5E5E5" stroke-miterlimit="10" cx="1335.714" cy="523.448" r="5.161"/>
	<circle fill="#E5E5E5" stroke="#E5E5E5" stroke-miterlimit="10" cx="1247.964" cy="487.52" r="5.161"/>
	<circle fill="#E5E5E5" stroke="#E5E5E5" stroke-miterlimit="10" cx="1267.964" cy="395.439" r="5.161"/>
	<line fill="#E5E5E5" stroke="#E5E5E5" stroke-miterlimit="10" x1="1221.963" y1="448.093" x2="1266.963" y2="426"/>
	<line fill="#E5E5E5" stroke="#E5E5E5" stroke-miterlimit="10" x1="1266.963" y1="426" x2="1276.214" y2="443.198"/>
	<line fill="#E5E5E5" stroke="#E5E5E5" stroke-miterlimit="10" x1="1276.214" y1="443.198" x2="1280.963" y2="470.948"/>
	<line fill="#E5E5E5" stroke="#E5E5E5" stroke-miterlimit="10" x1="1280.963" y1="470.948" x2="1317.964" y2="477.198"/>
	<line fill="#E5E5E5" stroke="#E5E5E5" stroke-miterlimit="10" x1="1317.964" y1="477.198" x2="1335.714" y2="523.448"/>
</g>
<g opacity="0.3">
	<circle fill="#E5E5E5" stroke="#E5E5E5" stroke-miterlimit="10" cx="848.797" cy="275.151" r="5.448"/>
	<circle fill="#E5E5E5" stroke="#E5E5E5" stroke-miterlimit="10" cx="927.547" cy="303.676" r="5.448"/>
	<circle fill="#E5E5E5" stroke="#E5E5E5" stroke-miterlimit="10" cx="1093.797" cy="329.151" r="5.448"/>
	<circle fill="#E5E5E5" stroke="#E5E5E5" stroke-miterlimit="10" cx="1092.547" cy="237.901" r="5.448"/>
	<circle fill="#E5E5E5" stroke="#E5E5E5" stroke-miterlimit="10" cx="1055.653" cy="182.065" r="5.448"/>
	<circle fill="#E5E5E5" stroke="#E5E5E5" stroke-miterlimit="10" cx="1014.547" cy="148.151" r="3.698"/>
	<line fill="#E5E5E5" stroke="#E5E5E5" stroke-miterlimit="10" x1="848.797" y1="275.151" x2="927.547" y2="303.676"/>
	<line fill="#E5E5E5" stroke="#E5E5E5" stroke-miterlimit="10" x1="927.547" y1="303.676" x2="1092.547" y2="237.901"/>
	<line fill="#E5E5E5" stroke="#E5E5E5" stroke-miterlimit="10" x1="1014.547" y1="148.151" x2="1055.652" y2="182.065"/>
	<line fill="#E5E5E5" stroke="#E5E5E5" stroke-miterlimit="10" x1="1055.652" y1="182.065" x2="1092.547" y2="237.901"/>
	<line fill="#E5E5E5" stroke="#E5E5E5" stroke-miterlimit="10" x1="1092.547" y1="237.901" x2="1093.797" y2="329.151"/>
</g>
<g opacity="0.3">
	<circle fill="#E5E5E5" stroke="#E5E5E5" stroke-miterlimit="10" cx="1340.917" cy="150.323" r="6.448"/>
	<circle fill="#E5E5E5" stroke="#E5E5E5" stroke-miterlimit="10" cx="1405.667" cy="213.823" r="7.698"/>
	<circle fill="#E5E5E5" stroke="#E5E5E5" stroke-miterlimit="10" cx="1487.917" cy="322.573" r="7.698"/>
	<line fill="#E5E5E5" stroke="#E5E5E5" stroke-miterlimit="10" x1="1340.916" y1="150.323" x2="1405.666" y2="213.823"/>
	<line fill="#E5E5E5" stroke="#E5E5E5" stroke-miterlimit="10" x1="1405.666" y1="213.823" x2="1487.916" y2="322.573"/>
</g>
<g opacity="0.3">
	<circle fill="#E5E5E5" stroke="#E5E5E5" stroke-miterlimit="10" cx="1706.145" cy="384.573" r="3.202"/>
	<circle fill="#E5E5E5" stroke="#E5E5E5" stroke-miterlimit="10" cx="1718.77" cy="393.698" r="3.202"/>
	<path fill="#E5E5E5" stroke="#E5E5E5" stroke-miterlimit="10" d="M1682.597,420.823c0,2.735-2.214,4.953-4.952,4.953
		c-2.735,0-4.952-2.218-4.952-4.953s2.217-4.953,4.952-4.953C1680.383,415.87,1682.597,418.088,1682.597,420.823z"/>
	<path fill="#E5E5E5" stroke="#E5E5E5" stroke-miterlimit="10" d="M1706.145,422.823c0,2.735-2.214,4.953-4.952,4.953
		c-2.735,0-4.952-2.218-4.952-4.953s2.217-4.953,4.952-4.953C1703.931,417.87,1706.145,420.088,1706.145,422.823z"/>
	<line fill="#E5E5E5" stroke="#E5E5E5" stroke-miterlimit="10" x1="1706.145" y1="384.573" x2="1677.645" y2="420.823"/>
	<line fill="#E5E5E5" stroke="#E5E5E5" stroke-miterlimit="10" x1="1677.645" y1="420.823" x2="1701.192" y2="422.823"/>
	<line fill="#E5E5E5" stroke="#E5E5E5" stroke-miterlimit="10" x1="1701.192" y1="422.823" x2="1718.77" y2="393.698"/>
</g>
<g opacity="0.3">
	<path fill="#E5E5E5" stroke="#E5E5E5" stroke-miterlimit="10" d="M1002.332,1087.624c0,4.207-3.405,7.619-7.618,7.619
		c-4.208,0-7.618-3.412-7.618-7.619s3.41-7.619,7.618-7.619C998.927,1080.005,1002.332,1083.417,1002.332,1087.624z"/>
	<path fill="#E5E5E5" stroke="#E5E5E5" stroke-miterlimit="10" d="M992.666,1106.124c0,4.115-3.331,7.453-7.452,7.453
		c-4.116,0-7.452-3.338-7.452-7.453c0-4.116,3.336-7.453,7.452-7.453C989.335,1098.671,992.666,1102.008,992.666,1106.124z"/>
	<path fill="#E5E5E5" stroke="#E5E5E5" stroke-miterlimit="10" d="M963.832,1133.29c0,2.735-2.214,4.953-4.952,4.953
		c-2.735,0-4.952-2.218-4.952-4.953c0-2.734,2.217-4.952,4.952-4.952C961.618,1128.338,963.832,1130.556,963.832,1133.29z"/>
	<path fill="#E5E5E5" stroke="#E5E5E5" stroke-miterlimit="10" d="M928.999,1165.005c0,2.734-2.214,4.952-4.952,4.952
		c-2.735,0-4.952-2.218-4.952-4.952c0-2.735,2.217-4.953,4.952-4.953C926.785,1160.052,928.999,1162.27,928.999,1165.005z"/>
	<path fill="#E5E5E5" stroke="#E5E5E5" stroke-miterlimit="10" d="M889.166,1168.957c0,2.735-2.214,4.952-4.952,4.952
		c-2.735,0-4.952-2.217-4.952-4.952s2.217-4.952,4.952-4.952C886.952,1164.005,889.166,1166.222,889.166,1168.957z"/>
	<path fill="#E5E5E5" stroke="#E5E5E5" stroke-miterlimit="10" d="M863.999,1188.957c0,2.735-2.214,4.952-4.952,4.952
		c-2.735,0-4.952-2.217-4.952-4.952s2.217-4.952,4.952-4.952C861.785,1184.005,863.999,1186.222,863.999,1188.957z"/>
	<path fill="#E5E5E5" stroke="#E5E5E5" stroke-miterlimit="10" d="M896.666,1186.124c0,2.734-2.214,4.952-4.952,4.952
		c-2.735,0-4.952-2.218-4.952-4.952c0-2.735,2.217-4.953,4.952-4.953C894.452,1181.171,896.666,1183.389,896.666,1186.124z"/>
	<path fill="#E5E5E5" stroke="#E5E5E5" stroke-miterlimit="10" d="M981.665,1202.624c0,2.734-2.214,4.952-4.952,4.952
		c-2.735,0-4.952-2.218-4.952-4.952c0-2.735,2.217-4.953,4.952-4.953C979.451,1197.671,981.665,1199.889,981.665,1202.624z"/>
	<path fill="#E5E5E5" stroke="#E5E5E5" stroke-miterlimit="10" d="M948.666,1186.957c0,4.116-3.331,7.452-7.452,7.452
		c-4.116,0-7.452-3.336-7.452-7.452s3.336-7.453,7.452-7.453C945.335,1179.504,948.666,1182.841,948.666,1186.957z"/>
	<path fill="#E5E5E5" stroke="#E5E5E5" stroke-miterlimit="10" d="M1026.332,1177.457c0,2.735-2.214,4.952-4.952,4.952
		c-2.735,0-4.952-2.217-4.952-4.952s2.217-4.952,4.952-4.952C1024.118,1172.505,1026.332,1174.722,1026.332,1177.457z"/>
	<path fill="#E5E5E5" stroke="#E5E5E5" stroke-miterlimit="10" d="M1062.333,1185.29c0,2.735-2.214,4.953-4.952,4.953
		c-2.735,0-4.952-2.218-4.952-4.953c0-2.734,2.217-4.952,4.952-4.952C1060.119,1180.338,1062.333,1182.556,1062.333,1185.29z"/>
	<path fill="#E5E5E5" stroke="#E5E5E5" stroke-miterlimit="10" d="M1099.332,1165.005c0,2.734-2.214,4.952-4.952,4.952
		c-2.735,0-4.952-2.218-4.952-4.952c0-2.735,2.217-4.953,4.952-4.953C1097.118,1160.052,1099.332,1162.27,1099.332,1165.005z"/>
	<path fill="#E5E5E5" stroke="#E5E5E5" stroke-miterlimit="10" d="M1125.499,1134.79c0,2.735-2.214,4.953-4.952,4.953
		c-2.735,0-4.952-2.218-4.952-4.953c0-2.734,2.217-4.952,4.952-4.952C1123.285,1129.838,1125.499,1132.056,1125.499,1134.79z"/>
	<path fill="#E5E5E5" stroke="#E5E5E5" stroke-miterlimit="10" d="M1006.166,1239.29c0,2.735-2.214,4.953-4.952,4.953
		c-2.735,0-4.952-2.218-4.952-4.953c0-2.734,2.217-4.952,4.952-4.952C1003.952,1234.338,1006.166,1236.556,1006.166,1239.29z"/>
	<path fill="#E5E5E5" stroke="#E5E5E5" stroke-miterlimit="10" d="M1006.166,1254.124c0,2.734-2.214,4.953-4.952,4.953
		c-2.735,0-4.952-2.219-4.952-4.953s2.217-4.953,4.952-4.953C1003.952,1249.171,1006.166,1251.39,1006.166,1254.124z"/>
	<path fill="#E5E5E5" stroke="#E5E5E5" stroke-miterlimit="10" d="M981.714,1255.624c0,2.734-2.214,4.952-4.952,4.952
		c-2.735,0-4.952-2.218-4.952-4.952c0-2.735,2.217-4.953,4.952-4.953C979.5,1250.671,981.714,1252.889,981.714,1255.624z"/>
	<line fill="#E5E5E5" stroke="#E5E5E5" stroke-miterlimit="10" x1="994.714" y1="1087.485" x2="985.214" y2="1106.124"/>
	<line fill="#E5E5E5" stroke="#E5E5E5" stroke-miterlimit="10" x1="985.214" y1="1106.124" x2="958.88" y2="1133.29"/>
	<line fill="#E5E5E5" stroke="#E5E5E5" stroke-miterlimit="10" x1="958.88" y1="1133.29" x2="924.047" y2="1165.005"/>
	<line fill="#E5E5E5" stroke="#E5E5E5" stroke-miterlimit="10" x1="924.047" y1="1165.005" x2="884.214" y2="1168.957"/>
	<line fill="#E5E5E5" stroke="#E5E5E5" stroke-miterlimit="10" x1="884.214" y1="1168.957" x2="859.047" y2="1188.957"/>
	<line fill="#E5E5E5" stroke="#E5E5E5" stroke-miterlimit="10" x1="859.047" y1="1188.957" x2="891.714" y2="1186.124"/>
	<line fill="#E5E5E5" stroke="#E5E5E5" stroke-miterlimit="10" x1="891.714" y1="1186.124" x2="941.214" y2="1186.956"/>
	<line fill="#E5E5E5" stroke="#E5E5E5" stroke-miterlimit="10" x1="941.214" y1="1186.956" x2="976.713" y2="1202.624"/>
	<line fill="#E5E5E5" stroke="#E5E5E5" stroke-miterlimit="10" x1="976.713" y1="1202.624" x2="1001.214" y2="1239.29"/>
	<line fill="#E5E5E5" stroke="#E5E5E5" stroke-miterlimit="10" x1="1001.214" y1="1239.29" x2="1001.214" y2="1254.124"/>
	<line fill="#E5E5E5" stroke="#E5E5E5" stroke-miterlimit="10" x1="1001.214" y1="1254.124" x2="976.762" y2="1255.624"/>
	<line fill="#E5E5E5" stroke="#E5E5E5" stroke-miterlimit="10" x1="976.713" y1="1202.624" x2="1021.38" y2="1177.457"/>
	<line fill="#E5E5E5" stroke="#E5E5E5" stroke-miterlimit="10" x1="1021.38" y1="1177.457" x2="1057.381" y2="1185.29"/>
	<line fill="#E5E5E5" stroke="#E5E5E5" stroke-miterlimit="10" x1="1057.381" y1="1185.29" x2="1094.38" y2="1165.005"/>
	<line fill="#E5E5E5" stroke="#E5E5E5" stroke-miterlimit="10" x1="1094.38" y1="1165.005" x2="1120.547" y2="1134.79"/>
</g>
<g opacity="0.3">
	<circle fill="#E5E5E5" stroke="#E5E5E5" stroke-miterlimit="10" cx="2234.345" cy="624.405" r="3.108"/>
	<circle fill="#E5E5E5" stroke="#E5E5E5" stroke-miterlimit="10" cx="2242.345" cy="648.905" r="3.108"/>
	<path fill="#E5E5E5" stroke="#E5E5E5" stroke-miterlimit="10" d="M2128.614,634.783c0,2.959-2.396,5.359-5.358,5.359
		c-2.959,0-5.358-2.4-5.358-5.359s2.399-5.359,5.358-5.359C2126.219,629.423,2128.614,631.823,2128.614,634.783z"/>
	<path fill="#E5E5E5" stroke="#E5E5E5" stroke-miterlimit="10" d="M2129.864,646.655c0,2.959-2.396,5.359-5.358,5.359
		c-2.959,0-5.358-2.4-5.358-5.359s2.399-5.359,5.358-5.359C2127.469,641.295,2129.864,643.695,2129.864,646.655z"/>
	<path fill="#E5E5E5" stroke="#E5E5E5" stroke-miterlimit="10" d="M2103.864,643.546c0,2.959-2.396,5.359-5.358,5.359
		c-2.959,0-5.358-2.4-5.358-5.359s2.399-5.359,5.358-5.359C2101.469,638.187,2103.864,640.586,2103.864,643.546z"/>
	<path fill="#E5E5E5" stroke="#E5E5E5" stroke-miterlimit="10" d="M2014.146,752.033c0,2.959-2.396,5.359-5.358,5.359
		c-2.959,0-5.358-2.4-5.358-5.359s2.399-5.359,5.358-5.359C2011.751,746.674,2014.146,749.074,2014.146,752.033z"/>
	<path fill="#E5E5E5" stroke="#E5E5E5" stroke-miterlimit="10" d="M2090.614,675.283c0,4.202-3.401,7.609-7.608,7.609
		c-4.201,0-7.607-3.408-7.607-7.609c0-4.202,3.406-7.609,7.607-7.609C2087.213,667.673,2090.614,671.081,2090.614,675.283z"/>
	<path fill="#E5E5E5" stroke="#E5E5E5" stroke-miterlimit="10" d="M2107.553,756.533c0,3.754-3.039,6.799-6.798,6.799
		c-3.753,0-6.797-3.045-6.797-6.799s3.044-6.799,6.797-6.799C2104.514,749.734,2107.553,752.779,2107.553,756.533z"/>
	<path fill="#E5E5E5" stroke="#E5E5E5" stroke-miterlimit="10" d="M2184.553,756.393c0,3.754-3.039,6.799-6.798,6.799
		c-3.753,0-6.797-3.045-6.797-6.799s3.044-6.799,6.797-6.799C2181.514,749.594,2184.553,752.639,2184.553,756.393z"/>
	<line fill="#E5E5E5" stroke="#E5E5E5" stroke-miterlimit="10" x1="2008.788" y1="752.033" x2="2100.756" y2="756.533"/>
	<line fill="#E5E5E5" stroke="#E5E5E5" stroke-miterlimit="10" x1="2100.756" y1="756.533" x2="2177.756" y2="756.393"/>
	<line fill="#E5E5E5" stroke="#E5E5E5" stroke-miterlimit="10" x1="2177.756" y1="756.393" x2="2242.345" y2="648.905"/>
	<line fill="#E5E5E5" stroke="#E5E5E5" stroke-miterlimit="10" x1="2100.756" y1="756.533" x2="2083.006" y2="675.283"/>
	<line fill="#E5E5E5" stroke="#E5E5E5" stroke-miterlimit="10" x1="2083.006" y1="675.283" x2="2124.506" y2="646.655"/>
	<line fill="#E5E5E5" stroke="#E5E5E5" stroke-miterlimit="10" x1="2124.506" y1="646.655" x2="2123.256" y2="634.783"/>
	<line fill="#E5E5E5" stroke="#E5E5E5" stroke-miterlimit="10" x1="2124.506" y1="646.655" x2="2194.257" y2="603.592"/>
	<line fill="#E5E5E5" stroke="#E5E5E5" stroke-miterlimit="10" x1="2194.257" y1="603.592" x2="2234.345" y2="624.405"/>
	<path fill="#E5E5E5" stroke="#E5E5E5" stroke-miterlimit="10" d="M2200.054,603.592c0,3.202-2.592,5.799-5.798,5.799
		c-3.201,0-5.797-2.597-5.797-5.799c0-3.202,2.596-5.799,5.797-5.799C2197.462,597.793,2200.054,600.39,2200.054,603.592z"/>
	<line fill="#E5E5E5" stroke="#E5E5E5" stroke-miterlimit="10" x1="2008.788" y1="752.033" x2="2083.006" y2="675.283"/>
</g>
<g opacity="0.3">
	<path fill="#E5E5E5" stroke="#E5E5E5" stroke-miterlimit="10" d="M178.285,1037.938c0,2.813-2.276,5.091-5.091,5.091
		c-2.811,0-5.091-2.278-5.091-5.091s2.28-5.091,5.091-5.091C176.009,1032.847,178.285,1035.125,178.285,1037.938z"/>
	<path fill="#E5E5E5" stroke="#E5E5E5" stroke-miterlimit="10" d="M224.785,986.938c0,2.813-2.276,5.091-5.091,5.091
		c-2.811,0-5.091-2.278-5.091-5.091s2.28-5.091,5.091-5.091C222.509,981.847,224.785,984.125,224.785,986.938z"/>
	<path fill="#E5E5E5" stroke="#E5E5E5" stroke-miterlimit="10" d="M306.785,921.959c0,2.813-2.276,5.091-5.091,5.091
		c-2.811,0-5.091-2.278-5.091-5.091s2.28-5.091,5.091-5.091C304.509,916.868,306.785,919.146,306.785,921.959z"/>
	<path fill="#E5E5E5" stroke="#E5E5E5" stroke-miterlimit="10" d="M265.035,1051.938c0,2.813-2.276,5.091-5.091,5.091
		c-2.811,0-5.091-2.278-5.091-5.091s2.28-5.091,5.091-5.091C262.759,1046.847,265.035,1049.125,265.035,1051.938z"/>
	<path fill="#E5E5E5" stroke="#E5E5E5" stroke-miterlimit="10" d="M303.285,1055.938c0,2.813-2.276,5.091-5.091,5.091
		c-2.811,0-5.091-2.278-5.091-5.091s2.28-5.091,5.091-5.091C301.009,1050.847,303.285,1053.125,303.285,1055.938z"/>
	<path fill="#E5E5E5" stroke="#E5E5E5" stroke-miterlimit="10" d="M349.535,1069.438c0,2.813-2.276,5.091-5.091,5.091
		c-2.811,0-5.091-2.278-5.091-5.091s2.28-5.091,5.091-5.091C347.259,1064.347,349.535,1066.625,349.535,1069.438z"/>
	<path fill="#E5E5E5" stroke="#E5E5E5" stroke-miterlimit="10" d="M201.035,1082.438c0,3.917-3.17,7.091-7.091,7.091
		c-3.915,0-7.091-3.174-7.091-7.091s3.176-7.091,7.091-7.091C197.865,1075.347,201.035,1078.521,201.035,1082.438z"/>
	<line fill="#E5E5E5" stroke="#E5E5E5" stroke-miterlimit="10" x1="173.194" y1="1037.938" x2="219.694" y2="986.938"/>
	<line fill="#E5E5E5" stroke="#E5E5E5" stroke-miterlimit="10" x1="219.694" y1="986.938" x2="301.694" y2="921.959"/>
	<line fill="#E5E5E5" stroke="#E5E5E5" stroke-miterlimit="10" x1="219.694" y1="986.938" x2="259.944" y2="1051.938"/>
	<line fill="#E5E5E5" stroke="#E5E5E5" stroke-miterlimit="10" x1="193.944" y1="1081.688" x2="259.944" y2="1051.938"/>
	<line fill="#E5E5E5" stroke="#E5E5E5" stroke-miterlimit="10" x1="173.194" y1="1037.938" x2="193.944" y2="1082.438"/>
	<line fill="#E5E5E5" stroke="#E5E5E5" stroke-miterlimit="10" x1="259.944" y1="1051.938" x2="298.194" y2="1055.938"/>
	<line fill="#E5E5E5" stroke="#E5E5E5" stroke-miterlimit="10" x1="298.194" y1="1055.938" x2="344.444" y2="1069.438"/>
</g>
<g opacity="0.3">
	<path fill="#E5E5E5" stroke="#E5E5E5" stroke-miterlimit="10" d="M2087.915,185.323c0,2.813-2.276,5.091-5.091,5.091
		c-2.811,0-5.091-2.278-5.091-5.091s2.28-5.091,5.091-5.091C2085.639,180.232,2087.915,182.51,2087.915,185.323z"/>
	<path fill="#E5E5E5" stroke="#E5E5E5" stroke-miterlimit="10" d="M2203.915,104.573c0,2.813-2.276,5.091-5.091,5.091
		c-2.811,0-5.091-2.278-5.091-5.091s2.28-5.091,5.091-5.091C2201.639,99.482,2203.915,101.76,2203.915,104.573z"/>
	<path fill="#E5E5E5" stroke="#E5E5E5" stroke-miterlimit="10" d="M2239.415,83.323c0,2.813-2.276,5.091-5.091,5.091
		c-2.811,0-5.091-2.278-5.091-5.091s2.28-5.091,5.091-5.091C2237.139,78.232,2239.415,80.51,2239.415,83.323z"/>
	<path fill="#E5E5E5" stroke="#E5E5E5" stroke-miterlimit="10" d="M2231.915,155.573c0,2.813-2.276,5.091-5.091,5.091
		c-2.811,0-5.091-2.278-5.091-5.091s2.28-5.091,5.091-5.091C2229.639,150.482,2231.915,152.76,2231.915,155.573z"/>
	<path fill="#E5E5E5" stroke="#E5E5E5" stroke-miterlimit="10" d="M2148.788,326.383c0,2.813-2.276,5.091-5.091,5.091
		c-2.811,0-5.091-2.278-5.091-5.091s2.28-5.091,5.091-5.091C2146.512,321.292,2148.788,323.571,2148.788,326.383z"/>
	<path fill="#E5E5E5" stroke="#E5E5E5" stroke-miterlimit="10" d="M2287.915,390.823c0,2.813-2.276,5.091-5.091,5.091
		c-2.811,0-5.091-2.278-5.091-5.091s2.28-5.091,5.091-5.091C2285.639,385.732,2287.915,388.01,2287.915,390.823z"/>
	<path fill="#E5E5E5" stroke="#E5E5E5" stroke-miterlimit="10" d="M2389.165,369.073c0,2.813-2.276,5.091-5.091,5.091
		c-2.811,0-5.091-2.278-5.091-5.091s2.28-5.091,5.091-5.091C2386.889,363.982,2389.165,366.26,2389.165,369.073z"/>
	<path fill="#E5E5E5" stroke="#E5E5E5" stroke-miterlimit="10" d="M2442.416,374.164c0,2.813-2.277,5.091-5.092,5.091
		c-2.811,0-5.09-2.278-5.09-5.091s2.279-5.091,5.09-5.091C2440.139,369.073,2442.416,371.351,2442.416,374.164z"/>
	<path fill="#E5E5E5" stroke="#E5E5E5" stroke-miterlimit="10" d="M2037.165,181.573c0,4.056-3.282,7.341-7.341,7.341
		c-4.053,0-7.341-3.285-7.341-7.341s3.288-7.341,7.341-7.341C2033.883,174.232,2037.165,177.517,2037.165,181.573z"/>
	<path fill="#E5E5E5" stroke="#E5E5E5" stroke-miterlimit="10" d="M2049.165,223.323c0,4.056-3.282,7.341-7.341,7.341
		c-4.053,0-7.341-3.285-7.341-7.341s3.288-7.341,7.341-7.341C2045.883,215.982,2049.165,219.267,2049.165,223.323z"/>
	<path fill="#E5E5E5" stroke="#E5E5E5" stroke-miterlimit="10" d="M2184.165,225.776c0,4.056-3.282,7.341-7.341,7.341
		c-4.053,0-7.341-3.285-7.341-7.341s3.288-7.341,7.341-7.341C2180.883,218.435,2184.165,221.72,2184.165,225.776z"/>
	<path fill="#E5E5E5" stroke="#E5E5E5" stroke-miterlimit="10" d="M2181.506,366.732c0,4.056-3.281,7.341-7.341,7.341
		c-4.053,0-7.341-3.285-7.341-7.341s3.288-7.341,7.341-7.341C2178.225,359.391,2181.506,362.676,2181.506,366.732z"/>
	<circle fill="#E5E5E5" stroke="#E5E5E5" stroke-miterlimit="10" cx="2113.824" cy="105.823" r="2.841"/>
	<circle fill="#E5E5E5" stroke="#E5E5E5" stroke-miterlimit="10" cx="2253.824" cy="119.073" r="2.841"/>
	<circle fill="#E5E5E5" stroke="#E5E5E5" stroke-miterlimit="10" cx="2068.454" cy="215.982" r="2.841"/>
	<line fill="#E5E5E5" stroke="#E5E5E5" stroke-miterlimit="10" x1="2041.824" y1="223.323" x2="2068.455" y2="215.982"/>
	<line fill="#E5E5E5" stroke="#E5E5E5" stroke-miterlimit="10" x1="2068.455" y1="215.982" x2="2082.824" y2="185.323"/>
	<line fill="#E5E5E5" stroke="#E5E5E5" stroke-miterlimit="10" x1="2029.824" y1="181.573" x2="2082.824" y2="185.323"/>
	<line fill="#E5E5E5" stroke="#E5E5E5" stroke-miterlimit="10" x1="2041.824" y1="223.323" x2="2029.824" y2="181.573"/>
	<line fill="#E5E5E5" stroke="#E5E5E5" stroke-miterlimit="10" x1="2082.824" y1="185.323" x2="2113.824" y2="105.823"/>
	<line fill="#E5E5E5" stroke="#E5E5E5" stroke-miterlimit="10" x1="2113.824" y1="105.823" x2="2198.824" y2="104.573"/>
	<line fill="#E5E5E5" stroke="#E5E5E5" stroke-miterlimit="10" x1="2198.824" y1="104.573" x2="2234.324" y2="83.323"/>
	<line fill="#E5E5E5" stroke="#E5E5E5" stroke-miterlimit="10" x1="2234.324" y1="83.323" x2="2253.824" y2="119.073"/>
	<line fill="#E5E5E5" stroke="#E5E5E5" stroke-miterlimit="10" x1="2253.824" y1="119.073" x2="2226.824" y2="155.573"/>
	<line fill="#E5E5E5" stroke="#E5E5E5" stroke-miterlimit="10" x1="2226.824" y1="155.573" x2="2176.824" y2="225.776"/>
	<path fill="#E5E5E5" stroke="#E5E5E5" stroke-miterlimit="10" d="M2162.256,289.276c0,4.056-3.281,7.341-7.341,7.341
		c-4.053,0-7.341-3.285-7.341-7.341s3.288-7.341,7.341-7.341C2158.975,281.935,2162.256,285.22,2162.256,289.276z"/>
	<line fill="#E5E5E5" stroke="#E5E5E5" stroke-miterlimit="10" x1="2176.824" y1="225.776" x2="2154.915" y2="289.276"/>
	<line fill="#E5E5E5" stroke="#E5E5E5" stroke-miterlimit="10" x1="2154.915" y1="289.276" x2="2143.697" y2="326.383"/>
	<line fill="#E5E5E5" stroke="#E5E5E5" stroke-miterlimit="10" x1="2143.697" y1="326.383" x2="2174.165" y2="366.732"/>
	<line fill="#E5E5E5" stroke="#E5E5E5" stroke-miterlimit="10" x1="2174.165" y1="366.732" x2="2282.824" y2="390.823"/>
	<line fill="#E5E5E5" stroke="#E5E5E5" stroke-miterlimit="10" x1="2282.824" y1="390.823" x2="2384.074" y2="369.073"/>
	<line fill="#E5E5E5" stroke="#E5E5E5" stroke-miterlimit="10" x1="2384.074" y1="369.073" x2="2437.324" y2="374.164"/>
</g>
<g opacity="0.3">
	<circle fill="#E5E5E5" stroke="#E5E5E5" stroke-miterlimit="10" cx="1751.478" cy="1124.816" r="2.841"/>
	<path fill="#E5E5E5" stroke="#E5E5E5" stroke-miterlimit="10" d="M1781.969,1180.005c0,4.056-3.282,7.341-7.341,7.341
		c-4.053,0-7.341-3.285-7.341-7.341s3.288-7.341,7.341-7.341C1778.687,1172.664,1781.969,1175.949,1781.969,1180.005z"/>
	<path fill="#E5E5E5" stroke="#E5E5E5" stroke-miterlimit="10" d="M1889.72,1057.505c0,4.056-3.283,7.341-7.342,7.341
		c-4.053,0-7.341-3.285-7.341-7.341s3.288-7.341,7.341-7.341C1886.437,1050.164,1889.72,1053.449,1889.72,1057.505z"/>
	<path fill="#E5E5E5" stroke="#E5E5E5" stroke-miterlimit="10" d="M1808.685,1089.201c0,2.813-2.276,5.092-5.092,5.092
		c-2.811,0-5.09-2.279-5.09-5.092s2.279-5.09,5.09-5.09C1806.408,1084.111,1808.685,1086.389,1808.685,1089.201z"/>
	<path fill="#E5E5E5" stroke="#E5E5E5" stroke-miterlimit="10" d="M1849.219,1068.12c0,2.813-2.276,5.091-5.091,5.091
		c-2.811,0-5.091-2.278-5.091-5.091s2.28-5.091,5.091-5.091C1846.942,1063.029,1849.219,1065.308,1849.219,1068.12z"/>
	<path fill="#E5E5E5" stroke="#E5E5E5" stroke-miterlimit="10" d="M1784.81,1132.748c0,2.813-2.275,5.091-5.091,5.091
		c-2.811,0-5.091-2.278-5.091-5.091s2.28-5.091,5.091-5.091C1782.534,1127.657,1784.81,1129.936,1784.81,1132.748z"/>
	<path fill="#E5E5E5" stroke="#E5E5E5" stroke-miterlimit="10" d="M1746.287,1179.005c0,2.813-2.276,5.091-5.091,5.091
		c-2.811,0-5.091-2.278-5.091-5.091s2.28-5.091,5.091-5.091C1744.011,1173.914,1746.287,1176.192,1746.287,1179.005z"/>
	<line fill="#E5E5E5" stroke="#E5E5E5" stroke-miterlimit="10" x1="1741.196" y1="1179.005" x2="1774.628" y2="1180.005"/>
	<line fill="#E5E5E5" stroke="#E5E5E5" stroke-miterlimit="10" x1="1774.628" y1="1180.005" x2="1779.719" y2="1132.748"/>
	<line fill="#E5E5E5" stroke="#E5E5E5" stroke-miterlimit="10" x1="1779.719" y1="1132.748" x2="1751.478" y2="1124.816"/>
	<line fill="#E5E5E5" stroke="#E5E5E5" stroke-miterlimit="10" x1="1751.478" y1="1124.816" x2="1741.196" y2="1179.005"/>
	<line fill="#E5E5E5" stroke="#E5E5E5" stroke-miterlimit="10" x1="1779.719" y1="1132.748" x2="1803.593" y2="1089.201"/>
	<line fill="#E5E5E5" stroke="#E5E5E5" stroke-miterlimit="10" x1="1803.593" y1="1089.201" x2="1844.128" y2="1068.12"/>
	<line fill="#E5E5E5" stroke="#E5E5E5" stroke-miterlimit="10" x1="1844.128" y1="1068.12" x2="1882.378" y2="1057.505"/>
</g>
<g opacity="0.3">
	<path fill="#E5E5E5" stroke="#E5E5E5" stroke-miterlimit="10" d="M270.218,1329.603c0,3.901-3.158,7.066-7.065,7.066
		c-3.9,0-7.065-3.165-7.065-7.066s3.165-7.066,7.065-7.066C267.06,1322.536,270.218,1325.701,270.218,1329.603z"/>
	<path fill="#E5E5E5" stroke="#E5E5E5" stroke-miterlimit="10" d="M343.884,1297.22c0,2.981-2.413,5.399-5.398,5.399
		c-2.98,0-5.398-2.418-5.398-5.399s2.418-5.399,5.398-5.399C341.471,1291.82,343.884,1294.238,343.884,1297.22z"/>
	<path fill="#E5E5E5" stroke="#E5E5E5" stroke-miterlimit="10" d="M369.217,1248.178c0,2.981-2.413,5.399-5.398,5.399
		c-2.98,0-5.398-2.418-5.398-5.399s2.418-5.399,5.398-5.399C366.804,1242.778,369.217,1245.196,369.217,1248.178z"/>
	<path fill="#E5E5E5" stroke="#E5E5E5" stroke-miterlimit="10" d="M244.217,1266.019c0,2.981-2.413,5.399-5.398,5.399
		c-2.98,0-5.398-2.418-5.398-5.399s2.418-5.399,5.398-5.399C241.804,1260.619,244.217,1263.037,244.217,1266.019z"/>
	<path fill="#E5E5E5" stroke="#E5E5E5" stroke-miterlimit="10" d="M168.55,1281.309c0,2.981-2.413,5.399-5.398,5.399
		c-2.98,0-5.398-2.418-5.398-5.399s2.418-5.399,5.398-5.399C166.137,1275.909,168.55,1278.327,168.55,1281.309z"/>
	<path fill="#E5E5E5" stroke="#E5E5E5" stroke-miterlimit="10" d="M129.551,1253.577c0,2.981-2.413,5.399-5.398,5.399
		c-2.98,0-5.398-2.418-5.398-5.399s2.418-5.399,5.398-5.399C127.138,1248.178,129.551,1250.596,129.551,1253.577z"/>
	<path fill="#E5E5E5" stroke="#E5E5E5" stroke-miterlimit="10" d="M216.55,1381.554c0,2.981-2.413,5.399-5.398,5.399
		c-2.98,0-5.398-2.418-5.398-5.399s2.418-5.399,5.398-5.399C214.137,1376.154,216.55,1378.572,216.55,1381.554z"/>
	<circle fill="#E5E5E5" stroke="#E5E5E5" stroke-miterlimit="10" cx="378.819" cy="1259.619" r="2.841"/>
	<circle fill="#E5E5E5" stroke="#E5E5E5" stroke-miterlimit="10" cx="158.753" cy="1334.669" r="2.841"/>
	<line fill="#E5E5E5" stroke="#E5E5E5" stroke-miterlimit="10" x1="124.152" y1="1253.577" x2="163.152" y2="1281.309"/>
	<line fill="#E5E5E5" stroke="#E5E5E5" stroke-miterlimit="10" x1="163.152" y1="1281.309" x2="158.753" y2="1334.669"/>
	<line fill="#E5E5E5" stroke="#E5E5E5" stroke-miterlimit="10" x1="163.152" y1="1281.309" x2="238.819" y2="1266.019"/>
	<line fill="#E5E5E5" stroke="#E5E5E5" stroke-miterlimit="10" x1="238.819" y1="1266.019" x2="263.152" y2="1329.603"/>
	<line fill="#E5E5E5" stroke="#E5E5E5" stroke-miterlimit="10" x1="263.152" y1="1329.603" x2="211.152" y2="1381.554"/>
	<line fill="#E5E5E5" stroke="#E5E5E5" stroke-miterlimit="10" x1="263.152" y1="1329.603" x2="338.485" y2="1297.22"/>
	<line fill="#E5E5E5" stroke="#E5E5E5" stroke-miterlimit="10" x1="338.485" y1="1297.22" x2="378.819" y2="1259.619"/>
	<line fill="#E5E5E5" stroke="#E5E5E5" stroke-miterlimit="10" x1="378.819" y1="1259.619" x2="363.819" y2="1248.178"/>
</g>
<g opacity="0.3">
	<path fill="#E5E5E5" stroke="#E5E5E5" stroke-miterlimit="10" d="M1172.559,1348.308c0,3.901-3.158,7.066-7.065,7.066
		c-3.9,0-7.065-3.165-7.065-7.066s3.165-7.066,7.065-7.066C1169.4,1341.241,1172.559,1344.406,1172.559,1348.308z"/>
	<path fill="#E5E5E5" stroke="#E5E5E5" stroke-miterlimit="10" d="M1224.656,1350.308c0,2.447-1.981,4.432-4.431,4.432
		c-2.446,0-4.431-1.984-4.431-4.432s1.985-4.432,4.431-4.432C1222.675,1345.876,1224.656,1347.86,1224.656,1350.308z"/>
	<line fill="#E5E5E5" stroke="#E5E5E5" stroke-miterlimit="10" x1="1165.493" y1="1348.308" x2="1220.225" y2="1350.308"/>
</g>
<g opacity="0.3">
	<path fill="#E5E5E5" stroke="#E5E5E5" stroke-miterlimit="10" d="M1169.393,724.275c1.191,2.91-0.197,6.235-3.111,7.429
		c-2.909,1.19-6.236-0.203-7.428-3.113s0.202-6.237,3.111-7.428C1164.878,719.97,1168.201,721.365,1169.393,724.275z"/>
	<circle fill="#E5E5E5" stroke="#E5E5E5" stroke-miterlimit="10" cx="1179.791" cy="779.72" r="3.368"/>
	<path fill="#E5E5E5" stroke="#E5E5E5" stroke-miterlimit="10" d="M1290.105,810.729c1.191,2.909-0.197,6.235-3.111,7.428
		c-2.909,1.191-6.236-0.202-7.428-3.112s0.202-6.237,3.111-7.429C1285.592,806.423,1288.914,807.818,1290.105,810.729z"/>
	<circle fill="#E5E5E5" stroke="#E5E5E5" stroke-miterlimit="10" cx="1324.146" cy="930.513" r="5.194"/>
	<path fill="#E5E5E5" stroke="#E5E5E5" stroke-miterlimit="10" d="M1319.303,1003.274c1.088,2.654-0.18,5.688-2.838,6.776
		c-2.653,1.087-5.688-0.185-6.775-2.839s0.185-5.689,2.838-6.776C1315.186,999.347,1318.217,1000.62,1319.303,1003.274z"/>
	<circle fill="#E5E5E5" stroke="#E5E5E5" stroke-miterlimit="10" cx="1342.894" cy="1060.882" r="5.194"/>
	<circle fill="#E5E5E5" stroke="#E5E5E5" stroke-miterlimit="10" cx="1361.981" cy="1080.081" r="5.194"/>
	<circle fill="#E5E5E5" stroke="#E5E5E5" stroke-miterlimit="10" cx="1343.762" cy="1029.064" r="2.84"/>
	<line fill="#E5E5E5" stroke="#E5E5E5" stroke-miterlimit="10" x1="1164.123" y1="726.433" x2="1179.791" y2="779.72"/>
	<line fill="#E5E5E5" stroke="#E5E5E5" stroke-miterlimit="10" x1="1179.791" y1="779.72" x2="1284.836" y2="812.886"/>
	<line fill="#E5E5E5" stroke="#E5E5E5" stroke-miterlimit="10" x1="1284.836" y1="812.886" x2="1324.146" y2="930.513"/>
	<line fill="#E5E5E5" stroke="#E5E5E5" stroke-miterlimit="10" x1="1324.146" y1="930.513" x2="1314.496" y2="1005.243"/>
	<line fill="#E5E5E5" stroke="#E5E5E5" stroke-miterlimit="10" x1="1314.496" y1="1005.243" x2="1343.762" y2="1029.064"/>
	<line fill="#E5E5E5" stroke="#E5E5E5" stroke-miterlimit="10" x1="1343.762" y1="1029.064" x2="1342.894" y2="1060.882"/>
	<line fill="#E5E5E5" stroke="#E5E5E5" stroke-miterlimit="10" x1="1342.894" y1="1060.882" x2="1361.981" y2="1080.08"/>
</g>
</svg>
