<?xml version="1.0" encoding="utf-8"?>
<!-- Generator: Adobe Illustrator 16.0.0, SVG Export Plug-In . SVG Version: 6.00 Build 0)  -->
<!DOCTYPE svg PUBLIC "-//W3C//DTD SVG 1.1//EN" "http://www.w3.org/Graphics/SVG/1.1/DTD/svg11.dtd">
<svg version="1.1" id="Warstwa_1" xmlns="http://www.w3.org/2000/svg" xmlns:xlink="http://www.w3.org/1999/xlink" x="0px" y="0px"
	 width="50px" height="50px" viewBox="0 0 50 50" enable-background="new 0 0 50 50" xml:space="preserve">
<g opacity="0.6">
	<path fill="#68462A" d="M30.494,22.119c0.357,0,0.646-0.288,0.646-0.646v-1.291H29.85v-0.646h-8.397
		c-0.357,0-0.646,0.291-0.646,0.646v9.044c0,0.354,0.289,0.646,0.646,0.646h8.397v-2.586h0.646c0.356,0,0.646-0.289,0.646-0.646
		v-1.292H29.85v-0.646h0.646c0.356,0,0.646-0.289,0.646-0.645v-1.293H29.85v-0.646L30.494,22.119L30.494,22.119z M26.62,22.123
		c0.711,0,1.288,0.577,1.288,1.29c0,0.711-0.577,1.289-1.288,1.289c-0.712,0-1.289-0.577-1.289-1.289
		C25.332,22.7,25.908,22.123,26.62,22.123z M23.389,29.227h-0.645v-9.043h0.645V29.227z M28.557,27.287h-3.875v-0.645
		c0-0.715,0.578-1.293,1.293-1.293l0,0h1.291c0.715,0,1.291,0.581,1.291,1.293V27.287z"/>
</g>
<rect x="17.026" y="16.196" transform="matrix(-0.7071 -0.7071 0.7071 -0.7071 25.964 59.8476)" opacity="0.6" fill="none" stroke="#68462A" stroke-width="0.75" stroke-miterlimit="10" width="16.7" height="16.701"/>
</svg>
