<?xml version="1.0" encoding="utf-8"?>
<!-- Generator: Adobe Illustrator 16.0.0, SVG Export Plug-In . SVG Version: 6.00 Build 0)  -->
<!DOCTYPE svg PUBLIC "-//W3C//DTD SVG 1.1//EN" "http://www.w3.org/Graphics/SVG/1.1/DTD/svg11.dtd">
<svg version="1.1" id="Warstwa_1" xmlns="http://www.w3.org/2000/svg" xmlns:xlink="http://www.w3.org/1999/xlink" x="0px" y="0px"
	 width="50px" height="50px" viewBox="0 0 50 50" enable-background="new 0 0 50 50" xml:space="preserve">
<rect x="17.102" y="16.197" transform="matrix(0.7071 0.7071 -0.7071 0.7071 24.8124 -10.8079)" opacity="0.6" fill="none" stroke="#68462A" stroke-width="0.75" stroke-miterlimit="10" width="16.701" height="16.7"/>
<path opacity="0.6" fill="none" stroke="#68462A" stroke-width="0.75" stroke-miterlimit="10" d="M31.158,25.251v-1.41l-1.219-0.258
	c-0.119-0.553-0.338-1.069-0.635-1.528l0.68-1.044l-0.996-0.997l-1.043,0.681c-0.459-0.299-0.977-0.517-1.529-0.635l-0.258-1.218
	h-1.41l-0.257,1.218c-0.554,0.118-1.07,0.336-1.529,0.634l-1.044-0.68l-0.997,0.997l0.679,1.044
	c-0.297,0.459-0.515,0.975-0.633,1.529l-1.218,0.257v1.41l1.218,0.258c0.118,0.554,0.336,1.069,0.634,1.53l-0.68,1.042l0.997,0.998
	l1.042-0.681l0,0c0.459,0.3,0.976,0.516,1.529,0.634l0.258,1.22h1.41l0.257-1.22c0.554-0.116,1.07-0.334,1.529-0.634l1.043,0.681
	l0.996-0.998l-0.678-1.042c0.299-0.461,0.516-0.977,0.633-1.528L31.158,25.251z M25.453,27.398c-1.576,0-2.852-1.277-2.852-2.853
	c0-1.576,1.276-2.852,2.852-2.852c1.574,0,2.854,1.276,2.854,2.852C28.307,26.121,27.027,27.398,25.453,27.398z"/>
<path opacity="0.6" fill="none" stroke="#000000" stroke-width="0.75" stroke-miterlimit="10" d="M19.65,23.006"/>
<path opacity="0.6" fill="none" stroke="#000000" stroke-width="0.75" stroke-miterlimit="10" d="M21.542,21.116"/>
<path opacity="0.6" fill="none" stroke="#000000" stroke-width="0.75" stroke-miterlimit="10" d="M28.461,21.117"/>
<path opacity="0.6" fill="none" stroke="#000000" stroke-width="0.75" stroke-miterlimit="10" d="M30.35,23.005"/>
<path opacity="0.6" fill="none" stroke="#000000" stroke-width="0.75" stroke-miterlimit="10" d="M31.229,25.127"/>
<path opacity="0.6" fill="none" stroke="#000000" stroke-width="0.75" stroke-miterlimit="10" d="M31.229,27.803"/>
<path opacity="0.6" fill="none" stroke="#000000" stroke-width="0.75" stroke-miterlimit="10" d="M30.35,29.923"/>
<path opacity="0.6" fill="none" stroke="#000000" stroke-width="0.75" stroke-miterlimit="10" d="M28.459,31.813"/>
<path opacity="0.6" fill="none" stroke="#000000" stroke-width="0.75" stroke-miterlimit="10" d="M26.336,32.691"/>
<path opacity="0.6" fill="none" stroke="#000000" stroke-width="0.75" stroke-miterlimit="10" d="M23.663,32.691"/>
<path opacity="0.6" fill="none" stroke="#000000" stroke-width="0.75" stroke-miterlimit="10" d="M21.54,31.813"/>
<path opacity="0.6" fill="none" stroke="#000000" stroke-width="0.75" stroke-miterlimit="10" d="M19.652,29.924"/>
</svg>
