<?xml version="1.0" encoding="utf-8"?>
<!-- Generator: Adobe Illustrator 16.0.0, SVG Export Plug-In . SVG Version: 6.00 Build 0)  -->
<!DOCTYPE svg PUBLIC "-//W3C//DTD SVG 1.1//EN" "http://www.w3.org/Graphics/SVG/1.1/DTD/svg11.dtd">
<svg version="1.1" id="Warstwa_1" xmlns="http://www.w3.org/2000/svg" xmlns:xlink="http://www.w3.org/1999/xlink" x="0px" y="0px"
	 width="50px" height="50px" viewBox="0 0 50 50" enable-background="new 0 0 50 50" xml:space="preserve">
<g>
	
		<rect x="7.822" y="7.822" transform="matrix(-0.7071 0.7071 -0.7071 -0.7071 60.3553 25)" fill="#FFFFFF" width="34.355" height="34.355"/>
	<path fill="#E5E5E5" d="M25,1.414L48.586,25L25,48.586L1.414,25L25,1.414 M25,0L0,25l25,25l25-25L25,0L25,0z"/>
</g>
<path fill="#E5E5E5" d="M19.209,23.698c1.55,3.045,4.046,5.533,7.092,7.092l2.368-2.367c0.289-0.291,0.721-0.39,1.098-0.259
	c1.207,0.4,2.506,0.614,3.842,0.614c0.592,0,1.078,0.484,1.078,1.077v3.756c0,0.592-0.484,1.076-1.078,1.076
	c-10.107,0-18.297-8.19-18.297-18.298c0-0.593,0.482-1.077,1.076-1.077h3.768c0.589,0,1.076,0.483,1.076,1.077
	c0,1.345,0.216,2.637,0.612,3.842c0.121,0.378,0.032,0.798-0.269,1.098L19.209,23.698z"/>
</svg>
