<?xml version="1.0" encoding="utf-8"?>
<!-- Generator: Adobe Illustrator 16.0.0, SVG Export Plug-In . SVG Version: 6.00 Build 0)  -->
<!DOCTYPE svg PUBLIC "-//W3C//DTD SVG 1.1//EN" "http://www.w3.org/Graphics/SVG/1.1/DTD/svg11.dtd">
<svg version="1.1" id="Warstwa_1" xmlns="http://www.w3.org/2000/svg" xmlns:xlink="http://www.w3.org/1999/xlink" x="0px" y="0px"
	 width="50px" height="50px" viewBox="0 0 50 50" enable-background="new 0 0 50 50" xml:space="preserve">
<g>
	<g>
		<path fill="#E5E5E5" d="M25,1.414L48.586,25L25,48.586L1.414,25L25,1.414 M25,0L0,25l25,25l25-25L25,0L25,0z"/>
	</g>
</g>
<path display="none" fill="#BBAC9F" d="M19.209,23.698c1.55,3.045,4.046,5.533,7.092,7.092l2.368-2.367
	c0.289-0.291,0.721-0.39,1.098-0.259c1.207,0.4,2.506,0.614,3.842,0.614c0.592,0,1.078,0.484,1.078,1.077v3.756
	c0,0.592-0.484,1.076-1.078,1.076c-10.107,0-18.297-8.19-18.297-18.298c0-0.593,0.482-1.077,1.076-1.077h3.768
	c0.589,0,1.076,0.483,1.076,1.077c0,1.345,0.216,2.637,0.612,3.842c0.121,0.378,0.032,0.798-0.269,1.098L19.209,23.698z"/>
<g display="none">
	<g display="inline">
		<path fill="#E5E5E5" d="M24.997,27.288l-7.583-2.103v2.066v1.447c0,1.622,3.398,2.94,7.59,2.94c4.189,0,7.586-1.318,7.586-2.94
			c0-0.015-0.006-0.024-0.006-0.041v-3.473L24.997,27.288z"/>
		<path fill="#E5E5E5" d="M12.288,22.768l2.708,0.872l0.233-0.445l0.994-0.076l0.14,0.133l-0.853,0.183l-0.125,0.332
			c0,0-1.928,3.636-1.645,5.412c0,0,1.206,0.645,2.408,0l0.319-4.86v-0.405l1.793-0.365l-0.127,0.281l-1.334,0.392l0.615,0.198
			l7.583,2.104l7.587-2.104l5.129-1.652L24.997,18.36L12.288,22.768z"/>
	</g>
</g>
<rect x="-11.667" y="5.125" fill="#E5E5E5" width="4.25" height="4.167"/>
<rect x="-12.083" y="11.75" fill="none" stroke="#BBAC9F" stroke-miterlimit="10" width="5.208" height="4.875"/>
<rect x="-12.625" y="18.969" fill="#BBAC9F" width="5.208" height="4.875"/>
<rect x="-11.667" y="-1" fill="none" stroke="#E5E5E5" stroke-miterlimit="10" width="4.25" height="4.167"/>
<path display="none" fill="none" stroke="#E5E5E5" stroke-width="0.75" stroke-miterlimit="10" d="M37.579,26.553v-3.109
	l-2.688-0.568c-0.263-1.219-0.744-2.357-1.399-3.369l1.499-2.303l-2.196-2.198l-2.3,1.501c-1.013-0.659-2.153-1.14-3.372-1.399
	l-0.569-2.687h-3.109l-0.566,2.687c-1.221,0.259-2.36,0.741-3.372,1.397l-2.302-1.499l-2.199,2.198l1.497,2.303
	c-0.654,1.012-1.135,2.15-1.395,3.371l-2.686,0.566v3.109l2.686,0.568c0.26,1.221,0.741,2.357,1.399,3.374l-1.501,2.3l2.199,2.2
	l2.298-1.503l0,0c1.012,0.663,2.151,1.137,3.37,1.399l0.57,2.688h3.109l0.566-2.688c1.221-0.258,2.36-0.736,3.372-1.399l2.3,1.503
	l2.196-2.2l-1.494-2.3c0.659-1.017,1.137-2.153,1.396-3.369L37.579,26.553z M25,31.287c-3.476,0-6.288-2.816-6.288-6.289
	c0-3.476,2.813-6.289,6.288-6.289c3.471,0,6.292,2.813,6.292,6.289C31.292,28.471,28.471,31.287,25,31.287z"/>
<path display="none" fill="#E5E5E5" d="M25.002,23.913c3.065,0,5.575-2.51,5.575-5.58c0-3.066-2.51-5.575-5.575-5.575
	c-3.069,0-5.579,2.509-5.579,5.575C19.423,21.403,21.929,23.913,25.002,23.913z M25.002,26.7c-3.769,0-11.158,1.813-11.158,5.58
	v2.787h22.312V32.28C36.151,28.516,28.765,26.7,25.002,26.7z"/>
<g>
	<path fill="#E5E5E5" d="M29.916,18.903v-3.092l-0.878-0.88h-8.075l-0.879,0.88v3.092h-6.32v16.162l22.472,0.004V18.922
		L29.916,18.903z M21.84,16.688h6.32v2.215h-6.32V16.688z"/>
</g>
</svg>
